<svg xmlns="http://www.w3.org/2000/svg" viewBox="0 0 499.7 537.58"><defs><style>.cls-1{fill:#7acab5;}</style></defs><g id="Layer_2" data-name="Layer 2"><g id="Layer_1-2" data-name="Layer 1"><path class="cls-1" d="M180.62,414.18c.46-.46.92-.23,1.38,0C181.54,414.41,181.08,414.64,180.62,414.18Z"/><path class="cls-1" d="M50.87,157.86c.52-.12.41-.87,1-1.13.19-.09.39-.15.58-.22a1.51,1.51,0,0,0-.16.48,18.32,18.32,0,0,1,0,2c0,.63-.34,1.23-.39,1.86a2.54,2.54,0,0,0,.64,2.45,1.31,1.31,0,0,1,.34.87,16.34,16.34,0,0,1,0,2.71c-.08.77.26,1.49.07,2.28-.11.45-.42,1.27.56,1.43,0,0,.09.37,0,.43-1.26,1-.52,2.26-.23,3.33a9.22,9.22,0,0,0,1.37,2.14c.54.85,1.09,1.7,1.56,2.59,1.35,2.55,2.83,5.05,3.46,7.91.1.45.64.87.06,1.46-.18.18.11.91.31,1.34a9.25,9.25,0,0,1,1,3.83,2.16,2.16,0,0,0,.25.74,1.36,1.36,0,0,0,.24.24c.06-.09.15-.16.17-.26.12-.63.27-1.26.34-1.9.24-2.28.44-4.57.69-6.85a5.52,5.52,0,0,1,4.92-4.93c.6,0,1,0,.85.79-.29,1.24-.63,2.46-.9,3.7-.41,1.86-.84,3.71-.15,5.63a3.17,3.17,0,0,1,0,2,11.66,11.66,0,0,0-.31,3.1c-.14,1.29-.39,2.56-.53,3.85-.06.53.21,1.15,0,1.6s-1.06.79-1.1,1.23c-.1,1.17-1,1.14-1.71,1.58-1.38.87-3,.28-4.38.95-.15.07-.56-.27-.78-.49-1.77-1.74-3.5-3.52-5.28-5.25A55,55,0,0,0,49,195.27a19.46,19.46,0,0,0-3.6-2A20.7,20.7,0,0,1,39.67,189c-.63-.64-.24-1.38-.33-2.07a1.48,1.48,0,0,1,.57-.18c1-.12,2.05-.29,3.08-.33a11.63,11.63,0,0,1,4.9,1.29c1.4.59,2.73,1.35,4.1,2a2,2,0,0,0,.81.08c.48,0,.59-.22.33-.62-1.05-1.65-1.44-3.69-3-5-.54-.47-.11-1.34-.92-1.85-.56-.36-.59-1.47-1.09-2a4.27,4.27,0,0,1-1.18-3.44c.25-1.55-.43-2.88-.5-4.32a5.65,5.65,0,0,0-.34-1.39c-.2-.59-.8-1.38-.6-1.71.44-.73.09-1.21-.07-1.81-.52-2-1-4-1.53-6-.51-2.17-1-4.36-1.44-6.54.76-1.38-.31-2.71-.13-4.1a12.78,12.78,0,0,0-.6-4.14,9.17,9.17,0,0,1,0-3.22,6.6,6.6,0,0,0-.35-3.33,2.61,2.61,0,0,1,0-1.68,9.14,9.14,0,0,0,.31-3.44c.13-3.18.06-6.38.41-9.54.19-1.72.1-3.43.29-5.13.28-2.56.56-5.12.75-7.7a23.94,23.94,0,0,1,.28-3.6c.61-2.66.06-5.43.93-8.1a20,20,0,0,0,.7-5.14A1,1,0,0,1,46,95a6.06,6.06,0,0,1,5.62,1.91,10.39,10.39,0,0,1,1.32,2.16c.11.21.21.42.31.64.12-.2.24-.4.37-.59s.23-.29.34-.43c.11.2.34.42.32.61-.2,1.89-.32,3.8-.7,5.66a26.31,26.31,0,0,1-1.4,3.83,46.36,46.36,0,0,0-2.56,6.74,21.6,21.6,0,0,0-.76,7.52c.14,1,.28,2,.39,3.06.05.46,0,.94.06,1.4s.26.91.34,1.38a9.74,9.74,0,0,1,.22,1.61c0,.69.25.42.51.14.08-.08.15-.21.24-.23a2.82,2.82,0,0,1,.58,0c-.06.18-.09.5-.19.52-.87.2-.91,1-1.12,1.6,0,.12.09.29.14.44a1.9,1.9,0,0,1,.19-.21l.5-.44c.06.2.13.4.18.6.24,1-.41,1.63-.78,2.4a2.22,2.22,0,0,0-.11.69l.48-.4c.2-.18.39-.38.58-.57,0,.3.19.67.08.9a22.22,22.22,0,0,0-1.26,4.58c-.09.35-.12,1,.52.31,0,0,.46.16.46.26a2.77,2.77,0,0,1-.07,1.32,9,9,0,0,0-.32,5.23c.27,1.67-.26,3.45-.13,5.15s-.5,3.34.55,5m-2.55,20.73c-.12-.12-.23-.24-.35-.35s-.24-.2-.36-.3c0,.19-.12.43,0,.55a4.68,4.68,0,0,0,.69.72A.71.71,0,0,0,48.32,178.59Z"/><path class="cls-1" d="M241.2,198.64h.51c0,.12,0,.32,0,.35a2.47,2.47,0,0,0-1.17,2,2.31,2.31,0,0,1-.25.74c-.22.41-.41.13-.59-.06-.16.15-.39.28-.47.47a21.93,21.93,0,0,1-2.73,4.47,8.11,8.11,0,0,0-.72,2.08,1.37,1.37,0,0,1-1.39,1.13c-2,0-4.07,0-6.11,0a.92.92,0,0,1-1-.67,24.4,24.4,0,0,1-1.39-4.18c-.2-1.08-.65-2.1-.91-3.23.87-.57.55-1.35.58-2,0-.15-.19-.3-.3-.45-.12.14-.34.26-.34.4,0,.66,0,1.32,0,2-.23-.21-.6-.39-.66-.64-.38-1.82-1.47-3.42-1.43-5.38,0-.8-.66-1.5-.67-2.44,0-1.51-.4-3-.51-4.52a5.93,5.93,0,0,1,.28-2.17,2,2,0,0,1,1.32-1.18c.75-.29,1.66.75,2.29-.32a.43.43,0,0,1,.29.07c.62,1.12,2.34,1,2.74,2.38,0,.09.15.16.23.24a1.63,1.63,0,0,0,.19-.37c.5-2.23,1-4.47,1.49-6.69.46-2,1-4,.23-6.09a.65.65,0,0,1,0-.51c.78-1.29-.34-2.52-.15-3.69.16-.95-.28-1.72-.19-2.57a6.3,6.3,0,0,0-1.4-4.35,48.19,48.19,0,0,1-5.73-9.87c-.7-1.75-1.11-3.62-1.73-5.4a18.35,18.35,0,0,0-1.84-4.49,11.11,11.11,0,0,1-1.49-4,25.06,25.06,0,0,1-.39-4.6,14.65,14.65,0,0,0-2.8-8.21c-.72-1-1.48-1.87-2.19-2.82a11.09,11.09,0,0,1-1.13-2.58c-.73-1.9-2.15-3.33-3.35-4.9s-2.31-3-3.44-4.53a1.83,1.83,0,0,1-.34-.87c-.14-1.48-.29-3-.34-4.45,0-1.11.48-1.57,1.6-1.59a3.64,3.64,0,0,1,1.66.1c.69.35,1.7.2,2,1.25.24.8,1.11,1.38.84,2.38a1.6,1.6,0,0,0,.1.63,5,5,0,0,1,.23-.65,1.71,1.71,0,0,1,.29-.32c.13.13.37.27.37.39a4.88,4.88,0,0,0,1.44,3.68,17.69,17.69,0,0,0,2.51,2.86,14.92,14.92,0,0,1,4.2,5.53,11.65,11.65,0,0,0,2.21,3.17,14.19,14.19,0,0,1,3.1,5.16c.13.34-.44.79.18,1.19a3,3,0,0,1,1.32,3c-.07.31-.33.6-.31.88,0,.75.45-.29.6.09a1.91,1.91,0,0,1,.06.48,5.78,5.78,0,0,1,0,1c-.45,2.88.67,5.42,1.72,8,.77,1.89,1.64,3.74,2.42,5.62a11.29,11.29,0,0,1,.62,2.13,3.54,3.54,0,0,0,1.07,2.28,1.77,1.77,0,0,1,.37.69A20.28,20.28,0,0,0,237,161a21.37,21.37,0,0,1,2.07,3.38,6.59,6.59,0,0,1,.8,1.53,14.91,14.91,0,0,1,.36,2.41c.07.8.32.24.53.09l.36-.29a1.34,1.34,0,0,1,.13.45,14.67,14.67,0,0,1-.37,2.91,8.27,8.27,0,0,0-.08,4.19,6.46,6.46,0,0,1-.3,2.17,11.11,11.11,0,0,0-.26,1.25,36.51,36.51,0,0,1-1.43,7.9,17.31,17.31,0,0,0-.95,4.87,5.77,5.77,0,0,1,0,1.95c-.29,1-.06,1.14,1.15,1.13s2.31-.18,3.23.83c.74.81.77,1.44-.09,2.13-.29.23-.62.4-1,.69a1,1,0,0,0-.11.4l.19-.32M213.67,124l.32,0a.68.68,0,0,1-.32-.36l-.09-.43-.22.06a2.89,2.89,0,0,1,.31.71m10.54,71.71c-.23-.52-.46-1.05-.68-1.58a6.25,6.25,0,0,1-.16-.62,1.71,1.71,0,0,0-.17.59c.08.52.22,1,.33,1.56s0,1.35.36,1.69c.6.6-.44,1,0,1.44.16.17.31.43.48.45s.43-.26.46-.43a2.69,2.69,0,0,0,0-1.13c-.14-.56-.38-1.09-.58-2m3.4,10.2a2.09,2.09,0,0,1-.32-.7c0-.48,0-.95-.62-1.08a9.67,9.67,0,0,0,.28,1.32.74.74,0,0,0,.66.46M229,162.11c-.11-.34-.21-.69-.35-1,0,0-.22,0-.33,0,.09.52-.33,1.29.68,1m-2.38,40.44-.46-.8a4.59,4.59,0,0,0-.21.81c0,.61.22.67.67,0m13.59-33.31.09.43.22-.06C240.45,169.43,240.4,169.25,240.18,169.24Z"/><path class="cls-1" d="M110.26,217.25a6.79,6.79,0,0,0-.24-1.13c0-.14.08-.3.13-.45.12.1.23.25.36.28s.48.72.47.08c0-1.33.66-.26,1-.31s.72.23,1,.16.7-.29.81-.24a16.23,16.23,0,0,1,5.19,2.64.43.43,0,0,0,.44,0,.49.49,0,0,0,.11-.43c-.57-1.11-.17-2.2-.13-3.33a22.6,22.6,0,0,0,.14-4.27,4.53,4.53,0,0,1,.15-3.09.7.7,0,0,0,0-.35c-.43-1.76.31-3.4.46-5.09.06-.7,1-.74.77-1.57a3.53,3.53,0,0,1,0-2c.56-1.59.14-3.21.32-4.8.08-.65-.33-1.23-.06-1.94a6.18,6.18,0,0,0,0-2,7.68,7.68,0,0,1,0-2.2c.65-2.09.17-4.25.55-6.37a12.1,12.1,0,0,0-.16-5,5.73,5.73,0,0,1,.23-3.92c.14-.28,0-.67,0-1a41,41,0,0,1,1.29-8.8c.76-2.83,1-5.78,1.8-8.61a42.72,42.72,0,0,0,1-11.65,16.61,16.61,0,0,0-.33-2.41c-.28-1.69-.59-3.38-.85-5.07,0-.08.26-.3.41-.3a4.42,4.42,0,0,1,4.52,3.58,28.41,28.41,0,0,0,.7,2.93,17.65,17.65,0,0,1,1,5c.08,1.06.46,2.1.56,3.16a13.44,13.44,0,0,1,.05,3.69c-.3,1.49-.35,3-.64,4.48s-.69,2.89-1,4.34c-.37,1.72-.63,3.46-1,5.18-.88,3.72-.65,7.5-.65,11.27,0,.68-.32,1.44.29,2.09.12.12-.15.58-.22.89s-.41.87.39,1c.12,0,.21.68.18,1-.05.66-.3,1.3-.29,2s.29,1.38.29,2.06a7.76,7.76,0,0,1-.23,2.27c-.2.68.57,1.61.53,2.4s-1,1.61-.57,2.42c.62,1.13-.26,2.07-.1,3.15a14.25,14.25,0,0,1-.22,3.1c0,.56-.06,1.12-.06,1.67,0,1.65.08,3.29,0,4.93a17.63,17.63,0,0,0,1.49,7.2,6.27,6.27,0,0,1,0,3.88c-.36,1.28-.57,2.63-.88,3.9-.36,1.5.26,2.79.13,4.17a1.41,1.41,0,0,0,.24.74c.05.09.23.11.35.17,0-.11.1-.25.06-.31-.68-1-.18-2.18-.31-3.26,0-.12.22-.28.35-.41.1.15.29.3.3.46,0,.62,0,1.24,0,1.87a2.61,2.61,0,0,0,0,.84c.08.21.36.34.55.51a2.06,2.06,0,0,0,.1-.63c-.07-.36-.24-.7-.31-1.06,0-.07.18-.27.29-.28s.35.13.36.22c.07.72.1,1.44.17,2.16a.53.53,0,0,0,.24.32,3.15,3.15,0,0,0,3,.13,4.18,4.18,0,0,1,2.56-.12c1.11.19,1.55.91,1.09,2-1.22,2.72-2.76,5.14-5.68,6.4a15.47,15.47,0,0,0-5.34,3.94c-.34.37-.68,1-1.31.29,0-.06-.24-.05-.32,0-.88.53-1.87.3-2.77.49a2.4,2.4,0,0,1-1.8-.16,2,2,0,0,0-.71-.33,3.31,3.31,0,0,1-3-2.1,3.36,3.36,0,0,0-.52-.62l-.15,1s0,.12,0,.16l.55.86s-.13.06-.14.05a4.85,4.85,0,0,1-1.06-1.12,3.9,3.9,0,0,1-.35-1.72c0-1.54-.76-2.87-1-4.33-.06-.29-.33-.79-.27-.83,1.14-.74-.14-1.36-.08-2,0-.08-.21-.16-.22-.24-.25-2.73-1.58-5.15-2.14-7.78a3.13,3.13,0,0,0-.16-.62,1.7,1.7,0,0,0-.35-.36c-.06.14-.19.3-.16.43a29.8,29.8,0,0,0,1.34,4.53c.37.93.71,1.86,1,2.81.06.2-.13.48-.21.72-.15-.16-.37-.3-.44-.49q-.93-2.43-1.79-4.87a11.45,11.45,0,0,1-.48-1.83c-.24-1.34-.42-2.68-.55-4.11m5.19,9.43-.1-.43-.22.07a2.92,2.92,0,0,1,.32.7l.09.44.22-.07a2.89,2.89,0,0,1-.31-.71m.85,6.63H116c.23.92.46,1.83.71,2.74,0,.12.23.19.35.28,0-.15.15-.32.12-.45a20.55,20.55,0,0,0-.84-2.57m13.76-5.95a8,8,0,0,0,0,.85c0,.1.18.28.22.26.27-.09.48-1.27.3-1.6l-.53.49m-10.2-21.75.68-.35a.71.71,0,0,0-.68.35M131.76,228a6,6,0,0,0-.38-.5s-.17.08-.25.12a.81.81,0,0,0,.63.38m-9.52-45.2.21.13C122.44,182.87,122.43,182.77,122.24,182.84Z"/><path class="cls-1" d="M418.63,308.09a31,31,0,0,1,4.05,8.85,8.59,8.59,0,0,1,0,1.69c0,.23.14.63.26.64.69.11.39.59.36.91s-.35,1-.26,1.39c.16.72.57,1.39,0,2.12-.09.11,0,.45.08.62a5.15,5.15,0,0,1,.55,3.49c-.12,1.18.78,2,.92,3.05.09.63.27,1.15-.28,1.63a.83.83,0,0,0-.25.57,8.75,8.75,0,0,0,.09,1.14c.08-.32.15-.64.24-1a1.78,1.78,0,0,1,.12-.29,2,2,0,0,1,.35.28.9.9,0,0,1,.2.43c.12,1.48.3,3,.33,4.44a16.61,16.61,0,0,0,1.35,5.73,18.25,18.25,0,0,1,1,3.82c.18,1.19.19,2.41.29,3.6a13.16,13.16,0,0,1-.75,3.73,4.29,4.29,0,0,0-.18.77c0,.61-.19,1.41.89.64.3-.21,1.08-.2.49.65-.16.23,0,.67,0,1,0,.17.07.43,0,.49-.31.22-.76.3-1,.58s-.07.87-.3,1a3.93,3.93,0,0,0-1.37,2.5,2.64,2.64,0,0,1-.64,1.28,1.2,1.2,0,0,0-.41.67,6.12,6.12,0,0,0,.15,1.27c.17-.32.34-.65.5-1a25.4,25.4,0,0,1,1.2-2.39c.59-.92,1.1-1,1.85-.19s1.35,1.61,2.06,2.37c.49.52.51,1-.06,1.4-1.32.92-1.17,2.59-1.93,3.8-.28.45.29.54.7.2.11-.09.37,0,.57,0-.12.18-.2.42-.37.53a6,6,0,0,1-.86.36c-.16.08-.39.21-.42.35a10.12,10.12,0,0,1-2.05,4.59c-.05.06,0,.22,0,.33a.85.85,0,0,0,.36,0c.33-.21.64-.45,1-.68-.1.46-.05,1.1-.34,1.35-1.08.93-.15,1.73.15,2.48a11.42,11.42,0,0,0,1.38,1.81,2.54,2.54,0,0,1,.15.9c-.2-.12-.41-.23-.6-.37s-.22-.27-.37-.34a3.47,3.47,0,0,0-.9-.42c-.4.6.26.48.49.69a1.09,1.09,0,0,1,.24.57,9.24,9.24,0,0,1,.1.92,3.79,3.79,0,0,0-.49-.63c-.48-.41-.86-1.33-1.61-.93s.2,1,.16,1.59a5.34,5.34,0,0,0,.21,1.35c-.28-.35-.56-.69-.83-1-.15-.19-.28-.56-.41-.56a3.65,3.65,0,0,1-2.63-.69c-.13-.1-.55,0-.76.15-.47.3-.54.23-.76-.32s-.92-.76-1.3-1.22a2.5,2.5,0,0,1-.65-1.32,3.78,3.78,0,0,1,.34-2.05c.85-1.38-.05-2.54-.64-3.37a20.78,20.78,0,0,1-2.15-4.74,15.91,15.91,0,0,0-2.93-5.25,3.42,3.42,0,0,1-.6-.94c-.49-1.11-.13-1.61,1.08-1.7,2-.15,3.32,1,4.74,2.1.18.13.3.35.49.46a1.52,1.52,0,0,0,.57.08,1.79,1.79,0,0,0,0-.46q-.14-1.15-.3-2.31c1.1-.58.38-1.77.84-2.54A1.5,1.5,0,0,0,420,357a3.43,3.43,0,0,1-.69-2.86,8.34,8.34,0,0,0-.3-2.06,3.39,3.39,0,0,1,0-1.19,11.07,11.07,0,0,0,0-5.22,16.51,16.51,0,0,1,0-2.54c0-.12-.16-.23-.25-.34-.14.12-.36.22-.4.37a5.82,5.82,0,0,0,0,.84c0,.38-.09.76-.13,1.13a7.77,7.77,0,0,1-.35-1.34,5.08,5.08,0,0,1,.16-1.45c.07-.29.94.28.69-.58a4.68,4.68,0,0,1,0-1.35,13,13,0,0,0,0-1.53c-.21-1.67-.48-3.32-.66-5a17.18,17.18,0,0,1,0-2.38,7.07,7.07,0,0,0-.73-3.43c-.21-.43,0-.63,0-.93,0-.7-.42-1.21-.91-.89-.65.42-.73.17-.85-.36-.07-.31-.22-.6-.26-.91s.13-.37.2-.56c.16.16.32.32.46.49s.28.35.42.53c.09-.23.27-.46.25-.68a20.22,20.22,0,0,0-.38-3.58c-.57-2.24-1.28-4.45-2-6.65q-1-2.91-2.06-5.77c-.1-.28-.55-.42-.81-.66a4,4,0,0,1-1.16-1.16c-.2-.42-.77-1,.07-1.54s-.37-.86-.37-1.37c-.56-1.22-1-2.46-1.53-3.64s-.83-2.5-1.91-3.45a2.9,2.9,0,0,1-.68-1.89,5.54,5.54,0,0,0-.69-2.1,61.17,61.17,0,0,1-3.21-7,8.59,8.59,0,0,0-1.43-2.62c-1.23-1.47-1.42-3.4-2.46-4.94-.12-.19.07-.6.13-.9,0-.13-.2-2.13-.22-2.22-.1-.35-.34-.76-.24-1a3.59,3.59,0,0,0,0-3,.88.88,0,0,1,0-.33c-.11-1.76-.24-3.52-.33-5.29a6.34,6.34,0,0,0-.53-2.84,7.3,7.3,0,0,1-.47-3,9.31,9.31,0,0,0-.65-3.14c-.28-.69.1-1.1.82-.86a4.28,4.28,0,0,1,1.62,1c.81.81,1.52,1.73,2.26,2.62.09.11.11.42.16.42,1.35,0,.93.5.33,1.08-.07.07-.17.21-.14.27.71,1.61.16,3.44,1.33,5.08a17.41,17.41,0,0,1,3.17,6.66c.18.91.82,1.68.25,2.65.74,1-.22,2.5,1.12,3.29.16.09.22.48.23.73a6.3,6.3,0,0,1-.12,1,4.94,4.94,0,0,0-.25-.83,2.37,2.37,0,0,0-.47-.48c-.06.26-.24.58-.15.76.92,1.9,1.41,4,3,5.56a4,4,0,0,1,.69,1.73,15.42,15.42,0,0,0,.71,2.59c1.85,3.54,3.81,7,5.68,10.55a2.72,2.72,0,0,1,.37,1.68c-.21.86,1,1.64.05,2.45l1.8,2.14c.08-.26.16-.52.24-.87,1,.46.51,1.52.84,2.3a.87.87,0,0,1-.42-.09c-.24-.36-.4-.63-.56-.9-.07.06-.21.16-.19.18a4.09,4.09,0,0,0,.38.68c.05.07.19.09.29.13m-8.16-15.81.31,0a.7.7,0,0,1-.31-.37l-.32,0a.68.68,0,0,1,.32.36m3.74,7.14c.15.61.28,1.22.47,1.81.05.14.3.21.46.31,0-.15.13-.35.07-.46-.31-.62-.66-1.22-1-2-.12-.29-.21-.59-.35-.87-.67-1.36-1.34-2.71-2-4a3,3,0,0,0-.59-.6,3.22,3.22,0,0,0,.2.69c.69,1.46,1.38,2.92,2.11,4.36.13.26.44.43.67.81m12.06,45.37c-.23-.68-.45-1.37-.71-2.05-.05-.12-.23-.19-.35-.29,0,.15-.15.32-.12.45a12,12,0,0,1,.7,3.76c0,.37.28.76.44,1.15a9.54,9.54,0,0,0,.2-1.17,5.93,5.93,0,0,0-.16-1.85M400.1,281.92l1.07,1.06a1.92,1.92,0,0,0,.35.23c0-.19.06-.42,0-.57-.61-1.09-1.25-2.17-1.87-3.25-.09-.16-.16-.33-.24-.5,0,.21-.16.44-.11.62a15.08,15.08,0,0,0,.83,2.41M420.49,355a6.67,6.67,0,0,0,.15-1.25c0-.15-.27-.34-.46-.43s-.3,0-.45.07c.1.15.16.38.3.45.7.34-.09.8.46,1.16m3.57-24.3-.22-.46a3.14,3.14,0,0,0-.42,1c0,.19.35.41.54.61a10,10,0,0,0,.1-1.12m-19.2-56.93a5.29,5.29,0,0,0-.13.54l.21.06a.82.82,0,0,0-.08-.6M411,307.07l.13-.21c-.1,0-.2,0-.13.21m13.42,28.38-.2-.14c0,.1,0,.21.2.14m.34,2.38.21.13C424.94,337.86,424.92,337.76,424.74,337.83Z"/><path class="cls-1" d="M183.85,260.5a6.91,6.91,0,0,1-.08-1.7,16.82,16.82,0,0,0-1-6.2c-.3-1-.47-2.08-.67-3.12-.36-1.84-.75-3.67-1-5.51-.24-1.55.15-1.95,1.69-1.81,1,.1,2.07-.07,3,.63a1.52,1.52,0,0,1,.72,1.13,39.12,39.12,0,0,1,1,7.06c.82.72,0,1.64.31,2.47a18.14,18.14,0,0,1,.71,2.77,26.76,26.76,0,0,1,.66,2.6c.19,1.25.23,2.51.37,3.77.08.75.29,1.49.31,2.23a5.7,5.7,0,0,1-.32,1.56c-.29,1,.41,1.91.06,3a5.34,5.34,0,0,0,0,2.75,25.18,25.18,0,0,1,.25,5.48,11.6,11.6,0,0,1-.42,3.21,7.6,7.6,0,0,0-.07,3.22,10.89,10.89,0,0,1-.3,2.63c0,.31-.18.62-.2.93-.13,1.76-.17,3.54-.38,5.29a10.38,10.38,0,0,1-.73,2.23l-1.68,4.74a2.22,2.22,0,0,0-.06.45c.16-.11.4-.18.45-.32.59-1.69,1.15-3.38,1.71-5.07,0-.05,0-.13,0-.17.24-.3.61-.9.73-.85.9.33-.08.64-.08,1,0,1.46-.77,2.72-1.19,4.08a15.19,15.19,0,0,0-1.09,4.44,17.42,17.42,0,0,1-1.53,6.87c-.8,2-.27,3.83-.24,5.73,0,.09.1.19.18.26,1.1,1.15.93,2.67,1.21,4.07a9.23,9.23,0,0,0,1,2.29c.65,1.27,1.34,2.51,2,3.74.1.18.34.28.51.42.06-.26.64-.21.3-.74s.2-.81.67-.94.93-.23,1.39-.34c.8-.2,1.11,0,1.2.93.11,1.06.26,1.14,1.46.83a3.54,3.54,0,0,1,.46,0,3.72,3.72,0,0,1,0,.58,9.56,9.56,0,0,0-.2,1.27c0,2.1,0,4.19,0,6.28a11.83,11.83,0,0,1-.93,5.23,13.19,13.19,0,0,0-.76,3.58,3.29,3.29,0,0,1-2.8,2.71,4,4,0,0,1-2.55-.39.5.5,0,0,0-.43,0c-.46.23.82.72,0,.73s-1.86.74-2.7-.12a6,6,0,0,1-2-2.8c.09-.28.32-.56.25-.65-1.19-1.83-2.39-3.66-3.65-5.44s-2.59-3.46-3.88-5.19a18.58,18.58,0,0,1-1.53-2.25c-.4-.75.8-2.48,1.67-2.53.39,0,.79,0,1.19,0h1l-.08-.59a3.37,3.37,0,0,1,.91.07,5,5,0,0,1,3.09,3.07,2.53,2.53,0,0,0,.43.51c0-.22.16-.47.09-.65q-2-5.61-4.06-11.21c-.05-.15-.19-.28-.2-.43a47.59,47.59,0,0,1-.28-6.3,24.73,24.73,0,0,1,1.3-4.87,24.19,24.19,0,0,0,1.06-5,32.09,32.09,0,0,1,1.7-6.41,28.66,28.66,0,0,0,1.4-7.09c.07-2,.14-4.1.3-6.14.06-.74.55-1.41-.31-2a.8.8,0,0,1,0-.75c.9-.62.54-1.52.6-2.32,0-.39-.13-.86,0-1.17.43-.81.74-1.56,0-2.34.81-.86-.16-1.73,0-2.6,0-.29-.15-.61-.18-.93s.06-.6.13-.6c.71-.07.4-.59.38-.89s-.32-.83-.28-1.23c.07-.75.77-1.57-.34-2.14,0,0,0-.13,0-.15.9-.63-.17-1.41.19-2.19a6.42,6.42,0,0,0,.23-2.61m.59,82.76.44.17c0-.1.14-.24.1-.29-.61-.87-1.24-1.72-1.89-2.57,0-.06-.23,0-.34,0s-.05.26,0,.33c.5.75,1,1.49,1.69,2.39m.85,2.21c-.47-.59-.94-1.18-1.43-1.76a1.17,1.17,0,0,0-.35-.19,1.11,1.11,0,0,0-.08.3,2,2,0,0,0,1.86,1.65m2.21-85.14.39.51.29-.29A.83.83,0,0,0,187.5,260.33Z"/><path class="cls-1" d="M356.51,137.89a14.74,14.74,0,0,0,.59-1.92c.22-.95.2-.95,1.11-.55a6.2,6.2,0,0,1,.88.35,12.2,12.2,0,0,1,2.85,2,4.71,4.71,0,0,1,.87,2.81,3.41,3.41,0,0,1-1,2.09c-1.26,1.33-1.38,3.07-2,4.63a15.34,15.34,0,0,0-.73,4.81,21.19,21.19,0,0,1-1,4c-.44,1.69-.87,3.38-1.36,5.05a30.6,30.6,0,0,1-3.32,6.95c-1.18,1.94-2.32,3.91-3.47,5.87,0,.08,0,.22,0,.33s.27,0,.35-.06a3.54,3.54,0,0,0,.93-1c.16-.33.17-.66.6-.43a1.6,1.6,0,0,1-.23.78,21.74,21.74,0,0,0-2.23,3.33c-.9,2.12-2.06,4.15-2.21,6.57a25.51,25.51,0,0,1-1.08,4.47c-.08.31-.18.61-.23.92a16.22,16.22,0,0,0-.31,2.58,22.65,22.65,0,0,0,.38,3.57,30.3,30.3,0,0,1,.88,4.54,15.28,15.28,0,0,1-.79,4.4c-.48,1.65-1.27,3.22-1.75,4.88a16.55,16.55,0,0,0-.43,3.38c-.05.59,0,1.16.92.63.29-.18.78-.06,1.17,0,1.16.1,2.32.22,3.49.34a3.84,3.84,0,0,1,.46.11,2.05,2.05,0,0,0-.24.36c-.12.34-.9.34-.48,1s.83-.18,1.29-.1c.2,0,.46-.22.69-.33s.32-.11.48-.17a1.3,1.3,0,0,1-.1.46c-.28.45-.6.88-.9,1.33-1.83,2.71-3.63,5.45-5.65,8-.95,1.21-2.14,2.43-2.18,4.18,0,.6-.43.8-1,.8a11.08,11.08,0,0,1-7.63-2.84,5.35,5.35,0,0,1-1.47-3.08c-.43-2.81-2.59-4.7-3.54-7.22-.18-.46-.77-.78-1.21-1.13a3.69,3.69,0,0,0-.74-.38c.22-.22.43-.44.66-.65a4.2,4.2,0,0,1,3.85-1.34c.8.17,1.76,0,2.35.86.15.23,1.43-.49,1.64-.85,1.1-2,1.17-4.17,1.72-6.26.47-1.78.65-3.65,1.66-5.26a3.12,3.12,0,0,0,.34-1.21,19.64,19.64,0,0,1,.28-2.26,6.43,6.43,0,0,0-.3-2.89,8,8,0,0,1,0-4.83,1.24,1.24,0,0,0,0-.51c-.12-1.92.69-3.7.91-5.54a32.74,32.74,0,0,1,1.82-6.41c.15-.45.38-.86.57-1.3,1.52-3.44,3-6.9,4.57-10.34a12.46,12.46,0,0,1,1.33-2.5c1.28-1.62,1.54-3.67,2.49-5.43a10.8,10.8,0,0,0,1.2-4.59,4,4,0,0,1,.71-2.1,5.64,5.64,0,0,0,1-2.3,36.88,36.88,0,0,1,1.72-7.62c.33-.95.47-2,.78-3m-12.66,76.22.39.51.29-.29A.83.83,0,0,0,343.85,214.11Z"/><path class="cls-1" d="M236.36,434.52c.09.29.21.71.07.83-1.13,1-.27,2.11-.3,3.17,0,.48,1,.85,1.42.48a1.17,1.17,0,0,1,1.88,0c.55.57,1,1.06,2,.65.73-.29,1.36,1.38.95,2.31-.66,1.49-1.58,2.89-1.59,4.62,0,.39-.38.8-.63,1.17-.44.63-.92,1.24-1.36,1.87-.06.08-.05.31,0,.32,1.38.54.26,1-.05,1.44a.93.93,0,0,0,0,.59,9,9,0,0,1,.34,1c0,.39.3,1-.64.57-.54-.26-1.13.18-1.46.84a6.55,6.55,0,0,1-1.19,1.54,3.19,3.19,0,0,0-.72,2.89,17.62,17.62,0,0,1,.26,2.6,1.82,1.82,0,0,1-2.27,1.52,3.07,3.07,0,0,1-2.61-2.23c-.22-.74-.92-1.31-1.26-2a6.09,6.09,0,0,1-.91-2.65c.07-1.44-.76-2.57-1-3.89.12-1.68-.73-3.13-1.21-4.64a19.83,19.83,0,0,1-.89-4.54c-.05-.72-.51-1.5.24-2.18.13-.11,0-.63-.12-.88a11.11,11.11,0,0,0-1.2-1.88c-.37-.44-.83-.71-.13-1.26.08-.06-.37-.74-.49-1.15-.06-.2-.13-.61.39-.27.33.22.83.16,1.24.27.88.24,1.57,0,1.72-.83.32-1.82,1.21-3.62.42-5.54a.58.58,0,0,1,0-.45c.92-1.49.64-1.49.68-3.41s.24-3.89,1.68-5.38a2.15,2.15,0,0,0,.64-1.62c0-.64.23-1.27.3-1.91,0-.1-.26-.24-.4-.36-.08.11-.23.22-.25.35-.13.79-.2,1.61-.37,2.4a3.37,3.37,0,0,1-.5,1c0,.05-.21,0-.32,0s0-.24,0-.35c.4-3.41,1.64-6.75,1.13-10.22-.32-2.17,0-4.38-.6-6.53a5.73,5.73,0,0,1,.16-1.95c0-.15.13-.3.14-.45.12-1.82.31-3.64.32-5.46a7.57,7.57,0,0,1,.71-2.95c.9-2.12,1.83-4.23,2.71-6.36.66-1.59,1.18-3.25,1.9-4.81a18.64,18.64,0,0,0,1.23-4.27,26.23,26.23,0,0,0,.6-6.36,5.94,5.94,0,0,0-.45-2.18c-.16-.37-.08-.48.14-.61a.48.48,0,0,1,.45.14,19.63,19.63,0,0,1,1.54,2.75,7.83,7.83,0,0,1,.37,2.23c.14,1.48.22,3,.36,4.45a1.39,1.39,0,0,0,.34.86c.93.81.59,2,1,3a.89.89,0,0,1,0,.66,6,6,0,0,1-.62.9,9.31,9.31,0,0,1,1-.2c.1,0,.24.16.3.28s0,.21-.08.3c-1.09,1.84-1.23,3.93-1.61,6a2,2,0,0,1-.36,1c-.51.51-.46,1.24-.74,1.73a4.1,4.1,0,0,0-.63,1.8,2.17,2.17,0,0,1-.63,1.25c-1.73,1.66-1.76,3.77-1.71,5.93a.7.7,0,0,0,.2.38c.2-.05.5-.12.55-.26.18-.44.25-.92.4-1.37,0-.14.23-.24.35-.36.06.12.2.25.19.36a4,4,0,0,1-.57,2.51c-.89,1.17-.51,2.75-.33,4.16.27,2.12,1.51,4,1.28,6.29a11.1,11.1,0,0,0,.3,2.4,11.46,11.46,0,0,1-.72,5.48,7.56,7.56,0,0,0-.2,4.27c.43,1.77-.15,3.27-.38,4.89s-1.41,3.3-1.07,5.16c0,.14.18.25.27.38a1,1,0,0,1,.32-.25M231,405.46c0-.51,0-1,0-1.52a.79.79,0,0,0-.11-.29c-.12.08-.3.14-.35.26a1.54,1.54,0,0,0-.2.76c.2,1.55.44,3.1.67,4.65a1.3,1.3,0,0,0,.2.36,1.53,1.53,0,0,0,.13-.45c-.1-1.14-.22-2.28-.33-3.77m1-14.95c-.46,1.15-.93,2.3-1.34,3.47-.08.21.08.51.14.77.19-.19.48-.34.55-.56.47-1.37.9-2.76,1.31-4.15,0-.09-.12-.23-.19-.35a1.7,1.7,0,0,0-.47.82m-1.7,11.9c.22-.75.46-1.5.66-2.26,0-.07-.17-.22-.29-.28s-.29.06-.28.08c.13.9-.84,1.69-.09,2.46m-1.7,33c-.11-.29.29-.85-.42-.81,0,0,0,.46,0,.7a4.25,4.25,0,0,0-.2.82,3.21,3.21,0,0,0,.25.82,5.36,5.36,0,0,0,.4-.69,3.27,3.27,0,0,0,0-.84m.68-12.23.1.78c.2-.15.52-.28.55-.47a8.22,8.22,0,0,0,0-1.49.91.91,0,0,0-.1-.29,1.56,1.56,0,0,0-.23.28A4.52,4.52,0,0,0,229.31,423.14Z"/><path class="cls-1" d="M453.29,180.54c-.37.52-.78.94-1.11,1.4a1.2,1.2,0,0,0-.1.69c0,.14.19.4.18.41-1.18.65-.72,2.1-1.44,3a.85.85,0,0,0,0,.79,17.59,17.59,0,0,0,1.18,1.55,5.59,5.59,0,0,1-.1,1.15l-.63.5a4.74,4.74,0,0,1-.38-.7,1.06,1.06,0,0,1,0-.5c.12-.64-.19-.8-.75-.72-.23,0-.46,0-.68,0a6.06,6.06,0,0,0-.61.16,2.44,2.44,0,0,1,.35.37,2.64,2.64,0,0,1,.31.71c0,.13-.09.3-.14.44-.18-.08-.46-.12-.51-.24a1.6,1.6,0,0,0-1.79-1.13,1.27,1.27,0,0,1-.83-.39c-1.46-1.54-2.94-3.07-4.3-4.69-.24-.28-.92-.72-.41-1.38.06-.08-.13-.43-.28-.58-.94-1-1.92-1.9-2.85-2.88-1.22-1.29-2.41-2.61-3.6-3.94-.23-.26-.58-.81-.5-.9.3-.36.77-.82,1.16-.8a25.27,25.27,0,0,1,3.19.46.51.51,0,0,0,.33,0c.05,0,0-.23,0-.31a1.2,1.2,0,0,0-.35-.36c-1.54-1-1.19-2.47-1-3.9a.46.46,0,0,1,.36-.1c.6.34,1.16.77,1.78,1.06s.95.24.93-.6a6.8,6.8,0,0,1,.36-1.88c0-.19.3-.33.46-.49.06.2.2.41.16.59-.15.84-.36,1.66-.51,2.5a2.06,2.06,0,0,0,.09.64c.15-.17.36-.32.43-.51a4.86,4.86,0,0,0,.33-1.39c0-1.92,0-3.85,0-5.77,0-.87.24-1.72.31-2.58,0-.2-.2-.42-.31-.62a2.06,2.06,0,0,0-.35.43c-.14.3-.24.61-.36.93-.66-.32-.23-.84-.23-1.27,0-.09.16-.16.23-.25,1.19-1.64.54-3.53.69-5.31,0-.09-.09-.19-.13-.28a1,1,0,0,0-.19.37c0,.22,0,.46,0,.67a.4.4,0,0,1-.31.27c-.12,0-.24-.15-.35-.24s0-.12,0-.17c.48-1.21-.05-2.42,0-3.63,0-.43,0-.76.57-.75a7.11,7.11,0,0,0,0-1.6c-.48-2-1-4-1.58-6a24.6,24.6,0,0,1-.76-3.1,7.59,7.59,0,0,1,0-3.67,2.84,2.84,0,0,0,.06-1.33,37.41,37.41,0,0,0-1-4.83,15.12,15.12,0,0,0-1.66-3.05,10.14,10.14,0,0,1-1.37-5c0-.92-.52-1.94-.26-2.73.55-1.66.27-3.35.53-5a66.76,66.76,0,0,0,.4-8.85,3.07,3.07,0,0,0-.5-1.65c-1.21-1.82-2-3.93-3.7-5.43-.07-.07-.18-.18-.18-.26,0-.42-.8-.89,0-1.23a1.23,1.23,0,0,1,1,.3,31.27,31.27,0,0,0,3.54,2.87,6.32,6.32,0,0,1,1.22,1.52,16.3,16.3,0,0,0,2.08,2.85c1.25,1.1,1.15,2.74,1.92,4,0,.57-.93.83-.43,1.42.05.06.3,0,.3,0,.09-.45.15-.9.22-1.36.17,0,.44-.06.49,0a3.62,3.62,0,0,1-.14,2.84c-.48.44-.37.87-.43,1.44a27.85,27.85,0,0,1-.5,4.4,12.39,12.39,0,0,0-.15,6.73,4.89,4.89,0,0,1,.05.66c0,.31.09.85.21.88.71.14.36-.47.48-.77a.44.44,0,0,1,.39-.19.41.41,0,0,1,.26.31c0,.45,0,.92,0,1.36a5.35,5.35,0,0,0,.49,2,13.25,13.25,0,0,1,2.24,6.4c.05.77.49,1.51.59,2.29.06.49-.29,1-.25,1.53.11,1.71-.34,3.44.29,5.14a6.31,6.31,0,0,1,0,1.69c0,.12.17.23.25.34.14-.12.33-.22.4-.37s-.05-.38,0-.5a8.46,8.46,0,0,1,.65-.83,3,3,0,0,1,.34.94,4.14,4.14,0,0,1-.3,2.42,1.13,1.13,0,0,0,.07,1,10.18,10.18,0,0,1,1.61,5.8,1.79,1.79,0,0,0,.19.77,7.41,7.41,0,0,1,.5,3.36,2.92,2.92,0,0,0,.24,1.42,6.3,6.3,0,0,0,1.06,1.2,1.44,1.44,0,0,0-.64,1.44c.24,2.85.45,5.7.69,8.55,0,.12.18.22.27.33.14-.12.36-.23.39-.38a24.62,24.62,0,0,0,.72-6.68,4.19,4.19,0,0,1,.34-1.88c.33-.75-.33-1.42,0-2.11a4,4,0,0,1,.27-.5,1.82,1.82,0,0,1,.4.38c.74,1.32,0,2.62-.07,3.93,0,.65-.41,1.37-.22,1.91a4.43,4.43,0,0,1-.29,3c-.26.83-.08,1.19.76,1.26a3.16,3.16,0,0,1,2.55,1.77c.11.18.27.33.38.52.44.72,1.32,1.52,1.21,2.15a5.32,5.32,0,0,1-1.63,2.51,4.6,4.6,0,0,0-1.05,1.43c-.35.82-.86,1.57-1.3,2.43M443.1,162.45a8.36,8.36,0,0,0,0,5.14c0,.15.1.3.15.45a1.41,1.41,0,0,0,.18-.4c.21-2.6-.41-5.25.35-7.83-.68-.84-.22-1.83-.34-2.74-.09-.75-.13-1.5-.19-2.25-.12.68-.24,1.37-.37,2.05,0,0-.11.1-.1.12.72,1.67.12,3.42.32,5.46m-.34,9.17.33-.33-.53-.15c0,.22,0,.43.2.48m-.68-20.39-.09-.43a1.19,1.19,0,0,0-.21.06C441.81,151,441.86,151.22,442.08,151.23Z"/><path class="cls-1" d="M294.57,314.88c-.82-.94-1.9-1.77-1.05-3.29.15-.26,0-.75-.14-1.1a32.8,32.8,0,0,0-3.55-7.2,25.44,25.44,0,0,1-1.39-2.82c-.1-.2-.26-.5-.41-.51-.52,0-.71,0-.27-.59a3.15,3.15,0,0,0,.33-1.54,3.9,3.9,0,0,0-.14-.95l-.18.93-.18.75a8.86,8.86,0,0,1-.49-.82c-.06-.14-.08-.42,0-.5.79-.73.1-1.43,0-2.17a18.69,18.69,0,0,1,.37-3.55c.06-.43.22-.84.24-1.26,0-1,0-2,0-3.06.1-2.79.21-5.57.35-8.35a12.57,12.57,0,0,1,.33-1.73c.06-.32.1-.64.15-1,.31.18.75.3.92.57a6.16,6.16,0,0,1,1.3,3.53,13.16,13.16,0,0,1-.27,3.79c-.23.63.24,1.47.26,2.22a41.16,41.16,0,0,1,0,5.09c-.31,3.2.92,6,1.95,8.9a8.41,8.41,0,0,0,1.9,2.93,23.9,23.9,0,0,1,5,8.3c.5,1.32,1.2,2.57,1.67,3.9.74,2.13,1.35,4.31,2.06,6.45.41,1.24.87,2.48,1.36,3.69a12.22,12.22,0,0,1,.71,3.11,13.41,13.41,0,0,0,.89,3.7,18,18,0,0,1,1.32,4,18.85,18.85,0,0,0,2.07,5.09,15,15,0,0,1,1.77,7.92c-.19,2.77-.52,5.53-2.13,7.95a5,5,0,0,0-.89,3.36c0,.1.25.27.3.25.77-.41.94.08,1.07.68.25,1.17.92,2.31.63,3.52-.37,1.58-.3,3.25-1.28,4.74a11.54,11.54,0,0,0-1.42,4.16,4.27,4.27,0,0,1-.33,1.05c-.88,1.83-1.15,1.47-2.48,1a1.77,1.77,0,0,0-.82-.07c-1.71.37-2.78-1-4.14-1.52-.16-.06-.25-.34-.38-.51-.27-.36-.27-.35-.68,0a1.18,1.18,0,0,1-.33.12c.16-.41-.45-1.25.65-1.17.09,0,.34-.39.3-.53-.52-1.48-1.09-2.94-1.63-4.42-.47-1.28-.92-2.57-1.36-3.85a47.15,47.15,0,0,1-1.65-5.09,8.59,8.59,0,0,0-1.38-2.49c-.52-.88.12-1.46.34-2.11s1-.59,1.62-.5c1,.16,2.08.46,3.12.66a2.66,2.66,0,0,1,2,2.08,5,5,0,0,0,.29.73c0,.05.37,0,.38,0,.24-1.2.47-2.41.69-3.62a4.08,4.08,0,0,1,.25-1.25,6.29,6.29,0,0,0,.79-3.77c0-.54.13-1.1.12-1.65,0-1.52-.09-3-.13-4.58a1.68,1.68,0,0,1,.13-.46,4.67,4.67,0,0,1,.23.51,5.51,5.51,0,0,1,.31.89,14.22,14.22,0,0,1,.32,2.41c0,1-.22,1.94-.3,2.92a2,2,0,0,0,.2.67,6.53,6.53,0,0,0,.35-.7,1.76,1.76,0,0,0,.11-.64c-.11-2-.16-4-.37-6a4.09,4.09,0,0,0-.86-1.84c-1.26-1.72-1.65-3.75-2.17-5.73a25.19,25.19,0,0,0-.69-2.44,23.77,23.77,0,0,1-1.38-5.72,28.72,28.72,0,0,0-1.06-5,15.67,15.67,0,0,0-1.63-4.58,7,7,0,0,0-.59-.73c.06-1.33-.88-2.06-1.44-3.06,0-.23-.07-.37-.1-.52l-.22.07a4.4,4.4,0,0,1,.32.62c.11.59.22,1.1.34,1.61m3.74,51.84a2.57,2.57,0,0,0,0,.48,1.51,1.51,0,0,0,.2.34c0-.09.15-.2.12-.27-.08-.25-.21-.48-.32-.89l-.48-1.5s-.12,0-.11.05c.09.5.19,1,.31,1.5,0,.06.18.08.28.29m1,2-.33.17c.11.05.22.11.33-.17m.34,2,.21.13C299.86,370.83,299.85,370.73,299.66,370.8Z"/><path class="cls-1" d="M81.88,339.61c.12.39.3.82.16,1-1.27,1.5-1.67,3.38-2.3,5.17-.69,2-1.43,3.93-2.26,5.86A24.41,24.41,0,0,1,76,354.22c-.07.11-.12.24-.18.36a1.22,1.22,0,0,0,.46,0c.36-.16.45-.87,1.06-.54a7.14,7.14,0,0,1-.68,1.17A21.24,21.24,0,0,1,74.84,357a12.05,12.05,0,0,0-3.42,5.39,16.47,16.47,0,0,0-.55,8.18,12,12,0,0,1-.73,6.12,3.58,3.58,0,0,0-.2,1.59c.15,1.22.44,2.42.64,3.64a9.66,9.66,0,0,1-1.16,5.63c-.9,1.91-.94,3.94-1.22,5.95a11.57,11.57,0,0,1-.34,1.55c-.63,2-.15,4.11-.37,6.15a.82.82,0,0,0,.85.94c1.35.16,1.78,1.12,2.11,2.17a2,2,0,0,1-.31,2c-1.1,1.45-2,3.06-3.13,4.48s-2.73,1.07-4.2.8a19.79,19.79,0,0,1-2.53-.85c-1.35-.44-1.49-.69-1.61-2a23,23,0,0,0-1.54-7.34c-.41-.93-.54-1.95-1.38-2.65a.43.43,0,0,1-.12-.29c.13-2.17-1.08-3.84-2-5.61-.07-.14-.07-.31-.13-.46-.4-.95-.19-1.4.8-1.38a12.53,12.53,0,0,1,3.74.39c.8.28,1.38,1.23,2,1.9a1.29,1.29,0,0,1,.19.39,3.39,3.39,0,0,0,.15-.45c.09-.43,0-1.06.28-1.27.66-.53,0-1,.09-1.41a25.58,25.58,0,0,1,.9-3.36,32.28,32.28,0,0,0,1.51-5.51,5.28,5.28,0,0,0,0-2.79,3.1,3.1,0,0,1,.16-1.48,4,4,0,0,0-.45-2.78,2.07,2.07,0,0,1,.9-2.7c.17-.1.39-.41.35-.56-.35-1.5.62-2.73.78-4.11a21,21,0,0,0,0-2.51c0-.44-.13-.88-.1-1.31a21.43,21.43,0,0,1,3.41-10.65c.8-1.16,1.79-2.2,2.7-3.3,1.6-1.91,2.24-4.27,3.06-6.54a36.52,36.52,0,0,1,3.55-7.37,6.3,6.3,0,0,0,.53-1.31A7.9,7.9,0,0,1,78.9,332c1-1.3,1-2.8,1.19-4.27,0-.28,0-.57,0-.85a1.16,1.16,0,0,1,.2-.4,1.57,1.57,0,0,1,.46.32A8.22,8.22,0,0,1,82.48,332c0,1.25-.06,2.5,0,3.74a9.63,9.63,0,0,1-.61,3.88M63.61,372.67c0,.35-.12.7-.16,1.06,0,.08.09.18.14.27.06-.12.17-.23.18-.35A1.92,1.92,0,0,0,63.61,372.67Z"/><path class="cls-1" d="M358.21,444.72a30.63,30.63,0,0,1-1.72-4.24,4.65,4.65,0,0,1,.3-2,.68.68,0,0,1,.55-.09c1.16.63,2.3,1.3,3.44,1.95.13.08.35.11.39.21.12.31-.23.93.48.76.14,0,.19-.67.2-1,0-.85,0-1.7,0-2.55a2,2,0,0,0-.16-.44,2.26,2.26,0,0,0-.17.43c-.12.57-.22,1.15-.35,1.72a3.82,3.82,0,0,1-.2.53,2.8,2.8,0,0,1-.23-.58,5.47,5.47,0,0,1-.18-1.64c.48-3.26,1.86-6.25,3.08-9.25a10.31,10.31,0,0,0,.6-3.32,18.49,18.49,0,0,0,.31-2.41,14.36,14.36,0,0,1,.66-5.74,16.78,16.78,0,0,0,.38-3.58c.11-1.05.27-2.09.33-3.15a17.26,17.26,0,0,0-.72-5.19c-.11-.46-.19-.94-.29-1.41-.14-.67-.28-1.35-.43-2a4.25,4.25,0,0,1-.24-.74c-.09-2.42-.75-4.76-.75-7.2a18.07,18.07,0,0,0-.95-4,2.06,2.06,0,0,1,.09-.64,2.32,2.32,0,0,1,.47.33c1.31,1.5,2.76,2.9,3.25,4.93a4.42,4.42,0,0,1,.25,1.08c-.11,3.08.86,6,1.54,8.88.23,1,.37,2,.51,3,.1.78.16,1.57.22,2.36s.07,1.43.13,2.15c0,.13.18.26.27.39-1.43.95.47,2.44-.58,3.53-.22.23-.07,1.06.17,1.45.53.87-1,.95-.55,1.72.32.57.65,1.13.1,1.8a1.83,1.83,0,0,0-.36,1c0,.33,1.1.18.43,1-.24.27-.19.85-.15,1.27s.26.93.31,1.39a5.81,5.81,0,0,1-.12,1.31c0,.2-.26.47-.19.58.74,1.18.07,2.16-.47,3.11-.22.39-.1.58.17.41,1.08-.67.54.27.57.56,0,.11-.23.23-.33.36a11.39,11.39,0,0,0-1.29,1.85,14.19,14.19,0,0,0-.33,1.79c-.27.9-.64,1.77-.94,2.67a2.11,2.11,0,0,0-.08.79,2.06,2.06,0,0,0,.55.08c-.32-1.13,1.26-.75,1.3-1.62,0-.11.22-.21.34-.31a1.76,1.76,0,0,1,.15.44c.06,1.47.06,1.47,1.2,2.26,1.66,1.16,2,2.52,1,4.42-.39.75-.88,1.46-.52,2.4a1,1,0,0,1-.25.73,29.39,29.39,0,0,1-1.92,2.26c-.68.71-1.1,1.42-.42,2.35.12.17.4.3,0,.41-.68.16-.67.16-.11.82a2.43,2.43,0,0,1,.28.47c-.22,0-.47.12-.65.05s-.41-.35-.63-.51c-.45-.32-.92-.26-1.14.19-.58,1.2-1.61.62-2.42.61a2.22,2.22,0,0,1-1.48-.82c-.3-.37-.24-1-.38-1.53s-.34-.87-.5-1.32a5,5,0,0,1-.11-.58l.48.28c.13.07.24.16.36.24a1.87,1.87,0,0,0,0-.58,19.21,19.21,0,0,0-.8-1.82,1.78,1.78,0,0,1-.18-.52l-.22.07.31.53a3,3,0,0,1,0,.67c0,.08-.3.18-.32.16a1.78,1.78,0,0,1-.42-1.62C359.35,445.59,359.22,445.28,358.21,444.72Z"/><path class="cls-1" d="M408.51,354.74a6.33,6.33,0,0,1,1-.43c.54-.17,1.24-.18,1.62-.53.71-.65,1.2-.64,1.8.05.16.19.47.23.68.38s.14.23.21.35c-.16,0-.38.14-.46.08a1.69,1.69,0,0,0-2.7.35c-1.26-.31-1.94.54-2.68,1.31a1.1,1.1,0,0,1-.69.35,13.66,13.66,0,0,1-1.55-.19,10.84,10.84,0,0,1,1-.78C407.29,355.36,407.87,355.1,408.51,354.74Z"/><path class="cls-1" d="M429.24,330.33c-.32-.39-2.34,1.4-1.52-1.13.33-1-.89-3-2.75-3.44a3.1,3.1,0,0,1-1.74-1.14c-.53-.82,1.91-.77.78-2,.38,0,.95-.07,1.12.14,1.31,1.67,2.33,3.63,3.87,5C430.11,328.76,429.11,329.39,429.24,330.33Z"/><path class="cls-1" d="M425.76,333.92c0-.32-.08-.47-.11-.63-.08-.42-.15-.83-.21-1.25a1,1,0,0,1,.22-.08,8.74,8.74,0,0,1,.44,1.17c.34,1.43.67,2.87,1,4.31a2.71,2.71,0,0,1-.12.88c-.17-.21-.44-.41-.48-.64-.16-.9-.23-1.82-.37-2.72C426,334.66,425.88,334.38,425.76,333.92Z"/><path class="cls-1" d="M416.93,333.92c.12-.86-.38-1.56,0-2.25a4.28,4.28,0,0,1,.26-.38c.12.12.36.31.34.35-.5.82.28,1.56.11,2.4a14.1,14.1,0,0,0,0,2.52,1.6,1.6,0,0,1-.18.41,2.54,2.54,0,0,1-.15-.44C417.15,335.71,417,334.9,416.93,333.92Z"/><path class="cls-1" d="M298.05,330.43c-.16-.94.1-1.81-.4-2.65a1.83,1.83,0,0,1,0-1.16,7.5,7.5,0,0,1,.45-1.16c.07.34.17.67.21,1a19.86,19.86,0,0,0,.41,3.2C298.92,330.41,298.59,330.42,298.05,330.43Z"/><path class="cls-1" d="M180.36,296.87c-.11,1-.21,1.76-.36,2.55,0,.08-.29.18-.41.15s-.26-.25-.23-.34c.38-1.36.77-2.71,1.19-4.06,0-.13.23-.21.35-.32a3.88,3.88,0,0,1,.14.45C181.2,296,180.79,296.33,180.36,296.87Z"/><path class="cls-1" d="M427.89,355.59a13.34,13.34,0,0,1,.61-2.32c.05-.14.28-.23.45-.31s.2.2.2.2C428.49,353.87,429.29,355.28,427.89,355.59Z"/><path class="cls-1" d="M241.2,173.49a3.08,3.08,0,0,1,0-.84,4.84,4.84,0,0,1,.46-.83c0,.26-.06.51-.07.76a16,16,0,0,1-.09,1.84c0,.27-.34.5-.52.74a3.09,3.09,0,0,1-.12-.79C240.91,174.13,241.09,173.9,241.2,173.49Z"/><path class="cls-1" d="M239.25,455.85a4.65,4.65,0,0,1-.55-.56,10.36,10.36,0,0,1-.52-.92,4.81,4.81,0,0,1,1.47.58C239.91,455.18,240.29,455.88,239.25,455.85Z"/><path class="cls-1" d="M418.29,305.62a24.68,24.68,0,0,1-1.33-2.11c-.06-.11.13-.35.2-.52.15.11.38.18.43.32C417.85,304.05,418.06,304.79,418.29,305.62Z"/><path class="cls-1" d="M190.65,272a9.5,9.5,0,0,1-.07-1.9c0-.13.21-.28.36-.37s.29.18.29.26C191.15,270.68,191.56,271.52,190.65,272Z"/><path class="cls-1" d="M398.57,371.65a16.14,16.14,0,0,1,0-1.87,2.59,2.59,0,0,1,.46-.82c.05.28.25.66.14.84a1.65,1.65,0,0,0,0,2c.07.09-.08.33-.14.51A2.14,2.14,0,0,1,398.57,371.65Z"/><path class="cls-1" d="M453.29,180.71a9.31,9.31,0,0,1,1.11-1,3.83,3.83,0,0,1,.58-.27c0,.22.1.53,0,.64C454.53,180.54,454.2,181.38,453.29,180.71Z"/><path class="cls-1" d="M295.59,316.24a2.07,2.07,0,0,1,0,.5,2.49,2.49,0,0,1-.25.52c-.14-.11-.37-.2-.41-.34a9.86,9.86,0,0,1-.27-1.95A7.46,7.46,0,0,1,295.59,316.24Z"/><path class="cls-1" d="M187.16,320a4.81,4.81,0,0,0,.34.71c.18.42.62.81.18,1.32a5,5,0,0,1-.81-1.17,3.74,3.74,0,0,1,0-1.34A1.86,1.86,0,0,1,187,319C187.08,319.28,187.12,319.55,187.16,320Z"/><path class="cls-1" d="M296.35,318.2a2,2,0,0,1,.24.85,1.77,1.77,0,0,1-.34.59c-.11-.2-.23-.4-.32-.61a4.66,4.66,0,0,1-.3-.89c0-.15.1-.33.16-.5Z"/><path class="cls-1" d="M187.08,313.1a9.64,9.64,0,0,0,.09-1.24c0-.12.13-.22.2-.34a1,1,0,0,1,.13.28c0,.61,0,1.22,0,1.82,0,.2-.22.39-.33.58a2.42,2.42,0,0,1-.32-.59C186.81,313.49,186.94,313.33,187.08,313.1Z"/><path class="cls-1" d="M370.11,427.13a7.29,7.29,0,0,0-.1.76c-.07.31.3.92-.41.81-.14,0-.35-.86-.23-.95.37-.3,0-1.12.79-1,0,0,.13.07.12.1A.82.82,0,0,1,370.11,427.13Z"/><path class="cls-1" d="M431.09,348.84a24.54,24.54,0,0,1,1.48,2.94c.09.21-.15.57-.25.87-.13-.24-.23-.65-.4-.69-1.6-.32-1-2.06-1.89-2.83A2,2,0,0,1,431.09,348.84Z"/><path class="cls-1" d="M425.08,326.44c0,.66-.06,1.14-.1,1.63a.94.94,0,0,1-.23-.1c-.63-.45-.24-1.12-.35-1.69A1,1,0,0,1,425.08,326.44Z"/><path class="cls-1" d="M131.76,406c-1.14-.07-.66-.63-.48-1s.32-.36.6-.06S132.58,405.58,131.76,406Z"/><path class="cls-1" d="M240.52,454.24a1.18,1.18,0,0,1-.66-1.44c0-.1.2-.21.33-.25a.3.3,0,0,1,.27.1A4.48,4.48,0,0,1,240.52,454.24Z"/><path class="cls-1" d="M426.87,341a4.52,4.52,0,0,1-.08-1.24c0-.35.12-.69.18-1a9.32,9.32,0,0,1,.33,1C427.43,340.22,428,340.84,426.87,341Z"/><path class="cls-1" d="M236.45,209.18c.07-.25.19-.31.23-.41.13-.4.23-.81.34-1.22,0,.49.08,1,.1,1.46a1.82,1.82,0,0,1,0,.66.48.48,0,0,1-.39.17A1.28,1.28,0,0,1,236.45,209.18Z"/><path class="cls-1" d="M415.57,322.36a5.14,5.14,0,0,1,0,1c0,.15-.26.24-.4.36-.09-.11-.24-.22-.25-.34a5.72,5.72,0,0,1,0-1.17A1,1,0,0,1,415.57,322.36Z"/><path class="cls-1" d="M369.26,432.4c-.66-.55.13-1,.18-1.52a.51.51,0,0,1,.42-.05.45.45,0,0,1,.15.41A9.3,9.3,0,0,1,369.26,432.4Z"/><path class="cls-1" d="M426.19,383.12a1.41,1.41,0,0,1,.34-.6,2.12,2.12,0,0,1,.25.36c.18.42.61.8.2,1.31C426.75,383.86,426.51,383.53,426.19,383.12Z"/><path class="cls-1" d="M130.4,219.72a14,14,0,0,1,.35-1.52s.22,0,.33,0a6.44,6.44,0,0,1,0,1.32C131,219.67,130.63,219.76,130.4,219.72Z"/><path class="cls-1" d="M240.1,374.28a5.41,5.41,0,0,0-.32.66,1.42,1.42,0,0,1-.26-.36,1.1,1.1,0,0,1,0-.51c.05-.34.13-.69.2-1A1,1,0,0,1,240.1,374.28Z"/><path class="cls-1" d="M417.18,330.26c-.36.54-.6.1-.83-.16a4.3,4.3,0,0,1-.41-.8s.2-.16.26-.13C416.65,329.36,417.25,329.45,417.18,330.26Z"/><path class="cls-1" d="M300.26,335.87a15.29,15.29,0,0,1-.59-2.24c0-.1.05-.21.08-.31a2.83,2.83,0,0,1,.25.24A3.19,3.19,0,0,1,300.26,335.87Z"/><path class="cls-1" d="M309.78,333.49c-1.09-.11-.54-.74-.46-1.24.18.06.5.09.52.18A2.81,2.81,0,0,1,309.78,333.49Z"/><path class="cls-1" d="M451.59,155.82a5.06,5.06,0,0,1-1-.57c.21-.15.49-.47.62-.42C451.63,155,452.24,155.16,451.59,155.82Z"/><path class="cls-1" d="M411.91,310.72a.8.8,0,0,1,.06.43c-.23-.13-.57-.2-.66-.39a2,2,0,0,1,0-.91.88.88,0,0,1,.28-.06C411.66,310.07,411.74,310.35,411.91,310.72Z"/><path class="cls-1" d="M427.38,350.52a8.46,8.46,0,0,0-1.3-.64c.23-.18.45-.49.69-.51a2.49,2.49,0,0,1,1.56.16c.43.34.57,1,.83,1.57A12,12,0,0,1,427.38,350.52Z"/><path class="cls-1" d="M441.65,250.39c.09.2.14.36.08.41-.3.27-.62.52-.94.77a2.82,2.82,0,0,1-.07-.31C440.68,250.67,441,250.35,441.65,250.39Z"/><path class="cls-1" d="M206.62,222.86c.19-.08.32-.12.41-.08.27.13.53.29.79.43-.08.08-.2.25-.23.23C207.24,223.27,206.51,223.88,206.62,222.86Z"/><path class="cls-1" d="M432.1,356.57a10.38,10.38,0,0,1-.58-1.78c.54.27,1.29.41,1.58.84C433.6,356.4,433.17,356.83,432.1,356.57Z"/><path class="cls-1" d="M401,208.84c.08-.25.14-.36.23-.4s.45-.15.68-.22a2.06,2.06,0,0,1-.26.77C401.51,209.1,401.18,209,401,208.84Z"/><path class="cls-1" d="M423.81,317.69a.35.35,0,0,1,.24.33,6.37,6.37,0,0,1-.29.94s-.24,0-.27-.08A.86.86,0,0,1,423.81,317.69Z"/><path class="cls-1" d="M366.28,454.58c-.41-.44-1.21-.55-.92-1.29.36.31.73.61,1.07.94C366.49,454.29,366.45,454.46,366.28,454.58Z"/><path class="cls-1" d="M358,444.72c.09.06.07.12.09.17.1.46.21.92.31,1.38l-.23.07C358.18,445.79,357.38,445.36,358,444.72Z"/><path class="cls-1" d="M239.93,391.61a6.32,6.32,0,0,1,.28-1.45c0-.05.15-.05.23-.08-.1.5-.2,1-.31,1.5C240.12,391.62,240.05,391.66,239.93,391.61Z"/><path class="cls-1" d="M437.32,305.71h1a1.11,1.11,0,0,1,.29.1c-.09.08-.16.2-.26.23a4.58,4.58,0,0,1-1.08.21C436.68,306.24,437,305.93,437.32,305.71Z"/><path class="cls-1" d="M182.74,283.61c.23.15.36.31.33.43a2.46,2.46,0,0,1-.33.59,2.82,2.82,0,0,1-.32-.59C182.39,283.92,182.52,283.76,182.74,283.61Z"/><path class="cls-1" d="M428.48,374.36a1.68,1.68,0,0,1-.68.51c-.07-.15-.24-.39-.2-.44C427.82,374.16,428.06,373.76,428.48,374.36Z"/><path class="cls-1" d="M131.76,216a2.36,2.36,0,0,1-.42.68c-.09-.23-.26-.46-.24-.67C131.15,215.46,131.46,215.57,131.76,216Z"/><path class="cls-1" d="M441.4,163.29a2.35,2.35,0,0,1-.23.63,2.78,2.78,0,0,1-.3-.91c0-.23.27-.45.43-.67C441.33,162.6,441.36,162.86,441.4,163.29Z"/><path class="cls-1" d="M450,157.43c-.09-.19-.13-.34-.08-.4a5.19,5.19,0,0,1,.55-.49c0,.09.12.18.12.27C450.57,157.16,450.7,157.61,450,157.43Z"/><path class="cls-1" d="M447.43,189.89a6.78,6.78,0,0,1,.41.78l-.92-.27A1.39,1.39,0,0,1,447.43,189.89Z"/><path class="cls-1" d="M291.17,155.82a1.3,1.3,0,0,1-.68-.36l.27-.32A2.61,2.61,0,0,1,291.17,155.82Z"/><path class="cls-1" d="M227.52,137c-.12.05-.19,0-.19,0,0-.52,0-1,.08-1.56A8.82,8.82,0,0,1,227.52,137Z"/><path class="cls-1" d="M271.45,81a1.3,1.3,0,0,1,.68.36l-.27.32A2.61,2.61,0,0,1,271.45,81Z"/><path class="cls-1" d="M236.53,434.52c0-.45-.09-1.17.15-1.3.43-.23.46.06.16.43C236.67,433.86,236.69,434.23,236.53,434.52Z"/><path class="cls-1" d="M369.94,419.48c-.72.18-.6-.27-.59-.62,0-.09.08-.18.12-.27A3.14,3.14,0,0,1,369.94,419.48Z"/><path class="cls-1" d="M423.38,258.12c.32,0,.47.08.62.11a2.31,2.31,0,0,1-.47.55c-.08.05-.35-.12-.47-.25S423.16,258.26,423.38,258.12Z"/><path class="cls-1" d="M424.4,323.38a4.28,4.28,0,0,1,.62.11,2.31,2.31,0,0,1-.47.55c-.08,0-.35-.12-.47-.25S424.18,323.52,424.4,323.38Z"/><path class="cls-1" d="M189.2,323v-.5c.35,0,.36.1.35.66s-.12.61-.56.48A2.77,2.77,0,0,0,189.2,323Z"/><path class="cls-1" d="M186.48,314.88a.67.67,0,0,1,.23,1,1,1,0,0,1-.22-.3A4.4,4.4,0,0,1,186.48,314.88Z"/><path class="cls-1" d="M413.78,317.18c.78-.28.27.3.43.45l-.26.23A1.7,1.7,0,0,1,413.78,317.18Z"/><path class="cls-1" d="M431.25,337.9a1.8,1.8,0,0,1-1.34.3,3,3,0,0,1,0-.6A1.8,1.8,0,0,1,431.25,337.9Z"/><path class="cls-1" d="M300.68,336.64a.88.88,0,0,1-.67.15,1.5,1.5,0,0,1,0-.3A.88.88,0,0,1,300.68,336.64Z"/><path class="cls-1" d="M418,338.68a.66.66,0,0,1-.23-1,1,1,0,0,1,.22.3A4.4,4.4,0,0,1,418,338.68Z"/><path class="cls-1" d="M194.55,343.69a.64.64,0,0,1,.41.27l-.59.39A2.89,2.89,0,0,1,194.55,343.69Z"/><path class="cls-1" d="M304.92,252.61a2.66,2.66,0,0,1,1.18.61l-.58.57A2.59,2.59,0,0,1,304.92,252.61Z"/><path class="cls-1" d="M397.81,367.82c.77-.27.26.3.42.45l-.25.23A1.51,1.51,0,0,1,397.81,367.82Z"/><path class="cls-1" d="M240.44,387.87a2.89,2.89,0,0,1,.66-.18c0,.08,0,.21,0,.23l-.82.28s0-.09,0-.12S240.31,388,240.44,387.87Z"/><path class="cls-1" d="M442.16,202.81a1.26,1.26,0,0,1,.6.3l-.29.29A1.39,1.39,0,0,1,442.16,202.81Z"/><path class="cls-1" d="M129.13,204.68a1.4,1.4,0,0,1,.47-.55c0,.08.13.23.11.25A1.08,1.08,0,0,1,129.13,204.68Z"/><path class="cls-1" d="M316.66,198a1.09,1.09,0,0,1,.18.68A1,1,0,0,1,316.66,198Z"/><path class="cls-1" d="M44.5,460.44a.66.66,0,0,1,.24.49,1.19,1.19,0,0,1-.13.42,3.13,3.13,0,0,1-.19-.51A.56.56,0,0,1,44.5,460.44Z"/><path class="cls-1" d="M430.27,214a1.21,1.21,0,0,1,.11.57l-.53-.15Z"/><path class="cls-1" d="M295.84,166.78a1,1,0,0,1,.08.56,2,2,0,0,1-.19.35c-.05-.09-.15-.19-.13-.27A1.21,1.21,0,0,1,295.84,166.78Z"/><path class="cls-1" d="M240.86,166.35c0-.32.08-.47.11-.62.08,0,.23.08.22.12a6.93,6.93,0,0,1-.1.78s-.08,0-.11,0S240.9,166.56,240.86,166.35Z"/><path class="cls-1" d="M329.66,225.75a.68.68,0,0,1-.22.42l-.09-.62s.08,0,.11,0S329.54,225.63,329.66,225.75Z"/><path class="cls-1" d="M235.44,228.89c.75,1.35-.37.39-.69.65,0,0-.35-.28-.53-.43A9.73,9.73,0,0,1,235.44,228.89Z"/><path class="cls-1" d="M429.08,373.09a1.48,1.48,0,0,1-.47.55c0-.09-.14-.23-.12-.25A1.07,1.07,0,0,1,429.08,373.09Z"/><path class="cls-1" d="M44.07,236.37a1,1,0,0,1,.67.18A1,1,0,0,1,44.07,236.37Z"/><path class="cls-1" d="M51.12,154.88a1,1,0,0,1,.08.57,1.28,1.28,0,0,1-.19.34c0-.09-.14-.18-.13-.26A1.21,1.21,0,0,1,51.12,154.88Z"/><path class="cls-1" d="M433.5,242.91a1.07,1.07,0,0,1-.3.59s-.17-.08-.26-.12A1.6,1.6,0,0,1,433.5,242.91Z"/><path class="cls-1" d="M194.89,342.33a1.47,1.47,0,0,1-.55-.47c.09,0,.24-.14.26-.12A1.07,1.07,0,0,1,194.89,342.33Z"/><path class="cls-1" d="M402.74,245.63a1.08,1.08,0,0,1,.58.3s-.07.17-.12.25A1.46,1.46,0,0,1,402.74,245.63Z"/><path class="cls-1" d="M426.7,246a.6.6,0,0,1,.22-.42l.08.63h-.1A1.72,1.72,0,0,1,426.7,246Z"/><path class="cls-1" d="M179.35,338.68a1,1,0,0,1,.17.67A1,1,0,0,1,179.35,338.68Z"/><path class="cls-1" d="M355.05,264.72a2,2,0,0,1,.15,1.12,2.44,2.44,0,0,1-.38.68c-.09-.17-.28-.36-.26-.52A2.52,2.52,0,0,1,355.05,264.72Z"/><path class="cls-1" d="M309.1,330.26a1.07,1.07,0,0,1-.3.59s-.17-.07-.25-.12A1.48,1.48,0,0,1,309.1,330.26Z"/><path class="cls-1" d="M426,276.5a2,2,0,0,1,0-1l1,1A2,2,0,0,1,426,276.5Z"/><path class="cls-1" d="M306.72,329.58a1,1,0,0,1,.07.57,1.05,1.05,0,0,1-.19.34c0-.09-.14-.18-.13-.26A1.22,1.22,0,0,1,306.72,329.58Z"/><path class="cls-1" d="M387.68,290.13a5.25,5.25,0,0,1,1.28-.66c.12,0,.34.17.51.26a2.5,2.5,0,0,1-.67.38A5.62,5.62,0,0,1,387.68,290.13Z"/><path class="cls-1" d="M425.08,325.42c-.68.38-.19-.19-.32-.35s.14-.18.21-.27A3.22,3.22,0,0,1,425.08,325.42Z"/><path class="cls-1" d="M424.69,317.55a1.36,1.36,0,0,1-.43.84c-.06-.42-.12-.83-.17-1.25.07,0,.16,0,.21,0A4.3,4.3,0,0,1,424.69,317.55Z"/><path class="cls-1" d="M297.63,324.32a2.32,2.32,0,0,1-.33-.65c0-.06.08-.17.12-.26a1.32,1.32,0,0,1,.2.34A3.36,3.36,0,0,1,297.63,324.32Z"/><path class="cls-1" d="M414.89,321.34a1,1,0,0,1,.67.18A1,1,0,0,1,414.89,321.34Z"/><path class="cls-1" d="M55.88,448.37a1,1,0,0,1-.51,0c0-.07.05-.21.05-.21A.66.66,0,0,1,55.88,448.37Z"/><path class="cls-1" d="M363.31,427.39a1.35,1.35,0,0,1,0-.6l.22,0A1.59,1.59,0,0,1,363.31,427.39Z"/><path class="cls-1" d="M365.18,410.65a.77.77,0,0,1-.22-.46l.21-.06A1.11,1.11,0,0,1,365.18,410.65Z"/><path class="cls-1" d="M237.72,402.83a.66.66,0,0,1-.21-.46l.21-.05A1,1,0,0,1,237.72,402.83Z"/><path class="cls-1" d="M400.36,371.73a1.07,1.07,0,0,1,.51,0,1.56,1.56,0,0,1-.06.21A.71.71,0,0,1,400.36,371.73Z"/><path class="cls-1" d="M300.94,355a1.31,1.31,0,0,1,0,.59l-.22-.05A1.37,1.37,0,0,1,300.94,355Z"/><path class="cls-1" d="M195.32,340.38c-.11.11-.23.05-.34,0C195.09,340.32,195.21,340.26,195.32,340.38Z"/><path class="cls-1" d="M425.34,329.41a1,1,0,0,1-.52,0l.06-.21A.71.71,0,0,1,425.34,329.41Z"/><path class="cls-1" d="M414.63,320.24a1.11,1.11,0,0,1,0-.52l.21.06A.77.77,0,0,1,414.63,320.24Z"/><path class="cls-1" d="M413.1,314.8a.71.71,0,0,1-.21-.46l.21-.06A1,1,0,0,1,413.1,314.8Z"/><path class="cls-1" d="M186.74,310.72a1,1,0,0,1-.52,0l.06-.21A.71.71,0,0,1,186.74,310.72Z"/><path class="cls-1" d="M409.7,304a1.31,1.31,0,0,1,0,.59l-.22-.05A1.54,1.54,0,0,1,409.7,304Z"/><path class="cls-1" d="M182.06,291.43c.12-.11.23-.05.34,0C182.29,291.49,182.18,291.55,182.06,291.43Z"/><path class="cls-1" d="M425.7,346.65a3.79,3.79,0,0,1-.89.62l-.13-.44C425,346.77,425.25,346.71,425.7,346.65Z"/><path class="cls-1" d="M429.24,330.67a2.57,2.57,0,0,1,1.17,0l-.1.44A2.8,2.8,0,0,1,429.24,330.67Z"/><path class="cls-1" d="M183.68,260.5a1.35,1.35,0,0,1,0,.6l-.22-.05A1.41,1.41,0,0,1,183.68,260.5Z"/><path class="cls-1" d="M387.35,290.13a4.68,4.68,0,0,1-.89.62l-.14-.44C386.61,290.25,386.89,290.19,387.35,290.13Z"/><path class="cls-1" d="M440.84,286.93a1.4,1.4,0,0,1,.43.9l-.42.12A2,2,0,0,1,440.84,286.93Z"/><path class="cls-1" d="M425.37,285.25a1.37,1.37,0,0,1,.9-.43s.08.27.12.42A2,2,0,0,1,425.37,285.25Z"/><path class="cls-1" d="M429.76,253.11a.77.77,0,0,1-.46.22,1.42,1.42,0,0,1-.06-.22A1,1,0,0,1,429.76,253.11Z"/><path class="cls-1" d="M442.76,251c.11.11.05.22,0,.34C442.7,251.21,442.64,251.1,442.76,251Z"/><path class="cls-1" d="M385.67,267.42a1.37,1.37,0,0,1,.42.9l-.41.12A2,2,0,0,1,385.67,267.42Z"/><path class="cls-1" d="M463.41,240.7a1,1,0,0,1-.52,0,1.56,1.56,0,0,1,.06-.21A.71.71,0,0,1,463.41,240.7Z"/><path class="cls-1" d="M469.69,238.32a.71.71,0,0,1,.46-.21,1.56,1.56,0,0,1,.06.21A1,1,0,0,1,469.69,238.32Z"/><path class="cls-1" d="M406.19,234.11a1.42,1.42,0,0,1-.43-.91l.42-.11A2,2,0,0,1,406.19,234.11Z"/><path class="cls-1" d="M477.09,227.53c.11.12.05.23,0,.34C477,227.76,477,227.65,477.09,227.53Z"/><path class="cls-1" d="M132.87,226.6a1,1,0,0,1,.51,0,1,1,0,0,1-.06.21A.66.66,0,0,1,132.87,226.6Z"/><path class="cls-1" d="M134.48,226.17c.11.12.06.23,0,.34C134.42,226.4,134.37,226.29,134.48,226.17Z"/><path class="cls-1" d="M479.72,224.39a1.06,1.06,0,0,1-.51,0c0-.07.05-.21.05-.21A.74.74,0,0,1,479.72,224.39Z"/><path class="cls-1" d="M350.05,218.61a1.06,1.06,0,0,1,0-.51l.21.05A.72.72,0,0,1,350.05,218.61Z"/><path class="cls-1" d="M448.11,213.68a.72.72,0,0,1-.46.22s0-.14,0-.21A1.06,1.06,0,0,1,448.11,213.68Z"/><path class="cls-1" d="M451.93,205.44c.12.11.06.23,0,.34C451.88,205.67,451.82,205.55,451.93,205.44Z"/><path class="cls-1" d="M258.28,198.3a2.5,2.5,0,0,1,.45-.31l.07.22Z"/><path class="cls-1" d="M464.42,197.71a.66.66,0,0,1-.45.21,1,1,0,0,1-.06-.21A1,1,0,0,1,464.42,197.71Z"/><path class="cls-1" d="M241.46,177.66a1.07,1.07,0,0,1,0,.51l-.21-.06A.71.71,0,0,1,241.46,177.66Z"/><path class="cls-1" d="M440,146.39a1.94,1.94,0,0,1,.31.45l-.22.06C440.1,146.76,440.07,146.61,440,146.39Z"/><path class="cls-1" d="M266.7,144.94c.11.11.05.23,0,.34C266.64,145.17,266.58,145.05,266.7,144.94Z"/><path class="cls-1" d="M363.22,138.14c.12-.11.23,0,.34,0C363.45,138.2,363.34,138.26,363.22,138.14Z"/><path class="cls-1" d="M338.67,199.66a1.52,1.52,0,0,1,0,.6l-.22,0A1.41,1.41,0,0,1,338.67,199.66Z"/><path class="cls-1" d="M440,146.22a.52.52,0,0,1-.32-.11A.42.42,0,0,1,440,146.22Z"/><path class="cls-1" d="M291.76,148.42c0,.1-.12.11-.22.12A.23.23,0,0,1,291.76,148.42Z"/><path class="cls-1" d="M452.19,156.41c-.1,0-.11-.12-.12-.22C452.14,156.24,452.21,156.28,452.19,156.41Z"/><path class="cls-1" d="M367.05,184.11c.09,0,.11.12.12.22A.19.19,0,0,1,367.05,184.11Z"/><path class="cls-1" d="M420.41,188.19c.1,0,.11.12.12.22A.19.19,0,0,1,420.41,188.19Z"/><path class="cls-1" d="M488.9,188.7c-.1,0-.11-.12-.12-.22A.21.21,0,0,1,488.9,188.7Z"/><path class="cls-1" d="M300.6,198.22c-.1,0-.11-.12-.12-.22A.19.19,0,0,1,300.6,198.22Z"/><path class="cls-1" d="M258.11,198.3a.46.46,0,0,1-.11.32A.52.52,0,0,1,258.11,198.3Z"/><path class="cls-1" d="M338.84,199.66a.44.44,0,0,1,.11-.31A.49.49,0,0,1,338.84,199.66Z"/><path class="cls-1" d="M318.1,203.15c.1,0,.11.12.12.22A.21.21,0,0,1,318.1,203.15Z"/><path class="cls-1" d="M321,207.4c-.09,0-.1-.12-.12-.23C320.94,207.22,321,207.26,321,207.4Z"/><path class="cls-1" d="M322.52,210.28c.1,0,.11.12.12.23A.23.23,0,0,1,322.52,210.28Z"/><path class="cls-1" d="M462.56,210.79c0-.09.11-.1.22-.11C462.73,210.74,462.69,210.81,462.56,210.79Z"/><path class="cls-1" d="M323.37,211.13c-.09,0-.11-.11-.12-.22C323.32,211,323.39,211,323.37,211.13Z"/><path class="cls-1" d="M324.05,211.47c-.09,0-.11-.12-.12-.22C324,211.3,324.07,211.34,324.05,211.47Z"/><path class="cls-1" d="M327.62,215.89c0-.09.12-.11.22-.12A.19.19,0,0,1,327.62,215.89Z"/><path class="cls-1" d="M444.54,216.23c0-.09.12-.11.22-.12A.19.19,0,0,1,444.54,216.23Z"/><path class="cls-1" d="M421.43,218.1c.1,0,.11.12.12.22A.19.19,0,0,1,421.43,218.1Z"/><path class="cls-1" d="M376.39,220.82c0,.1-.11.11-.22.12C376.22,220.87,376.26,220.8,376.39,220.82Z"/><path class="cls-1" d="M209.68,222.35c0-.1.12-.11.22-.12A.19.19,0,0,1,209.68,222.35Z"/><path class="cls-1" d="M450.66,225.75c0-.1.12-.11.22-.12A.19.19,0,0,1,450.66,225.75Z"/><path class="cls-1" d="M344.61,226.43c0-.1.12-.11.23-.12C344.79,226.38,344.75,226.45,344.61,226.43Z"/><path class="cls-1" d="M447.43,230.51c-.1,0-.11-.12-.12-.22A.19.19,0,0,1,447.43,230.51Z"/><path class="cls-1" d="M400.13,239.15c0,.2-.23.22-.43.24A.4.4,0,0,1,400.13,239.15Z"/><path class="cls-1" d="M445.9,239.34c0-.09.12-.1.22-.11A.2.2,0,0,1,445.9,239.34Z"/><path class="cls-1" d="M379.61,250.59c.19,0,.21.24.24.44A.4.4,0,0,1,379.61,250.59Z"/><path class="cls-1" d="M456.27,241c-.1,0-.11-.11-.12-.22A.21.21,0,0,1,456.27,241Z"/><path class="cls-1" d="M188.27,245.8c0-.09.12-.11.22-.12C188.44,245.75,188.4,245.82,188.27,245.8Z"/><path class="cls-1" d="M429.25,248.18c0-.09.12-.11.22-.12C429.42,248.13,429.38,248.2,429.25,248.18Z"/><path class="cls-1" d="M330.82,274.15c0,.19-.23.21-.43.23A.39.39,0,0,1,330.82,274.15Z"/><path class="cls-1" d="M401.55,254.3c-.1,0-.11-.12-.12-.22A.22.22,0,0,1,401.55,254.3Z"/><path class="cls-1" d="M42.12,260.93c.09,0,.1.12.11.22S42.1,261.06,42.12,260.93Z"/><path class="cls-1" d="M192.35,282.34c.09,0,.1.12.11.22A.2.2,0,0,1,192.35,282.34Z"/><path class="cls-1" d="M423.85,341.77a.93.93,0,0,1-.62-.22A1,1,0,0,1,423.85,341.77Z"/><path class="cls-1" d="M423.85,342.11a1,1,0,0,1,.63.21A.94.94,0,0,1,423.85,342.11Z"/><path class="cls-1" d="M426,346.65a.91.91,0,0,1,.22-.62A1,1,0,0,1,426,346.65Z"/><path class="cls-1" d="M325.24,309.53c.1,0,.11.12.12.22A.19.19,0,0,1,325.24,309.53Z"/><path class="cls-1" d="M186.23,312.25c.09,0,.11.12.12.22A.19.19,0,0,1,186.23,312.25Z"/><path class="cls-1" d="M452.87,314.8c-.1,0-.11-.12-.12-.22A.19.19,0,0,1,452.87,314.8Z"/><path class="cls-1" d="M297.63,324.49a.44.44,0,0,1,.31.11A.49.49,0,0,1,297.63,324.49Z"/><path class="cls-1" d="M425.17,330.26c.09,0,.11.12.12.23A.21.21,0,0,1,425.17,330.26Z"/><path class="cls-1" d="M180.62,340.63c-.1,0-.11-.12-.12-.22S180.64,340.5,180.62,340.63Z"/><path class="cls-1" d="M182.74,343.35a.49.49,0,0,1-.31-.11A.49.49,0,0,1,182.74,343.35Z"/><path class="cls-1" d="M301.11,355a.44.44,0,0,1,.11-.31A.49.49,0,0,1,301.11,355Z"/><path class="cls-1" d="M429.08,372.07c0,.1-.12.11-.22.12A.19.19,0,0,1,429.08,372.07Z"/><path class="cls-1" d="M62.51,381.93c.1,0,.11.12.12.22S62.49,382.06,62.51,381.93Z"/><path class="cls-1" d="M369.77,415.41c0-.1.12-.11.22-.12A.23.23,0,0,1,369.77,415.41Z"/><path class="cls-1" d="M363.14,427.39a.49.49,0,0,1-.11.31A.49.49,0,0,1,363.14,427.39Z"/><path class="cls-1" d="M237.72,431c-.1,0-.11-.12-.12-.22C237.67,430.87,237.74,430.91,237.72,431Z"/><path class="cls-1" d="M227.18,452.2a.44.44,0,0,1-.11.31A.49.49,0,0,1,227.18,452.2Z"/><path class="cls-1" d="M369.41,378.89c-.27,1.51-2-5.39-1.3,4.35.28,3.95-.76,11.39-2.36,13.26a10,10,0,0,0-1.5,4.39c-.45,3.15,1.64,2.93.68,7.75.33-.15.81.26.95-.55,1.13-6.4,2-13.95,3.33-19.31C370.16,384.93,369.31,382.51,369.41,378.89Z"/><path class="cls-1" d="M375.27,332.64a26.12,26.12,0,0,1,1.48,2.94c.09.22-.15.58-.25.87-.13-.23-.23-.65-.4-.68-1.6-.32-1-2.07-1.88-2.83A1.89,1.89,0,0,1,375.27,332.64Z"/><path class="cls-1" d="M371.57,334.33a9,9,0,0,0-1.31-.64c.23-.18.45-.5.69-.51a2.45,2.45,0,0,1,1.57.16c.42.34.56,1,.82,1.56A10.45,10.45,0,0,1,371.57,334.33Z"/><path class="cls-1" d="M376.28,340.38a9.69,9.69,0,0,1-.57-1.78c.53.27,1.28.4,1.57.84C377.78,340.2,377.35,340.64,376.28,340.38Z"/><path class="cls-1" d="M375.43,321.71a1.8,1.8,0,0,1-1.34.3,3,3,0,0,1,0-.6A1.8,1.8,0,0,1,375.43,321.71Z"/><path class="cls-1" d="M249.1,236.42a2.75,2.75,0,0,1,1.18.6l-.58.58A2.75,2.75,0,0,1,249.1,236.42Z"/><path class="cls-1" d="M179.62,212.7c.75,1.35-.37.39-.69.65,0,0-.35-.28-.53-.43A8.15,8.15,0,0,1,179.62,212.7Z"/><path class="cls-1" d="M299.23,248.53a2,2,0,0,1,.15,1.12,2.67,2.67,0,0,1-.37.68c-.1-.18-.29-.36-.27-.52A2.45,2.45,0,0,1,299.23,248.53Z"/><path class="cls-1" d="M370.22,260.31a2.06,2.06,0,0,1,0-1l1,1A2.12,2.12,0,0,1,370.22,260.31Z"/><path class="cls-1" d="M331.87,273.93a5.34,5.34,0,0,1,1.27-.65c.12,0,.34.16.51.25a2.54,2.54,0,0,1-.67.39A6.58,6.58,0,0,1,331.87,273.93Z"/><path class="cls-1" d="M368.87,301.35a1.31,1.31,0,0,1-.43.84c-.06-.41-.11-.82-.17-1.24.07,0,.16,0,.21,0A2.81,2.81,0,0,1,368.87,301.35Z"/><path class="cls-1" d="M369.88,330.46a4.11,4.11,0,0,1-.89.62l-.13-.44C369.14,330.58,369.43,330.52,369.88,330.46Z"/><path class="cls-1" d="M373.42,314.47a2.88,2.88,0,0,1,1.17,0l-.1.44A2.8,2.8,0,0,1,373.42,314.47Z"/><path class="cls-1" d="M331.53,273.93a4.27,4.27,0,0,1-.89.63l-.14-.44C330.79,274.06,331.07,274,331.53,273.93Z"/><path class="cls-1" d="M385,270.74a1.37,1.37,0,0,1,.43.9l-.42.12A2,2,0,0,1,385,270.74Z"/><path class="cls-1" d="M369.55,269.05a1.37,1.37,0,0,1,.9-.42s.08.27.12.42A2.17,2.17,0,0,1,369.55,269.05Z"/><path class="cls-1" d="M329.85,251.22a1.42,1.42,0,0,1,.42.91s-.27.07-.41.11A2,2,0,0,1,329.85,251.22Z"/><path class="cls-1" d="M350.37,217.91a1.37,1.37,0,0,1-.43-.9l.42-.11A2,2,0,0,1,350.37,217.91Z"/><path class="cls-1" d="M344.31,223c0,.19-.23.21-.43.24A.4.4,0,0,1,344.31,223Z"/><path class="cls-1" d="M323.79,234.4c.19,0,.21.24.24.44A.4.4,0,0,1,323.79,234.4Z"/><path class="cls-1" d="M275,258c0,.19-.24.22-.44.24A.4.4,0,0,1,275,258Z"/><path class="cls-1" d="M368,325.58a.94.94,0,0,1-.62-.22A.91.91,0,0,1,368,325.58Z"/><path class="cls-1" d="M368,325.91a1,1,0,0,1,.63.22A.9.9,0,0,1,368,325.91Z"/><path class="cls-1" d="M370.22,330.46a1,1,0,0,1,.22-.63A1,1,0,0,1,370.22,330.46Z"/><path class="cls-1" d="M344.38,129.78c-.4-.51-3,1.79-1.94-1.45.42-1.31-1.13-3.79-3.51-4.41a4.08,4.08,0,0,1-2.24-1.46c-.67-1,2.45-1,1-2.58.49.06,1.21-.08,1.42.19,1.68,2.13,3,4.63,5,6.42C345.5,127.77,344.22,128.57,344.38,129.78Z"/><path class="cls-1" d="M346.75,153.45a31.65,31.65,0,0,1,1.9,3.76c.11.28-.2.74-.32,1.11-.17-.3-.29-.83-.51-.87-2.06-.41-1.29-2.64-2.42-3.62A2.48,2.48,0,0,1,346.75,153.45Z"/><path class="cls-1" d="M342,155.6a11.67,11.67,0,0,0-1.67-.81c.3-.23.58-.64.89-.66a3.2,3.2,0,0,1,2,.21c.54.43.72,1.31,1.06,2A13.2,13.2,0,0,1,342,155.6Z"/><path class="cls-1" d="M348,163.35a13.34,13.34,0,0,1-.73-2.28c.69.34,1.64.52,2,1.07C350,163.12,349.41,163.68,348,163.35Z"/><path class="cls-1" d="M347,139.46a2.29,2.29,0,0,1-1.72.38,4.82,4.82,0,0,1,0-.76A2.29,2.29,0,0,1,347,139.46Z"/><path class="cls-1" d="M185.33,30.35a3.29,3.29,0,0,1,1.51.77l-.73.73A3.41,3.41,0,0,1,185.33,30.35Z"/><path class="cls-1" d="M96.45,0c1,1.73-.48.5-.89.83,0,0-.44-.36-.68-.55A10.8,10.8,0,0,1,96.45,0Z"/><path class="cls-1" d="M249.47,45.84a2.6,2.6,0,0,1,.19,1.43,3.12,3.12,0,0,1-.48.87c-.12-.22-.36-.46-.33-.66A3,3,0,0,1,249.47,45.84Z"/><path class="cls-1" d="M340.29,60.91a2.57,2.57,0,0,1,0-1.31l1.29,1.29A2.68,2.68,0,0,1,340.29,60.91Z"/><path class="cls-1" d="M291.22,78.34a7.06,7.06,0,0,1,1.63-.84c.16,0,.44.21.66.33a3.23,3.23,0,0,1-.86.49A8.07,8.07,0,0,1,291.22,78.34Z"/><path class="cls-1" d="M338.57,113.42a1.78,1.78,0,0,1-.55,1.08c-.08-.54-.15-1.07-.23-1.6a.8.8,0,0,1,.28,0A4.63,4.63,0,0,1,338.57,113.42Z"/><path class="cls-1" d="M339.86,150.65a5.34,5.34,0,0,1-1.14.8l-.17-.56C338.91,150.81,339.28,150.73,339.86,150.65Z"/><path class="cls-1" d="M344.38,130.21a3.45,3.45,0,0,1,1.5,0l-.12.57A3.83,3.83,0,0,1,344.38,130.21Z"/><path class="cls-1" d="M290.79,78.34a5.72,5.72,0,0,1-1.14.8l-.17-.57C289.84,78.5,290.21,78.42,290.79,78.34Z"/><path class="cls-1" d="M359.23,74.25a1.79,1.79,0,0,1,.55,1.16s-.35.09-.54.14A2.66,2.66,0,0,1,359.23,74.25Z"/><path class="cls-1" d="M339.43,72.1a1.77,1.77,0,0,1,1.16-.55s.09.35.14.54A2.66,2.66,0,0,1,339.43,72.1Z"/><path class="cls-1" d="M288.64,49.28a1.76,1.76,0,0,1,.54,1.16,3.66,3.66,0,0,1-.53.15A2.7,2.7,0,0,1,288.64,49.28Z"/><path class="cls-1" d="M314.9,6.67a1.75,1.75,0,0,1-.55-1.15,4.72,4.72,0,0,1,.53-.15A2.64,2.64,0,0,1,314.9,6.67Z"/><path class="cls-1" d="M307.15,13.13c0,.24-.3.27-.56.3A.52.52,0,0,1,307.15,13.13Z"/><path class="cls-1" d="M280.89,27.76c.24,0,.27.3.3.56A.52.52,0,0,1,280.89,27.76Z"/><path class="cls-1" d="M218.48,57.89c0,.25-.3.28-.56.3A.52.52,0,0,1,218.48,57.89Z"/><path class="cls-1" d="M337.49,144.41a1.16,1.16,0,0,1-.79-.28A1.16,1.16,0,0,1,337.49,144.41Z"/><path class="cls-1" d="M337.49,144.84a1.19,1.19,0,0,1,.8.28A1.19,1.19,0,0,1,337.49,144.84Z"/><path class="cls-1" d="M340.29,150.65a1.2,1.2,0,0,1,.28-.8A1.17,1.17,0,0,1,340.29,150.65Z"/><path class="cls-1" d="M399,324.61c-.4-.51-3,1.79-1.94-1.45.42-1.31-1.13-3.79-3.51-4.41a4,4,0,0,1-2.23-1.46c-.67-1.05,2.44-1,1-2.58.49.06,1.22-.08,1.43.19,1.67,2.13,3,4.63,5,6.42C400.09,322.6,398.81,323.4,399,324.61Z"/><path class="cls-1" d="M401.34,348.28a31.65,31.65,0,0,1,1.9,3.76c.12.28-.2.74-.32,1.11-.16-.3-.29-.83-.51-.87-2.05-.41-1.29-2.64-2.41-3.62A2.42,2.42,0,0,1,401.34,348.28Z"/><path class="cls-1" d="M396.61,350.43a12.2,12.2,0,0,0-1.67-.81c.29-.23.57-.64.88-.66a3.19,3.19,0,0,1,2,.21c.54.43.72,1.31,1.06,2A13.12,13.12,0,0,1,396.61,350.43Z"/><path class="cls-1" d="M402.63,358.18a14.29,14.29,0,0,1-.73-2.28c.69.34,1.64.52,2,1.07C404.56,358,404,358.51,402.63,358.18Z"/><path class="cls-1" d="M401.56,334.29a2.3,2.3,0,0,1-1.72.38,3.22,3.22,0,0,1,0-.76A2.3,2.3,0,0,1,401.56,334.29Z"/><path class="cls-1" d="M239.93,225.18a3.29,3.29,0,0,1,1.51.77l-.74.73A3.3,3.3,0,0,1,239.93,225.18Z"/><path class="cls-1" d="M151.05,194.83c1,1.73-.48.5-.89.83,0,0-.45-.36-.68-.55A10.8,10.8,0,0,1,151.05,194.83Z"/><path class="cls-1" d="M304.06,240.67a2.62,2.62,0,0,1,.2,1.43,3.74,3.74,0,0,1-.48.87c-.12-.22-.37-.46-.34-.66A3.12,3.12,0,0,1,304.06,240.67Z"/><path class="cls-1" d="M394.89,255.74a2.7,2.7,0,0,1,0-1.31l1.3,1.29A2.69,2.69,0,0,1,394.89,255.74Z"/><path class="cls-1" d="M345.82,273.17a6.77,6.77,0,0,1,1.62-.84c.17-.05.44.21.66.33a3.34,3.34,0,0,1-.85.49A8.09,8.09,0,0,1,345.82,273.17Z"/><path class="cls-1" d="M393.16,308.25a1.73,1.73,0,0,1-.55,1.08c-.07-.54-.15-1.07-.22-1.6a.77.77,0,0,1,.27,0A4.63,4.63,0,0,1,393.16,308.25Z"/><path class="cls-1" d="M394.45,345.48a5,5,0,0,1-1.13.8l-.18-.56C393.51,345.64,393.87,345.56,394.45,345.48Z"/><path class="cls-1" d="M399,325a3.5,3.5,0,0,1,1.51,0l-.13.57A3.83,3.83,0,0,1,399,325Z"/><path class="cls-1" d="M345.39,273.17a5.72,5.72,0,0,1-1.14.8l-.18-.57C344.44,273.33,344.81,273.25,345.39,273.17Z"/><path class="cls-1" d="M413.82,269.08a1.75,1.75,0,0,1,.55,1.16l-.53.14A2.53,2.53,0,0,1,413.82,269.08Z"/><path class="cls-1" d="M394,266.93a1.77,1.77,0,0,1,1.16-.55s.1.35.15.54A2.7,2.7,0,0,1,394,266.93Z"/><path class="cls-1" d="M343.23,244.11a1.79,1.79,0,0,1,.55,1.16,4.72,4.72,0,0,1-.53.15A2.57,2.57,0,0,1,343.23,244.11Z"/><path class="cls-1" d="M369.49,201.5a1.79,1.79,0,0,1-.55-1.15,4.46,4.46,0,0,1,.54-.15A2.66,2.66,0,0,1,369.49,201.5Z"/><path class="cls-1" d="M361.74,208c0,.24-.3.27-.56.3A.52.52,0,0,1,361.74,208Z"/><path class="cls-1" d="M335.49,222.59c.24,0,.27.3.3.56A.49.49,0,0,1,335.49,222.59Z"/><path class="cls-1" d="M273.07,252.72c0,.25-.3.28-.56.3A.52.52,0,0,1,273.07,252.72Z"/><path class="cls-1" d="M392.09,339.24a1.19,1.19,0,0,1-.8-.28A1.19,1.19,0,0,1,392.09,339.24Z"/><path class="cls-1" d="M392.09,339.67a1.2,1.2,0,0,1,.8.28A1.17,1.17,0,0,1,392.09,339.67Z"/><path class="cls-1" d="M394.89,345.48a1.19,1.19,0,0,1,.27-.8A1.21,1.21,0,0,1,394.89,345.48Z"/><path class="cls-1" d="M130.48,503.91c-.4-.5-3,1.79-1.94-1.45.42-1.31-1.13-3.79-3.51-4.41a4,4,0,0,1-2.23-1.46c-.68-1,2.44-1,1-2.57.49.05,1.22-.09,1.43.18,1.67,2.13,3,4.64,5,6.42C131.6,501.9,130.32,502.7,130.48,503.91Z"/><path class="cls-1" d="M132.85,527.58a31.65,31.65,0,0,1,1.9,3.76c.12.28-.2.74-.32,1.11-.17-.3-.29-.83-.51-.87-2-.41-1.29-2.64-2.41-3.62A2.42,2.42,0,0,1,132.85,527.58Z"/><path class="cls-1" d="M128.12,529.73a11.71,11.71,0,0,0-1.68-.81c.3-.23.58-.63.89-.66a3.26,3.26,0,0,1,2,.21c.54.43.72,1.32,1.06,2A13.12,13.12,0,0,1,128.12,529.73Z"/><path class="cls-1" d="M134.14,537.48a14,14,0,0,1-.73-2.28c.69.34,1.64.52,2,1.07C136.07,537.25,135.51,537.81,134.14,537.48Z"/><path class="cls-1" d="M133.07,513.59a2.3,2.3,0,0,1-1.72.38,3.22,3.22,0,0,1,0-.76A2.3,2.3,0,0,1,133.07,513.59Z"/><path class="cls-1" d="M35.57,420a2.62,2.62,0,0,1,.2,1.43,3.74,3.74,0,0,1-.48.87c-.12-.22-.37-.46-.34-.66A3,3,0,0,1,35.57,420Z"/><path class="cls-1" d="M126.39,435a2.81,2.81,0,0,1,0-1.31L127.7,435A2.68,2.68,0,0,1,126.39,435Z"/><path class="cls-1" d="M77.33,452.47a6.77,6.77,0,0,1,1.62-.84c.17-.05.44.21.66.33a3.34,3.34,0,0,1-.85.49A8.09,8.09,0,0,1,77.33,452.47Z"/><path class="cls-1" d="M124.67,487.55a1.73,1.73,0,0,1-.55,1.08c-.07-.53-.15-1.06-.22-1.59a.6.6,0,0,1,.27,0A4.63,4.63,0,0,1,124.67,487.55Z"/><path class="cls-1" d="M126,524.78a4.87,4.87,0,0,1-1.14.8l-.17-.56C125,524.94,125.38,524.86,126,524.78Z"/><path class="cls-1" d="M130.48,504.34a3.5,3.5,0,0,1,1.51,0l-.13.57A3.83,3.83,0,0,1,130.48,504.34Z"/><path class="cls-1" d="M76.89,452.47a5,5,0,0,1-1.13.8l-.18-.57C76,452.63,76.31,452.55,76.89,452.47Z"/><path class="cls-1" d="M145.33,448.38a1.77,1.77,0,0,1,.55,1.16l-.53.14A2.53,2.53,0,0,1,145.33,448.38Z"/><path class="cls-1" d="M125.53,446.23a1.77,1.77,0,0,1,1.16-.55s.1.35.15.54A2.71,2.71,0,0,1,125.53,446.23Z"/><path class="cls-1" d="M74.74,423.42a1.75,1.75,0,0,1,.55,1.15,4.46,4.46,0,0,1-.54.15A2.66,2.66,0,0,1,74.74,423.42Z"/><path class="cls-1" d="M101,380.8a1.79,1.79,0,0,1-.55-1.15,4.46,4.46,0,0,1,.54-.15A2.66,2.66,0,0,1,101,380.8Z"/><path class="cls-1" d="M93.25,387.26c0,.24-.3.27-.56.3A.52.52,0,0,1,93.25,387.26Z"/><path class="cls-1" d="M67,401.89c.25.05.28.31.31.56A.51.51,0,0,1,67,401.89Z"/><path class="cls-1" d="M4.58,432c0,.25-.3.28-.56.31A.52.52,0,0,1,4.58,432Z"/><path class="cls-1" d="M123.6,518.54a1.17,1.17,0,0,1-.8-.28A1.2,1.2,0,0,1,123.6,518.54Z"/><path class="cls-1" d="M123.6,519a1.22,1.22,0,0,1,.79.28A1.16,1.16,0,0,1,123.6,519Z"/><path class="cls-1" d="M126.39,524.78a1.26,1.26,0,0,1,.28-.8A1.17,1.17,0,0,1,126.39,524.78Z"/><path class="cls-1" d="M92.3,296.58c-.4-.5-3,1.8-1.94-1.44.42-1.31-1.13-3.79-3.51-4.41a4.08,4.08,0,0,1-2.24-1.46c-.67-1,2.45-1,1-2.58.49.05,1.21-.08,1.42.19,1.68,2.13,3,4.63,5,6.42C93.42,294.58,92.14,295.38,92.3,296.58Z"/><path class="cls-1" d="M94.67,320.26a31.65,31.65,0,0,1,1.9,3.76c.12.28-.2.74-.32,1.11-.17-.3-.29-.83-.51-.87-2-.41-1.29-2.64-2.42-3.62A2.48,2.48,0,0,1,94.67,320.26Z"/><path class="cls-1" d="M89.93,322.41a11.67,11.67,0,0,0-1.67-.81c.3-.23.58-.64.89-.66a3.2,3.2,0,0,1,2,.21c.54.43.72,1.31,1.06,2A13.48,13.48,0,0,1,89.93,322.41Z"/><path class="cls-1" d="M96,330.16a13.62,13.62,0,0,1-.73-2.28c.69.34,1.64.51,2,1.07C97.89,329.93,97.33,330.49,96,330.16Z"/><path class="cls-1" d="M94.88,306.27a2.27,2.27,0,0,1-1.71.38,3.22,3.22,0,0,1,0-.76A2.27,2.27,0,0,1,94.88,306.27Z"/><path class="cls-1" d="M88.21,227.72a2.68,2.68,0,0,1,0-1.31l1.29,1.29A2.81,2.81,0,0,1,88.21,227.72Z"/><path class="cls-1" d="M39.14,245.15a7.06,7.06,0,0,1,1.63-.84c.16-.05.44.21.66.33a3.34,3.34,0,0,1-.85.49A8.18,8.18,0,0,1,39.14,245.15Z"/><path class="cls-1" d="M86.49,280.23a1.73,1.73,0,0,1-.55,1.07c-.08-.53-.15-1.06-.23-1.59a.8.8,0,0,1,.28,0A4.63,4.63,0,0,1,86.49,280.23Z"/><path class="cls-1" d="M87.78,317.46a5.09,5.09,0,0,1-1.14.8l-.17-.56C86.84,317.62,87.2,317.54,87.78,317.46Z"/><path class="cls-1" d="M92.3,297a3.45,3.45,0,0,1,1.5,0l-.12.56A3.63,3.63,0,0,1,92.3,297Z"/><path class="cls-1" d="M38.71,245.15a5.18,5.18,0,0,1-1.14.8l-.17-.57C37.77,245.3,38.13,245.23,38.71,245.15Z"/><path class="cls-1" d="M107.15,241.06a1.79,1.79,0,0,1,.55,1.16l-.54.14A2.66,2.66,0,0,1,107.15,241.06Z"/><path class="cls-1" d="M87.35,238.91a1.77,1.77,0,0,1,1.16-.55s.09.35.15.53A2.57,2.57,0,0,1,87.35,238.91Z"/><path class="cls-1" d="M36.56,216.09a1.82,1.82,0,0,1,.55,1.16l-.54.15A2.71,2.71,0,0,1,36.56,216.09Z"/><path class="cls-1" d="M62.82,173.48a1.75,1.75,0,0,1-.55-1.16l.53-.14A2.53,2.53,0,0,1,62.82,173.48Z"/><path class="cls-1" d="M55.07,179.94c0,.24-.3.27-.56.3A.5.5,0,0,1,55.07,179.94Z"/><path class="cls-1" d="M28.81,194.57c.25.05.28.3.3.56A.52.52,0,0,1,28.81,194.57Z"/><path class="cls-1" d="M85.41,311.22a1.16,1.16,0,0,1-.79-.28A1.16,1.16,0,0,1,85.41,311.22Z"/><path class="cls-1" d="M85.41,311.65a1.17,1.17,0,0,1,.8.28A1.2,1.2,0,0,1,85.41,311.65Z"/><path class="cls-1" d="M88.21,317.46a1.24,1.24,0,0,1,.28-.8A1.19,1.19,0,0,1,88.21,317.46Z"/><path class="cls-1" d="M19.41,233.07c.61.18,1.44-3.17,2.42.09.39,1.32,3.07,2.48,5.38,1.65a4,4,0,0,1,2.67-.06c1.15.48-1.46,2.19.63,2.69-.43.24-1,.76-1.28.66-2.59-.81-5.08-2.14-7.72-2.49C19.62,235.36,20.22,234,19.41,233.07Z"/><path class="cls-1" d="M4.06,214.88a31.73,31.73,0,0,1-3.69-2c-.26-.17-.25-.72-.37-1.1.31.16.71.52.92.43,1.92-.82,2.56,1.45,4,1.62A2.47,2.47,0,0,1,4.06,214.88Z"/><path class="cls-1" d="M6.75,210.43a11.1,11.1,0,0,0,1.84-.28c-.12.36-.12.85-.36,1-.53.43-1.2,1-1.77,1s-1.34-.68-2-1A13.24,13.24,0,0,1,6.75,210.43Z"/><path class="cls-1" d="M11.8,226.54a2.35,2.35,0,0,1,1.2-1.29,4,4,0,0,1,.43.64A2.3,2.3,0,0,1,11.8,226.54Z"/><path class="cls-1" d="M206.8,225.1a3.32,3.32,0,0,1-1.68.21c.07-.34.13-.68.19-1A3.33,3.33,0,0,1,206.8,225.1Z"/><path class="cls-1" d="M297.27,199.84c-1.77-.88.11-.68.26-1.18a4,4,0,0,1,.87.06A9.8,9.8,0,0,1,297.27,199.84Z"/><path class="cls-1" d="M145.15,248.6a2.59,2.59,0,0,1-1-1.07,3.21,3.21,0,0,1-.09-1c.22.11.56.17.65.35A3,3,0,0,1,145.15,248.6Z"/><path class="cls-1" d="M61.73,287.55a2.5,2.5,0,0,1,.73,1.09l-1.8-.34A2.65,2.65,0,0,1,61.73,287.55Z"/><path class="cls-1" d="M92.34,245.41a7,7,0,0,1-.87,1.61c-.1.14-.48.08-.73.11a3.2,3.2,0,0,1,.43-.89A7.72,7.72,0,0,1,92.34,245.41Z"/><path class="cls-1" d="M33.45,243.27a1.73,1.73,0,0,1-.15-1.2l1.08,1.18c-.08.05-.16.13-.24.14A3.91,3.91,0,0,1,33.45,243.27Z"/><path class="cls-1" d="M11.32,213.3a5.54,5.54,0,0,1,.49-1.31l.46.37C12,212.63,11.76,212.9,11.32,213.3Z"/><path class="cls-1" d="M19.16,232.71a3.59,3.59,0,0,1-1.24.86l-.21-.54A3.68,3.68,0,0,1,19.16,232.71Z"/><path class="cls-1" d="M92.69,245.17a5.49,5.49,0,0,1,.49-1.3l.46.37C93.38,244.51,93.13,244.78,92.69,245.17Z"/><path class="cls-1" d="M38.57,287.26a1.82,1.82,0,0,1-1.11-.65s.24-.28.36-.42A2.51,2.51,0,0,1,38.57,287.26Z"/><path class="cls-1" d="M56.11,277.83a1.81,1.81,0,0,1-.64,1.11s-.28-.24-.42-.36A2.53,2.53,0,0,1,56.11,277.83Z"/><path class="cls-1" d="M110.9,267.91a1.76,1.76,0,0,1-1.1-.64s.23-.28.35-.43A2.65,2.65,0,0,1,110.9,267.91Z"/><path class="cls-1" d="M113.35,317.91a1.74,1.74,0,0,1,1.11.64,4.4,4.4,0,0,1-.36.42A2.63,2.63,0,0,1,113.35,317.91Z"/><path class="cls-1" d="M116.09,308.2c-.1-.23.1-.4.29-.57A.5.5,0,0,1,116.09,308.2Z"/><path class="cls-1" d="M129.47,281.28c-.23.1-.4-.1-.57-.29A.51.51,0,0,1,129.47,281.28Z"/><path class="cls-1" d="M163.89,221.13c-.1-.23.09-.4.29-.57A.51.51,0,0,1,163.89,221.13Z"/><path class="cls-1" d="M16.81,217.1a1.23,1.23,0,0,1,.81-.22A1.18,1.18,0,0,1,16.81,217.1Z"/><path class="cls-1" d="M16.56,216.75a1.18,1.18,0,0,1-.81.22A1.18,1.18,0,0,1,16.56,216.75Z"/><path class="cls-1" d="M11,213.54a1.18,1.18,0,0,1,.22.81A1.18,1.18,0,0,1,11,213.54Z"/><path class="cls-1" d="M494.34,366.68a11.83,11.83,0,0,1,5.36,2.74L497.09,372A12,12,0,0,1,494.34,366.68Z"/><path class="cls-1" d="M178.56,258.87c3.42,6.14-1.7,1.76-3.15,2.95-.16.13-1.58-1.27-2.42-2A38.58,38.58,0,0,1,178.56,258.87Z"/><path class="cls-1" d="M240.64,293.08a11.85,11.85,0,0,1,5.35,2.74l-2.61,2.61A11.85,11.85,0,0,1,240.64,293.08Z"/><path class="cls-1" d="M468.49,348.13a9.29,9.29,0,0,1,.69,5.07,12.06,12.06,0,0,1-1.71,3.08c-.43-.78-1.29-1.62-1.2-2.34A10.86,10.86,0,0,1,468.49,348.13Z"/><path class="cls-1" d="M358.39,391c-.16.86-1.08,1-2,1.07A1.79,1.79,0,0,1,358.39,391Z"/><path class="cls-1" d="M199,242c2.93.52,4.89,2,6.85,3.51l-3.34,3.34C201,246.86,199.48,244.91,199,242Z"/><path class="cls-1" d="M490.46,312.4c1,2.82,1.27,4.73.89,6.49-.31,1.41-1.43,2.64-2.19,3.94-.55-1-1.65-2.07-1.53-3C488,317,488.83,314.22,490.46,312.4Z"/><path class="cls-1" d="M349.6,367.18c-.2,1.11-1.37,1.24-2.54,1.37A2.32,2.32,0,0,1,349.6,367.18Z"/></g></g></svg>