<svg xmlns="http://www.w3.org/2000/svg" viewBox="0 0 580.47 233.69"><defs><style>.cls-1{fill:#f05c94;}</style></defs><g id="Layer_2" data-name="Layer 2"><g id="Layer_1-2" data-name="Layer 1"><g id="footer-trench"><path class="cls-1" d="M0,24.72a24.43,24.43,0,0,1,.87,3.35c.71,5.2,1.24,10.48,2.05,15.62a44.5,44.5,0,0,0,2,7.74c.59,1.65,1.72,2.64,2.43,4.2.91,2,1.64,4.25,2.45,6.4,0,.11.15.19.15.28,0,2.31.17,4.65,0,6.9a20.49,20.49,0,0,0,1.74,9.32c1,2,2.36,3.65,2.82,6.72a17.4,17.4,0,0,0,2,5c1.17,2.43,2.45,4.72,3.65,7.12a4.64,4.64,0,0,1,.51,1.81,75.43,75.43,0,0,1-.47,12.13,10.43,10.43,0,0,0,.76,6c1.22,2.59,2.48,5.12,3.74,7.63s2.8,3.51,4.57,3.81a10.94,10.94,0,0,0,2,.38c2.66,0,4.73,1.85,6.14,6A10.75,10.75,0,0,0,40.44,140c.13.11.26.42.35.38,1.58-.74,2.33,1.82,3.47,2.81,1.88,1.62,3.84,2.95,5.74,4.49a41.72,41.72,0,0,1,4.25,3.73c1,1.06,1.36,2.93,1.21,5.11-.13,1.72.09,2.67,1.29,2.95a34.23,34.23,0,0,1,5.53,2.43,2.65,2.65,0,0,0,1,.28c4.25,0,8.5.12,12.75,0,3.12-.11,6.07,1.35,9.06,2.58a20.27,20.27,0,0,0,4.65,1.44c2.56.35,4.86,1.4,6.59,5.25.84,1.89,2.08,2.91,3.43,2.84,2.71-.16,5.42-.48,8.13-.79,2-.22,4-.48,6.06-.81,1-.17,2.06-.95,3-.7,1.89.49,3.84-.07,5.7,1.36.85.66,2-.24,2.78,1.39,1.3,2.93,3.27,2.54,5,3.55,1.43.85,2.85,2,4.32,2.39s2.67,2.71,4.3,2.16c.24-.08.57.43.81.77.7,1,1.35,2,2.23.44.1-.18.6.19.85.49,1.09,1.3,2.14,1.09,3.33.23a17.43,17.43,0,0,1,4.92-2.69c1.48-.45,3.08.28,4.56-.2a36.52,36.52,0,0,1,4.34-.68,2.72,2.72,0,0,1,1.76,0c2.43,1.17,4.67-.54,7-1.27.2-.06.54-.43.56-.36.87,2.5,1.64,0,2.4-.25,1.48-.52,2.91-1.5,4.38-2.15.28-.13.64.35,1,.54-.2.34-.41.68-.61,1-.09.15-.18.3-.26.45.14.12.35.41.41.33.56-.78,1.53.26,1.89-1.47,0-.2.55-.13.84-.11,2.85.12,5.7.43,8.55.33a41,41,0,0,0,5.49-1.1c.17,0,.43.52.53.9a4,4,0,0,1-.05,1.07c.24-.06.57,0,.72-.22a1.61,1.61,0,0,1,2.58-.64c.31.2.76-.42,1.11-.31a6.79,6.79,0,0,1,2.93,1.24c1.53,1.37,3,0,4.47.16.76.08,1.53.09,2.29.19.31,0,.64.48.9.35,2.56-1.24,4.77,1,7.05,2.37.94.55,1.76,1.7,2.68,2.34a3.41,3.41,0,0,0,2.33.9c2.17-.42,4.07,1.12,6,2.25,1.58.9,3.21,1.48,4.81,2.29a5.06,5.06,0,0,1,1.38,1.2c1.81,2.09,4,1.75,5.92,2.74a11.67,11.67,0,0,0,5.27,1.58,51.12,51.12,0,0,0,9.81-1.17c2.94-.63,5.85-1.86,8.78-2.74a23.48,23.48,0,0,1,5.05-1.16c1.35-.09,2.71.48,4.08.67a11.51,11.51,0,0,0,2.42,0,14.74,14.74,0,0,0,3.23-.42c1.72-.49,3.43-1.13,5.13-1.8,2.06-.82,4.13-1.63,6.16-2.63,3.06-1.51,6.23-1.06,9.3-2.06a43,43,0,0,0,5.46-2.75,30.84,30.84,0,0,1,5-2.35c1.09-.31,2.25.15,3.38.37.15,0,.28.63.42,1-.28.17-.56.48-.84.47-1.21,0-2.42-.19-3.63-.24-.13,0-.27.36-.41.55.16.21.32.58.49.61a19.91,19.91,0,0,0,3.23.39c.47,0,.93-.49,1.41-.59a4.9,4.9,0,0,1,1.48,0c.21,0,.44.34.6.23,2-1.48,3.86.42,5.78.75,1.61.27,3.26-.23,4.89-.31s3,0,4.43,0c.25,0,.5.51.75.78-.25.13-.49.36-.74.37-.92,0-1.85,0-2.77,0-1.49.09-3,.24-4.45.42-.17,0-.31.43-.47.66.18.17.37.5.55.5a58.59,58.59,0,0,1,6.76.08,30.22,30.22,0,0,1,9.89,2.75,36.68,36.68,0,0,0,5.42,2c2.59.83,5.2,1.49,7.79,2.31,3,.94,5.9,2,8.86,2.92.26.08.57-.35.86-.54a7.61,7.61,0,0,0-.94-.62c-.16-.08-.36.07-.53,0s-.69-.14-.71-.33a6.42,6.42,0,0,1,.05-2,.62.62,0,0,1,.79-.29,21.75,21.75,0,0,0,2.37,1.77,16.78,16.78,0,0,0,3.94,1.18c1.55.28,3.12.22,4.67.49.44.07.83.95,1.28,1.12.78.29,1.59.23,2.38.46,1.17.34,2.32.91,3.5,1.14.52.1,1.09-.33,1.62-.6.8-.41,1.1-.21,1.38.92,0,.14.43.2.51,0,.9-1.8,1.6-1.89,2.69-.72a1.14,1.14,0,0,0,1.46,0c.85-.64,1.49-1.92,2.53-.12.4.68,1.62-.15,2.46-.38.43-.12.86-.64,1.29-.63,2.93.07,5.87.22,8.81.39a12.18,12.18,0,0,1,2.45.41c.28.08.53.47.79.72-.27.16-.54.42-.81.45-.74.06-1.48,0-2.22,0-.25,0-.49.36-.74.56.22.28.43.71.67.81,1.3.51,2.52,1,3.74-.95.53-.87,1.61-.74,2.44-.82,2.15-.21,4.3-.31,6.45-.41.22,0,.44.19.67.3a2.88,2.88,0,0,1-.57.5c-.68.29-1.36.52-2,.81-.1,0-.18.26-.28.4.1.13.2.35.3.38,2.23.59,4.46,1.3,6.71.39a1.33,1.33,0,0,0,.66-.87c.4-1.85,1.18-2,2.11-2,.49,0,1-.3,1.46-.34.17,0,.34.38.5.59a6.65,6.65,0,0,1-.42.58c-.29.33-.6.63-.89.94a3.53,3.53,0,0,0,1.17-.06c1.05-.38,2.09-.83,3.14-1.29a1.35,1.35,0,0,0,.75-.56c1.2-2.34,2.78-2.47,4.39-2.69,3.32-.43,6.64-.88,9.94-1.64,2.09-.48,4.12-1.83,6.22-2.23.91-.17,2-1.59,3,.24a.48.48,0,0,0,.74,0c1.18-1.89,2.15.16,3.2.5.58.18,1.14.55,1.72.72.25.07.53-.15.8-.23a3.23,3.23,0,0,0-.7-.79c-.3-.16-.65-.07-1-.19s-.37-.33-.55-.5c.15-.23.29-.61.47-.66,1-.32,2.09-.52,3.13-.85.51-.16,1-.56,1.49-.77.19-.08.42.06.63.1-.08.33-.15.65-.23,1l-.24,1c.23.07.48.3.68.19,1.37-.76,2.87-.92,4-2.68.11-.16.33-.08.5-.12a4.52,4.52,0,0,1,0,1,8.67,8.67,0,0,1-.4,1.15c.38.13.76.44,1.13.38,2.44-.41,4.68-2,6.83-4,.46-.43.74-1,1.35-.12s2.51-.27,3.13-1.44c.26-.47.92-1,1.09-.72.86,1.24,1.56.24,2.3-.27,2.46-1.7,4.95-3.28,7.36-5.16a12.82,12.82,0,0,0,2.57-3.28,30.38,30.38,0,0,1,7.68-8.18,27.25,27.25,0,0,1,5.06-2.6c.14-.07.29-.06.4-.19,1.61-2,3.47-2.59,5.27-3.65s3.19-2.84,4.8-4.22c1.45-1.24,3-2.25,4.4-3.57s2.81-2.92,4.21-4.38c.45-.46.91-.88,1.37-1.29,1.29-1.15,2.56-2.38,3.88-3.4a74,74,0,0,0,6-4.42c.93-.87,1.54-2.86,2.33-4.25,1.74-3,3.47-6,5.27-8.94,1.27-2.07,2.64-3.94,4-5.87.29-.42.68-.62,1-1,.71-1,1.42-1.9,2.08-3,1.87-3,3.7-6.11,5.57-9.13,1.35-2.17,2.76-4.2,4-6.46a12.32,12.32,0,0,0,.41-2.69,3.69,3.69,0,0,1,.44-.94c0,.37.11.74.15,1.11a3,3,0,0,0,.07.68.3.3,0,0,0,.44,0c.82-1.29,1.6-2.66,2.42-3.94a8.13,8.13,0,0,1,1.47-1.83c2.29-1.91,3.57-5.41,4.77-9.23,1.62-5.16,2.5-11,4.63-15.69,1.23-2.68,2.41-5.45,3.64-8.14,1-2.07,1.94-4.08,3-6.11q.09,89.09.08,178.16c0,1.52-.19,1.86-1,1.86q-289.22-.06-578.43,0c-.83,0-1-.34-1-1.86Q0,128.33,0,24.72M99,179.57a1.83,1.83,0,0,0-.66,0c-.34.12-.94.29-1,.51-.06,1.36.55,1.08,1,1.08,1.35,0,2.69,0,4,0,.86,0,1.73.05,2.59,0a25.67,25.67,0,0,0,3.12-.42c.19,0,.36-.47.54-.72-.2-.15-.4-.45-.59-.43-1.27.09-2.53.36-3.79.35-1.68,0-3.36-.24-5.27-.38m466.36-72.43c-.15-.13-.41-.42-.44-.36-.9,1.9-1.79,3.83-2.65,5.8a3.54,3.54,0,0,0,.21,1c.14-.15.33-.24.43-.47.83-1.84,1.64-3.71,2.45-6M320.83,185a2.44,2.44,0,0,0-.08-.52c-1.15-.32-2.29-.63-3.44-.86-.22,0-.46.28-.69.43.18.25.36.69.55.72a16.27,16.27,0,0,0,3.66.23m250.08-55.28c.15-.56.31-1.11.44-1.68a.88.88,0,0,0-.1-.5c-.07-.07-.24,0-.29.09-.6,1.48-1.21,3-1.78,4.48a3.41,3.41,0,0,0,.1,1c.17-.19.4-.31.51-.58.36-.85.68-1.76,1.12-2.85m-198.2,67.39c-1-.2-2-.42-2.94-.59-.12,0-.26.26-.39.4.06.13.11.35.18.38,1,.29,1.93.57,2.9.78.1,0,.24-.5.25-1m63.74,10.29,1.42-.56a3.89,3.89,0,0,0-.11-.66,15.55,15.55,0,0,0-1.64-.19s-.05.09-.08.13l-.57.71a3.83,3.83,0,0,0,1,.57M10.33,145.68c.41-.74.82-1.46,1.2-2.23a1.24,1.24,0,0,0-.14-.64c-.11-.17-.39-.34-.42-.26-.4.93-1.33,1.41-.64,3.13m38.91,15.94c-.36,1.3,0,1.95.64,2.34.17.11.4-.11.61-.18-.23-.65-.43-1.33-.69-1.95-.09-.22-.3-.28-.56-.21m136.68,19.16,1.41-.54-1.42-.66a.24.24,0,0,0-.22,0c-.26.16-.51.34-.77.51a3.91,3.91,0,0,0,1,.69m190,18.57.78-.32c-.22-.22-.43-.46-.65-.65-.77-.68-1.37-.06-1.88,1a6.61,6.61,0,0,0-.31,1.11,2.79,2.79,0,0,0,.61-.49c.38-.48.62-1.72,1.45-.6M21,223.56l.23,1.21c.25-.73.52-1.45.74-2.21,0-.1-.15-.4-.23-.61-.21.47-.42.94-.74,1.61m12.75-80.1.69.35a7.44,7.44,0,0,0,.17-1.46c0-.26-.29-.47-.44-.71a12.31,12.31,0,0,0-.42,1.82m106.75,45-.5.7c.26.31.52.86.78.84s.46-.63.69-1a3.76,3.76,0,0,0-1-.56M7.56,79.7a4,4,0,0,0,0,.78c.09.48.23.92.36,1.37.17-.39.53-1,.48-1.14a1.74,1.74,0,0,0-.85-1M168.85,181.19l-.55.91c.13.05.27.19.4.15a2.09,2.09,0,0,0,.66-.4,1.83,1.83,0,0,0,.22-.54,4.87,4.87,0,0,0-.73-.12m253.74,18-.87,0,0,.53A2.74,2.74,0,0,0,422.59,199.15Z"/><path class="cls-1" d="M351.87,190.47c-1-.27-1.83-.55-2.7-.8a13.5,13.5,0,0,0-2.84-.78,18.49,18.49,0,0,1-7.45-2.77c-1.35-.76-2.85-.5-4.27-.94a20,20,0,0,1-3.27-1.64c-.06,0-.06-.34-.09-.52.16-.07.34-.24.49-.2,1.55.33,3.1.61,4.63,1.06,2.21.65,4.4,1.4,6.6,2.16,2.45.85,4.91,1.77,7.36,2.64.35.12.72.07,1.07.19a18.69,18.69,0,0,0,2,.77,11.5,11.5,0,0,0,3.23.37c.73-.06,1.17.5,1.58,1.38a1.53,1.53,0,0,1,.14.69c0,.18-.23.42-.33.39C356,191.82,354,191.14,351.87,190.47Z"/><path class="cls-1" d="M21.58,101.39a7.14,7.14,0,0,1,.24,1.93,3.82,3.82,0,0,1-.55,1.2c0-.47,0-1,0-1.41A15.51,15.51,0,0,1,21.58,101.39Z"/><path class="cls-1" d="M428.85,1.72c-.11.43-.16.77-.22,1.1a5,5,0,0,1-.26-1,12.85,12.85,0,0,1,0-1.64c0-.07.18-.11.27-.17A12.39,12.39,0,0,1,428.85,1.72Z"/><path class="cls-1" d="M416,197.43c.12-.1.2-.13.27-.1l1.19.55c-.08.19-.2.57-.25.54A5.11,5.11,0,0,1,416,197.43Z"/><path class="cls-1" d="M246.61,180.48a4.19,4.19,0,0,1,.83.85l-.25.67A11.2,11.2,0,0,1,246.61,180.48Z"/><path class="cls-1" d="M357.91,141.74a6.44,6.44,0,0,1-.49-1.37,4,4,0,0,1,.3-.34A16.23,16.23,0,0,1,357.91,141.74Z"/></g></g></g></svg>