<svg id="Contours" xmlns="http://www.w3.org/2000/svg" viewBox="0 0 2305.5 1167.87"><defs><style>.cls-1{fill:#f05c94;}</style></defs><path class="cls-1" d="M595.14,380.87c2.75,14.19,1.38,27.93,2,41.58.12,2.81-.9,5.67-.85,8.49s1.23,5.74,1.13,8.58c-.25,7,2.21,13.43,3.45,20.1,1.16,6.22,3.86,12.1,3.87,18.59a18.67,18.67,0,0,0,1.34,5.27c2.77,8.74,3,17.89,4.46,26.83,1,6.14,3.14,12.1,4.8,18.13,2.5,9.14,5.18,18.24,7.44,27.44.44,1.78-.44,4-1.12,5.92-1.76,4.9-1.84,10.54-6.39,14.27-.76.63-1,2.24-1,3.41-.15,7.07-1.27,13.46-8.9,16.66-1.43.59-2.36,2.59-3.32,4.08-3.95,6.12-9.75,5.81-15.81,4.67-1-.19-2.2-1-2.91-.62-4.43,2.15-8.69,1.18-13.26.39-2.66-.46-4.7-1.36-5.77-3.26-1.89-3.38-5.43-5.48-6.42-9.64-.51-2.15-3.06-3.75-4.47-5.76s-2.24-4.35-3.8-6.15c-1.9-2.21-4-4.18-4.35-7.31-.06-.47-1.53-1.28-2-1.09-1.73.66-1.89.77-1.75-.36.38-3-.84-4.72-3.79-5.47s-4-2.69-4.75-5.66c-1.36-5.45-5.91-9.14-8.89-13.73-2.66-4.08-7-7.21-6.62-12.82-4.54-5.66-4.18-13.4-8.13-19.32a19.73,19.73,0,0,0-3.29-4.41c-4.08-3.42-6-8.27-9-12.44-1.89-2.67-2.68-5.91-6.2-7.91-2.69-1.53-3.63-6-5.49-9.12-2.4-4-4.39-8.41-7.55-11.69-8.68-9-18-17.36-26.81-26.2-2.73-2.74-4.64-6.27-7.12-9.27-8.43-10.22-13.17-22.64-20.17-33.72-2.3-3.65-3.26-8.14-4.81-12.25-.14-.38.08-1-.15-1.23-6-5.81-6.39-14.22-9.86-21.21-3-6.06-5-12.62-7.62-18.89-3.31-7.92-6.63-15.82-10.54-23.51s-8.67-14.46-12.31-22.07c-1.64-3.43-3.51-6.75-5.37-10.07-.32-.56-1.1-.87-1.66-1.29-.3.47-.94,1-.85,1.4.77,3.1,0,6.21.11,9.31s-.37,6.58.27,9.7a144.9,144.9,0,0,1,2.82,22.89c.12,2.83-.87,5.69-1,8.56-.48,8.19,1.84,15.94,4,23.7a12.19,12.19,0,0,1,.29,2.49c.67,13.21,1.28,26.42,2,39.63.16,2.64,1.47,5.29,1.26,7.86a48.22,48.22,0,0,1-2.43,12.52c-2.41,6.63-.7,12.66,1.91,18.49,2.12,4.74,5.5,8.92,7.66,13.65,1.57,3.44,2.26,7.34,3,11.09,2.1,10.52,1.76,21.21,1.82,31.85,0,4.58,1,9.16-.78,13.82-.74,2,1,4.72,1.16,7.15.28,4.31.07,8.64.32,13,.48,8.46.92,16.93,1.78,25.36.6,5.85.61,11.54-1,17.24-.39,1.39,0,3,0,4.52.17,9.72.26,19.44.53,29.17.18,6.31-3.63,10.36-7.65,14.38-.15.15-.32.46-.44.44-5.49-.73-11.29,1.14-16.44-1.1a10,10,0,0,1-5-6.48c-1-5.57-3.41-11.26-.58-17.08.5-1,.07-2.56,0-3.85-.61-10.62-1.18-21.24-1.88-31.85-.21-3.11.74-6.11,0-9.33s-.25-6.45-.31-9.69c-.06-3.46,0-6.93-.22-10.37-.38-5.23-1.94-10.57-1.23-15.61a87.58,87.58,0,0,0,.76-11.84,95,95,0,0,0-2.87-22.24c-1-4.24-.51-8.67-1.3-13.09-1.35-7.67-4.08-14.86-5.91-22.33-.81-3.33-2.75-6.66-2.58-9.9.5-9.45-3.25-17.51-6.33-26.05-2.09-5.78-4.83-11.56-5.14-18.09-.29-6.14-2-12.2-2.66-18.34-.27-2.79,1-5.7,1-8.55,0-9.51,0-19-.56-28.52-.27-4.64-1.82-9.19-2.69-13.8a25.15,25.15,0,0,1-.1-3.89c-.18-10.58-1.23-21.25-.33-31.74,1.06-12.2-.72-24.43.69-36.42,1.91-16.12,1.78-32.16,1.44-48.27-.06-3.29.6-6.64-1.26-9.9-.72-1.28.38-3.57.61-5.4a20.41,20.41,0,0,0,.33-3.72,27.35,27.35,0,0,0-.75-3.75,23.07,23.07,0,0,1,4.34.26c3.89,1,7.7,2.25,11.59,3.22a14.36,14.36,0,0,0,4.12.26c6.75-.31,13.28,1.81,17.46,7.23,1.71,2.23,1.77,6.77.88,9.75-2.42,8.11.27,14.93,4.25,21.47,4.31,7.1,8.57,14.33,13.82,20.72s10.1,13,14.89,19.68c9.81,13.71,19.42,27.46,27.88,42.09,6.91,11.94,15.54,22.87,23.32,34.31,4.79,7,9.22,14.33,14.19,21.24,6.84,9.5,14,18.75,21.08,28.08,7.84,10.34,14.09,21.69,20.74,32.78,5.89,9.85,11.91,19.62,17.55,29.61,6.9,12.21,13.52,24.59,20.12,37,2.63,4.93,4.87,10.07,7.35,15.09.27.54.9.91,1.37,1.36.22-.53.68-1.1.62-1.6-.56-4.56.65-9.17-1.32-13.79-1.1-2.58-.38-6-.33-9,.13-7.12-2.4-13.66-4.19-20.38-1.32-4.93-1.37-10.26-3.1-15s-.11-9.29,0-13.89c.12-4.8-.37-9.5.69-14.46,1.73-8.08,2.06-16.53,2.33-24.84A233.28,233.28,0,0,0,552,371c-.22-2.74.53-5.38,0-8-1.65-8.7-1.69-17.53-4-26.28-3.56-13.25-6.45-26.68-11.18-39.61,1.21-4-2.43-7.26-.89-12,1.38-4.25-.87-9.71-1.58-14.62-.17-1.2-.8-2.36-.82-3.54a95.66,95.66,0,0,0-3-24.17,6.12,6.12,0,0,1,0-1.29c-.72-16.89-1.54-33.77-2.11-50.65-.12-3.49.72-7,1-10.51.29-3.3,0-6.52.84-9.93.74-3.06-1-6.74-1.75-10.14a17.26,17.26,0,0,1-.74-2.28c-.64-9.53-1.36-19.07-1.75-28.61-.12-3.05.69-6.14,1-9.21.24-2,1.19-1.78,2.54-.94,4.66,2.86,9.46,5.51,14,8.54,2,1.34,2.45,1.53,3.27-1.07,1.15-3.59,4.09-6.8,4.52-10.38.64-5.3,1.76-2.6,4.33-1.43a18.69,18.69,0,0,1,8.54,7.32,11.18,11.18,0,0,1,1.77,5.07c.25,5.27,1.65,9.55,6.21,13a12.17,12.17,0,0,1,4.66,10.28c0,1.08,0,2.16,0,3.24.36,12.58.06,25.16,1.8,37.71.62,4.45-.28,9.18-1,13.72-1.2,8.12-2.46,16.25-3.73,24.34-1.38,8.83-2.1,17.79-4.14,26.58-1.09,4.71.51,10.05.92,15.1a19.07,19.07,0,0,1,.4,2.42c-.32,6.12,1.41,11.87,2.9,17.69s2.18,12.09,4.36,17.71c4.76,12.28,7.11,25.19,10.76,37.75,2.22,7.64,3,15.69,4.44,23.56.57,3.25,1,6.53,1.49,10.44M528,544.84c-1.84-3.06-3.66-6.14-5.57-9.15a9.16,9.16,0,0,0-1.81-1.69c-.18,1-.86,2.32-.46,2.9,2.55,3.66,5.33,7.15,8.08,10.66.07.08.72-.29,1.1-.44a9,9,0,0,0-1.34-2.28M450.71,429.45c-2-2.38-4-4.77-6.09-7.13a7.43,7.43,0,0,0-1.38-1c-.14.59-.6,1.41-.37,1.73,2.26,3.17,4.64,6.26,7,9.37a7.84,7.84,0,0,0,.86-3M561.19,589.66c.62,1.45,1.18,2.92,1.93,4.29.08.14,1.82-.21,1.94-.59.52-1.66-2.43-5.21-4.47-5.63a2.91,2.91,0,0,0,.6,1.93M438.52,362.86a11.7,11.7,0,0,0,1.62-.87,6.34,6.34,0,0,0-1.33-2.58,26.49,26.49,0,0,0-3.58-2.38c.72,1.16,1.49,2.3,2.15,3.49a12.82,12.82,0,0,0,1.14,2.34m27.94,39.72c-.66,0-1.47-2.62-1.8-.14-.16,1.23,1.31,2.7,2.15,4,.07.11,1.05-.38,1.6-.59a20.07,20.07,0,0,0-2-3.26m-20.64-30.12L445,372C445.08,372.35,445.13,372.73,445.82,372.46Z"/><path class="cls-1" d="M823.65,540.63c3.22.07,3-1.91,2.23-3.86-1.14-3-2.47-5.9-3.8-8.8-5.81-12.71-11.77-25.36-17.43-38.14-3.48-7.85-6.19-16.05-9.86-23.79-4.62-9.76-7.55-20.22-13-29.63-2.18-3.72-2.8-8.33-4.31-12.48-.29-.79-1.4-1.28-2.13-1.91l-.39,2.42c-.14.81-.29,1.61-.44,2.41-.29-.85-.64-1.69-.85-2.56a57.91,57.91,0,0,0-1.68-7.11c-1-2.6-1.91-5.85-4-7.25s-5.27-.41-7.92-.86c-7.18-1.23-14.53-.31-21.7-2.05-3.13-.76-6.51,1.25-10,.23-.65-.19-2.93,2-2.86,3,.2,3.06-.29,6,1,9.29,1.56,4,1.1,8.87,1.21,13.36.08,3.43-.52,6.88-.46,10.31.17,10.31-2.22,20.38-2.43,30.72-.22,10-1,20.12-2.1,30-.8,7,.86,14.24-1.78,21.09-.5,1.3,0,3,0,4.5.24,13.62.72,27.23.6,40.84a72.2,72.2,0,0,1-2.33,16.44c-.88,3.62-3.09,6.92-4.77,10.33-.27.55-1.11.87-1.28,1.42-.44,1.49-.49,4.3-1,4.37-2.21.32-4.54-.28-6.82-.32-2.62,0-5.24.12-7.86.27-3.6.2-7.39,1.31-10.74.53-6-1.41-8.5-8.46-7-13.82.32-1.17,1-2.62.65-3.53-2.24-5.1-1.54-10.49-1.34-15.68.28-6.81,2-13.85,1.47-20.37-.43-5.9,3.06-11.41.54-17.38-.86-2,.74-5.12,1.23-7.72.3-1.59,1.26-3.39.82-4.74-1.73-5.32-.13-10.56-.1-15.82,0-4.15.84-8.29.94-12.45,0-2.22-.72-4.45-1.08-6.68-.09-.57-.3-1.31-.05-1.73,3.38-5.53,3.44-11.47,2.51-17.63a5.84,5.84,0,0,1,.83-3.79,9.37,9.37,0,0,0,.85-8.52,9.35,9.35,0,0,1,.63-7.86c2-4,2-8,1.83-12.16-.07-2.35.72-5-2.79-6-1.25-.36-1.94-7.44-1-9,.16-.27,1.45.12,2.22.21,0-.85.26-2.35,0-2.45-1.3-.47-2.88-1.08-4.09-.72a75,75,0,0,1-21,2.9c-1.46,0-3.65-.31-4.27.49-3,3.95-5.64,1.46-8.63.07-2.15-1-4.72-1.07-7-1.83-4.92-1.64-9.78-3.47-14.68-5.21-2.52-.89-4.43-2.11-4.13-5.32a8,8,0,0,0-1-3.44c-.69-1.68-.17-2.28,1.6-2.29,5,0,9.94-.15,14.91-.25,7.68-.14,15.07-1.78,22.43-3.94,6.42-1.89,13.06-3,19.57-4.62a13.08,13.08,0,0,0,3.12-1.82c-.71-.68-1.4-1.9-2.15-1.95-2.78-.15-1.86-2.33-1.6-3.31,1.71-6.64-1.45-13.11-.48-19.7a2,2,0,0,0-.65-1.62c-4.57-2.76-2.77-5.59-1-9.37s2.24-8.27,2.49-12.5a118.86,118.86,0,0,1,4.4-26.61,63.84,63.84,0,0,0,1.53-9.7c1.17-9,2.5-18,3.36-27,.66-6.92.71-13.91,1-20.87.25-6.2,1.84-12.37,2-18.42.17-8.22,2.37-16,4.19-23.64,2.42-10.17,4.54-20.95,11.85-29.4,2.75-3.18,3.65-7.1,4-11.32.43-5.3,1.42-10.56,2.31-15.81.07-.44,1.67-1.11,1.81-1,2.71,2.88,5.33,5.84,7.93,8.82,4.37,5,5.58,11.27,6.11,17.56a129.38,129.38,0,0,1,.26,18.78c-.19,3.13,1.51,4,3.45,5,5,2.59,10.27,4.68,15,7.68,6.79,4.32,10.84,10.68,10.75,19,0,4.27,1.45,8,2.77,11.87,3.35,9.94,8.1,19.52,8.49,30.32,0,.64,1.09,1.25,1.67,1.88l1.86-2.26a36.18,36.18,0,0,0,.37,3.77c.36,1.78,1.45,3.58,1.28,5.27-1.31,12.61,3.25,24,7.48,35.33,2.37,6.35,5.09,12.71,7.2,19,3.42,10.27,7.93,20.2,10.39,30.82,1,4.2,3.42,8.07,5.28,12,.51,1.09,1.1,2.44,2,3,4.11,2.37,4.74,6.2,4.63,10.32-.16,6.33,2.6,12,4.63,17.61,2.42,6.73,6.3,12.92,9.27,19.47,1.57,3.44,2.46,7.19,3.86,10.73,1.68,4.27,3.4,8.54,5.41,12.66,8.6,17.61,16.75,35.4,23.05,54,2.36,7,5.83,13.59,8.32,20.53,1.36,3.81,1.82,7.95,2.49,12,.2,1.18.22,3-.47,3.59-2.25,2.07-5.09,5.46-7.29,5.18-4.17-.54-8,1.27-11.94.56a21.18,21.18,0,0,0-12,1.43c-5.13,2.09-8.13-2.59-11.38-5.05-2.35-1.77-3.3-5.39-4.89-8.51M734.73,277.89l.38,1.64.84-.27a10.72,10.72,0,0,1-1.24-2.67l-1.21-.07a2.63,2.63,0,0,1,1.23,1.37M830,531.76c-2.3-6.31-3.94-12.92-8.13-18.39a9.19,9.19,0,0,0-2-1.48c-.08.73-.51,1.69-.2,2.16,2.68,4,3.88,8.65,5.67,13,.85,2.06,3.08,3.56,4.69,6,.47,2.37.91,4.75,1.45,7.11.09.39.58.68.89,1,.51-.61,1.59-1.49,1.45-1.79-1.14-2.39-2.51-4.67-3.82-7.64M742,320.57c0,8.53,3.34,16.33,5.52,24.37,1.45,5.4,4,10.68,5.18,15.93,1.87,8.36,6.09,15.26,9.9,22.53a11,11,0,0,0,2,2.18,12.06,12.06,0,0,0,.06-3.49,12.34,12.34,0,0,0-1.82-3.11c-5-7.93-6.67-17.18-9.56-25.83-2.33-7-4.21-14.29-6.47-21.38-1.29-4-1.19-8.76-4.87-12.5-.55-6.48-1-13-1.68-19.43a23.62,23.62,0,0,0-1.35-4.6,7,7,0,0,0-.52-1.07c-.25.46-.76.93-.72,1.36.54,6.68,1,13.37,1.84,20,.19,1.53,1.6,2.92,2.45,5m6.67,47.23c-3.38-7.46-6.18-15.11-6.9-23.23.66,0,1.31,2.63,1.89.11a8.76,8.76,0,0,0-.08-4.49c-1.71-5.19-3.12-10.41-4.44-15.72-1.94-7.84-2.9-15.75-4-23.68-.55-4.12-.86-8.28-1.58-12.38-.51-3-1.55-5.84-2.29-8.77-2-8-4-16.1-6-24.13-.35-1.37,1.4-3.78-1.56-3.82-.31,0-1,2.83-.91,4.3.21,2.86,1.22,5.67,1.27,8.51s-1,5.71-1,8.55c.27,13.31.29,26.56-1.84,39.78-1,6.2-.76,12.59-1.09,18.89,0,.83-.11,1.66-.23,2.48-.68,4.45-1.84,8.87-2,13.33-.38,11.38,1,22.65,3,33.85.88,4.8,1.66,6.14,5.87,4.82,6.29-2,12.62-1,18.91-1.45,4.09-.28,8.2-.15,12.3-.28.68,0,2.39.71,1.22-1.39-2.56-4.62-4.9-9.35-7.35-14.69-.78-6.64-4.3-12.38-6.17-18.66-.16-.51-.89-.86-1.35-1.28-.19.56-.69,1.24-.53,1.66,1.1,3,2.53,5.82,3.47,8.83a29.42,29.42,0,0,1,1.33,8.86M693.73,455c.3-7.81.69-15.63.85-23.45.1-5-.09-9.93-.27-14.9a8,8,0,0,0-1.1-2.5c-.48.94-1.33,1.85-1.37,2.81-.15,2.79.12,5.61.06,8.41-.22,9.33-.17,18.69-.9,28-.64,8.17-2.91,16.23-3.18,24.39-.36,10.92-1,21.78-2.07,32.66-.68,6.68.24,13.45-.92,20.23-1,5.54-.21,11.25-.88,17-1.2,10.3-.94,20.78-.93,31.19,0,4.35.88,8.71,1.5,13,.07.54,1,1,1.47,1.45.35-.42,1-.82,1-1.26.09-1.72,0-3.45,0-5.18,0-7.27-1.45-14.33-.79-21.85,1.15-13,1.17-26.07,2.22-39.11.73-9.07.64-18.22.9-27.33a5.06,5.06,0,0,1,0-1.29c2.89-8.33-.27-17.09,2-25.57,1.37-5.15,1.26-10.68,2.45-16.7m-5.23-76.44c-.53-5.41-1.43-10.82-1.5-16.25-.11-8.44,0-16.9.39-25.36.4-9.62,3.29-18.57,4.47-27.9.62-4.91,1.14-9.84,1.6-14.77.06-.59-.52-1.25-.81-1.88-.15.59-.32,1.16-.44,1.75-1.6,7.94-2.92,15.94-4.85,23.79-1.87,7.6-3.64,15.15-3.41,23,0,1.72.51,3.6,0,5.14a25.8,25.8,0,0,0-1.21,13.35c1.45,8.06,1.33,16.4,2,24.61a25.12,25.12,0,0,0,1.43,5.88c.16.46,1.58,1,1.88.79a3.29,3.29,0,0,0,1.43-2.22c-.15-2.9-.62-5.78-1-10M696.85,263a46.58,46.58,0,0,0,2.21-16.36c0-.31-2-.89-2.1-.77a10,10,0,0,0-1.56,3.82c-.12,1.62.72,3.34.54,4.94-1.1,9.63-1.71,19.32-3.51,28.87-.1.51.71,1.19,1.1,1.79a7.76,7.76,0,0,0,2.3-3.91c.42-5.69.71-11.39,1-18.38m115,234.71a13.88,13.88,0,0,1,1.82,3.11c.37,1.31.52,2.61,2.24,1.77.25-.11,0-1.75-.35-2.53-2.75-6.18-6.44-12-7.63-18.8-.3-1.7-1.43-3.28-2.34-4.81-.23-.4-1.43-.75-1.56-.59-.45.53-1,1.45-.83,1.94,2.59,6.46,5.31,12.86,8.65,19.91m6.51,1.19a16.28,16.28,0,0,1,1.8,3.08c.4,1.22.46,2.64,2.22,1.84.26-.11,0-1.71-.26-2.51-.48-1.29-1.29-2.45-1.82-3.72-.84-2.05-1.56-4.14-2.33-6.21a30.18,30.18,0,0,0,.39,7.52m-80.9-212c-.6-1.86-1.21-3.71-1.81-5.57-.29.15-.85.36-.83.44.41,1.93.84,3.86,1.4,5.75.1.32.83.46,1.24-.62M688.59,420.74c-.19,1.58-.44,3.16-.53,4.74a4.79,4.79,0,0,0,.54,1.64,8,8,0,0,0,.68-2,9.76,9.76,0,0,0-.69-4.38M833.83,529.1c.12.54.25,1.09.37,1.63.28-.08.8-.21.8-.23-.15-.7-.34-1.38-1.17-1.4M825,507.85l-.5.79c.39-.05.78-.1.5-.79M812.9,482.12l-.51.79C812.78,482.86,813.17,482.81,812.9,482.12Z"/><path class="cls-1" d="M1777.94,294c.65,12.78.93,25,2.07,37a157,157,0,0,0,4.31,24.24c2.56,9.92,4.89,19.79,4.29,30.11-.67,11.29-10,15.74-19.75,12.57-4.72-1.54-11.08-.26-13.7-5.72s-8.89-5-11.88-8.91c-3.94-5.07-8-9.9-13.14-13.72-3.11-8.79-11.61-12.41-17.74-18.26-3.89-3.7-8.55-6.59-12.77-10-3.46-2.75-7.23-5.29-10.07-8.6-4.08-4.77-9.53-7.52-14.48-10.92-9.7-6.66-19.8-12.78-29.87-18.9-8.62-5.25-17.47-10.13-26.17-15.27-6.11-3.6-12.31-7.09-18.1-11.16-2.73-1.92-3.34-.74-3.51,1.38-.23,2.76-.47,5.75.32,8.33a86,86,0,0,1,2.69,13.87,343.67,343.67,0,0,1,3.34,41c.07,4,1.78,7.89,2.65,11.85,1,4.59,3,9.28,2.6,13.77-.52,6.47,3.72,11.12,4.74,17s4.47,11,6.88,16.53c.17.36.87.6.87.91.17,11.52,7.43,20.84,9.82,31.71,1,4.4,3.84,8.36,5.18,12.73,1.77,5.81,2.71,11.87,4.34,17.73,1.9,6.8,2.54,13.86,5.32,20.53,2.5,6-.8,11.34-6.82,15.14-8.33,5.25-16.34,5-24.82.32-3-1.64-4.38-3.36-4.39-6.72,0-15.2-3.11-29.83-8.19-44.11-2.21-6.23-4.26-12.52-6.28-18.82a48.42,48.42,0,0,1-1.5-6.54c-1.29-7.4-5.11-13.92-7.21-21-2.68-9.1-4.89-18.34-7.41-27.49-1.17-4.26-2.57-8.45-3.9-12.67-1-3.07-2.72-6.11-2.73-9.17s-.14-6.22-.43-9.3c-.9-9.58-1.33-19.29-3.38-28.63a80.14,80.14,0,0,1-1.19-10.75c-.33-3.72-.85-7.43-1.47-11.11a263.92,263.92,0,0,1-3.3-36.49c-.2-7.59-4-13.45-10.87-16.88-4.6-2.29-9.08-4.4-10.76-9.93-.43-1.42-2.17-2.44-3.31-3.65,1.88-.19,3.76-.36,5.63-.59,4.13-.49,8.26-1.32,12.41-1.39,2.77-.05,2.7-1.38,2.46-3.2-.45-3.28-.34-6.82-1.62-9.75-1.63-3.74-.74-7.49-1.37-11.17-2.44-14.22-1.41-28.59-2-42.88a12.88,12.88,0,0,0-.6-3c-.4-1.35-.91-2.65-1.37-4,1.34.41,2.7.77,4,1.24,4.51,1.62,9.35,2.7,13.39,5.13,3.21,1.93,6.6,5.1,7.79,8.47,2,5.54,2.12,11.71,3.2,17.58,1,5.41,2.19,10.79,3.37,16.17s2.52,10.68,3.63,16.05c.66,3.24.39,6.81,1.67,9.73s1.35,6,4.69,8.44A428.69,428.69,0,0,0,1630,256.45c14,8.15,27.67,17.05,41.38,25.77,14.78,9.38,29.46,18.93,44.19,28.4,1,.66,2.33,1.07,3.06,2,5.84,7.12,14.78,10.21,21.22,16.53,1.23,1.2,2.53.78,2.37-1.09-.53-6.27-1.2-12.52-1.9-18.77-.18-1.6-.91-3.15-1-4.76-.66-8.52.07-17.41-2.16-25.48-2-7.3-1.45-14.56-2.8-21.64a298.34,298.34,0,0,1-4.13-30.13c-.2-2.37.79-4.83,1-7.27.14-1.25.4-3-.27-3.74-3.17-3.59-2.24-7.88-2.61-12-.27-3.08-1-6.11-1.39-9.18s.7-6.36-1.45-9.18c-.21-.28,0-.84,0-1.27-.68-14.08-1.4-28.16-2-42.24-.07-1.58.68-3.17.84-4.79.43-4.35.86-8.69-1.82-12.68-.58-.85-.3-2.29-.42-3.45.77.52,1.51,1.42,2.33,1.51a53.68,53.68,0,0,0,9,.49c6.94-.41,11.66,4.29,17.16,7.15.69.35,1,1.73,1.18,2.69,1.23,5.43,3.19,10.66,1.81,16.56-.65,2.79.66,6.09,1.28,9.11,1.82,8.78,3.88,17.5,5.58,26.3.83,4.29,1.15,8.69,1.56,13,.62,6.72,1,13.47,1.72,20.18s.7,13.75,3.23,19.71,2,11.86,2.6,17.82c.39,3.91,1.19,7.77,1.64,11.67.19,1.59-.47,3.38,0,4.81.58,1.67,2.27,2.92,3,4.56a12.85,12.85,0,0,1,.89,4.82c.16,5.88.1,5.88,2.85,12.07m-73.29,37-1.21-.07a2.63,2.63,0,0,1,1.23,1.37l1.2.07a2.62,2.62,0,0,1-1.22-1.37M1620,462.12l-1.21-.07a2.63,2.63,0,0,1,1.23,1.37l1.2.07a2.62,2.62,0,0,1-1.22-1.37M1598.56,421a8.55,8.55,0,0,0-.07-1.9c-.11-.41-.55-.75-.84-1.12-.93.82-.44,3.07.91,3m165-167,1,2.26.95-.91c-.61-.56,1.28-2.78-2-1.35M1608.07,408.5a2.07,2.07,0,0,0,.4-.44c.07-.11,0-.27,0-.41l-2.39.37a1.79,1.79,0,0,0,2,.48M1759,211.28a26.67,26.67,0,0,0-.56,2.8c0,.3.34.65.52,1a4.81,4.81,0,0,0,.7-1.32,3.54,3.54,0,0,0-.66-2.46m-27.39-82.54c-.16.69-.34,1.38-.46,2.07,0,0,.53.14.81.21a3.13,3.13,0,0,0-.35-2.28m8.76,92.59c.69.17,1.38.34,2.08.46,0,0,.13-.52.2-.8a3.11,3.11,0,0,0-2.28.34m4.28,58.95c-.23-.43-.45-.86-.67-1.29-.21.44-.42.87.67,1.29m6.37-80.54-.67-1.28c-.21.43-.42.87.67,1.28m9.51,24.48c-.17.69-.34,1.38-.46,2.08,0,0,.52.13.8.2a3.11,3.11,0,0,0-.34-2.28M1598,349l-1.64.37c.08.28.22.8.24.8.69-.15,1.37-.35,1.4-1.17m167.53-62.61c-.17.69-.34,1.38-.46,2.07a8,8,0,0,0,.81.21,3.18,3.18,0,0,0-.35-2.28m19.18,95c-.13-.54-.25-1.09-.37-1.63a6.12,6.12,0,0,0-.8.24c.14.69.34,1.37,1.17,1.39M1561.89,179.06l-.79-.5c.05.38.1.77.79.5M1697.16,311c-.17.26-.34.52-.5.78.38-.05.77-.1.5-.78m24.66,37.83-.79-.51c0,.39.1.78.79.51m1.57-21.43c-.17.26-.34.52-.5.79.38-.05.77-.1.5-.79m9.83,5.66.79.51c0-.39-.1-.78-.79-.51m50.62,38.68.5-.79c-.38.05-.77.1-.5.79M1743,151.24l-.79-.51c.06.39.11.78.79.51m2.25,91.41.51-.79c-.39,0-.78.1-.51.79m-.91-51.87-.5.79C1744.23,191.52,1744.62,191.47,1744.34,190.78Z"/><path class="cls-1" d="M436.07,999.82c-1.5-7.19-3-13.73-4.48-20.26a38.1,38.1,0,0,1-1.11-4.73c-.63-6.94-1.1-13.89-1.75-20.83-.08-.92-1.06-1.75-1.24-2.69-.29-1.55-1.08-2.87-.32-4.82.83-2.14,2.71-4.65.22-7.43-.7-.79,1.06-3.43,1-5.17-.29-4.87-.9-9.72-1.49-14.57s-.12-10-1.21-15.07c-1.4-6.58-4-13.28-3.7-19.82.18-4.35-1.78-8.13-1.24-12.38.32-2.52-.83-5.22-1.27-7.85a3.83,3.83,0,0,1,0-1.93c2.23-5.54-.56-10.95-.38-16.44s0-11.24-.26-16.85c-.52-10.84-.69-21.74-2-32.49-1.22-10-2.15-20-3.28-30-.68-6.11-1.52-12.23-1.14-18.27.47-7.52,2.23-15,3.29-22.45.39-2.76,2.72-4.33,4.25-3.13,4.93,3.87,11.4,3.88,16.47,7.53,3.6,2.59,5.35,5.89,4,9.2-3,7.41-2.73,15-1.74,22.35.91,6.77.34,13.61,1.54,20.19,3.09,16.84,2.92,33.8,3.4,50.77A112,112,0,0,0,445,844.47c.49,3.7.28,7.37,1.18,11.18,1.3,5.55.54,11.59.6,17.43A117.48,117.48,0,0,0,451,901.93c2.21,8.37,3.37,17.27.83,26.11-.63,2.19.14,4.74,0,7.1s-.74,4.42-1.06,6.64a4.88,4.88,0,0,0,0,2.55c2,4,1.14,8.27,1.5,12.42a83.75,83.75,0,0,0,1.54,11.75c2.12,9,4.5,18,6.94,27,.71,2.64,3.34,3.09,4.9.69,5.91-9.13,12.3-18,14.12-29.21a34.32,34.32,0,0,1,4.14-11.84c4.68-7.83,5.69-16.69,8-25.17,1.89-6.81,1.71-14.08,4.82-20.65a183.7,183.7,0,0,0,7.79-18.16c2.46-7.09,7.44-12.15,12.77-16.76,2.74-2.37,6.84-3.15,10.34-4.61.37-.15.87,0,1.29,0,2.19-.45,5.09-2,6.43-1.18a23.85,23.85,0,0,1,7.44,7.65c8.24,14,14.57,28.91,21.62,43.49,1.74,3.6,3.6,7.14,5.37,10.73,2.82,5.74,5.78,11.41,8.35,17.27,2.4,5.48,4.34,11.17,6.52,16.75a88.39,88.39,0,0,0,9.3,17.5q11.84,17.44,24.11,34.58c2,2.75,4.76,5,7.32,7.26,2.22,2,4.22,1.6,5.66-.94a8.77,8.77,0,0,0,1.23-3.36c.45-5,.44-10.07,1.13-15,1.76-12.58-.25-25.23.84-37.72.82-9.49,1.42-19.15,4.27-28.48,1.31-4.29.4-9.21,1.32-13.68,1.65-8.05-.18-16.21,1-24.11,1.6-10.91.23-21.72.49-32.57.09-4,.25-7.9,0-11.9a181.56,181.56,0,0,0-3.08-24.82c-1.16-5.74-1.13-11.71-1.76-17.57-.33-3.07-1.06-6.1-1.4-9.17-1.34-12,3.09-22.29,10.44-31.23,6-7.31,14.49-9.36,23.71-8.37,2.08.22,5.27,5.38,5.48,8.87.69,11.7,1.25,23.4,2,35.09a78.24,78.24,0,0,0,2.81,17.7,13.48,13.48,0,0,1,0,5.1c-.19,1.81-.73,3.58-1,5.39-.92,6.51-1.72,13-2.69,19.55-.54,3.62-1.69,7.18-1.91,10.81-.51,8.67-.9,17.37-.84,26a93.21,93.21,0,0,1-3.28,26.4c-1.66,5.89-1.31,12.31-2.59,18.33-1.72,8.06-.74,16.1-.7,24.14,0,3.06,1.12,6.09,1.33,9.17.52,7.32-.78,14.45-1.9,21.69-.94,6.08-1.84,12.24-2.45,18.39-1.09,10.8-6.52,19.1-14.47,25.81a90.61,90.61,0,0,1-15.08,10.32c-5.75,3.14-12,5.17-18.81,4.88-6-.26-10.86-3.12-15.78-5.74-1.84-1-2.56-4-3.89-6a18.27,18.27,0,0,0-3.31-4.4c-4.8-3.89-7-9.7-10.89-14.19-5.78-6.73-8.85-15.07-14.35-21.93-2.2-2.74-3.26-6.39-4.86-9.61-2-4.12-4.09-8.24-6.18-12.33-1.1-2.15-2.92-4.13-3.3-6.38a38.31,38.31,0,0,0-9-19.63c-.89-1-1.9-2.56-1.76-3.73.48-4.23-2.09-6.82-4-10.1-4.55-7.74-8.23-16-12.27-24a20.52,20.52,0,0,0-1.16-1.81c-.48.73-1.34,1.45-1.36,2.19-.23,10.34-1.59,20.67-7.57,29.15-3.69,5.23-5.52,11-6.95,16.61-1.85,7.32-4.07,14.29-7.75,20.81C498,986,495,990.35,492.46,995a129.91,129.91,0,0,0-5.64,11.93,44.64,44.64,0,0,1-14.18,18.74c-4.59,3.42-10.74,2.68-16.39,1.93-1.19-.16-2.35-.72-3.54-.77-6.21-.3-10.61-3.3-12.38-9.25C438.66,1011.93,437.48,1006.17,436.07,999.82Z"/><path class="cls-1" d="M1250,370.68c-4.11-4.72-4.42-9.8-4.25-15.18a16.45,16.45,0,0,0-1.49-7.15c-.52-1.1-2.68-2.1-4-2a120.39,120.39,0,0,0-15.64,1.54c-5.77,1-11.43,2.7-17.13,4.11-3.74.92-7.59,1.53-11.18,2.86-7.08,2.61-14.45,3.93-21.78,5.44a107.58,107.58,0,0,1-11.75,1.54c-6.72.63-13.45,1.13-20.18,1.67-1.88.15-1.83.87-1.17,2.47,3.76,9.06,5.88,18.67,9.88,27.72,2.2,5,1.47,11.29-.54,16.71-1.78,4.81-1.3,9.37-.17,14.09.71,3,1.51,5.94,1.92,8.95a126.4,126.4,0,0,1,1.52,15c.13,8.36,2.72,16.22,4.08,24.33a23.58,23.58,0,0,1-1.48,13.35,15.71,15.71,0,0,1-9.85,8.33,16,16,0,0,0-2.28.75c-5.17,2.34-4.65,2-8.29-2.79-4.06-5.29-4.74-12-8.4-17.3a2.79,2.79,0,0,1-.47-1.73c.9-7.91-3.38-14.74-4.62-22.2-1-5.8-2.56-11.5-3.89-17.23q-3-12.76-6-25.5c-.23-1-1-1.92-.95-2.82.8-7.28-2.1-13.74-4.3-20.37-1.88-5.72-4-11.39-5.36-17.24-.7-3-1.9-4.1-4.63-3.71-9.12,1.32-14.82-6-22.26-8.9-.64-.26-.59-3.2-.25-4.75.24-1.07,1.56-.56,2.63-.6a68.4,68.4,0,0,0,20.89-4.19c1.79-.65,2.12-2.57,1.64-4.39-.36-1.35-1.14-2.65-1.24-4-.68-9.1-.55-18.32-2-27.28-1.2-7.23-1.1-14.74-4-21.73-1.06-2.61-1.19-5.63-1.52-8.48-.62-5.42-1-10.87-1.62-16.29-1-8.49-.9-17.11-3-25.47a3.4,3.4,0,0,1,0-.64c-.69-14.94-1.5-29.88-2-44.83-.12-3.52,2.46-7.09-.18-10.65-.09-.12,1.12-1.75,1.65-1.71a40.32,40.32,0,0,1,7.26,1.12,27.29,27.29,0,0,1,7.32,2.62c3.42,2.08,6.91,3.66,7.49,9.06.81,7.58,4.43,14.89,5,22.45.43,5.72,2.1,11,3.44,16.3,1.45,5.7,3,11.34,4.06,17.16,1,5.56,2.86,11,4,16.5,1.6,7.62,3.59,15.25,4.13,23a121.43,121.43,0,0,0,3.15,19.61c1.35,5.72,2.86,11.41,4.11,17.15a66.31,66.31,0,0,1,1.48,9.79c.21,3.14,1.86,4.17,4.56,3.71a137.09,137.09,0,0,0,14.4-2.95c10.43-3,20.65-6.75,31.17-9.35,10.13-2.51,20.57-3.71,30.77-5.95,5.87-1.29,11.6-2.95,17.7-2.89,3,0,3.23-1.06,2.63-4.21-1.24-6.47-2.58-12.91-3.57-19.44-1.48-9.82-1.74-19.78-4-29.51-1.23-5.27-1-10.86-1.76-16.26-.77-5.7-1.27-11.43-2.7-17.08-1.22-4.82-1.4-9.95-1.65-15-.26-5.41-.52-10.72-2.84-15.77-.58-1.26-.14-3-.17-4.5l-.8-46c0-1.51,0-3-.11-4.53a36.81,36.81,0,0,0-.72-3.74c1.33.41,2.69.73,4,1.25,3.89,1.57,7.65,3.55,11.64,4.75,8,2.41,11.64,8.53,12.51,15.9,1.2,10.09,3.92,19.87,4.82,30.05.88,9.93,3.8,19.66,5.4,29.55,1,6,1.1,12.16,1.72,18.23a108.87,108.87,0,0,0,2.76,17.06c1.06,4,1.15,8.24,1.62,12.38,1,9.13,2,18.27,3.12,27.4.21,1.79,1.12,3.5,1.31,5.28.46,4.4,1.64,6.16,5.75,5.64,4.71-.59,8.32,2,12.39,3.1a6.3,6.3,0,0,1,4.09,9,14.21,14.21,0,0,0-1.39,7.59c.16,2.4-3,5.21-5.09,7.49-1.15,1.27-3.13,1.77-4.63,2.77-2.58,1.72-5.53,2.88-2.75,7.28,1.61,2.56,1.48,6.4,1.61,9.69.32,7.88,2.63,15.35,4.29,23,1.74,8,2.76,16.2,4.43,24.23a255.93,255.93,0,0,0,8.31,29.69c3.79,11.21,7.35,22.51,10.87,33.81a28.47,28.47,0,0,1,1.39,7.85,30.9,30.9,0,0,1-1.14,7.9c-.36,1.43-1.2,3.52-2.27,3.86-4.22,1.32-7.75,4.56-12.54,4.31-3.45-.18-6.92.2-10.37.08a20.13,20.13,0,0,1-4.67-1.18c-.45-.13-.29-.15.47-1.32.42-.64.75-2,.41-2.37-5.3-6-5.27-13.88-7.5-20.92a103.92,103.92,0,0,1-4-17.18c-1.24-9.13-4-17.75-7.18-26.31a8.24,8.24,0,0,1-.09-3.22c.41-6.17-.28-10.61-2.49-15.48-.29-.64-.56-.35-1.84-.32a3.09,3.09,0,0,1-2.38-1.74,55.64,55.64,0,0,1-1.51-8.5c-.66-6.93-1.14-13.88-1.7-21.47m-7.23-116,.79.5c0-.39-.1-.77-.79-.5m-1,51.25c.16-.26.33-.52.5-.78-.39.05-.78.1-.5.78m-146.61-75.25.51-.79C1095.28,230,1094.89,230,1095.16,230.71Z"/><path class="cls-1" d="M1337.12,380.82c.25-10.41-.14-20.27,1.09-29.91A14.56,14.56,0,0,0,1336,341c-1.17-2-1.64-2.95,1.26-3.06a2.12,2.12,0,0,0,1.58-1.28c.87-5.69,1.54-11.41,2.37-17.11,1-6.48,2-12.94,3-19.41,1-6.07,1.9-12.14,2.79-18.22.81-5.48,1.56-11,2.31-16.47a11.31,11.31,0,0,0,0-1.3c.28-8.68.62-17.37.82-26.06.28-12.14-.25-24.36.9-36.42.87-9.17.12-18.47,2-27.49,1.65-7.95,1.84-16.13,4.45-24,1.65-5,1.58-10.52,2.65-15.73a4.64,4.64,0,0,1,3.07-3c2.42-.27,4.93.42,7.4.56a5.06,5.06,0,0,0,2.64-.63c1.66-.92.12-1.51-.33-2.27-1.63-2.77-3.3-5.52-4.75-8.39s-.9-4.17,2.13-3.76c10.61,1.46,21.33,2.53,30.8,8.41,4.18,2.59,5.5,6.89,6.81,10.87,3.33,10.11,7,20.09,12.41,29.22,9.35,15.77,17,32.53,28.29,47.19,3.25,4.23,5,9.56,7.76,14.22,4.78,8.15,8.81,16.69,14,24.67,4.29,6.67,7,14.37,10.68,21.45,3.55,6.75,7.58,13.25,11.26,19.93a53.43,53.43,0,0,1,2.44,6.12c4.44,11.13,11.45,21.14,14.38,32.95a5.51,5.51,0,0,0,1.88,3.05c6.36,4.28,6.52,11.61,8.35,17.83,2.24,7.64,4.45,15,9.57,21.36a23.92,23.92,0,0,1,3.8,7.46c1.9,5.7,5.23,10.83,6.17,17,.26,1.69.59,2.77-.28,4.21a5.18,5.18,0,0,0-.92,2.58c.1,5.09-.35,6.14-4.29,7.69-6.23,2.45-12.83,2.22-19.32,2-1.76-.07-4-1.59-5.1-3.09-4.91-6.51-10.39-12.82-14-20-4.13-8.38-8.92-16.49-11.77-25.6-2.36-7.56-6.69-14.48-9.89-21.8-3.11-7.14-6-14.38-8.76-21.66-.85-2.24-1.44-2.18-3.76-1.6-5.72,1.45-10,5.19-14.78,8.13-12.82,7.92-25.47,16.13-40.16,20.32-3.5,1-7.08,2.63-10.57,2.52-5.31-.17-10.45,1.94-15.82.57-2.27-.58-4.89,2-5.14,4.4a10.68,10.68,0,0,0,.08,3.87c1.88,6.74,0,13.2-.81,19.84-.77,5.94.2,12.08.09,18.13-.1,5-.65,10-1,15-.33,4.8.18,9.53-.79,14.45-1.34,6.76-1,13.86-1.16,20.83-.13,5.22-.56,4.49-4.76,7.56-4.46,3.27-9.52,2-14.1,3.74-3.2,1.23-6.74-1.91-8.33-5.71-2.93-6.93-3.66-14.16-4.57-21.62-2.11-17.34-.88-34.69-1.91-52.65m68.31-173.07c-2.22-3.17-4.78-6.15-6.57-9.54-3-5.64-4.94-11.88-8.35-17.2-2.36-3.68-4.36-7.24-5.22-11.48a20.16,20.16,0,0,0-.7-2.25c-.62.82-1.72,1.61-1.8,2.48-.5,5.21-1,10.44-1.06,15.67-.39,21.84,2,43.67-.09,65.54-.85,8.83-.65,17.77-.92,26.67a15.34,15.34,0,0,1,0,1.92c-.75,4.42-1.83,8.8-2.25,13.24-.59,6.28-.51,12.62-1.1,18.9-.38,4-1.53,8-2.2,12-.16,1-.15,2.41.42,2.93s2,.42,2.93.09c7.48-2.79,15-5.49,22.35-8.62,16.92-7.23,34.06-13.67,52.5-15.79,1.8-.2,2.07-.77,1.31-2.41-4.86-10.5-9.44-21.13-14.52-31.52-2.64-5.4-6.5-10.2-9.13-15.61-7.43-15.21-16.26-29.57-25.58-45m109.82,159.57,1.74-2.15c-.34-.15-.9-.5-1-.42a2.8,2.8,0,0,0-.77,2.57m-173.75,4.35c-.16.26-.33.52-.5.78C1341.39,372.4,1341.77,372.35,1341.5,371.67Z"/><path class="cls-1" d="M1801.18,638.93c4.61-.65,5.62-5.29,9.07-7s6.33-4.45,9.52-6.65a25.86,25.86,0,0,1,10.41-4.68c3.92-.68,7.64-2.43,11.53-3.41,1-.25,2.34.49,3.39,1,9.78,5.13,19.6,10.21,29.26,15.58,2.74,1.52,4.37,4.27,5.26,7.46,1.11,4,0,6-4,7.7-7,3-14.28,4.44-21.73,5.66-4.1.66-7.94,2.72-12,3.94-5.79,1.76-11.77,2.94-17.39,5.09-5.2,2-10.55,4.3-14.87,7.69-3.65,2.86-7.7,3.73-11.7,4.74-5.67,1.44-7.66,2.91-8,9-.45,8.24-.77,16.5-.87,24.76-.23,17.76.4,35.56-.7,53.26-.52,8.3-.39,16.53-.51,24.79-.08,5.11.44,5.12,5.78,4,6-1.27,12.2-2,18.27-3.1,6.4-1.21,12.75-2.7,19.14-4a21.09,21.09,0,0,1,3.82-.25c3.45-.09,6.91-.21,10.37-.17,2.88,0,5.49-1.53,8.73-.41,2.19.76,5.16-1.14,7.78-1.12,9.12.07,18.33-.23,27.32,1,5.36.74,11.69.46,15.77,5.56,4.81.19,6.85,3.52,6.11,7.41a19.52,19.52,0,0,0,.3,8.07c.83,4,.41,4.68-3.7,4.18-4.73-.57-8,2.78-12.42,3.34a146.3,146.3,0,0,1-24.38.38c-6.55-.66-13.28-.18-19.88.39-7.92.67-15.2,4.29-23.14,5.4-6.94,1-13.61,3.71-20.49,5.28-4,.92-8.25,1.11-12.39,1.58a28.67,28.67,0,0,0-3.23.1c-5.71,1.37-8.63,1-8.2,8.6q1,17.87,1.92,35.73c.11,2.29.68,4.72-1.77,6.43-.5.35-.6,1.48-.63,2.27-.35,7.17-.24,14.39-1.08,21.5-.58,4.85-.63,9.76-2,14.6-1,3.38-.53,7.38.16,10.94.47,2.43,2.6,3.87,5.73,3.86,16.75,0,33.51.12,50.26.37,6.1.09,12.58-.59,18.2,1.21,9.17,2.94,18.83,1.47,27.83,4.46a31.21,31.21,0,0,1,5.44,2.52,3.19,3.19,0,0,1,1.53,2c.59,6.39-2.81,11.35-9.21,13.63-4,1.41-8.25,2.24-11.79,4.34a10.59,10.59,0,0,1-8.57.93c-3-.9-5.76-.79-8.64-.85-12.58-.26-25.25.45-37.7-.88-15.25-1.62-30.37.16-45.53-.26-3.31-.09-6.4,0-9.61-1.86-3-1.79-7-1.84-10.35-3a58.64,58.64,0,0,1-10.39-4.63c-5.77-3.42-6.14-9.85-7.72-15.51-.07-.26,2.34-1,2.32-1.53a62.43,62.43,0,0,0-.92-8c-.36-2.34-2.11-5.27,2.55-5,1.36-4.9,8.11-6.86,7.13-13.06a6.25,6.25,0,0,1,0-1.93c.17-1.07.47-2.11.72-3.16a17.28,17.28,0,0,0-4.3,1.77c-.3.22.64,2.18,1,3.33.15.44.34.86.51,1.29-.41,0-.95-.08-1.23.14-6.8,5.23-6.8,5.3-6.34,3.85.79-2.48,1-5.29,2.27-7.45,3.13-5.23,1.44-12.43,7-16.59-.38-3.81,1.45-5.8,4.63-8,1.63-1.1,1.53-5.32,1.58-8.14.12-6.48-.1-13-.33-19.44,0-1-.87-1.93-1.33-2.9-1.27.85-3.67,1.77-3.62,2.54.3,5.09-2.05,9.67-2.42,14.54-.16,2.15.81,4.39,1.37,6.55.05.18,1,.3,1.46.16a15.71,15.71,0,0,0,2.28-1.15,7.87,7.87,0,0,1,.07,2.55,8.22,8.22,0,0,1-1.69,3.17c-2.7,2.77-5,5.58-4.59,9.84a4.13,4.13,0,0,1-1.24,2.67c-.4.46-1.37.43-2.08.62a4.44,4.44,0,0,1,.48-1.37c2.51-3.06,0-6.9,2-10.43,1.88-3.29,1.14-7.63-.66-11.45-.58-1.24-.76-3.49,0-4.39,2.07-2.56,1.15-4.16-.86-5.92a2.18,2.18,0,0,1-.67-1.62c.4-4.12.44-8.35,1.55-12.27.59-2.08.94-3.33-.57-5a5.57,5.57,0,0,1-1.31-3.3c-.1-2-.41-3.58-2-5.06s-1-2.56,1.28-2.58a6.56,6.56,0,0,0,1.72-.53c-.54-.61-1.1-1.74-1.62-1.73-6.06.19-9.47-5.16-14.69-6.94-4.8-1.64-5.59-5.47-3.27-9,.7-1.05,2.17-1.67,3.39-2.27.89-.43,2.29-.16,2.89-.77,1.85-1.87,3.12-2.42,6-1,3.58,1.83,7-1.29,10.26-2.85.25-.12,3.31-2.55,1.13-5.25-1.09-1.36-.86-4.13-.59-6.17.53-4,1.57-8,2.27-11.95.17-1,.26-2.66-.3-3.06-4.57-3.25-1.61-6.8-.14-9.78s1.35-5.58,1.41-8.47c.09-4.33-1-8.79,2.1-12.74.73-.92.23-2.9.14-4.38a2.07,2.07,0,0,0-.8-1.48c-2.51-1.53-2.52-1.5-1.87-4.65a8,8,0,0,0,0-1.29q.43-12.39.86-24.77c.29-9.11,0-18.29,1-27.33.84-7.82,2.88-15.53,4.81-23.18.52-2.05,2.45-3.8,3.93-5.51,2.31-2.66,5.2-4.84,6.12-8.56.12-.52,1.64-1,2.53-1,6.48-.19,13-.41,19.44-.32,3.29,0,6.57.71,9.86,1.06,3.82.4,7.37-.63,11.15-2.46m18.51,297.7-.07,1.2a2.67,2.67,0,0,1,1.37-1.23l.07-1.2a2.63,2.63,0,0,1-1.37,1.23m-92.45-131.34-2.09-.48-.17.85a3.44,3.44,0,0,1,2.28.93l1.2.07a2.62,2.62,0,0,1-1.22-1.37m16.22,111.27c.78-2.62,3.8-4.9,1.18-8-.18-.22.06-.79.1-1.2.33-3.06.7-6.11,1-9.17,0-.53-.38-1.11-.59-1.66a6.41,6.41,0,0,0-.65,1.54c-.79,5.85-1.58,11.7-2.24,17.57-.06.49.82,1.08,1.27,2.27-2.11,3.37-.42,6.47.74,9.58.2.55.88.91,1.34,1.35a4.35,4.35,0,0,0,.65-1.54c0-3.58.24-7.26-2.75-10.69m1.79-119.37c0,.65,0,1.3,0,1.94.11.8.32,1.6.48,2.39a11.66,11.66,0,0,0,2.06-2c.29-.45,0-1.26,0-1.9.73-6.56,1.67-13.11,2.15-19.69.2-2.82.8-5.95-1.37-8.49a18.86,18.86,0,0,0-1.52-1.44c-.36.63-1,1.26-1,1.9-.35,8.67-.61,17.35-.87,27.32m-4.75,135.64c-.29-4.19-.49-8.39-.92-12.57a22.3,22.3,0,0,0-1.27-4.26,20.35,20.35,0,0,0-1.88,4c-.76,3.13-1.89,6.37-1.65,9.48.25,3.28,1.8,6.49,3,9.62.3.74,1.65,1.05,2.51,1.56a12.08,12.08,0,0,0,.87-2.65,12.47,12.47,0,0,0-.7-5.13m1.57-95.37c.44,1.77-2.9,3.52,0,5.31-1,1.09-2.32,2.36.17,3.06a2.82,2.82,0,0,0,3.75-2.39c.22-4.92,0-9.86-.24-14.78,0-.34-1.42-1.07-1.86-.88-2.23,1-3.14,5.5-1.79,9.68m-.93,57.74c2.14-3.82,3.92-7.74,3-12.3a8,8,0,0,0-.87-1.8c-.56.64-1.69,1.35-1.61,1.89.62,4.2-1.4,7.55-3.19,11-.42.8-1,1.54-1.47,2.32a12.83,12.83,0,0,0,4.14-1.11m7.21,41.38c-1.37-2.17-2.71-4.36-4.13-6.49a5.08,5.08,0,0,0-1.34-1.05,9.27,9.27,0,0,0-.45,1.7c-.27,3.68,1.9,6.19,4.52,8.18,1.32,1,2.27,0,1.4-2.34m-3.78,6.55c-.56.31-1.13.61-1.7.91,1.8,1.31,3.55,2.71,5.44,3.88.47.29,1.41-.18,2.13-.3-.27-.72-.34-1.8-.86-2.1-1.35-.76-2.89-1.19-5-2.39m13.7-217.51c0-3.57-2.71-1.2-4-1.84-.21-.1-.67.3-1,.47,1.06.68,2.1,1.41,3.2,2,.31.17.81,0,1.86-.65m16.47,199.47,1.6,1.92c.33-.42.67-.83,1-1.25-.88-.65-1.76-1.31-2.61-.67m-26.21-89,1.6,1.91,1-1.24c-.88-.66-1.76-1.31-2.61-.67m1.8-8.47-1.92,1.53,1.12,1.08a3.14,3.14,0,0,0,.8-2.61m5.53-165.48-1.29.67c.44.21.87.42,1.29-.67m-7.74,187.57-.5.79c.38-.05.77-.1.5-.79m3.64,22.64c-.26-.17-.52-.34-.79-.5,0,.38.1.77.79.5m116-77.92-.51.79c.39,0,.78-.1.51-.79m-99.19,39.36-.51.79C1768.48,834.49,1768.87,834.44,1768.6,833.75Z"/><path class="cls-1" d="M969.93,505c-4.81-3.93-5-9.62-7-14.39-2.83-6.61-3.62-14-7.61-20.21-.61-1-.54-2.4-.63-3.63-.6-8.24-.72-16.54-1.87-24.7-1-7.42-3.19-14.68-4.84-22a23.83,23.83,0,0,1-.65-3.63c-.19-3.3-.13-6.42-2.15-9.56-1.55-2.4-1.85-5.84-2-8.85-.45-8.49-4.53-16-6.1-24.16-.15-.76-1.08-1.8-.84-2.15,3.49-5,0-9.82-.75-14.43-1.42-8.82-3.69-17.54-5.47-26.34-2.38-11.82-2.07-24.17-6.8-35.52a4.71,4.71,0,0,1-.1-1.26c-.54-6.3-1-12.6-1.64-18.89-1-9.78-1.27-19.73-3.32-29.29s-2.29-19.12-3.06-28.73c-.43-5.45-.74-11-2.54-16.45-1.29-3.87-1.18-8.21-1.67-12.35-1-8.7-2.14-17.39-3-26.11-.32-3.33-2.26-3.39-4.82-3.52-12.44-.63-24.34,2.34-35.93,6.09-5.48,1.77-11.14,2.18-16.55,3.92-2.88.94-5.94,1.34-8.82,2.27s-5.52,1.41-8.62-.51c-7.61-4.72-15.92-8.32-22.58-14.51a8.14,8.14,0,0,1-1.83-1.83c-.85-1.54-1.48-3.21-2.2-4.82a51.24,51.24,0,0,1,5.27.23,45.4,45.4,0,0,0,19.13-1.69c11.26-3.19,22.52-6.43,33.92-9.07,6.83-1.59,13.93-2,20.88-3.11,4.84-.78,9.62-1.94,14.45-2.78,2.28-.4,3.33-1.54,3.18-3.82,0-.21,0-.43,0-.65q.33-18.54.66-37.07c.06-3.45.22-6.87-3.29-9.07-.47-.3-.43-1.41-.62-2.14a7.08,7.08,0,0,1,2.2,0c4.76,1.54,9.56,3,14.2,4.81,6.57,2.6,9.28,8.43,10.9,14.68,1,4,1.07,8.25,1.62,12.38.44,3.28.87,6.56,1.55,9.79a2.57,2.57,0,0,0,2.1,1.35c3.9-.42,7.9-.66,11.64-1.74,11.57-3.37,23-7.3,34.55-10.59,7.8-2.22,15.5-4.74,23.64-5.92,5-.72,9.84-3,15.11-2.62,7.36.51,14.5,1.19,20.94,5.81,3.26,2.34,7.59,3,9,7.64,1.1,3.63,1.2,7.59,3.53,10.9.35.5-.6,2.39-1.41,3.13-1,.9-2.7,1-3.69,1.9-3.46,3.14-6.66,5.81-12.07,5.61-4.3-.16-8.64,2-13.08,2.82-4.67.84-9.77.39-14.09,3.62-1.91,1.44-5.12,1.09-7.69,1.73-3.33.82-6.59,1.9-9.91,2.72-4.15,1-8.29,2.49-12.5,2.71-8.36.44-16.31,3.41-24.8,3.34-5.23-.05-10.51,1.62-15.71,2.74-1.79.39-2.64,1.89-2.39,3.89.56,4.34.24,9,1.73,13,2.2,5.84.69,11.91,2.49,17.81,2,6.46,1.63,13.6,3.46,20.12a38.64,38.64,0,0,1,1.1,7.3c.68,7.58.6,15.28,1.88,22.75,1.77,10.4,3.5,20.85,6.78,31,1,3.07.29,6.48,1.35,9.85,1.42,4.49,1.1,9.52,1.82,14.27.76,5.05,1.86,10.06,2.81,15.09S959,322.1,960,327.12c1,4.8,1.92,9.6,3,14.37.67,2.94,1.51,5.85,2.43,8.73,3.35,10.51,6.57,21.07,10.22,31.48a245.46,245.46,0,0,1,9.2,31.26,22,22,0,0,0,1.36,4c2,4.95,2.44,10.27,3.62,15.42,1.3,5.68,3.06,11.27,4.73,16.87,3.16,10.59,6.1,21.27,9.75,31.69,1.9,5.43,4.61,10.48,4.11,16.52-.21,2.56-.37,4.28-3.61,4.83a7.49,7.49,0,0,0-5.62,4.05c-1,1.83-4.26,3.23-6.6,3.39a136.23,136.23,0,0,1-19.06-.08C970.36,509.39,970.41,508.78,969.93,505Z"/><path class="cls-1" d="M1027.5,976.79c6.86-8.21,13.76-15.86,16.38-26.19,1.35-5.31,2.58-10.61,3.55-16,1.2-6.61.68-13.09.67-19.62,0-9.3-5.31-14-14.39-15.29-8.67-1.21-16.14,2.17-23.81,4.61-10,3.18-19.9,6.72-30.38,8.21-1.57.23-3.08,1.22-4.63,1.27-1.9,0-2.16.91-2,2.38.6,4.31,1.05,8.65,1.87,12.91,1.14,6,2.59,11.94,3.85,17.91,1.9,9,2.56,18.21,5.58,27a5.23,5.23,0,0,1,.11,1.26c.55,6.3,1.29,12.58,1.55,18.89a37.25,37.25,0,0,1-1.15,9.18,4.54,4.54,0,0,1-2.42,2.5c-3.48,1.63-7.17,2.78-10,5.65a4.79,4.79,0,0,1-2.76,1.08c-6.57.8-12.34-2.19-18.3-4.15-3.83-1.25-1.86-5.64-3.89-8a5.92,5.92,0,0,1,1.33-1.3c.14-.09.9.34,1,.64a10.28,10.28,0,0,1,.09,1.93c.15,2.09,1.26,4.81,2.89,4.4,1.83-.45-.19-3-.51-4.32a87,87,0,0,1-2.81-22.92,97.8,97.8,0,0,0-2.91-24.18c-1-4.23-1.15-8.67-1.6-13-.58-5.64-.59-11.39-1.74-16.91-1.25-6.06-1.07-12.85-6.63-17.36-.38-.31-.35-1.13-.53-1.7-.24-.74-.51-1.47-.77-2.2a16.88,16.88,0,0,1,2.67.24c1.63.39,1.62.45,1.24-1.38-1.43-7-1.16-14.33-4.3-21-.27-.58,1-1.74,1.12-2.69.48-3.26,1.76-6.82,1-9.79-1.37-5-2.1-9.67-.11-14.56a2,2,0,0,0,0-1.27c-3.22-10.83,1.15-21.78-.52-32.64-.39-2.49-1.1-2-2.86-1-5.63,3.15-11.57,5.39-15.27,11.57-1.94,3.25-7.12,4-9.62,7.55-.15.2-.83.07-1.26,0a50.29,50.29,0,0,1-17.11-3.94c-1.64-.74-1.7-1.89-.17-3.19,3.37-2.87,6.48-6,9.9-8.83,8.18-6.7,16.78-12.77,26.64-16.8a12.87,12.87,0,0,0,1.66-.69c6.51-3.81,7.7-1.5,5.2-11.63a66.39,66.39,0,0,1-1.65-11.68c-.27-4.37-1.86-8.25-3.33-12.28-1.58-4.35-2.37-9-3.7-13.42-1.74-5.89-1.43-12.13-3.62-18-1.09-2.92-.25-6.59-.16-9.92,0-1.42.68-2.84.61-4.24-.27-5.19-.29-5.59,4.66-4.93a116.2,116.2,0,0,1,16.59,3.59c3.2.91,6.09,7.33,4.78,11.37-1.85,5.72.15,10.86,1.53,16,3.07,11.45,6.7,22.76,10.14,34.11.17.55.92,1,1,1.51.35,2.21-.92,5.43,1.91,6.18,2.06.54,4.65-.66,6.94-1.3,10.84-3,21.64-6.8,33-6.55a83.48,83.48,0,0,1,22.36,3.57c4.95,1.51,9.12,5.38,12.68,9.67,5.16,6.22,7,14,10.68,20.85,1.14,2.14,3,3.93,3.91,6.14a39.88,39.88,0,0,1,1.9,25.59c-.95,3.78-.32,8-1.33,11.73-.94,3.52-2,7-6,9.26-3.59,2-6.11,5.91-9,9.08-.16.17.56,1.72,1,1.79a60.8,60.8,0,0,0,9.84,1.13c6.12,0,11.38,2.45,16.88,4.61,8.25,3.23,10.71,10,11.52,17.68,1.69,16.16-2.34,31.62-7.12,46.75-2.4,7.55-7,14.39-10.39,21.64-2.46,5.24-4.42,10.72-7,15.91a51,51,0,0,1-6,9.23c-3.7,4.63-7.73,9-11.63,13.46-4,4.63-8,9.33-12.15,13.87-7.09,7.81-16.19,12.35-26.24,14.66-6.69,1.54-12.37-2.07-17.51-5.94-2.08-1.56-1.36-8.28,1.38-10.87a76.81,76.81,0,0,1,12.55-10.13c13.49-8.15,23.07-20.2,33-32,1-1.16,1.23-2.93,2.13-4.75m-64-155.51q1.17,29.84,2.38,59.67a11,11,0,0,0,1,3.48c.83,2-.58,5.26,2.41,6a19,19,0,0,0,7.08-.07c1.31-.19,2.47-1.27,3.77-1.79,5.07-2,8.74-6.42,14.08-8.15a40.12,40.12,0,0,0,9-4.76,152.06,152.06,0,0,0,28.35-23.3c1.08-1.15,2.25-2.72,2.35-4.17.63-8.52-.44-16.5-6.88-23.11a58.29,58.29,0,0,1-7.83-10.91c-5.6-9.38-13.48-14.52-24.58-13.47-3.57.34-7,1.8-10.55,2.68-5.69,1.43-11.45,2.64-17.07,4.28-2.23.65-4.55,1.74-3.75,5.2C963.77,815.14,963.42,817.61,963.48,821.28Z"/><path class="cls-1" d="M1163.76,850.52c-8.92-5.87-14.94-14.52-20.29-23.73-1-1.78-2-3.26-1.17-5.73.55-1.62-.71-3.89-1.22-5.85-3.22-12.39-3.75-25.11-3-37.71a50.42,50.42,0,0,1,7.34-23.41,22.92,22.92,0,0,0,3.23-10.82c.09-2.48-2-.7-3.31.23a58,58,0,0,1,.91-9.18c.08-.42,1.43-.83,2.18-.82.47,0,1,.8,1.4,1.27,2.36,2.48,5,2.16,7.55.52,7.14-4.63,14.15-9.47,21.32-14.08,5.9-3.79,11.38-8.4,18.51-10,3.14-.71,6.22-2.31,9.35-2.39,8-.19,16.1-1.2,24.13.68,4.23,1,6.87,4,9.41,6.91.56.65-.49,3.66-1.62,4.59-3.89,3.21-8.15,6.33-13.33,6.74-11.11.87-19.47,7.44-28.31,13a58.62,58.62,0,0,0-10.21,8c-3.69,3.71-6.77,8-10.18,12-5.51,6.44-6.44,14.71-8.54,22.37-4,14.67-3.34,23.83,6.31,37.4,3.18,4.47,7.61,8.22,12,11.63a113.88,113.88,0,0,0,16.36,10.7c7.13,3.81,14.18,7.73,20.93,12.15a89.5,89.5,0,0,1,9.87,7.62c5,4.33,10.47,8.27,13.82,14.1,5.1,8.86,9.81,18,14.83,26.85,1.5,2.65,4,4.79,5.19,7.54,4.3,10.11,8.35,20.32,12.26,30.59,2.39,6.28,2.27,13.1,1.39,19.47-.68,4.95-3.51,9.79-6.17,14.21-3.27,5.46-8.07,10.06-10.94,15.68-8.59,16.79-23,26.17-39.87,32.4-6.23,2.3-12.89,4.56-19.39,4.69-7.46.15-15.41.6-22.45-3.46a18.17,18.17,0,0,0-5.17-1.57c-3.76-.8-4.92-2.6-2.55-5.41,1.83-2.18.4-2.76-.7-3.75-5.54-5-11.49-9.56-16.57-15s-8.7-12-11.91-18.93c-4-8.52-5.37-17.69-8.12-26.51-.83-2.68-1.88-5.29-2.65-8-.12-.4.82-1.61,1.09-1.56,6,1.22,12.16,1.7,18.19,2.58,8.08,1.19,13.4,4.84,16.36,11.76,2.41,5.65,6.48,10,10.17,14.46,5.65,6.91,12.35,13,18.5,19.46,2.23,2.35,3.64,1.4,6.39.28,8.18-3.35,13.74-10.16,20.92-14.79,6.82-4.4,10.9-12.35,15.69-19.19,2.93-4.19,1.81-8,2-12.23.66-11.94-6.37-21.23-10.26-31.54a84.92,84.92,0,0,0-14.63-24.34c-10.94-13.11-25.33-21.71-39.34-30.77-4.85-3.13-8.94-7-13.11-10.79-1.58-1.45-2.72-1.23-2.63,1.56m-5.37-10.6a2.69,2.69,0,0,0-.47-.43.67.67,0,0,0-.42,0c0,.72-.21,1.89.13,2.08,1.45.84,1.8,3.74,4.39,2.46C1161,842.9,1160,841.73,1158.39,839.92Z"/><path class="cls-1" d="M1634.27,829.62c.15,8.86-.39,17.15.61,25.26,1.31,10.62.47,21.37,2,31.83,1.32,9.17.6,18.28,1.55,27.35.51,4.87,1.73,9.68,2.62,14.51.07.41.14.82.18,1.23q.81,9.12,1.62,18.24c.55,6.29,1,12.6,1.67,18.88a6.45,6.45,0,0,1-2.18,5.63c-6.94,7.12-14.8,10.91-24.94,7.89a12.57,12.57,0,0,0-3.87,0c-5.28.21-9.18-2.43-12.26-6.32-.64-.8-.11-2.54-.12-3.84.75.74,1.46,1.51,2.25,2.21.57.52,1.23.94,1.84,1.4.14-.81.63-1.77.35-2.39-3.45-7.69-1.59-15.38-.5-23.18.43-3.14-1.59-6.63-1.14-9.77.64-4.52-.9-8.78-.46-13.21s-.8-8.55-2.49-12.61c-.54-1.3-.25-2.94-.36-4.42-.59-7.81.86-15.76-1.67-23.43a5.35,5.35,0,0,1,0-2.58c.87-4.64,1.47-9.22-.18-13.87-.34-1,.73-2.31.74-3.49,0-2.89.44-6-.44-8.65a31.22,31.22,0,0,1-1.16-16.85c1.75-8.52,1.91-17.4,2.33-26.15.51-10.4.5-20.83.86-31.24a90,90,0,0,1,1.1-9.21c.29-2.15-.89-2.84-2.61-2.25-3.21,1.1-6.27,2.63-9.47,3.72A43.23,43.23,0,0,1,1583,776c-5.18.85-10.66-1.24-15.64,1.6-4.32-2-9.63,2.39-13.55-2.12-4.47.16-8.12-2.72-12-3.56-5.9-1.27-8.74-5.57-12.63-8.89-1.56-1.33.66-5.24,3.2-5.53a34.94,34.94,0,0,1,6.47-.12c8.92.62,16.93-2.65,24.89-5.88a188.16,188.16,0,0,1,28.59-9.38c3.33-.77,6.58-2,9.93-2.65,2.7-.54,3.07-2.09,3.27-4.47.37-4.28,1.22-8.51,1.82-12.77a3.58,3.58,0,0,0-.07-2.19c-2.3-3.52-1.36-7.06-.28-10.63.17-.57.71-1.31.52-1.68-2.52-4.82,1-9.7-.2-14.51-.15-.58-.33-1.16-.5-1.74-.6.5-1.21,1-1.8,1.51a.89.89,0,0,0-.28.52c-.19,1.86-.36,3.73-.54,5.59-.26-2.05-.68-4.09-.75-6.14-.15-4.57-.63-9.2,1.78-13.46a4.2,4.2,0,0,0,.48-2.36c-.83-7.6,1.59-14.64,3.41-21.83.39-1.54-1-3.46-1.18-5.25-.1-1-1.69-3.63,2.11-1.81,6.63,3.18,13.91,5,20.72,7.83,4.58,1.92,7.46,8.66,5.8,14.91-1.14,4.26-.78,8.34-.84,12.5-.08,5.18.54,10.4.14,15.55-.78,10.06,1.27,20,.6,30.05-.26,3.85,1.35,3.74,4.63,3.24,11.74-1.77,23.25-4.48,34.85-6.92,11.81-2.48,24-3.72,35.93.36,4.91,1.67,8.47,5.17,12,8.7a1.79,1.79,0,0,1-.19,1.41c-3.43.69-2.9,3.35-2.63,5.59.61,5.23,0,5.45-4.65,7.94-8.17,4.42-16.91,4.9-25.8,5.31a87,87,0,0,0-17.06,2.73c-4.63,1.15-9.55,1.09-14.32,1.69-7.41.94-14.82,1.92-22.21,3a3.42,3.42,0,0,0-2.35,1.87,24.19,24.19,0,0,0-1.31,6.55c-.36,10.56-.85,21.13-.7,31.69.13,8.9,1.09,17.78,1.69,27.32m-28.43-141.54a2.33,2.33,0,0,0,.46.43.62.62,0,0,0,.43,0,31.88,31.88,0,0,0,.3-3.65c0-.34-.55-.69-.86-1-.12.58-.28,1.16-.36,1.74a25.21,25.21,0,0,0,0,2.57m21.09-17.88-.51.78c.39-.05.78-.1.51-.78m2.57-1.35-.5.79C1629.38,669.59,1629.77,669.54,1629.5,668.85Z"/><path class="cls-1" d="M821.51,1009.92c5,4.38,11,5.22,16.38,7.45,3.5,1.46,7.16,2.53,10.76,3.74,2.71.91,4.29,2,1.51,4.78-.64.63-1.32,2.26-1,2.69,3.14,4.16-.43,4.48-2.93,5.6a6.78,6.78,0,0,0-2.34,2.1c-7.14,9.19-16.46,9.77-27,7.56-7.14-1.5-13.83-4.24-20.53-6.78a87.16,87.16,0,0,1-18-9.69c-9.56-6.52-20-11.29-30.39-16.08-4.1-1.89-7.37-4.17-9.72-8.14-1.37-2.33-3.55-4.77-5.94-5.76-4-1.65-5.42-4.77-6.85-8.18-.54-1.3-.69-2.85-1.51-3.9-2.39-3.08.29-6.2-.26-9.26,0-.16,1.3-.83,1.43-.7a14.83,14.83,0,0,1,1.13,1.86,25.64,25.64,0,0,0,1.7,1.92,9.49,9.49,0,0,0,.85-2.08c1.41-8.89,3.33-17.75,2.12-26.84-.24-1.81,4-5.63-2.14-5.05a5.53,5.53,0,0,1-.53-2.26c.24-8.47.5-16.95.88-25.42a3.79,3.79,0,0,1,1.32-2.63c3.31-2.34,2.67-5.77,2.12-8.75-.25-1.33-.73-4.61-3.93-3.5-2.83,1-4.15-1.48-6.12-2.48-4.11-2.08-8.31-4-12.4-6.1-.87-.44-1.44-1.45-2.14-2.21A14.84,14.84,0,0,1,711.1,890c6.36-1.92,12.7-3.94,19.16-5.46,2.72-.64,3.51-1.83,3.38-4.33-.24-4.61.09-9.21-.08-13.84-.35-9.53.34-19.1.63-28.65,0-.81-.06-1.92.41-2.38,5-5,3-12.08,5.58-17.8.55-1.22-.14-3.33-.86-4.73-.89-1.75-2.35-1.51-3.5.05-.27-.45-.72-.87-.78-1.34-.56-4.13-1.62-8.29-1.42-12.4.42-8.56,1.38-17.13,7.23-24.14.26-.31.43-1,.68-1,11.89-.78,20.74-8.52,30.62-13.7a329.06,329.06,0,0,1,36.12-16.11c2.41-.92,4.48-2.7,6.78-3.94,9.19-5,18.83-5.32,28.73-2.64a59.85,59.85,0,0,1,7.5,2.21c2.71,1.11,4.6,3.11,4.52,6.36-.07,3-1.91,4.38-4.57,5.13a9.08,9.08,0,0,0-2.68,1.33c-4.68,3.25-9.17,6.64-15.31,7-1.6.1-2.54,2.22-.6,4.45,1.66,1.92.12,6.18-1.86,7s-8.87-.94-9.08-2.72c-.15-1.27,1.19-2.68,1.73-4.08a2,2,0,0,0-.07-1.69,1.92,1.92,0,0,0-1.68-.36c-12,4.48-24,8.82-35.9,13.6-6.62,2.67-12.92,6.09-17.84,11.57-2.37,2.64-3.75,5.38-3.39,9,.61,6.08-.34,12.19,1.44,18.3.85,2.93-.83,6.51-.86,9.8-.06,7.13,0,14.27.37,21.39.3,6.31,1.28,12.58,1.49,18.89.12,3.92-.86,7.86-.94,11.8s1.77,5.67,4.93,4.37c4.79-2,9.62-1.1,14.41-1.36,6.26-.33,12.61-.93,18.79-.25,13.24,1.47,26.46.37,39.69.52A83,83,0,0,1,857,881c3.11.54,6.07,2,9.08,3a2.15,2.15,0,0,1,.93.89c1,1.53-1.05,10.7-2.83,11.34-6.45,2.29-11.5,7.52-18.42,8.71-7.5,1.29-14.85,3.91-22.67,1.38a39.35,39.35,0,0,0-9.78-1.31c-9.3-.5-18.44-2.19-27.65-3.2-6.6-.72-13.61-1.13-20.14,1.45-1.08.42-2.85,1.67-2.73,2.11,1.18,4.26-2.72,8-.42,12.81,1.62,3.37.12,8.24-.05,12.44,0,1.22-.36,2.44-.45,3.67-.71,9.81-1.35,19.63-2.12,29.44-.19,2.43-.73,4.84-1.14,7.26-1.68,10,7.31,15.66,14.11,19,11.89,5.9,25.46,7.18,37.14,13.6,3.71,2,7.37,4.18,11.7,6.27M729,988.84c.43,1.9.94,3.76,3.09,4.47.12,0,.34-.18.51-.28A11.45,11.45,0,0,0,729,988.84Z"/><path class="cls-1" d="M1938.42,291.47a76.09,76.09,0,0,1-16.71-12.92,77.8,77.8,0,0,1-12.27-16.29c-4.62-8.06-6.61-16.9-8-25.93a91.46,91.46,0,0,1-1.47-13.05c-.06-11.86,3.66-22.65,11.69-31.36s16.37-16.7,25-24.58c4.65-4.26,10.07-7.71,15.3-11.3,4.83-3.32,10-6.19,14.75-9.57,1.89-1.34,3.28-1.87,4.93-.07,2.8,3.08,5.5,6.27,8.37,9.29a17,17,0,0,0,4.38,3.58c4,2,5.34,6.12,7.56,9.45,1.49,2.22-1.31,5.88-5.12,7.16a7.68,7.68,0,0,1-3.13.29c-7.26-.68-12.79,3-18.83,6.35a117.13,117.13,0,0,0-23.45,16.55c-7.52,7-12.9,15.45-14.24,25.92-1.66,12.92.28,12.15,3.86,26.57,2.27,9.15,8.26,13.78,15.61,17.09,11.45,5.16,23.54,8.92,35,14.09,9.67,4.36,19.26,8.95,28.58,14.13,9.51,5.29,18.48,11.09,26,19,8.14,8.56,13.6,18.51,13.61,30.6,0,4.41-1.37,8.84-2.26,13.23-1.12,5.55-2.14,11.14-3.63,16.59-3,10.91-7.77,20.64-17.74,27.07-2.29,1.47-4,3.81-6,5.72-3.55,3.35-8.48,4.66-12.69,5.05-5.57.51-9.91,3.61-15.1,4.74A64.2,64.2,0,0,0,1975.5,425c-2.71,1.46-6.78.83-10.17.48a64.43,64.43,0,0,1-10.64-2.34c-3.88-1.08-4.69-3.89-2.12-7a114.23,114.23,0,0,1,31.82-27.19c5.23-3,10.33-6.25,15.78-8.77a15.37,15.37,0,0,0,8.36-10.78c2-9.45,4.13-19,3.82-28.86-.32-10.39-5.29-17.73-13.52-23.14a114.64,114.64,0,0,0-25.32-12.48c-11-3.81-21.93-7.5-32.43-12.48-.72-.34-1.55-.43-2.66-.95m26.9-.8-.07,1.21a2.63,2.63,0,0,1,1.37-1.23c0-.4.05-.8.07-1.2a2.62,2.62,0,0,1-1.37,1.22M1936.08,177l.08-1.21a2.63,2.63,0,0,1-1.37,1.23l-1.65.38.28.85a10.24,10.24,0,0,1,2.66-1.25m75.33,227-.07,1.2a2.67,2.67,0,0,1,1.37-1.23l.48-2.08-.85-.17a3.49,3.49,0,0,1-.93,2.28m-25.75-100.08-2.09-.48c0,.28-.11.56-.17.85a3.46,3.46,0,0,1,2.28.92,5,5,0,0,1,2.62,1.26c1,.63,2,1.27,3.11,1.85.07,0,.44-.49.66-.76a12.51,12.51,0,0,1-3.8-2.39,4.91,4.91,0,0,1-2.61-1.25M1959.38,174l.07-1.2a2.63,2.63,0,0,1-1.37,1.23c-1.69-.76-2.86,3.14-4.95.54-.2-.25-2.22,1-3.39,1.5a11.87,11.87,0,0,0,2.82.61c2.37-.07,5.25.82,6.82-2.68m69.41,148.61c-2.74.39-2.55-1.52-2.7-3.29a1.58,1.58,0,0,0-1.07-1.11,1.7,1.7,0,0,0-1.43.75c-.75,2.57,1.23,3.87,2.83,5.1,1.9,1.46,3.45.27,4.74-1.26a2.71,2.71,0,0,0-2.37-.19m-45,94.19c0-.66,2.59-1.17.12-1.92a3.3,3.3,0,0,0-1.92,0c-2,.68-3.85,1.47-5.77,2.23l5.64.33a3,3,0,0,0,1.93-.67M2013,385.18c-2.3-1.13-4.44-1.18-6.1,1.07a10.79,10.79,0,0,0-1,2.27c1-.14,2.87-.21,2.89-.45.23-2.47,1.89-2.3,4.21-2.89m-7.9-80.29,0-2.58a10.87,10.87,0,0,0-1.81.56c-1.49.74-3,1.55-4.42,2.34l5,.35c.21,0,.43,0,1.28-.67M2040.28,349c-1.42-1.87-2.76-1.56-3.94.22-.08.11.56,1,1,1.08,1.26.26,3.23,3.68,3-1.3m-77-66.75c-.13.57-.29,1.13-.37,1.71-.18,1.28-.34,2.57-.42,3.86a4.08,4.08,0,0,0,1,.25,15.56,15.56,0,0,0,1-3.65,2.06,2.06,0,0,0-1.27-2.17m-.82,138.16,1.7-.44c-.86-2.06-4.78-3.14-6-1.67.34.29.67.61,1,.87a7.61,7.61,0,0,0,3.29,1.24m79.35-61.06a2.35,2.35,0,0,0-.43.47c-.06.11,0,.3.06.45l2.32-.78a9.41,9.41,0,0,0-1.6-2.65c-.35-.3-1.48.32-2.26.53.85.44,1.7.88,1.91,2m-29.55,16.09c.2-.55.69-1.18.56-1.63a9.93,9.93,0,0,0-1.28-2.25,10.69,10.69,0,0,0-1.2,2.29c-.11.46.4,1.07,1.92,1.59M1937.72,270.4c0,1.27,0,2.53,0,3.79l1.67-.19a14.7,14.7,0,0,0-1.63-3.6m38.72,136.82-2.91.38c.52.71.89,1.78,1.58,2.06,1.5.61,2.23-.2,1.33-2.44m-7.62-249.57c.24,3.75,1.58.87,2.2.27a6.67,6.67,0,0,0,1-2.23,20.63,20.63,0,0,0-3.25,2m64.25,187-.89.91,1.35,1c.71-.94,1.41-1.89,2.12-2.84-.35-.22-.74-.66-1.05-.61s-.6.55-1.53,1.52m10.92-6c1.72-1.79-.16-2.54-1.06-3.53-.09-.1-.58.16-.88.26a19.83,19.83,0,0,0,1.94,3.27m-17.45,40.52-.92-2.17-2.16,1.39a9.22,9.22,0,0,0,3.08.78m-28.26,16.06a2.73,2.73,0,0,0-.43.47c0,.11,0,.29.06.44,1-.36,2.08-.7,3.08-1.13.14-.06.09-.57.12-.87a7.5,7.5,0,0,0-2.83,1.09m-3.54-91.39a3,3,0,0,0,.45.42.67.67,0,0,0,.42,0c0-1.13,0-2.27,0-3.41l-2.15.42a4.71,4.71,0,0,1,1.32,2.6m-72.06-40.25-2.14-1.73c-.16.33-.51.89-.43,1a2.8,2.8,0,0,0,2.57.76m18.82-73.62c-.2.94-.46,1.86-.57,2.8,0,.31.34.66.53,1a5.27,5.27,0,0,0,.7-1.32,3.58,3.58,0,0,0-.66-2.47m97.89,145.51-2.49-.05.61,2,1.88-2m-9,2.76,1.25-1.29-2-.55c.05.84.1,1.67.78,1.84m-11.92,22.91c.2-.93.46-1.86.57-2.8,0-.31-.34-.66-.53-1a5.27,5.27,0,0,0-.7,1.32,3.58,3.58,0,0,0,.66,2.47m-.8-8.42-2.14-1.74c-.15.34-.51.9-.43,1a2.8,2.8,0,0,0,2.57.77m-43.31-66,1.71-.45c-.36-.29-1-.87-1-.82-.6.52-2.8-1.3-.66,1.27m12.4,115.23,1.63-.38c-.08-.27-.21-.8-.23-.8-.7.15-1.38.35-1.4,1.18m1.18-6.51,1.63-.37c-.08-.28-.21-.81-.23-.8-.69.14-1.38.34-1.4,1.17m.27-95.35-1.28.67c.43.21.87.42,1.28-.67m21.14,21.68c.69.17,1.38.34,2.07.47,0,0,.14-.53.21-.81a3.11,3.11,0,0,0-2.28.34m-54.47-36c.17-.69.34-1.38.47-2.08,0,0-.53-.13-.81-.2a3.11,3.11,0,0,0,.34,2.28m68.53,61.06c.16-.69.34-1.38.46-2.07,0,0-.53-.14-.81-.21a3.13,3.13,0,0,0,.35,2.28m6.6,6.37c-.23-.43-.45-.86-.68-1.28-.2.43-.41.87.68,1.28m11.33,17.31c-.13-.54-.25-1.08-.38-1.63-.27.08-.8.22-.8.24.15.69.35,1.37,1.18,1.39M1920.86,196.76l.68,1.29c.2-.44.41-.88-.68-1.29m124,156.73-.79-.51c.05.39.1.78.79.51m-6.14,19.56.78.51c0-.39-.1-.78-.78-.51m-2.73-44.7.5-.79c-.39.05-.77.1-.5.79m-1.41-6.46.5-.79c-.39,0-.77.1-.5.79m-10.95,78.67-.78-.51c0,.39.1.78.78.51m-2.32-21.36.51-.79c-.39,0-.78.1-.51.79M2019,317l.51-.78c-.39.05-.78.1-.51.78m1.32,38.25-.78-.51c0,.39.1.78.78.51m0,35.67.51-.79c-.39,0-.78.1-.51.79m-2.8-11.63.51-.78c-.39,0-.78.1-.51.78m-2.14-47.95.51-.79c-.39.05-.78.1-.51.79m1.6,53.8-.79-.5c0,.38.1.77.79.5m-2.87,21.46c-.17.26-.34.52-.5.78.38-.05.77-.1.5-.78m-5.16,1.38c.16-.26.33-.52.5-.78-.39.05-.78.1-.5.78m-9,4.05.5-.78c-.39,0-.77.1-.5.78m-5.71-103.67-.51.79c.39-.05.78-.1.51-.79m-7.35-12.2-.79-.5c0,.39.1.78.79.5M1985.59,411l-.51.78c.39-.05.78-.1.51-.78m-2.84-14.22-.51.78c.39,0,.78-.1.51-.78m-13.4-98.35c.16-.27.33-.53.5-.79-.39,0-.78.1-.5.79M1961.13,163l.79.5c-.05-.39-.1-.77-.79-.5m-9.44,127.29.79.5c0-.39-.1-.78-.79-.5m-.79-8.42.5-.79c-.39.05-.78.1-.5.79m-5.9-114-.5.79c.39-.05.77-.1.5-.79m-4.39,8.51-.79-.51c0,.39.1.78.79.51m-2.77,100.58-.51.79c.39-.05.78-.1.51-.79m43.84,132.84-.51.78C1981.56,410.46,1982,410.41,1981.68,409.73Z"/><path class="cls-1" d="M1417.14,782.52c1,4.57,1.84,8.81,2.48,13.08,1,6.87,2.54,13.63,4.23,20.36a17.86,17.86,0,0,1,.1,3.88c.11,5.83,0,11.67.36,17.49.67,10.77,1.45,21.51,4.29,32,1.19,4.38.94,9.13,1.69,13.65,1.73,10.52,2.61,21.17,5.59,31.49,1.2,4.15,1.07,8.68,1.66,13,.36,2.64,1,5.24,1.4,7.87,1.87,13.4,3.09,26.94,7.59,39.8.92,2.66,1.59,4.65-.7,6.69-.31.29-.86.69-.81.94,1.28,6.42-4.32,6.9-7.85,8.38-9.13,3.83-12.17,3.63-23.07.54-2.71-.77-6.32-5.62-6.78-8.37-1.4-8.28-3-16.52-4.55-24.78a37.82,37.82,0,0,1-1.08-5.39c-.23-6-.27-12.09-.36-18.13a46.94,46.94,0,0,0-2.81-16.41c-.51-1.32-.13-3-.15-4.5a266.63,266.63,0,0,0-3.26-39.7c-.24-1.48,0-3-.12-4.53-.57-9.1-.7-18.27-1.92-27.28-1-7.4-3.35-14.61-5-21.93a63.84,63.84,0,0,1-1.82-10.28c-.34-6-2.48-11.94-2.51-17.67,0-4.41.32-9.15.52-13.74.08-1.59-.56-3.22-.81-4.84-.12-.72-.42-1.77-.07-2.16,3.51-3.93,2.33-8.08.91-12.36a10.25,10.25,0,0,1-.35-3.75c.61-9.29-3.1-17.79-4.79-26.66-.84-4.43-1.9-8.84-2.35-13.31-.71-7-1-14-1.35-21,0-.55,1.45-1.77,2-1.66a101.36,101.36,0,0,1,13.55,3.15c4,1.36,7.41,4,7.52,8.76.25,11.44,3.34,22.09,7.8,32.54,2.9,6.79,4.91,14,7.49,20.9,2.82,7.62,3,15.55,3.31,23.83m-14,73.21.51-.79C1403.3,855,1402.91,855,1403.18,855.73Z"/><path class="cls-1" d="M240.93,1097c6.16-6.82,11.95-13.36,17.86-19.79a127.08,127.08,0,0,1,20.91-17.87c2.94-2,5-5.4,7.88-7.51,5.9-4.26,12.13-8.06,18.21-12.08.86-.57,1.63-1.26,2.44-1.89-.92-.23-1.85-.44-2.77-.69-1.28-.36-1.36-.85,0-1.28a17.45,17.45,0,0,1,4.62-1.33c5.82-.25,11.7-.75,17.47-.2,3.87.37,7.64,2.23,11.37,3.65,2.12.81,4.17,1.94,3.32,5a2.89,2.89,0,0,0,.46,2.35c5.34,5.92,4.29,12.59,2.49,19.41a3.64,3.64,0,0,0,.07,2.55c3.35,5.25.56,10.63,0,15.77-.36,3.11-3.17,6-5.06,8.86-3,4.62-6.34,9.06-9.32,13.71-2.84,4.43-5.12,9.22-8.16,13.48-2.87,4-5.59,8-7,12.71-.23.76-.5,2.1-.88,2.14-7.15.88-12,7.81-19.76,7.25-2.15-.15-4.35,1-6.57,1.28a30.41,30.41,0,0,1-14.7-1.81,3.78,3.78,0,0,0-4.48.81c-2.71,2.29-5.53,4.21-9.41,1.67-1.15-.75-3.32,0-5,.18-3.52.38-7,.92-10.55,1.16-.48,0-1.38-1.19-1.52-1.94a25.19,25.19,0,0,1-.14-4.52c0-1.4.31-4,.12-4a21.07,21.07,0,0,0-6.52-.34c-1.27.19-2.43,1.39-3.55,2.26-2.09,1.63-4.09,1.72-6.2,0-2.29-1.83-4.55-3.33-4.65,1.57,0,.32-.41.64-.63,1-.47-.45-1.22-.83-1.35-1.36-.77-2.95-1.43-5.93-2-8.92-.35-1.77,1.36-3.46.05-5.5-.38-.58.93-3.28,1.79-3.47,5.61-1.21,7.79-5.89,10.82-9.81C233.71,1105.24,237.22,1101.32,240.93,1097Z"/><path class="cls-1" d="M2109,159.73c5.51-2.84,10.42-5.6,15.23-8.53,9.48-5.77,19-11.46,28.31-17.49,8.87-5.74,17.1-12.59,26.33-17.63s16-12.82,25-17.57c5.45-2.86,11.49-4.61,17.23-6.91,2-.82,4-1.83,6-2.68,6.5-2.74,13.33-3.23,20.27-3a10,10,0,0,1,9.66,8.67c.14,1,.21,2.45.84,2.84,3.87,2.4,3,6.2,3.31,9.74.37,3.93-1.12,8.09,1.41,11.79a2,2,0,0,1,0,1.88c-4.07,4.42-3.35,10.67-6.05,15.67-2.15,4-4.68,7.18-8.77,9.07-4.35,2-8.83,3.79-13,6.08-3,1.66-5.58,4.14-8.53,6-1.31.82-3.49,1.78-4.53,1.24-4.76-2.45-8.19-.2-11.71,2.46a11.35,11.35,0,0,1-2.65,1.39c-.23.08-.92-.37-1-.68-.73-2.71-.75-2.8-3.14-1.54-5.32,2.78-10.53,5.8-15.91,8.47-5.54,2.76-11.34,5-16.83,7.86-7.29,3.8-14.24,8.27-21.6,11.92-7,3.45-14.23,6.32-21.48,9.16-1.21.47-3.12-.25-4.49-.89a39.3,39.3,0,0,1-14.7-12.54c-3.63-4.83-6.52-10.22-9.87-15.26-1.53-2.3-.54-4,.11-6.32.85-3,2.66-1.35,4-1.76a58.94,58.94,0,0,1,6.56-1.45m104.23-10.9c0-.41.05-.81.08-1.21a2.63,2.63,0,0,1-1.37,1.23l-.08,1.2a2.66,2.66,0,0,1,1.37-1.22m24.55-5.62-.07,1.2a2.67,2.67,0,0,1,1.37-1.23l.48-2.08-.85-.18a3.5,3.5,0,0,1-.93,2.29m-28-42.32,0,3.8c.23-1.07.47-2.13.68-3.2,0-.19,0-.41.65-.62l2.67,1.19c-.07-.46,0-1.06-.24-1.34-1-1.13-2.19-2.27-3.73.17m36,18.18c1.64,2.25,3.81,2.33,6.18,1.5a.48.48,0,0,0,.18-.44c-1.38-2.31-3.65-1.71-5.73-1.72-.21,0-.43,0-.65-.64l-1.21-.07a2.63,2.63,0,0,1,1.23,1.37m-99.58,54.28a32.37,32.37,0,0,0-3.34,2.68c-1.06,1.12-1.78,2.55-2.84,3.68-1.68,1.79.85,1.77,1.06,2.72.67-.49,1.86-.91,1.93-1.47.5-4,2.88-5,6.54-5.2,2-.11,1-.75-.21-1.21-2.34-.91-.52-1,.3-1.31.19-.08.09-.82.13-1.25a12.15,12.15,0,0,0-3.57,1.36M2189.59,135a9,9,0,0,0-.89-.85c-1.63,1.38-3.23,2.82-4.83,4.25,2,1.58,3.33-.38,5-.71,1.86-.38,3.91.15,5.72-.31.89-.22,2.21-2,2-2.7-.81-2.58-1.36,1-2.53.33-.83-.44-2.09,0-4.46,0m-14.4,29.44c1.83-.25,3.68-.43,5.48-.8a1.62,1.62,0,0,0,.9-1.28,1.65,1.65,0,0,0-1-1.21c-2.38-.49-4.77-.91-7.18-1.17a3.57,3.57,0,0,0-2.12.82c-.14.1.18,1.19.54,1.6a5.3,5.3,0,0,0,3.37,2m50.8-24.89a28.08,28.08,0,0,0-3.18.1c-.41,0-.76.54-1.14.83,1.07,1,2.53,2.92,3.14,2.68,2.07-.8,3.84-2.38,5.72-3.67-.33-.43-.68-1.24-1-1.23a8,8,0,0,0-3.55,1.29m-25.34-2.8c.9.44,1.83,1.29,2.68,1.22s1.67-1.05,2.5-1.63c-.46-.54-.82-1.3-1.4-1.55a22.12,22.12,0,0,0-4-1.22c-.16,0-.7.67-.66,1a7.77,7.77,0,0,1,.89,2.2m49.16-7.35c-1.2-.73-2.14-3.38-3.74-1.07-.47.68.83,2.89,1.75,4.07.37.48,1.88.06,2.87.06a9.14,9.14,0,0,1-.88-3.06m-4.41,7.22c-.76,1.24-.63,3.47-3.2,2.73-.25-.08-.84,1-1.27,1.52.64.33,1.62,1.1,1.87.91,1.95-1.5,3.76-3.17,5.62-4.79a14.82,14.82,0,0,0-3-.37m-56.06-15.88a16.37,16.37,0,0,0,2.73,1.19c.49.12,1.13-.31,1.7-.49-.73-1.12-1.22-2.73-2.24-3.19s-3.27-.85-2.19,2.49m-79,46.13a17.71,17.71,0,0,0,0,1.93c.1.8.3,1.59.45,2.38.44-.74.92-1.46,1.3-2.23a21,21,0,0,0,.87-2.2c.22-.6.4-1.22.6-1.82a18.39,18.39,0,0,0-3.26,1.94m55.82,2.92c-.71,3.73,3.38-1.06,3.17,1.78.67-.93,2.09-2.11,1.87-2.74-.85-2.54-1.42,1.13-2.53.31-.4-.3-1.23,0-2.51.65m39.89-18.86c.6-.19,1.44-.2,1.75-.61a6.34,6.34,0,0,0,.66-2.17l-3-.46a6.77,6.77,0,0,0,.62,3.24m26.52-3.71c3.85,1.1,1.82-2.75,3.15-3.8.12-.09-.19-.72-.3-1.1-.87,1.12-1.74,2.24-2.63,3.34a1.26,1.26,0,0,0-.22,1.56M2221,150c1.1,1.28,2.24,2.07,3.58.26a9.82,9.82,0,0,1,.89-.94,29.75,29.75,0,0,0-3.48-.59c-.54,0-1.1.4-1,1.27m-63.25,18a12.47,12.47,0,0,0,2.11-.92c.4-.27.59-.86.87-1.3a4.13,4.13,0,0,0-1.08-.39c-1.51-.15-1.73.05-1.9,2.61m-7.76,1.43-.14-2.59a10.92,10.92,0,0,0-3.05,1.25c-.33.27.16,1.54.28,2.36a4,4,0,0,1,2.91-1m54-28.19a2.88,2.88,0,0,0-.41.45,1,1,0,0,0,0,.41,25,25,0,0,0,3.35,0c.14,0,.17-1,.25-1.6a7,7,0,0,0-3.18.75m-24.64.44c-.32-.74-.46-1.7-1-2.13s-1.88-.2-2,.1c-.67,1.56.06,2.27,3,2m18.11-2.92,1.71,2.19.17-2.92c-.85,0-1.69.06-1.88.73M2209.91,110a18.23,18.23,0,0,0,1-2.77c0-.2-.85-.6-1.31-.91a7.4,7.4,0,0,0,.27,3.68m-92.12,73-1.74.48c.88.7,1.72,1.44,2.64,2.06.15.09.67-.36,1-.56-.41-.45-.83-.9-1.91-2m37.59-2a2.73,2.73,0,0,0,.43-.47c.05-.11,0-.29-.06-.44-1,.36-2.08.7-3.08,1.12-.14.06-.09.58-.12.88a7.5,7.5,0,0,0,2.83-1.09m94.75-70.41c0,.86,0,1.73.12,2.59a7.36,7.36,0,0,0,1.15,0,2.4,2.4,0,0,0-1.27-2.57m-128.45,72.3c0,.87,0,1.73.12,2.59a7.36,7.36,0,0,0,1.15,0,2.4,2.4,0,0,0-1.27-2.57m2,4.51c.31,1,.63,2,.95,3,.51-.61,1.53-1.34,1.42-1.82-.16-.7-1.12-1.22-2.37-1.15m24.23-23.78-1.53-1.92-1.08,1.13a3.15,3.15,0,0,0,2.61.79m-15.84,21.68a4.5,4.5,0,0,0,1.22,0,19.37,19.37,0,0,0,1.9-.77,4.82,4.82,0,0,0-1.61-.47,1.44,1.44,0,0,0-1.51,1.28m-18.93-6.8.45,1.71c.29-.36.87-1,.82-1.05-.52-.6,1.3-2.8-1.27-.66m49.83-6.71a22.93,22.93,0,0,0-1.89,1.49c-.08.08.3.63.46,1a3.18,3.18,0,0,0,1.43-2.45M2221.44,102l1.74-2.14c-.33-.16-.9-.51-1-.43a2.83,2.83,0,0,0-.77,2.57m-16.54,18.45a27.73,27.73,0,0,0-.56,2.8c0,.31.34.66.52,1a5,5,0,0,0,.7-1.32,3.58,3.58,0,0,0-.66-2.47m13.27,16.63-1.64.38c.08.27.22.8.24.8.69-.15,1.37-.35,1.4-1.18m-2.41,10.42c.16-.69.33-1.37.46-2.07,0,0-.53-.14-.81-.21a3.07,3.07,0,0,0,.35,2.28m-2.14-11c-.69-.17-1.38-.34-2.08-.47,0,0-.13.53-.21.81a3.13,3.13,0,0,0,2.29-.34M2185.47,159c-.12-.54-.24-1.09-.37-1.63-.28.08-.8.21-.8.23.15.7.35,1.38,1.17,1.4m46.23-26.75c-.69-.17-1.37-.34-2.07-.47,0,0-.14.53-.21.81a3.11,3.11,0,0,0,2.28-.34m-48.18-10.83c-.69-.17-1.38-.34-2.08-.46,0,0-.13.52-.2.8a3.11,3.11,0,0,0,2.28-.34m46.2,8.92c.17-.69.34-1.38.47-2.08,0,0-.53-.14-.81-.21a3.13,3.13,0,0,0,.34,2.29M2244,94.45c.12.55.25,1.09.37,1.64.28-.08.81-.22.8-.24-.14-.69-.34-1.37-1.17-1.4m-77.19,36.38c.69.17,1.38.34,2.07.46a5.93,5.93,0,0,0,.21-.81,3.18,3.18,0,0,0-2.28.35M2106,174.06c.23.42.45.85.67,1.28.21-.43.42-.87-.67-1.28m145.44-64.82c.17-.69.34-1.38.47-2.07a6.94,6.94,0,0,0-.81-.21,3.11,3.11,0,0,0,.34,2.28m5.15-2.68c.16-.69.34-1.38.46-2.08,0,0-.53-.14-.81-.21a3.15,3.15,0,0,0,.35,2.29m-134,51.64c.22.43.44.86.67,1.28.21-.43.42-.87-.67-1.28m-.32,18.81-.79-.5c0,.39.1.78.79.5M2138,148.85l-.51.79c.39,0,.78-.1.51-.79m5.82,36.22.51-.79c-.39.05-.78.1-.51.79m-.57-32.42.51-.79c-.39,0-.78.1-.51.79m9.26,10.21-.5.79c.39-.05.78-.1.5-.79M2113.9,183l.51-.79c-.39,0-.78.1-.51.79m57.92-25.67.51-.78c-.39,0-.78.1-.51.78m3.37-29.89.51-.79c-.39,0-.78.1-.51.79m8.21,24.5-.5.79c.39,0,.78-.1.5-.79m.85-26-.51.79c.39,0,.78-.1.51-.79m38.53-21.43.51-.78c-.39,0-.78.1-.51.78m6.58,42.05.79.5c-.05-.39-.1-.77-.79-.5m2.39-48.69-.51.79c.39,0,.78-.1.51-.79m1.25-2.62.51-.78c-.39,0-.78.1-.51.78m4.28,22,.5-.79c-.39,0-.77.1-.5.79m13.31,19.23c.16-.27.33-.53.5-.79C2250.7,135.76,2250.31,135.81,2250.59,136.5Z"/><path class="cls-1" d="M173.08,870.82c-4.75.09-8.85.27-13,.17a21.33,21.33,0,0,1-4.66-1.16l-1.74-.48c3.28-3.71-2-6.57-1.16-9.17.71-2.29-.5-2.47-1.26-3.2-1-1-2.8-1.29-3.45-2.38-1.11-1.83-2.64-4.45-2-6s3.5-3.12,5.47-3.24c10.79-.63,19.05-6.45,27.2-12.55,11-8.24,21.55-17.16,33.07-24.58,6.4-4.12,14.25-6.25,21.7-8.41a77.55,77.55,0,0,1,20.2-3.27c5.13-.1,8.77,1.87,12.26,5,1.55,1.38,2.78,2.83,5.36,2.9,1.59,0,3.43,2,4.58,3.55a16.23,16.23,0,0,1,2.35,5.47c.84,3.13.54,6.9,5.12,7.51.28,0,.6,1,.64,1.61.64,9.29.1,18.26-6.66,25.65-6,6.61-11.76,13.51-18.09,19.8-2.45,2.45-6.27,5.14-9.35,5-6.4-.3-10.78,3.44-16,5.59-3,1.23-5.78,2.92-9.32.55-1.47-1-4.43-.69-6.3,0-4.5,1.76-8.65,1.61-13.26.29-3-.86-6.44-.18-9.66,0a12,12,0,0,1-8.16-2.22,6.53,6.53,0,0,0-3.89-1.4c-3.35.3-5.4-.65-6.25-4.12C176.72,871.25,174.81,871.13,173.08,870.82Z"/><path class="cls-1" d="M2209.92,887c-1.43-.74-2.08-1.82-3-2.16-1.46-.54-.28-4.21-3.06-2.54-.33.2.39,2.47.9,3.66,1,2.34,3.93,4.5.16,7a2.57,2.57,0,0,0,0,2.45c3.07,3.11.32,4.79-1.43,6.83-1,1.22-1.69,1.42-3.38.64s-3.82-.22-5.75,0c-.81.09-1.55.83-2.32,1.27.62.82,1.25,2.34,1.87,2.34,5.29,0,6.37,4.83,9.1,7.71.29.3.11,1.26-.14,1.77-.16.32-1.07.68-1.28.52-3.81-2.77-8.51.63-12.4-1.85a11.15,11.15,0,0,0-4-1.16c-2.3-.4-4.5-.59-5.28,2.53a3.92,3.92,0,0,1-2,2.55c-1.37.44-3.32.7-4.42,0-4.55-2.75-8.93-5.79-13.24-8.9-.89-.64-1.25-2-1.85-3,1-.22,2-.51,3-.64a12.55,12.55,0,0,0,2.56-.13c.74-.29,1.87-1.23,1.77-1.62a3.2,3.2,0,0,0-1.73-2.13c-3.16-.77-6.41-1.18-9.59-1.84-6-1.24-10.46-5.25-15.32-8.48-7.86-5.23-15.69-10.54-23.21-16.23a160.93,160.93,0,0,1-15.34-13.36c-8.88-8.67-17.89-17.27-26-26.62-4.13-4.75-9.16-9.47-9.87-16.57-.12-1.26-1.27-2.5-2.15-3.59-1-1.27-2.47-1.89-1.07-4.24.49-.82-2.48-3.67-3.8-5.65a12.09,12.09,0,0,1-.92-2.18c.9,0,2-.25,2.65.15,2.61,1.5,7,1.24,6.57,6.05,0,0,.79.11,1.21.17-1.42-2.91,4.3,0,2.35-2.72-1.24-1.75-2.55-3-2.54-5.49,0-5.59.93-6.52,6.59-5.56a144.29,144.29,0,0,1,44.94,15,158.9,158.9,0,0,1,24.42,16.7c9.38,7.6,18.07,16.09,28.26,22.76,4.62,3,8,7.84,12.27,11.51,4.4,3.82,9.14,7.25,13.76,10.8a10.57,10.57,0,0,0,2.65,1.42c2.78,1.05,6.06,1.14,6.26,5.56.07,1.43,2.67,2.64,3.81,4.17a3.28,3.28,0,0,1,0,3.08m-113.56-40.16,1.2.07a2.62,2.62,0,0,1-1.22-1.37l-1.2-.07a2.62,2.62,0,0,1,1.22,1.37m56,47.66c-6.7-5.19-13.39-10.4-20.12-15.56A8.87,8.87,0,0,0,2130,878c-.21,1-.87,2.19-.52,2.88.49,1,1.73,1.55,2.67,2.27,2.79,2.12,5.75,4,8.35,6.37,3.53,3.18,7.23,6,11.76,7.57,1.93.69,4.79,3.64,5.51,1.81,1.24-3.13-3.39-2.1-5.46-4.43m26.05-30.94,1.85,1.79c.05-.81.46-2,.09-2.35-3.73-3.36-7.56-6.63-11.45-9.81-.43-.35-1.43,0-2.16,0,.19.73.13,1.78.6,2.14,3.41,2.6,6.93,5.07,11.07,8.22m-51.9-37.36,3.23-1.07c-.69-.51-1.31-1.3-2.08-1.49-2.74-.71-5.54-1.16-8.29-1.82a15.73,15.73,0,0,1-2.68-1.16,20.31,20.31,0,0,0,2,3c2,2.08,4.65,1.75,7.83,2.51m38.86,33.7c-4.79,2.71-6.16,4.82-4.93,7.92.28.71,1.17,1.19,1.78,1.78a6.31,6.31,0,0,0,.65-2.09c-.18-3.18-.09-6.06,4.34-5.7-.4-.86-.8-1.72-1.84-1.91M2147,849.81l1.63,1.92a7.2,7.2,0,0,0,.51-1.06c-1.67-1.13.47-1.6.38-2.3-.15-1.07-.61-3-1.05-3-2.65-.2-1.1,2-1.47,4.42M2192.78,908c-.66,0-1.29-2.62-1.89-.18-.67,2.76,1.83,3.88,3.51,5.31.21.18.78-.07,1.19-.12a42,42,0,0,0-2.81-5M2132,844.24l-.41,2.15c1-.3,2.21-.35,2.93-1,.43-.37.08-1.64.08-2.5a4.75,4.75,0,0,1-2.6,1.32m49.8,29c.69.51,1.18,1.94,2.28.34a7.29,7.29,0,0,1,1.92-1.39c-.84-.5-1.33-2.4-2.75-.54-.41.54-1.39.65-1.45,1.59M2162,852.79l-.91-.89-1,1.35,2.84,2.12c.22-.35.66-.73.61-1s-.55-.6-1.52-1.53M2180,884.26l2.19-1c-.68-.33-1.47-1.07-2-.92a9.59,9.59,0,0,0-2.52,1.65,2.66,2.66,0,0,0,2.34.22m.91,14.9a4.47,4.47,0,0,0,1.66-.48,8.37,8.37,0,0,0,1.32-1.75c-.72,0-1.59-.22-2.11.1-.84.52-1.46,1.41-.87,2.13m-52.4-65.89,2.26-1-.91-1c-.56.61-2.78-1.28-1.35,2m15,3a2.61,2.61,0,0,0-.42.46.67.67,0,0,0,0,.42c1.14,0,2.27,0,3.41,0-.14-.71-.27-1.42-.41-2.14a4.7,4.7,0,0,1-2.61,1.31M2120.2,838c0,.83,0,1.66,0,2.49l2-.61c-.44-.41-.87-.83-2-1.88m-2.45,7.82-1.71.45c.36.29,1,.87,1,.82.61-.52,2.81,1.3.67-1.27m63.45,30.67a2.34,2.34,0,0,0-.44-.4c-.11-.07-.27,0-.42,0l.38,2.39a1.82,1.82,0,0,0,.48-2m-105.7-72.73a21.08,21.08,0,0,0,1.89-1.5c.07-.07-.3-.62-.47-1a3.15,3.15,0,0,0-1.42,2.45m117.44,76.42a2.82,2.82,0,0,0-.44-.41c-.11-.06-.28,0-.42,0,.13.8.26,1.59.38,2.39a1.81,1.81,0,0,0,.48-2m4.89,20c-.23-.43-.45-.86-.67-1.29-.21.44-.42.87.67,1.29m-6.12-16.11c.69.17,1.38.34,2.07.46a8,8,0,0,0,.21-.81,3.18,3.18,0,0,0-2.28.35m-3.39-8.37-1.64.37c.09.28.22.8.24.8.69-.15,1.37-.34,1.4-1.17m-81.68-34.24c.69.16,1.38.34,2.08.46,0,0,.14-.53.21-.81a3.15,3.15,0,0,0-2.29.35m33-3.82-.51.78c.39,0,.78-.1.51-.78m-7.76,1.43.5-.79c-.39,0-.77.1-.5.79m13.06,5,.5-.79c-.39,0-.78.1-.5.79m-14.84,4.8-.78-.51c0,.39.1.78.78.51m-10-18.63.5-.79c-.39.05-.77.1-.5.79m-4.53,37.69-.5.79c.38,0,.77-.1.5-.79m-11-37.42-.51.79c.39,0,.78-.1.51-.79m84.4,42-.79-.5C2188.17,872.31,2188.22,872.7,2188.91,872.42Z"/><path class="cls-1" d="M183.57,507.43c.46,1.54,1.15,2.4,1.3,3.34.25,1.66.59,3.39-2.32,3.23-4-.22-7.59.13-9.72,4.82-.78,1.75-4.42,2.53-6.9,3.11-5.18,1.21-10.47,2-15.7,3q-11.16,2.11-22.29,4.28c-.21,0-.43,0-.64,0-5.22.53-10.44.93-15.63,1.6-7,.9-13.9-.73-20.24-2.63-5.86-1.77-11.42-1.92-17.21-1.89-2.41,0-4.66.13-6.26-2.23a3.67,3.67,0,0,0-2.56-1.48c-9.13.08-15.67-6-23.27-9.56-7.05-3.26-12.07-9.08-17.51-14.34-2.71-2.63-2.75-4.14.42-5.77,2.46-1.26,6.06-2.92,8-2,5.5,2.59,10-1.09,15.06-1.09,3.36,0,6.69-1.56,10.08-2.17,6.48-1.17,13-2.07,19.49-3.25,3.58-.66,7.08-1.76,10.65-2.48,9.4-1.89,19-2.94,28.23-5.58,4.36-1.24,9.1-1.09,13.65-1.68,2.64-.35,5.23-1.18,7.87-1.37a85.81,85.81,0,0,1,23.1,1.67c2.46.49,5.66,1.24,7.48.14,4.43-2.66,6.92,1.33,7.28,3.07,1.1,5.37,6.07,5.58,9,8.34,1.7,1.6,3.39,3.22,5,4.88a3.82,3.82,0,0,1,.75,1.29c-4.22,3.19.07,3.65,1.6,4.14,1.93.61,1.32,1.26.35,1.79-1.91,1-3.26,2.18-2.79,4.66.08.4-.79,1.2-1.37,1.48a23.29,23.29,0,0,0-5,2.72m-56.91-27.54,3-1.8c-.18-.28-.36-.8-.53-.8-2,0-4.25-.51-5.53,1.79A8.43,8.43,0,0,0,126.66,479.89Z"/><path class="cls-1" d="M2120.35,532.15c-4.74-6.13-9.63-11.54-11.81-18.86-1.38-4.63-1.31-5.75,3.2-5.94,4.1-.17,8.21-.29,12.31-.21a40,40,0,0,0,19.11-4.18c.72-.36,2,.32,3,.51a18.63,18.63,0,0,1-1.81,1.85,10.41,10.41,0,0,1-1.88,1,5.07,5.07,0,0,0,1.75.44c4.93-.63,9.86-1.32,14.79-2,1.41-.2,3-1.15,4.16-.76,5.37,1.82,10.54,1.35,15.93-.05,2.17-.56,4.76.82,7.15.79,13-.12,25.93-.41,38.9-.62a41.75,41.75,0,0,1,11.21.9c2.84.71,6,2.58,9.37.22,1.23-.85,3.92.42,6,.75,2.82.46,5.65.88,8.45,1.42,1.58.3,3.35.43,4.64,1.26,4.83,3.09,9.62,6.27,14.19,9.74,2.82,2.14,5.4,4.76,5.11,8.83-.08,1-.34,2-.51,3a21.83,21.83,0,0,1-3.14-1.67c-1.69-1.26-2.63-1.19-2.76.51-.16,2.13-.13,4.13,2.43,5.26a9.85,9.85,0,0,1,4.34,3.45,6.68,6.68,0,0,1,.7,5.12c-.72,1.87-2.49,2.13-4.77,1.13-3.1-1.36-8.17,1.91-8.85,5.18-.21,1-.08,2.11-.37,3.08-.63,2.11-.92,5.44-2.26,6a17.79,17.79,0,0,1-9.35.86c-5.7-1.06-11.25-3-16.87-4.49a8.22,8.22,0,0,0-1.85-.23l-27.36-.82a105.32,105.32,0,0,0-10.8-.21c-3.44.27-6.82,1.39-10.27,1.78-1.13.13-5,1.87-2.54-2.38a19.23,19.23,0,0,0-4.45-1.2c-1.09,0-2.67,1.52-3.25,1.15-4.21-2.71-8.17-2.68-12.31.09-.47.31-1.74-.59-2.64-.94-1.11-.43-2.26-1.31-3.34-1.22a6.48,6.48,0,0,1-5.65-2.22,5.46,5.46,0,0,0-3.83-1.51c-8.72.66-15.69-3.65-22.74-7.74-3.68-2.14-7.27-4.44-11.23-7m86.42-9.63.07-1.2a2.63,2.63,0,0,1-1.37,1.23,2.46,2.46,0,0,1-1.27,1.32q-1-2.82-2-5.63c-.25-.66-.55-1.31-.82-2-.59.63-1.74,1.31-1.68,1.87.33,3.39-.13,6.35-3.15,8.45-.24.16-.29.6-.43.9.38.13.87.48,1.12.36,2.57-1.29,5.11-2.65,8.3-4a2.49,2.49,0,0,1,1.28-1.32m-47.59-14.08-1.21-.07a2.63,2.63,0,0,1,1.23,1.37l1.2.07a2.62,2.62,0,0,1-1.22-1.37M2121,515l-.07,1.2a2.62,2.62,0,0,1,1.37-1.22l1.64-.39-.27-.84A11,11,0,0,1,2121,515m97.78,28.12.08-1.21a2.63,2.63,0,0,1-1.37,1.23c-.16.69-.32,1.39-.49,2.08l.86.18a3.46,3.46,0,0,1,.92-2.28m-39.49-33,1.64-.38-.27-.84a11,11,0,0,1-2.67,1.25c-.88.44-1.75.92-2.65,1.33a16.19,16.19,0,0,1-1.71.54c.37.45.71,1.26,1.1,1.29,3.73.24,7.47.34,11.22.45a3.45,3.45,0,0,0,.15-.84c-2.48-.74-5-1.44-7.44-2.17-.06,0,0-.4.63-.63m23.34,36.56a6.3,6.3,0,0,1-.76-2.06,2.81,2.81,0,0,1,.69-1.83,32.07,32.07,0,0,0,3.47.55,4.6,4.6,0,0,0,1.63-.54,9,9,0,0,0-2-.68,6.61,6.61,0,0,1-3.11-.62,16,16,0,0,1,1-1.95,6.84,6.84,0,0,1,1.15-1.13c-.75-.24-1.63-.85-2.22-.64-.9.31-1.56,1.24-2.4,1.8-3.35,2.29-3.39,4.06,0,6.48a10.44,10.44,0,0,1,2.64,1.92l.39,1.65.84-.28a10.5,10.5,0,0,1-1.25-2.67m9.42-17.67-1.65.38.28.84a11,11,0,0,1,2.67-1.25c2.34-1.54,4.69-3.06,7-4.64.91-.62,2.42-1.31,2.46-2a15.49,15.49,0,0,0-.92-5.35c-.17-.52-1.35-.71-2.06-1.05a6.67,6.67,0,0,1,.4,2.14,13.48,13.48,0,0,1-.94,2.67c-3.1-2.28-2.33.21-3,2-.55,1.51-2.37,2.77-3.91,3.64-2.41,1.36,1.25,1.69-.36,2.67m55.87,5.5a4.64,4.64,0,0,1,1.29,0,16,16,0,0,1,1.84.73c-.24-.69-.35-1.88-.75-2-3.48-.94-7-1.7-10.53-2.47a1.49,1.49,0,0,0-1.17.23c-3.24,3.33-6.87,2.74-10.73,1.34-.7-.25-1.77.54-2.67.85.8.69,1.5,1.81,2.41,2a38.75,38.75,0,0,0,20.31-.7m-21.22-26.87L2245,508c2,3,5.13,6.48,8,5.5,3.09-1.07,4.87.71,7.25.72,1.59,0,3.18.56,4.78.73a5.36,5.36,0,0,0,1.74-.41c-.46-.6-.81-1.49-1.41-1.74a36,36,0,0,0-5.1-1.61c-4.27-1.05-8.55-2-13.49-3.67m25.57,15.77a8.26,8.26,0,0,1-7.91,2.69c-.69-.1-1.59,1.15-2.39,1.77.69.51,1.32,1.32,2.07,1.45,1.23.23,2.77.45,3.78-.08a40.79,40.79,0,0,0,6.93-4.73,39.51,39.51,0,0,0-2.53-3.84c-.33-.49-.68-1-1-1.43-.52.86-1,1.71-1.55,2.57a14.83,14.83,0,0,1,2.62,1.6m-95.69,17.24c0-.42.16-1,0-1.24a20.65,20.65,0,0,0-2.25-1.65c-.07,1-.56,2.59-.12,2.91a9.88,9.88,0,0,0,4.3,1.84c4.49.66,9.2-1.44,13.58,1.08.23.14.74-.19,1.12-.3-.39-.6-.66-1.54-1.2-1.74-4.86-1.8-9.77-2.72-15.38-.9m-25.8-28.73c-1.76-.4-3.52-.85-5.29-1.19-3.23-.63-3,1.42-3.19,3.71-.3,3.21,1.57,2.89,3.52,2.73a7.32,7.32,0,0,0,1.7-.55,9.35,9.35,0,0,1-1.17-1.36c-.51-.84-.91-1.75-1.35-2.63a15.33,15.33,0,0,1,3.48-.31,4.38,4.38,0,0,1,2.64,1.3c1.3,1.57,1.63,0,2.33-.5a3.45,3.45,0,0,0-2.67-1.2m89.53,1c.89-2.12,1.71-4.18-2-3.86-1.28.1-2.57,0-3.84.09s-2.92-.51-2.47,1.62c.1.48,1.63.87,2.51.9a8.08,8.08,0,0,0,2.44-.76,23.22,23.22,0,0,1-.66,3.36c-.16.46-.9.71-1.38,1,.6.09,1.32.43,1.78.21a19.26,19.26,0,0,0,3.67-2.61m-16.91,34.68c3,3.08,6.37.26,9.54.31.62,0,1.28-2.12,1.93-3.27-1.16,0-3-.5-3.36,0-2,2.82-4.81,2.13-8.11,2.92m-17.81-17.2c1.12-.43,3.24,1.06,3.19-1.59a9.87,9.87,0,0,0-.59-2.27,16,16,0,0,0-3,1.69c-.53.48-.63,1.44.37,2.17m-19.41,2.93a40.82,40.82,0,0,0-4-1.18c-.51-.1-1.13.32-1.7.5.53.6,1,1.67,1.59,1.71a6,6,0,0,0,4.12-1m52.56,1c-1,1-2,2.09-3,3.15a10.77,10.77,0,0,0-.68.91c.36.17.81.58,1.06.48,1.28-.5,2.86-.86,3.64-1.83.5-.63-.19-2.22-1-2.71m-14.66-21.8c.84-.47,2.44-1.11,2.38-1.38a26.65,26.65,0,0,0-1.67-4.31c-.26.41-.71.82-.75,1.26-.09,1,0,2.09,0,4.43m13,35.45c2.49.32,2-1.5,1.81-2.8-.06-.44-1.09-.74-1.67-1.1a7.47,7.47,0,0,0-.14,3.9m-87.34-24.42c-.2,0-.53-.07-.59,0-.43.67-.81,1.37-1.21,2.06l3.78-.18-2-1.91m106.88,29.26c-.32-.73-.46-1.69-1-2.12s-1.88-.2-2,.09c-.67,1.56.06,2.28,3,2m-44.09-36.19-3.42-.42c0,.3-.17.74,0,.86,1,.9,1.84,2.58,3.45-.44m-19.5-2.26c-.12-1-.25-1.94-.37-2.91l-2.06,2.79a2.9,2.9,0,0,0,2.43.12m2.74,7.74c-1.79-1.72-2.54.16-3.53,1.06-.1.09.16.58.25.88a19.42,19.42,0,0,0,3.28-1.94M2176.33,525l-1.52-1.92-1.09,1.13a3.15,3.15,0,0,0,2.61.79m37.36-14.92-1.53-1.92-1.08,1.13a3.17,3.17,0,0,0,2.61.79m17.95,25a16.77,16.77,0,0,0-1.87,1.35,5,5,0,0,0-.74,1.23c1.37-.18,3.52,1,2.61-2.58m3.68-11.74a4.55,4.55,0,0,0-.57,1.67,9.35,9.35,0,0,0,.69,2.16,7.11,7.11,0,0,1,.91-.91c1.51-1,.3-1.61-1-2.92m41.79,16.13a2.43,2.43,0,0,0,.41-.44c.06-.1,0-.27,0-.41l-2.39.38a1.82,1.82,0,0,0,2,.47M2136,519.23l-.39-1.65-1.91,2a3.14,3.14,0,0,0,2.3-.33m24.91,15.12a2.76,2.76,0,0,0,.43.41c.11.06.28,0,.42,0l-.38-2.39a1.81,1.81,0,0,0-.47,2m8.51,4.39a2.61,2.61,0,0,0,.42-.46.53.53,0,0,0,0-.41,29.86,29.86,0,0,0-3-.34c-.13,0-.28.55-.42.85a15,15,0,0,0,3,.36m9.51-12.49a3.08,3.08,0,0,0-.47-.42.53.53,0,0,0-.41,0,27.43,27.43,0,0,0-.33,3c0,.13.54.28.84.43a15.79,15.79,0,0,0,.37-3m41,5.12-.06,2.5,2-.61-1.95-1.89m6.39-5.3-1.63.37c.08.28.21.81.23.8.69-.14,1.38-.34,1.4-1.17m2.5-5.23,1.63-.37c-.08-.28-.21-.81-.23-.8-.69.15-1.38.34-1.4,1.17m-17.47,2.25c.69.17,1.38.34,2.07.46a6.08,6.08,0,0,0,.21-.8,3.11,3.11,0,0,0-2.28.34m-24.12-6.71,1.64-.37c-.08-.28-.22-.8-.24-.8-.69.15-1.37.34-1.4,1.17m77.2,37.56-1.64.37c.08.28.22.81.24.8.69-.14,1.37-.34,1.4-1.17m1.22-3.91c-.22-.43-.44-.86-.67-1.29-.21.44-.41.88.67,1.29m-117.91-29.71c.69.16,1.38.34,2.07.46a6.94,6.94,0,0,0,.21-.81,3.13,3.13,0,0,0-2.28.35m-7.55,13.1-1.29.67c.44.21.87.42,1.29-.67m-8.54-5.69-.67-1.28c-.21.43-.41.87.67,1.28m-6.64-9c-.17.26-.34.52-.5.79.38,0,.77-.1.5-.79m18.38,12.65.51-.79c-.39,0-.78.1-.51.79m-20.31-12-.79-.5c0,.39.1.77.79.5m37,1.3-.51.79c.39,0,.78-.1.51-.79m3.53,16.15-.79-.5c0,.39.1.77.79.5m6.66-26.71-.5.79c.39-.05.77-.1.5-.79m2.09,8.4-.78-.51c.05.39.1.78.78.51m2.42,26.55.5-.79c-.39,0-.77.1-.5.79m11.69,1.09c-.17.26-.34.52-.5.79.38,0,.77-.1.5-.79m3.73-9.15.51-.78c-.39.05-.78.1-.51.78m12.47-28.75.5-.79c-.38,0-.77.1-.5.79m6.48-.12-.5.79c.39-.05.77-.1.5-.79m3.26,37.56-.51.79c.39,0,.78-.1.51-.79M2249,527.62l-.79-.51c.05.39.1.78.79.51m17.7,10.72.5-.79c-.39.05-.78.1-.5.79m.31-18.82.79.51C2267.77,519.64,2267.72,519.25,2267,519.52Z"/><path class="cls-1" d="M87.17,244.17c-9.92-7.32-19.64-14.15-28.42-22.23C51.93,215.66,44.53,210,37.6,203.86c-2.8-2.49-4.84-5.82-7.58-8.4-4.3-4.07-8.95-7.78-13.34-11.78-1-.89-2.35-3-2-3.38,1.1-1.39,2.71-2.87,4.35-3.2a12.86,12.86,0,0,1,6.05.76A319.5,319.5,0,0,1,58.48,191c7.49,3.33,15,6.69,22.38,10.17a57.9,57.9,0,0,1,9,4.9c8.65,6.13,17.83,11.47,27,16.67,11.63,6.6,22.77,14,34.3,20.68a57.89,57.89,0,0,1,8.59,5.91c3.25,2.78,3.25,4.21,1.31,8.12-1.06,2.15-3.39,3.76-2.63,6.78.14.56-1.51,2.19-2.44,2.29-1.78.2-2.79.38-2.55,2.53.3,2.7,2.24,1.19,3.44,1.44,1.41.31,2.89.25,4.3.57.54.12.94.84,1.41,1.29a7,7,0,0,1-1.62.67c-.85.12-2.05.43-2.54,0-3-2.59-5.06-.81-6.8,1.53-1.51,2-2.61.91-4.2.11s-3.37-2-5.43-.06-4.51.51-6.4-.39c-8.62-4.09-17.31-8-24.59-14.53-3.45-3.08-8.64-4.44-11.52-7.86C96.08,247.8,91.47,246.92,87.17,244.17Z"/><path class="cls-1" d="M1863.82,32.05c.55,12.83.88,25.33.93,37.84a77.45,77.45,0,0,1-1.14,13.69,9.32,9.32,0,0,1-3.54,5.52c-1.29.9-3.74-.06-5.58.3s-3.52,1.39-5.32,2c-1.43.51-3.42,1.68-4.3,1.14a47.42,47.42,0,0,1-9.54-7.18c-4-4.15-6.92-9-6.92-15.24,0-2.61-1.73-5.43-1.17-7.8,1.08-4.62-.26-9.56,1.18-13.66,1.51-4.27.56-8.49,1.78-12.75,2.18-7.6,2.26-15.78,3.94-23.56.63-2.93,1.77-5.26-.2-8.11-.63-.92.14-2.81.27-4.26a29.86,29.86,0,0,0,3.29,1c9,1.73,15,8.18,21.49,13.81,1.45,1.27,1.8,4,2.32,6.09.87,3.56,1.47,7.19,2.51,11.11M1853.3,42.29l-1.92,1.52,1.12,1.08a3.13,3.13,0,0,0,.8-2.6M1834,53c-2.42-.32-1.92,1.4-1.88,2.74,0,.35.32.68.48,1,.55-.9,1.08-1.79,1.64-2.68.1-.17.27-.29-.24-1.08m14.76,28.28.51-.79c-.39.05-.78.1-.51.79M1837.46,27l.51-.79C1837.58,26.26,1837.19,26.31,1837.46,27Z"/><path class="cls-1" d="M1603,729.31a15.68,15.68,0,0,0-.72,3.39c-.29-.61-.88-1.25-.83-1.83.27-3.5.68-7,1.08-10.49a10,10,0,0,1,.54-1.71c.25.51.72,1,.7,1.51A77.36,77.36,0,0,1,1603,729.31Z"/><path class="cls-1" d="M1135.81,809.83c2.16,1.29,3.67,6.22,2.73,8.36-.08.19-.32.47-.42.44-.31-.09-.79-.25-.84-.46C1136.75,815.61,1136.29,813,1135.81,809.83Z"/><path class="cls-1" d="M2275.33,548.56a32.25,32.25,0,0,0,3.68-.91c-.29.87-.35,2.25-.92,2.51a13,13,0,0,1-3.81.58A3.44,3.44,0,0,1,2275.33,548.56Z"/><path class="cls-1" d="M1813.2,381.55c1.22-.17,1.79-.35,2.37-.47.87-.17,1.75-.29,2.63-.44.06.4.31,1.05.16,1.16a4.51,4.51,0,0,1-2,.95,24.62,24.62,0,0,1-4.46.08,10.46,10.46,0,0,1-2.39-.79C1810.55,381.88,1811.55,381.72,1813.2,381.55Z"/><path class="cls-1" d="M1593.41,792.72a16.51,16.51,0,0,1,1.24-3.28l.83-1.73a6.77,6.77,0,0,1,.44,1.7C1595.92,791.23,1596.63,793.56,1593.41,792.72Z"/><path class="cls-1" d="M188.5,881.25c0,1.06-.05,2.06-.59,2.48s-2.33,1-2.49.75c-1-1.46-.4-2.19,1.38-2.29C187.27,882.17,187.71,881.38,188.5,881.25Z"/><path class="cls-1" d="M781.74,443.43c-.37.18-1,.1-1.07-.12-.49-1.88-.89-3.78-1.29-5.68,0,0,.29-.13.44-.2C780.45,439.32,781.09,441.21,781.74,443.43Z"/><path class="cls-1" d="M792.57,469.18a6,6,0,0,1-1.46-1.75,10.87,10.87,0,0,1-.62-1.71,7.42,7.42,0,0,1,2,1.34C792.78,467.44,792.55,468.24,792.57,469.18Z"/><path class="cls-1" d="M2212.34,895.69a5.09,5.09,0,0,1-2.29-1.13c.37-.37.73-.75,1.09-1.12A5,5,0,0,1,2212.34,895.69Z"/><path class="cls-1" d="M823.64,540a.91.91,0,0,1-1.07-.13,18,18,0,0,1-1.53-2.57c0-.09.47-.46.73-.7A33.32,33.32,0,0,1,823.64,540Z"/><path class="cls-1" d="M1799,383.1a15.16,15.16,0,0,1,2.38.39l-4.75.08A16.05,16.05,0,0,1,1799,383.1Z"/><path class="cls-1" d="M1594.78,778.75a2.56,2.56,0,0,1,1,1.84,4.82,4.82,0,0,1-.47,1.61,17.17,17.17,0,0,1-.77-1.9A2.26,2.26,0,0,1,1594.78,778.75Z"/><path class="cls-1" d="M816.87,523.56a16.37,16.37,0,0,1-.38,2.37c-.29-.14-.85-.29-.84-.42,0-1,.19-2,.33-3a.6.6,0,0,1,.42,0C816.57,522.58,816.71,522.77,816.87,523.56Z"/><path class="cls-1" d="M506.74,517.65a.9.9,0,0,1,1,.07,19,19,0,0,1,1.44,1.66c-.33.17-.88.56-.95.48A9.05,9.05,0,0,1,506.74,517.65Z"/><path class="cls-1" d="M245.41,1056.67a4,4,0,0,1,2,0,8,8,0,0,1-.21.81A2.66,2.66,0,0,1,245.41,1056.67Z"/><path class="cls-1" d="M549.44,585.33c.42-.44.86-.23,1.29,0C550.31,585.53,549.88,585.75,549.44,585.33Z"/><path class="cls-1" d="M551.48,480.22c.43-.44.87-.23,1.3,0C552.35,480.42,551.92,480.65,551.48,480.22Z"/><path class="cls-1" d="M777.66,433.12a8,8,0,0,1-1.23-1.69l.84-.28C777.4,431.7,777.53,432.25,777.66,433.12Z"/><path class="cls-1" d="M783.08,446a5,5,0,0,1-1.33-1.92A4.87,4.87,0,0,1,783.08,446Z"/><path class="cls-1" d="M783.09,446.65a7.7,7.7,0,0,1,1.23,1.69l-.84.28C783.35,448.07,783.22,447.52,783.09,446.65Z"/><path class="cls-1" d="M785.79,452.44a8.14,8.14,0,0,1-1.24-1.7l.85-.27C785.52,451,785.65,451.56,785.79,452.44Z"/><path class="cls-1" d="M803.37,493.64a7.55,7.55,0,0,1-1.23-1.7l.84-.27C803.11,492.22,803.24,492.76,803.37,493.64Z"/><path class="cls-1" d="M803.38,494.29a7.47,7.47,0,0,1,1.23,1.69l-.84.27C803.64,495.71,803.52,495.16,803.38,494.29Z"/><path class="cls-1" d="M812.82,514.55c-.43.44-.86.23-1.3,0C812,514.35,812.38,514.13,812.82,514.55Z"/><path class="cls-1" d="M1603.6,708.22c.42-.44.86-.23,1.3,0C1604.47,708.43,1604,708.65,1603.6,708.22Z"/><path class="cls-1" d="M1594.48,798.21a3.94,3.94,0,0,1,0,2c-.28-.07-.81-.19-.81-.21A2.71,2.71,0,0,1,1594.48,798.21Z"/><path class="cls-1" d="M1593.89,838.44a3.91,3.91,0,0,1,0,2c-.28-.07-.81-.19-.81-.21A2.71,2.71,0,0,1,1593.89,838.44Z"/><path class="cls-1" d="M1391.25,859.5c.06-.37.44-.42.83-.47A.75.75,0,0,1,1391.25,859.5Z"/><path class="cls-1" d="M1392,866.62c-.06.37-.45.42-.83.47A.77.77,0,0,1,1392,866.62Z"/><path class="cls-1" d="M1165.09,852.45a1.77,1.77,0,0,1,1.21.39A1.84,1.84,0,0,1,1165.09,852.45Z"/><path class="cls-1" d="M1165.08,851.8c-.43.11-.87-.1-1.31-.63C1164.2,851.06,1164.64,851.26,1165.08,851.8Z"/><path class="cls-1" d="M1144.7,743.52a1.85,1.85,0,0,1-.4,1.21A1.77,1.77,0,0,1,1144.7,743.52Z"/><path class="cls-1" d="M1034,239.24c.06-.37.45-.42.84-.47A.79.79,0,0,1,1034,239.24Z"/><path class="cls-1" d="M814.21,520a1.83,1.83,0,0,1,1.21.4A1.83,1.83,0,0,1,814.21,520Z"/><path class="cls-1" d="M814.2,519.39A1.85,1.85,0,0,1,813,519,1.85,1.85,0,0,1,814.2,519.39Z"/><path class="cls-1" d="M2061.46,798.45c-.37-.06-.42-.44-.47-.83A.75.75,0,0,1,2061.46,798.45Z"/><path class="cls-1" d="M798,482.71a1.77,1.77,0,0,1,1.21.39A1.84,1.84,0,0,1,798,482.71Z"/><path class="cls-1" d="M798,482.06a1.85,1.85,0,0,1-1.21-.4A1.8,1.8,0,0,1,798,482.06Z"/><path class="cls-1" d="M792.58,469.83a1.85,1.85,0,0,1,1.21.4A1.82,1.82,0,0,1,792.58,469.83Z"/><path class="cls-1" d="M788.13,456.94c0,.36-.44.41-.83.46A.77.77,0,0,1,788.13,456.94Z"/><path class="cls-1" d="M785.8,453.08a1.85,1.85,0,0,1,1.21.4A1.77,1.77,0,0,1,785.8,453.08Z"/><path class="cls-1" d="M777.67,433.77a1.83,1.83,0,0,1,1.21.4A1.83,1.83,0,0,1,777.67,433.77Z"/><path class="cls-1" d="M678.91,331.08c.06-.37.45-.42.83-.47A.76.76,0,0,1,678.91,331.08Z"/><path class="cls-1" d="M506.73,517a1.8,1.8,0,0,1-1.21-.4A1.85,1.85,0,0,1,506.73,517Z"/><path class="cls-1" d="M501.06,508c-.37-.06-.42-.45-.47-.83A.77.77,0,0,1,501.06,508Z"/><path class="cls-1" d="M741.08,344.26c-3.76-3.43-3.78-8.73-5.25-13.32-2.48-7.7-3.92-15.74-5.75-23.65a12.3,12.3,0,0,1-.07-2.58,108.44,108.44,0,0,0-4.32-28.17c-.12-.45.67-1.23,1.17-1.7.1-.09,1.2.49,1.29.88a64.24,64.24,0,0,1,1.45,7.86c.4,4.31-.63,8.78,2.72,12.61.87,1,.26,3.35.21,5.07-.33,11.32,3.14,21.93,6.06,32.65C739.5,337.23,740.25,340.59,741.08,344.26Z"/><path class="cls-1" d="M749.28,368.11a12.32,12.32,0,0,1,2.29.93,23,23,0,0,1,.41,4.86C749.75,372.92,749.27,370.79,749.28,368.11Z"/><path class="cls-1" d="M752,374.55a16,16,0,0,1,1.35,3.22A17.2,17.2,0,0,1,752,374.55Z"/><path class="cls-1" d="M753.35,378.42a1.78,1.78,0,0,1,1.21.4A1.85,1.85,0,0,1,753.35,378.42Z"/></svg>