<svg xmlns="http://www.w3.org/2000/svg" viewBox="0 0 539.49 460.85"><defs><style>.cls-1{fill:#f05c94;}</style></defs><g id="Layer_2" data-name="Layer 2"><g id="Layer_1-2" data-name="Layer 1"><g id="uncertain-times"><path class="cls-1" d="M277.58,422.26c-.1,2.44-.15,4.77-.09,7.1a33.69,33.69,0,0,1-1.41,9.11c-.33,1.34.27,2.4.26,3.62,0,1.4.77,2.8,1.13,4.22.25,1-1.32,2.43-2.32,2.1-1.36-.44-2.64-.73-3.93.31-.39.31-1.16.18-1.76.18a3.49,3.49,0,0,0-2.37.42c-.29.14-.57.61-.91,0a2.17,2.17,0,0,0-.58-.59,15.08,15.08,0,0,1-2.8-2.08,12.83,12.83,0,0,1-1.51-3.06,2.77,2.77,0,0,1-.26-.71,22.67,22.67,0,0,1-.37-3.74,6.1,6.1,0,0,1,.81-2.72,10,10,0,0,0,.94-2.71A34.57,34.57,0,0,1,266,425c1-1.66.62-3,.05-4.54a7.37,7.37,0,0,0-.53-1.22,16.39,16.39,0,0,1-2.47-7c0-.42-.08-.4-.92-.85a.63.63,0,0,1-.29-.49,3.5,3.5,0,0,1,.63-2.43,8.56,8.56,0,0,0,1-3.27c.22-1,.19-2,.45-3,.57-2,1.33-4,1.86-6,.32-1.21.49-2.4-.65-3.53a12.62,12.62,0,0,1-1.64-3,13.72,13.72,0,0,1-1.2-4.64c-.25-1.54-.83-3-1-4.58a11.31,11.31,0,0,1-.23-3.6c.57-2.34,1-4.76,2.42-6.81l2.68-3.83c1.19-1.72,1.18-1.71,0-3.27A40.36,40.36,0,0,1,262,355a11,11,0,0,1-.55-2.65,14.88,14.88,0,0,1-.39-2.71,11.9,11.9,0,0,1,.41-3.32c.92-3,2.08-5.87,3-8.85.8-2.72,1.27-5.48.12-8.3-.76-1.88-1.28-3.86-1.85-5.81a3,3,0,0,1,0-1.44c.52-2.24.72-4.66,1.72-6.68,1.37-2.76,1.06-5.55,1.15-8.38,0-.87-.28-1-.92-.43s-1.15.88-1.72,1.32-1.18,1.22-1.88,1.41c-2.69.73-3.37,3-4.27,5.16a1.2,1.2,0,0,0,.06.58A79.21,79.21,0,0,0,259.7,326c.6,1.64-.52,4.17-1.93,5.21a19.33,19.33,0,0,1-5.65,3.25,1.25,1.25,0,0,0-1,1.47,30.09,30.09,0,0,1,0,3.29,16.6,16.6,0,0,1-1.62,6.73c-.49.9-.49.94,0,1.91a7.06,7.06,0,0,1-.79,7.86,2.65,2.65,0,0,1-1.65,1c-.78.24-1.56.52-2.33.81a2.58,2.58,0,0,0-1.85,2.73,37.49,37.49,0,0,0,1.2,9.58,12.18,12.18,0,0,1-.94,8.28,6.73,6.73,0,0,1-1.32,2.14,1.84,1.84,0,0,1-1.77.72c-1.15-.23-1.35.35-1.27,1.34.1,1.32-.22,2.63,0,4s-.09,2.89.08,4.31c.18,1.6.63,3.16.95,4.74a3.23,3.23,0,0,1,.22,1.33,22.32,22.32,0,0,1-1.22,3.19c-.66,1.35-1.24,1.54-2.51,1s-1.89-.17-2,1.29c0,.21,0,.42,0,.62a1.76,1.76,0,0,1-.15.35c-.09-.06-.24-.1-.28-.19-.85-1.87-2.83-2.35-4.29-3.46a1.28,1.28,0,0,1-.43-.44c-.75-1.88-2.59-2.18-4.16-2.82a1.32,1.32,0,0,1-1-1.26,9.19,9.19,0,0,1,1.26-5.25,3.94,3.94,0,0,0,0-3.57c-.7-1.56-1.45-3.1-2-4.71a8.72,8.72,0,0,1-.43-2.7c-.06-1.85,0-3.7,0-5.55a25.58,25.58,0,0,0-.82-7.89,3.74,3.74,0,0,1,0-.82c0-1.84-.32-2.48-2.07-2.35-2.25.17-3.17-1.37-4.29-2.6-1.62-1.78-2.24-4.13-3.07-6.33a1.68,1.68,0,0,1,0-1.21c1-1.86-.22-4,.77-5.86.08-.15-.23-.59-.45-.8a37.65,37.65,0,0,0-5.13-4.45,15.83,15.83,0,0,1-4.67-5.63,17.28,17.28,0,0,1-2.52-7.82,24.36,24.36,0,0,1,.41-7,6.58,6.58,0,0,0-.7-4.21c-.39-.86-.81-1-1.84-.8-1.57.27-2.76-.67-3.77-1.58a16.39,16.39,0,0,1-5.17-9,24.26,24.26,0,0,1-.85-6.24,10.32,10.32,0,0,0-.39-2.5c0-.14-.26-.37-.35-.35-.37.09-.88.15-1.05.41a7.48,7.48,0,0,0-1.39,2.68,3.35,3.35,0,0,1-1.11,1.83,32.16,32.16,0,0,0-2.56,3.06c-.24.35-.9.87-.17,1.71,1.28,1.44,2.19,3.21,3.37,4.74a17,17,0,0,0,2.81,2.94c2.05,1.63,2.67,3.92,3.36,6.25A3,3,0,0,1,190,323a3.84,3.84,0,0,0-1.46,3.31c0,2.82-.22,5.64-.39,8.46a2.52,2.52,0,0,0,.78,2,21.89,21.89,0,0,1,3.84,5.81,8.42,8.42,0,0,1,.33,6.31c-.71,2-1,4.18-2.36,6a7.69,7.69,0,0,1-2.7,2c-.74.41-.81.86-.67,1.37a8.64,8.64,0,0,0,1,2.07c1.15,1.92,2.47,3.76,3.49,5.75a9.39,9.39,0,0,1,1.29,4.41,2.62,2.62,0,0,0,.16,1c.8,2.18,0,4.2-1.07,5.92a8.93,8.93,0,0,1-3.37,2.62c-.75.41-.81.66-.53,1.32.8,1.87,1.48,3.78,2.36,5.61a10.85,10.85,0,0,1,.32,7.92,8.79,8.79,0,0,1-1.93,2.68,1.6,1.6,0,0,1-.89.3,22.63,22.63,0,0,0-3.51.47,2.2,2.2,0,0,0-1.36,1.42,7.27,7.27,0,0,0,.28,3.14c.76,2.42,1.69,4.78,2.58,7.15.5,1.32,1.25,2.6.37,4,.42,2.77-1,5-2.09,7.36a5.35,5.35,0,0,1-3.52,3.19,1.11,1.11,0,0,0-.67.73c-.36,2.22-1.74,3.95-2.74,5.87-.87,1.67-1.3,3.58-2.12,5.28-1.29,2.68-1.24,5.5-1.23,8.35a35.21,35.21,0,0,1-.39,3.95c-.11.93-.81.92-1.52.9s-.67.25-.4.76a36.55,36.55,0,0,0,2.23,4.2,2.76,2.76,0,0,1,.32,2.81c-.79,2.05-2.2,2.32-4,.9a10.4,10.4,0,0,1-3.16-4.64c-.71-1.83-1.35-3.69-2.07-5.52-.25-.63-.31-.61-.81-.07s-.66.59-.85-.2c-.12-.48-.43-1.15-.8-1.27-2.25-.77-2.25-2.84-2.38-4.51-.15-2-.52-4,.28-6,.17-.44-.34-1.11-.35-1.67a49.81,49.81,0,0,1,0-6.58,17.68,17.68,0,0,1,3.86-9.49c.7-.85,1.17-1.9,1.93-2.69a16.22,16.22,0,0,1,3.48-3c1.85-1.05,2.27-2.84,3.05-4.52s.06-3-.46-4.43a26.85,26.85,0,0,1-.79-3c-.18-.76-.26-1.53-.42-2.29-.8-3.65.48-6.81,2.37-9.79a28,28,0,0,1,2.76-3.58,3.83,3.83,0,0,0,.78-4.2c-.69-1.45-.6-3-1-4.54-.15-.61.47-1.53-.73-1.76-.09,0-.14-.63-.08-.94a18.09,18.09,0,0,1,3.09-7.57c1.39-2,1.38-2.79-.18-4.64a15.85,15.85,0,0,1-3.06-5.52,10,10,0,0,1,1.05-8.67c.7-1.11,1.63-2.22,1.54-3.67s-.23-3.18-.42-4.77a2.64,2.64,0,0,0-.52-1,55.11,55.11,0,0,1-4.29-6.45,13.46,13.46,0,0,1-.93-9.77,10.25,10.25,0,0,1,3.59-4.84,2.87,2.87,0,0,1,1.11-.76c.86-.18.81-.43.33-1a15.47,15.47,0,0,1-3-4.94c-.84-2.74-1.64-5.4-.92-8.4a43.88,43.88,0,0,1,1.43-4.56,14.53,14.53,0,0,0,.71-3.2,32.93,32.93,0,0,1,3.32-9.74,3.87,3.87,0,0,1,.66-.76c.77-.91,1.55-1.79,1-3.17-.26-.64.1-.89.85-.92a5.2,5.2,0,0,1,3.55,1.39c.59.46,1.06,1.07,1.61,1.58a1.13,1.13,0,0,1,.12,1.87c-.71.85-.6.95.66,1.38.84.29,1.71.52,2.51.88,3.75,1.72,6.29,4.73,8.35,8.16a10.93,10.93,0,0,0,2.42,2.7c1.81,1.59,3.33,3.52,5,5.3a16.17,16.17,0,0,0,2.16,2.14c3.84,2.79,6.09,6.66,7.65,11a3.53,3.53,0,0,1,.06,1.62,30,30,0,0,1-.9,5.8,3.44,3.44,0,0,0,.1,2.77c.49,1.1.94,2.22,1.52,3.28a2.2,2.2,0,0,0,1.11.76,14.85,14.85,0,0,1,7.65,6.75,19,19,0,0,1,2.89,9.92,1.73,1.73,0,0,0,.29,1.1c2,1.95,2.71,4.47,3.41,7a2.81,2.81,0,0,0,.43,1.05,1.13,1.13,0,0,0,.84.46c.67-.13.17-.51.14-.85a6.46,6.46,0,0,1,.25-2.23c.64-2.2.9-4.55,2.46-6.39a7.06,7.06,0,0,1,2-2c1.12-.54,1-1.23.71-2.09-.51-1.36-1.18-2.68-1.56-4.08a33.48,33.48,0,0,1-1.1-5.5c-.3-3.06,1.17-5.73,2.75-8.07,1.17-1.73,3.27-2.85,5-4.16.7-.53,1.59-.83,2.32-1.32a1.83,1.83,0,0,0,.58-1,34.47,34.47,0,0,0,1.22-4.22,21.17,21.17,0,0,0,.4-4.76,10.12,10.12,0,0,1,1.95-6.64,26.28,26.28,0,0,1,3.59-4.66,9.89,9.89,0,0,1,2.63-2.07c1.93-.78,2.92-2.41,4.12-3.88.41-.5.73-1.09,1.18-1.56,1.43-1.5,1.48-1.49.86-3.54-.11-.34-.43-.56.18-.53.84,0,1.63-.15,2.45.57,1.22,1.07,1.82.79,3.08-.17a43.83,43.83,0,0,1,4.58-2.85c.28-.16.83-.25,1,.57a13,13,0,0,0,1.18,2.79c.15.34.24.82.52,1,.86.57.74,1.39.7,2.19a7.36,7.36,0,0,0-.05,2.35c.3,1.15-.62,2-1.46,2.63a1.51,1.51,0,0,0-.32,2.45c.23.31.35.7.6,1a5.48,5.48,0,0,1,1.16,5c-.35,1.36.21,2.3.64,3.35.62,1.53,1.34,3,2,4.51,1.22,2.69.81,5.47.18,8.14-.28,1.17-1.4,2.18-2.26,3.16-1.17,1.32-1.27,1.74-.23,3.26.91,1.34,1.8,2.7,2.77,4a15,15,0,0,1,2.63,5.69c.29,1.31-.28,2.83-.53,4.25a13,13,0,0,1-4,6.75c-1.64,1.67-1.41,3.44-.89,5.2.74,2.48,1.88,4.85,2.69,7.31.52,1.58.77,3.25,1.15,4.88a5.36,5.36,0,0,0,.42,1.46,14.32,14.32,0,0,1,1.26,4.84,49.57,49.57,0,0,1,.37,8.07,8.22,8.22,0,0,1-1.47,4.74,26.79,26.79,0,0,0-2.14,3.84,1.9,1.9,0,0,0,.29,2.08,17.73,17.73,0,0,1,4,7.79c.69,3,.36,6.23-2.25,8.62-.5.46-1,1-1.46,1.45-1.05,1-1.82,2-1.15,3.78.55,1.43.13,3.21.56,4.71.5,1.76.23,3.47.34,5.2a2,2,0,0,1-.3.85M190.25,289.05l.38,0a.86.86,0,0,1-.38-.44l-.66-.16-.06.26a1.14,1.14,0,0,1,.72.31m-13.58,5.35a8,8,0,0,0,0-1,1.39,1.39,0,0,0-.23-.43,7.46,7.46,0,0,0-.55,1.14c0,.1.38.31.79.27m9.88,19.75.24.17c0-.13,0-.25-.24-.17m20.16,5.35-.25-.16c0,.12,0,.24.25.16m32.91,16.05.25.16c0-.12,0-.25-.25-.16m29,28.59.17-.24C268.67,363.91,268.55,363.92,268.63,364.14Z"/><path class="cls-1" d="M409.56,289.26c2.08.7,3.44-.31,4.56-1.54a5.3,5.3,0,0,1,3.45-2.07c1.23,0,1.62-1,2.51-1.45a5.91,5.91,0,0,1,6.21.53,11.11,11.11,0,0,1,3.48,4.1,30.45,30.45,0,0,0,3,4.1c.61.78,1.46.52,2.22.29,1.45-.45,2.88-1,4.34-1.44s2.24,0,3.13,1.3c.25.39.58.72.81,1.11.36.61.51.95,1.47.53s2.29-.14,3.45-.09a1.44,1.44,0,0,1,.79.55,24.32,24.32,0,0,1,2.85,3.76c.44.84.86,1.11,1.65,1a3.54,3.54,0,0,1,3.23,1.2,5.43,5.43,0,0,1,1.44,2.71,7.76,7.76,0,0,0,1.41,2.28c.66,1,1.3,2,2,2.85a15.15,15.15,0,0,0,2.31,2.29,8.3,8.3,0,0,0,2.39,1.17,3.17,3.17,0,0,0,3.51-.48c1.33-1.18,2.86-2.1,3.54-3.87.08-.21.71-.37,1-.29s.92.45,1,.76a6.51,6.51,0,0,1,0,2.45c-.14.68.43,1.17.12,2-.44,1.13-.18,2.52-.54,3.69a5.45,5.45,0,0,1-1.63,2.39,39.87,39.87,0,0,1-4.12,2.93,5.24,5.24,0,0,1-2.83.8c-1.89,0-3.78.14-5.67.2a.58.58,0,0,1-.37-.07c-2.39-1.75-5.47-2.46-7.5-4.69a11,11,0,0,1-2.05-3.65c-.33-.89-.56-.78-1-.27s-.64,1-1,1.41a1.9,1.9,0,0,1-2.95.08c-.69-.62-1.44-1.17-2.15-1.75a7.75,7.75,0,0,1-2.79-4.82,2.06,2.06,0,0,0-2-1.88,16.16,16.16,0,0,0-1.89-.37,3.72,3.72,0,0,0-1.66.43,5.85,5.85,0,0,1-5.26.35,2.49,2.49,0,0,1-1.08-.92c-1.56-2.5-3.06-5-4.62-7.54a1.25,1.25,0,0,0-1-.53,1.4,1.4,0,0,0-1,.76c-.49,1.58-.89,3.2-1.26,4.82-.28,1.28-1.15,1.79-2.35,2.24-2.31.87-4.3-.71-6.51-.52a16,16,0,0,0-2.52.12c-1.78.45-3.74.12-5.36,1.51-.56.48-.56.72-.45,1.19a2.58,2.58,0,0,0,.43.84,6.83,6.83,0,0,1,.76,6.18c-.31,1,.26,2.31-.14,3.24-.49,1.12,0,1.53.63,2.14a17.24,17.24,0,0,1,3.27,4c.37.7,1.45,1,2.21,1.49,3.11,1.93,4.73,4.89,5.93,8.21a13,13,0,0,1,.84,3.37,5.2,5.2,0,0,1-1.87,4.39,7.08,7.08,0,0,0-.72.73,4,4,0,0,0-.33.69c.3.08.67.32.89.22,2.47-1.12,5.21-.56,7.72-1.24,4.43-1.2,8.2,1.09,12.15,2.21,1.36.39,2.36,2.05,3.51,3.15a28.25,28.25,0,0,0,2.56,2.46c2.64,1.94,5.09,4,6.38,7.13a10.55,10.55,0,0,1,.88,3.12c.05.72.39.83.85,1.07,3,1.57,4.16,4.56,5.29,7.44a2.78,2.78,0,0,1-.44,3.05,10.66,10.66,0,0,0-1.52,2.44,2.66,2.66,0,0,0-.08,2.36c.93,2.73,3.25,4.07,5.14,5.87a36.94,36.94,0,0,1,4.72,4.81,18.32,18.32,0,0,1,2.63,5.47c.76,2.53,1.51,5.23-.17,7.74-.75,1.1-.11,1.88.39,2.67a11.13,11.13,0,0,1,2.22,6.51,3,3,0,0,1-1.2,2.6,1.6,1.6,0,0,0-.53,2.36c.72,1.47,1.05,3.13,1.71,4.64.86,2,.27,3.84-.31,5.72s-2.4,2.09-3.78,2.72a8.74,8.74,0,0,1-4.15.95,5.24,5.24,0,0,0-2.3.84c-.23.11-.5.62-.42.81.68,1.56-.74,3.09-.13,4.53s0,2.69-.39,4.05.23,2.95-.48,4.33c-1.38,2.68-2.32,5.68-5.22,7.27-.44.25-.93.77-1.33.7-1.5-.25-2.47.76-3.56,1.38a8.73,8.73,0,0,1-2.4,1.21c-.62.14-1.19.89-1.57,1.5a8.58,8.58,0,0,1-4.12,3.43c-2.8,1.21-5.66,1.23-8.57,1.15a4,4,0,0,1-2.25-.48c-1.86-1.46-4.19-2.32-5.62-4.32a13,13,0,0,0-.75-1.13,9.94,9.94,0,0,0-1.72-1.71c-1.91-1.3-2.7-3.32-3.62-5.27-.16-.34-.26-.72-.42-1.06-.52-1.15-1.22-1.67-2.19-1.19a4.16,4.16,0,0,1-4.23-.48,43.45,43.45,0,0,1-3.69-2.5c-2.62-1.92-3.58-4.87-4.7-7.72a6.55,6.55,0,0,0-.56-1.2c-.2-.33-.38-.37-.88-.16a12.72,12.72,0,0,1-3.75.87,7.63,7.63,0,0,1-5.39-1.8,47.18,47.18,0,0,1-5.79-5.78,15.22,15.22,0,0,1-1.73-3.58,4.78,4.78,0,0,1-.4-1.07c-.18-1.15-2-1.1-1.76-2.79a4.58,4.58,0,0,0-1.17-3.14c-2.15-2.56-2.47-5.81-3.12-8.78A13.07,13.07,0,0,1,377.75,397a34,34,0,0,0,3.21-5.25c.3-.63,1-1.07,1.43-1.65a1.82,1.82,0,0,0,.4-1.05c0-1.19.58-.33.76-.21a4.84,4.84,0,0,1,1.52,1.26c.71,1.12,1.22,2.37,1.87,3.53a7,7,0,0,0,1.08,1.41,2.47,2.47,0,0,1,.51,2.7,7.21,7.21,0,0,1-1.61,3c-1.74,1.81-.7,3.79-.39,5.73a.63.63,0,0,0,.32.41c2.3.9,3.36,3,4.75,4.81a17.85,17.85,0,0,1,2,3.31c.64,1.35.09,2.36-.34,3.48a6.13,6.13,0,0,0-.52,1.22c-.11.86.4,1.23,1.22,1.17,2.75-.21,5.39.6,8.08.89a7.38,7.38,0,0,1,3.85,1.59c2.1,1.73,4,3.54,5,6.26a7.08,7.08,0,0,0,5.82,4.47c2.76.16,5.38.88,7.36,3.08,1.33,1.47,3,2.67,3.63,4.66.24.77.71.41,1.11.37.15,0,.32-.24.43-.41,1.24-1.92,3.07-2.22,5.15-2,1.86.2,3.73.25,5.59.44a1.55,1.55,0,0,0,1.93-1.24c.33-1.37,1.2-2.6,1-4.09,0-.21-.09-.53,0-.6,1.37-1,.68-2.51.8-3.8.18-2,.22-4,.47-6a2.61,2.61,0,0,1,1.06-1.55c1.25-.91,2.67-1.57,3.86-2.54a2.82,2.82,0,0,0,.75-2c-.07-2.47.75-4.76,1.32-7.09a3.43,3.43,0,0,1,1.31-1.52,2.66,2.66,0,0,0,1.11-3.26,15.29,15.29,0,0,0-.85-2.32,9.44,9.44,0,0,1-.52-6.12,18.87,18.87,0,0,1,1-3.93c.49-1.24-.34-2.15-.58-3.17a5,5,0,0,0-3.41-3.37,8.4,8.4,0,0,1-3.73-2.92,16.69,16.69,0,0,1-2.84-5.84,8.19,8.19,0,0,1-.43-2.49c0-1.81-1.19-3.54-.26-5.41.26-.51-1-2.92-1.71-3.08-2.2-.55-3-2.37-4-4.06a28.34,28.34,0,0,1-3.17-8.34,1.82,1.82,0,0,0-1.87-1.6c-1.88-.07-3.86-.51-5.5,1.13a5,5,0,0,1-2.5.85,31.22,31.22,0,0,1-5.41.78,9.11,9.11,0,0,1-5.25-1.18,9.35,9.35,0,0,1-3.48-3.93c-.93-2-2.23-3.87-3.29-5.84a19.35,19.35,0,0,1-2.37-8.89,1.52,1.52,0,0,0-1.09-1.61,19.23,19.23,0,0,1-4.9-3.58c-.72-.68-1.51-1.29-2.29-1.9-1.43-1.11-1.79-2.85-2.36-4.37s-1-3.29-1.49-4.93c-.57-2-1.11-4-.27-6.18a16.55,16.55,0,0,0,1.19-5c.1-1.77,1.4-3,1.53-4.74,0-.32.3-.73.18-.92-.95-1.46.09-2.76.33-4.09a7.38,7.38,0,0,1,3.7-5,19.79,19.79,0,0,0,3.33-2.89c1.17-1.17,2.71-1.46,4.17-1.85A24.28,24.28,0,0,1,409.56,289.26Z"/><path class="cls-1" d="M332.51,438.52c3-1.39,5.94-2.72,9.25-2.35a8.82,8.82,0,0,1,2.8.66,14.73,14.73,0,0,1,5.16,3.45,6.49,6.49,0,0,0,1,1,1.69,1.69,0,0,0,2.39.06,9.63,9.63,0,0,1,4.94-2.44c1.48-.22,2.89-1.14,4.51-.34a4.31,4.31,0,0,0,2,0,3,3,0,0,1,2.49,1c.62.64,1.32,1.21,1.88,1.9,1.38,1.71.89,4.51-1,5.12a6,6,0,0,1-2.89,0c-1.49-.3-1.78-.26-2.44,1.2a19.53,19.53,0,0,0-.94,2.28,3,3,0,0,1-2.6,2.06,19.41,19.41,0,0,1-4.8-.26,33.21,33.21,0,0,1-3.75-.85c-1.92-.46-3.17-2-4.69-3.07-1.13-.82-2.13-1.82-3.19-2.74s-1.55-.82-2.56.11a24.83,24.83,0,0,1-3,2.74,7,7,0,0,1-7.45.19,4.54,4.54,0,0,0-1-.55c-.47-.11-.83-.36-1.46.13a8.49,8.49,0,0,1-6.38,1.82,24.87,24.87,0,0,0-3.54-.3,7.4,7.4,0,0,0-1.71.34c-1.84.45-3.24-.63-4.74-1.36-.85-.43-1.61-1.08-2.48-1.45a9.74,9.74,0,0,1-5.25-5c-1-2.24-2.09-4.48-3-6.76a7.65,7.65,0,0,1-.74-3.17c.09-1.67-.69-3-1.16-4.48a14.75,14.75,0,0,1-.91-3.93c-.07-2.52-1.22-4.9-.89-7.47a29.31,29.31,0,0,1,1.43-5,1.93,1.93,0,0,0,.2-1.33,6.06,6.06,0,0,1,0-4.62,1,1,0,0,0,0-.8,2.88,2.88,0,0,1,0-3.16c.92-1.77.47-3.66.34-5.46a12.77,12.77,0,0,1,1.23-6.17c.88-2,1.8-3.92,2.61-5.91a4.48,4.48,0,0,0-.75-4.77c-2.21-2.91-3.85-6.13-3.82-9.91a13.89,13.89,0,0,1,.52-2.66c.1-.44.35-.94.22-1.3s-.75-.24-1.12-.41a12,12,0,0,1-2.2-1.14,37.55,37.55,0,0,1-3-2.61,5.81,5.81,0,0,1-.88-1.28,1.59,1.59,0,0,1-.09-.55c.23,0,.54-.15.69,0a6,6,0,0,0,3.45,1,24.87,24.87,0,0,0,4.8-.77c.46-.1,1.22-.42,1.25-.69a3.7,3.7,0,0,0-.33-2.28c-.86-1.26-2.11-2.26-3-3.52-1.35-1.94-2.8-3.89-2.81-6.45,0-.37-.25-.74-.26-1.11A16.75,16.75,0,0,1,295,342a4.72,4.72,0,0,0-.11-3.06c-1-2-.57-4.23-.35-6.33.15-1.34.46-2.43-.49-3.7a6.45,6.45,0,0,1-.86-3.31c-.19-2.51-.24-5.09,1.24-7.27a2,2,0,0,0,0-2.65c-.44-.62-.87-1.27-1.26-1.94-2.24-3.8-3-7.72-.86-11.83a3.69,3.69,0,0,1,.74-1.13c1.7-1.49,3.38-3,5.19-4.35a8.2,8.2,0,0,1,4.8-1.81c.43,0,.84-.36,1.27-.38a8.16,8.16,0,0,1,4.08.56,6.61,6.61,0,0,0,6.58-.18,15,15,0,0,1,5.75-2,10.2,10.2,0,0,0,5.13-2.53,5,5,0,0,1,4.09-1.25.63.63,0,0,0,.41,0c1.49-1.2,3.39-.65,5.07-1.16a15.58,15.58,0,0,1,7.29-.21c1.73.29,3.46.52,5.18.9a4.44,4.44,0,0,0,3.79-.72c1.26-.93,2.37-.65,3.53.47a24.52,24.52,0,0,1,2.43,2.46,4.73,4.73,0,0,1,.58,5c-.34.82-.45,1.74-.85,2.53-1.21,2.42-3.78,4.25-7,3.18-2.32-.78-4.7-1.73-7.32-1.47-.85.09-1.77-.61-2.66-.95-1.54-.59-3.05-1.28-4.62-1.74a2.26,2.26,0,0,0-2.69,1.8c-.93,3.52-3.62,5.14-6.68,6.39-.64.26-1.34.4-2,.64a2.92,2.92,0,0,1-3-.28c-.86-.82-1.92-.73-2.85-1.13a2.9,2.9,0,0,0-2,0c-.38.16-.54.91-.77,1.41-1.25,2.67-3,3.44-5.93,2.7a3.77,3.77,0,0,0-1.42,0,4.48,4.48,0,0,1-3.74-1.42c-.34-.29-.79-.45-1.13-.74s-.93-1.1-1.52-.69a4.25,4.25,0,0,0-1.42,1.84c-.11.26.43.95.82,1.23,3.29,2.4,4.38,5.86,4.39,9.65,0,1.47-.9,2.91-1.22,4.4a20.24,20.24,0,0,0-.23,3.31c0,.09.28.22.26.29-.73,3.25,1.53,5.68,2.35,8.5.89,3,.7,5.3-.77,7.65-.84,1.35-.86,1.79.15,2.83a29.84,29.84,0,0,1,3.79,5c.89,1.43,1.94,2.74,1.93,4.56,0,.77.64,1,1.31.88a20.63,20.63,0,0,0,2.71-.42c3.34-.87,6.77-.5,10.11-.3a17.68,17.68,0,0,1,8.44,2.38A16.07,16.07,0,0,1,337,359.3a2.77,2.77,0,0,0,2.46.79A46.48,46.48,0,0,1,345,360c2.06,0,4-.57,6.05-.74,2.43-.21,4.71-1.1,7.09-1.28,2.53-.19,5.07-.08,7.61,0,1.18,0,2.35.33,3.53.36a10.31,10.31,0,0,0,2.1-.38c.66-.12.84.23.74.81a4.86,4.86,0,0,1-.29,1.32,13.3,13.3,0,0,1-5.75,6.59c-2.22,1.2-4.61,1.8-6.86,2.81-3.55,1.57-7.32,1.41-11,1.16a43.5,43.5,0,0,1-11.12-2.4c-.3-.11-.68-.14-.88-.35-1.79-1.9-4-3.46-5.21-5.85a3.84,3.84,0,0,0-2.78-2,18,18,0,0,0-5.16-.4,29.55,29.55,0,0,0-4.78,1.32c-1.85.5-3.37,1.82-5.38,1.94-1.15.07-1.1,1.38-1.17,2-.17,1.44-.66,2.79-.84,4.18a13.59,13.59,0,0,0,.41,4.33c.62,3,1.57,6,2,9a9.64,9.64,0,0,0,.81,2.54c1.56,3.49.89,6.92-.19,10.35a18.11,18.11,0,0,1-3.19,5.68,2.15,2.15,0,0,0-.37,2.62,14.28,14.28,0,0,1,1.67,7.94,2.25,2.25,0,0,1-.41,1.25,15.48,15.48,0,0,1-3.37,3.3,3.12,3.12,0,0,0-1.47,3.87,15.43,15.43,0,0,1,.31,3.35,4.77,4.77,0,0,0,2,3.93,9.57,9.57,0,0,1,3.48,4.68,15.68,15.68,0,0,1,.14,4.12c0,.31-.2.62-.21.93a3,3,0,0,0,.18.74,2.89,2.89,0,0,1,.44-.42,12,12,0,0,1,9.09-1.75,22.61,22.61,0,0,1,6.27,2.78c1.14.61,2.15,1.21,3.36.23C331.93,438.53,332.21,438.62,332.51,438.52Z"/><path class="cls-1" d="M45.52,354a7.54,7.54,0,0,1-1.61,4c-.9,1.1-.62,2.49-1.32,3.6-.16.24.28.95.57,1.35q1.62,2.33,3.33,4.59a10.09,10.09,0,0,1,2.21,7.72,12.4,12.4,0,0,1-.4,1.27,28,28,0,0,0-1.18,4.84c-.17,2.21-1.36,4-2,6a11.9,11.9,0,0,0-.91,4.15c0,.13,0,.3,0,.4-1.26,2.42.73,3.24,2.1,4.42,2.82,2.42,5.58,4.93,6.72,8.63A14,14,0,0,1,54,410c-.23,2.51-1,5.2-3.3,6.54-1.38.81-2.56,1.77-3.84,2.66a2.14,2.14,0,0,0-.94,1.25,24.06,24.06,0,0,0-.45,4.14c-.06,3.29-.07,6.59,0,9.88a2.43,2.43,0,0,1-1,2.06c-.5.45-1,1.09-1.74.46a.2.2,0,0,0-.2,0c-2.1,1.29-4.2.16-6.31,0-1.43-.09-2.06-1.11-2.64-2A13.57,13.57,0,0,1,31,430.16a10.71,10.71,0,0,1-.36-1.28,16.65,16.65,0,0,1,.74-5.65,15.71,15.71,0,0,0,.08-1.83c.24-1.67.51-3.34.82-5a4.87,4.87,0,0,1,.57-1.2A13.87,13.87,0,0,0,34,411.74c.37-1.69-.24-3.41.65-5.15.51-1-.12-2.62-.33-3.95,0-.24-.43-.5-.72-.63a13.85,13.85,0,0,1-7.55-9.4,19.34,19.34,0,0,1-.32-4.39c-.05-1.33-.18-2.6,1.09-3.7a6.8,6.8,0,0,0,1.35-2.89c.72-2.11,2.21-3.65,3.61-5.31,1-1.17,2.32-2,2.74-3.77a2.79,2.79,0,0,0,0-1.91c-.46-1.32-.67-2.74-1-4.11a11.78,11.78,0,0,0-.51-1.85c-.63-1.51-1.71-2.92-.75-4.72a1.44,1.44,0,0,0,0-1.2c-.36-.57-.52-1,0-1.55.11-.12-.13-.56-.2-.86-.2.26-.56.52-.56.78,0,.72.18,1.43.23,2.15a2.34,2.34,0,0,1-.17.85c0,.11-.18.19-.28.29-.08-.09-.22-.19-.22-.28.06-1.54.13-3.09.21-4.64,0-.05.14-.1.13-.15-.3-3.32,2.14-5.71,3-8.65.59-2.13,1.6-4.2,1.19-6.48a7.09,7.09,0,0,0-1-2.43A9.76,9.76,0,0,1,32.67,332a49.59,49.59,0,0,1,.47-7.43c.57-3,1.65-5.89,2.5-8.82.12-.43.43-1,.27-1.29a5.78,5.78,0,0,1-.34-3.35,20.9,20.9,0,0,0-1-6.18,23.37,23.37,0,0,1-1.16-5.31c0-1.92.73-3.53,1.29-5.24.28-.85.61-1.67.93-2.5.17-.44.37-.86.56-1.29a4.37,4.37,0,0,0-1.61,0c-2.15.93-4.24,2-6.39,3A11.32,11.32,0,0,1,25,294.55a3,3,0,0,0-2.09,1A9.86,9.86,0,0,1,18.77,298c-1.7.6-3.23.64-4.5-1a3.77,3.77,0,0,0-2.61-1.64,2.54,2.54,0,0,1-1.46-.86,36.79,36.79,0,0,1-2.76-3.59,1.41,1.41,0,0,1,.07-1.34c.32-.34.31-1.47,1.37-.8a1.73,1.73,0,0,0,1.52-.17c1.94-1.32,4.31-1.51,6.36-2.55,2.25-1.15,4.74-1.84,7-3.05a21.16,21.16,0,0,1,5.11-1.55c.82-.22,1.75.1,2.38-.8.11-.17.67-.14,1-.05,2.52.76,5.2.48,7.73,1.19a4.7,4.7,0,0,0,2.44,0c.51-.14.9-.79,1.29-1.26,1.35-1.62,1.73-1.54,2.61.49.32.76.83,1.44,1.13,2.21.23.61.31,1,1,.41a1.35,1.35,0,0,1,1.21.21,3.47,3.47,0,0,0,3.61.53c3.32-1,6.27-2.75,9.34-4.27a17.71,17.71,0,0,1,7-2c.71,0,1.39-.3,2.1-.39,2.38-.28,4.49.69,6.47,1.74,1.83,1,3.49,1.54,5.55.78a9.52,9.52,0,0,1,3.07-.05c2.67,0,5.35.05,8,0,1.93-.05,3.86-.25,5.79-.4a2.83,2.83,0,0,1,3,1.22c.43.79,1.26,1.73.35,2.85-.24.28.05.95-.06,1.4s-.43,1.06-.67,1.07c-1.57,0-1,.56-.39,1.25a8.28,8.28,0,0,1,.88,1.28c.1.15.25.42.18.52a10.64,10.64,0,0,1-1.86,2.69A5.14,5.14,0,0,1,99,293.3a20.93,20.93,0,0,1-5.4-.22c-1.24-.29-2.75.44-4.1.86-1,.32-2,.87-3,1.27a2.48,2.48,0,0,1-1.14.2,12.89,12.89,0,0,0-3.45.29,4.77,4.77,0,0,1-3.46-.31,25.22,25.22,0,0,0-2.39-1.18c-2-.76-3.62.53-5.33,1.19a21,21,0,0,0-3.94,1.9c-2,1.33-4.39,1.34-6.64,1.88-2.09.5-3.84-.33-5.71-.86a25.8,25.8,0,0,1-2.83-.6,33.86,33.86,0,0,1-4.24-2.17c-1.3-.77-2.76-.32-2.78,1.14,0,2.63-.28,5.23.92,7.83a24.87,24.87,0,0,1,2.31,13,15.43,15.43,0,0,1-.52,2.87,2.26,2.26,0,0,1-1.44,1.77c-.66.22-1.22.43-.62,1.39a2.82,2.82,0,0,1,.09,2c-.46,1.72-1.07,3.39-1.61,5.09a5,5,0,0,0,.07,3.33c.69,1.86,1.64,3.65,1.59,5.72,0,.29.27.57.39.86a33.62,33.62,0,0,0,2.12,4.88,2.14,2.14,0,0,1,.21,1.42c-.11,2.62-1.85,4.62-2.63,7.1m.51-35.9,0-.38a.86.86,0,0,1-.44.38l0,.38a.86.86,0,0,1,.44-.38M36,302.63c.46-1.53-1.09-2.64-.85-4.13a1.35,1.35,0,0,0-.27-.09,1.5,1.5,0,0,0-.11.36,15.28,15.28,0,0,0,1.25,7c.07.17.37.24.57.36.08-.17.25-.35.22-.5a19.19,19.19,0,0,0-.81-3M41.71,322c.55.55.8,0,1.13-.3l-.87-.32a7,7,0,0,0-1-.39,2.51,2.51,0,0,0-.76.09c.18.24.31.56.55.69s.52,0,1,.23m18.93-28.39h.82c-.16-.21-.29-.49-.5-.6a1.37,1.37,0,0,0-.78,0,4.53,4.53,0,0,0-.69.28,3.2,3.2,0,0,1,1.15.33m24.27-1.24a.58.58,0,0,0-.14-.13s-.12,0-.14,0a8,8,0,0,0-.41.83,2.44,2.44,0,0,0-.11.55c.19-.07.45-.08.55-.21a1.29,1.29,0,0,0,.25-1.05m5.56-5.55.53-.7-.94-.12a.83.83,0,0,0,.41.82M41.71,283.7c.13-.14.38-.41.37-.41-.56-.56-.77.09-1.11.33a.82.82,0,0,0,.74.08M38,295.22l-.39.44,1.11.08a1,1,0,0,0-.72-.52m1.64,79.83a1.37,1.37,0,0,0-.52-.19,2.86,2.86,0,0,0-.69.2,2,2,0,0,1,.28.3c.32.48.51.1.93-.31M45,282.88l-.47-.62-.35.35a1,1,0,0,0,.82.27m-1.44,40.53.44.39.08-1.11a1,1,0,0,0-.52.72m-2.05,13.17v-.82c-.14.27-.28.54,0,.82m22.42-47.53-.4.4.64.19c0-.27,0-.53-.24-.59m-43.41,1a.58.58,0,0,0-.13.14s0,.08,0,.13l.76-.11a.59.59,0,0,0-.62-.16m-1.65,1.65-.13.13a.29.29,0,0,0,0,.13l.76-.1a.57.57,0,0,0-.62-.16m8-8-.13-.54c-.1.11-.29.3-.27.32.16.2-.43.89.4.22m-4.73,6.79.56-.67c-.11-.05-.28-.17-.31-.14a.88.88,0,0,0-.25.81m-6,3.09-.13-.55c-.1.12-.24.22-.27.34-.08.33,0,.45.4.21m28-8.64-.11-.53-.62.62a1,1,0,0,0,.73-.09m-23.66,2.67-.56.67c.1.05.28.17.3.14a.88.88,0,0,0,.26-.81m46.7,2.26a5.5,5.5,0,0,0,.47.61s.2-.09.3-.14a1,1,0,0,0-.77-.47m-37-7,.66.16s0-.17.07-.26a1,1,0,0,0-.73.1m47.32.41.11.52.25-.07c0-.22-.1-.44-.36-.45m-26.34,4.94c-.21-.06-.43-.12-.65-.16a1.65,1.65,0,0,0-.07.26,1,1,0,0,0,.72-.1m15-.21c0,.22-.11.44-.15.66,0,0,.16,0,.25.07a1,1,0,0,0-.1-.73M17,291.93l-.11-.52-.25.07c0,.22.1.44.36.45m40.12,3.91c.06-.22.12-.43.16-.66l-.26-.07a1,1,0,0,0,.1.73m-20,17.9.1.52.26-.07c0-.22-.1-.44-.36-.45m8-.21.2.41c.07-.13.14-.27-.2-.41m.62,65.22-.66-.16a1.65,1.65,0,0,0-.07.26,1,1,0,0,0,.73-.1m-5.56-94.43.17-.25c-.13,0-.25,0-.17.25m-16.05,1.23.17-.24c-.12,0-.25,0-.17.24m8.44,1-.25-.16c0,.12,0,.24.25.16M16.2,287.82l-.25-.17c0,.13,0,.25.25.17m17.69,0-.24-.17c0,.13,0,.25.24.17m66,1.44.17-.25c-.13,0-.25,0-.17.25m-81.47.41-.16.25c.12,0,.25,0,.16-.25m30.86,1.23.17-.24c-.13,0-.25,0-.17.24m-19.95.21.24.16c0-.12,0-.24-.24-.16m22.63,0,.24.16c0-.12,0-.24-.24-.16m12.75.41-.24-.16c0,.12,0,.24.24.16M26.9,292.75l.25.17c0-.12,0-.25-.25-.17m-2.47.42-.25-.17c0,.12,0,.25.25.17m24.69,0,.24.16c0-.12,0-.25-.24-.16m-3.71.82-.24-.17c0,.13,0,.25.24.17m10.5,3.5.16-.25c-.12,0-.25,0-.16.25m-13.58,21,.16-.25c-.12,0-.24,0-.16.25m-3.7,9.46.16-.24c-.12,0-.25,0-.16.24m.41,1.65-.17.25c.13,0,.25,0,.17-.25m-1.65,3.29.17-.24c-.13,0-.25,0-.17.24M36,335.14l.25.16c0-.12,0-.25-.25-.16m3.5,3.08.16-.25C39.49,338,39.37,338,39.45,338.22Z"/><path class="cls-1" d="M200.23,39a16.65,16.65,0,0,1,3.47,4.68c.91,1.62,2.07,3.11,3,4.72.77,1.31,1.36,2.73,2.06,4.08.53,1,1.13,2,1.63,3A2.65,2.65,0,0,0,214.15,57a7.8,7.8,0,0,0,3.14-2.35A25.26,25.26,0,0,0,219,52.26c1.22-1.81,1.11-3.36-.22-5.39a17.29,17.29,0,0,1-3.09-8.6c-.11-1.89-.64-3.75-.75-5.63a9.48,9.48,0,0,1,.44-3.91c.41-1,.57-2.45,2.52-2.52,1.5-.05,2.95-1.27,4.63-1.09a2.47,2.47,0,0,1,1.38.6c.61.59,1.06,1.34,1.63,2a8.65,8.65,0,0,1,2.51,6.16c0,.75-.26,1.5-.26,2.25s.27,1.43.25,2.14a9.07,9.07,0,0,1-.42,2.7,14.69,14.69,0,0,0-.85,4.61,4.78,4.78,0,0,1-.86,2.92,2.4,2.4,0,0,0,.26,2.91,2.58,2.58,0,0,0,3.11.3c2.84-1.45,3.77-3.94,4.16-6.88.23-1.71.77-3.37,1.16-5.06a4,4,0,0,0,.05-.6c.13-2.89.34-5.78.39-8.68A19.42,19.42,0,0,0,233.37,23c-.4-1-1.16-2-1.66-3-.32-.66-.3-.95.19-1.31,1-.79,2.07-1.58,3.16-2.31a1.35,1.35,0,0,1,1.08-.23c2.53,1.36,5,2.79,7.53,4.19a4.56,4.56,0,0,1,1,.59c2.59,2.55,5,5.26,7.79,7.6,1.24,1.05,1.87,2.43,2.93,3.53a6.67,6.67,0,0,1,2,5.15c-.09,2.07.22,2.24,2.18,1.57,1.62-.55,3.43-.84,4.79-1.78a20.35,20.35,0,0,0,4-4.2c.19-.23-.33-1.13-.65-1.64a79.41,79.41,0,0,1-4.44-7,24.14,24.14,0,0,1-2.67-10.86,29.35,29.35,0,0,1,2.26-11A6,6,0,0,1,264.45.42c.67-.62,1.31-.48,2.15-.08s1.82-.08,2.56.25c1.93.87,3.67,2,4.36,4.27.14.47.6.84.84,1.29C275,7.39,276,8.6,276.15,9.91c.22,1.84,1.05,3.44,1.47,5.19a7.11,7.11,0,0,1,0,3.88,16.19,16.19,0,0,0-.62,3.26,20.78,20.78,0,0,1-1.23,5,4.68,4.68,0,0,0-.43,2.6c.24,1.79,0,1.77,1.69,2.42a10.88,10.88,0,0,0,3.44.66c1.89.11,2.88-1,4-2.24,1.41-1.47,2.55-3.35,4.7-4a21.83,21.83,0,0,1,3-.77c.33,0,.79.42,1.09.74.47.5.78.56,1.32.05a9.32,9.32,0,0,1,1.95-1.23c.16-.08.48.11.69.24,0,0-.06.37-.16.52-.48.63-1,1.22-1.47,1.86-.85,1.22-1.64,2.48-2.48,3.71a5.77,5.77,0,0,1-2.91,1.86c-2.88,1.15-5.78,2.28-8.72,3.29a9,9,0,0,1-7.09-.38c-1.93-.94-2.12-.91-3.54.69-1,1.12-1.77,2.46-2.81,3.55a8.32,8.32,0,0,1-6,2.79,25.33,25.33,0,0,0-4.6.8.84.84,0,0,0-.47.63c0,2.54-1.82,3.93-3.45,5.34a4.23,4.23,0,0,1-2.46.81c-2-.06-3.82,1.22-5.84.25-1-.47-2.17-.05-3.33-.34a4.72,4.72,0,0,1-2.36-1.3c-.46-.45-.81-1-1.18.17s-1.13,2-1.54,3.06a4.54,4.54,0,0,1-4,2.82c-2.69.31-5.44.2-7.84-1.34-.84-.55-.85-.07-1,.47-.11.37-.18.75-.32,1.1s-.32.92-.56,1c-1.71.32-2.36,1.73-3.32,2.89a8.1,8.1,0,0,1-4.9,2.48,8.28,8.28,0,0,1-4.87-.57c-2.92-1.25-4-3.89-5.27-6.42-.85-1.7-1.6-3.46-2.54-5.11s-2.13-3.38-3.22-5-3.9-1.77-4.92-.14a30.09,30.09,0,0,0-4.13,9,1.87,1.87,0,0,0,0,.41c-.14,3-.34,6.05-.38,9.08a5,5,0,0,0,.68,3c1.18,1.46.35,3,.51,4.4,0,.17-.12.36-.18.54a2.37,2.37,0,0,1-.69-.27c-.61-.56-1.14-1.2-1.78-1.71-.18-.15-.62,0-.95.05a3.68,3.68,0,0,1,.39.58,7.59,7.59,0,0,1,.24.85,4.53,4.53,0,0,1-.84-.24c-.91-.46-1.89-.76-2.8-1.19-1.73-.84-1.77-2.68-2-4.28a4.56,4.56,0,0,1,.3-2.74,4.8,4.8,0,0,0,0-2.64c-.35-2.44-.92-4.86-1.16-7.31-.11-1.14-.5-2.42.33-3.55.14-.18-.08-.62-.13-.94a3.68,3.68,0,0,0-.65.66,4.88,4.88,0,0,0-.42,1.06c-.55,1.69-.89,3.51-2.09,4.89-1,1.2-.61,2.73-1.17,4.05a25.81,25.81,0,0,1-2.92,5.58c-.92,1.23-1.51,2.72-2.5,3.88A20.34,20.34,0,0,1,167.76,72c-1.6,1.08-4.55.55-5.93-1.08A63.32,63.32,0,0,1,157,64.26a7.62,7.62,0,0,1-1.31-3.78,6.37,6.37,0,0,0-.69-1.75c-.68-1.78-1.42-3.53-2-5.34a7.94,7.94,0,0,1-.51-3.06c.15-1.59-.6-2.93-.89-4.39a29.88,29.88,0,0,1-.8-6.66,1.12,1.12,0,0,0,0-.41,6.08,6.08,0,0,0-.33-.61c-.16.23-.46.45-.46.67,0,2.19.18,4.41-.07,6.58-.4,3.51,0,7.07-.48,10.51-.41,2.79-.3,5.73-1.51,8.4-.16.34,0,.81,0,1.22a37.92,37.92,0,0,1-1.23,9.17,2,2,0,0,0,0,.81c.33,2-.49,3.9-.84,5.83,0,.16-.23.42-.3.41-.24-.07-.56-.17-.65-.36-.38-.78-.65-1.25-1.48-.32s-1.59.07-2.34-.21c-.25-.09-.38-.5-.57-.77a3.6,3.6,0,0,0,.76-.38,1.61,1.61,0,0,0,.7-2.08c-.46-1.18-.66-2.46-1.06-3.67-.58-1.76-.24-3.44-.07-5.23.4-4.43,2-8.53,2.94-12.79a23.62,23.62,0,0,0,.42-3.94c.18-3.24.28-6.47.44-9.71,0-.44.19-.88.25-1.32a3.38,3.38,0,0,0,0-.71,5.11,5.11,0,0,0-.55.05c-.51.1-1,.24-1.52.31-1,.12-2.11-.21-3.14.37-.38.22-1-.08-1.56-.09-.75,0-1.49,0-2.23,0-.32,0-.76.18-1,0-1.35-1.08-3.13-1.67-3.92-3.43-.4-.91-.94-1.8-2.24-1.45-.16,0-.4-.21-.6-.32.22-.16.45-.47.66-.46.62.05.87-.16,1.14-.74.39-.85,1.31-.47,2-.51,1.33-.08,1.27,0,1.16-1.55,0-.43.4-.89.62-1.34a4.38,4.38,0,0,1,1,.63c.44.48.77,1.05,1.18,1.56.12.13.44.3.48.26,1.14-1,2.23.29,3.39.07a22.67,22.67,0,0,1,3.69-.06c1.38,0,1.52-.16,1.55-1.47,0-1,0-1.93,0-2.88a12.44,12.44,0,0,1,.39-1.89,11,11,0,0,0,.39-1.68,9.89,9.89,0,0,1,.08-2.45c.3-.8-.3-1.41-.09-2.16s.69-2,.35-2.65c-.52-1,.27-1.72.13-2.59a7.69,7.69,0,0,1,0-2.87A16.88,16.88,0,0,0,146,7.92c-.06-.56.22-.82.36-.84a21.66,21.66,0,0,1,3.3-.46,1.32,1.32,0,0,1,1,.71,13,13,0,0,1,.43,2.91c0,1.39.1,2.79.09,4.18a38.35,38.35,0,0,0,.74,4.81c.21,1.85.2,3.73.45,5.58.32,2.45.79,4.88,1.23,7.31a.7.7,0,0,0,.54.37c1.85-.15,3.71-.24,5.53-.56a30.44,30.44,0,0,1,7.16-.25c.52.12.65.6.44,1.35,0,.11.24.31.21.43-.11.48-.24,1.33-.43,1.35-1.62.14-2.34,2-4.21,1.9-1.38-.07-2.79.82-4.22,1.12a23.61,23.61,0,0,1-3.94.41c-.77,0-.78.42-.68.89.23,1.06.58,2.1.8,3.16a23.67,23.67,0,0,0,.89,4.37c1.48,3.42,2.08,7.09,3.23,10.59a17.45,17.45,0,0,0,2.95,5.57c.29.35.5.76.76,1.12,1,1.45,2.51,1.53,4.1,1.51,1.34,0,1.6-1.12,2-1.9a77.35,77.35,0,0,0,3.92-7.63c1.34-3.15,2.43-6.41,3.5-9.66.71-2.19,1.21-4.44,1.78-6.67a38.71,38.71,0,0,0,1.07-4.69,12.87,12.87,0,0,0-.36-3.11c-.27-1.95-.52-3.9-.84-5.83a21.13,21.13,0,0,0-.68-2.18c-.33-1.17-.64-2.35-1-3.52a4.69,4.69,0,0,0-.23-.93,9.82,9.82,0,0,1-.35-7.95,9.37,9.37,0,0,1,2.24-4.23,1.59,1.59,0,0,1,1.42-.58c.27,0,.64.13.81,0a4,4,0,0,1,3.62-.41c1.09.26,2.21,0,3.36.3,2.46.54,3.06,2.3,3.5,4.28.14.58.09,1.13.61,1.62a1.69,1.69,0,0,1,.25,2.22,5,5,0,0,0-.77,1.71c-.07.53.32,1.12.34,1.68A14.35,14.35,0,0,1,189.78,24a31.66,31.66,0,0,0-1.5,6.35,11.62,11.62,0,0,1-1.05,3.29c-.85,1.55-1,3.28-1.55,4.92a9.3,9.3,0,0,0,0,5.92c.28.86.31,1.79.51,2.67,0,.22.39.53.56.51a.81.81,0,0,0,.56-.55c.2-2.09,1.65-3.62,2.61-5.29,1.17-2.07,3.44-3.11,5.84-3.56a5.59,5.59,0,0,1,4.45.71m85.27-7.3a.73.73,0,0,1-.41.41l0,.38a.9.9,0,0,1,.44-.38.83.83,0,0,1,.41-.41l0-.38a.78.78,0,0,1-.44.38m-137,14.81,0-1.2-.24,1c0,.06,0,.13-.21.19l-.16.66.27.06a1.09,1.09,0,0,1,.31-.72m34.76,6.79a2.84,2.84,0,0,1,0-.41,1.28,1.28,0,0,0-.58-1.4,9,9,0,0,0,.18,1.28c.06.26.26.49.39.94a2.49,2.49,0,0,0-.39.66,2,2,0,0,0,.15.74c.19-.16.55-.33.54-.49a9.91,9.91,0,0,0-.3-1.32m58-19.34c.34,1.88-.09,3.75,0,5.62a4.85,4.85,0,0,1-.05,1,5.69,5.69,0,0,1-.29.85,3.35,3.35,0,0,0,1.1,0c2.71-1.15,5.43-2.21,8.46-1.89.27,0,.67.11.8,0,.27-.3.62-.75.56-1.09a14.75,14.75,0,0,0-4.63-8.33c-1.56-1.52-3.32-2.85-5-4.22-.51-.41-1.25-1-1.69-.91-1,.29.07,1,0,1.62a11.12,11.12,0,0,0,.81,5.46c.25.62,0,1,0,1.93m28.8-21.8c0-.55,0-1.1,0-1.64a2.13,2.13,0,0,0-.3-.63c-.22.13-.53.19-.65.38a3,3,0,0,0-.27.91,64,64,0,0,0-1.59,7.31c-.29,2.76-.22,5.61,2.34,7.6a4.09,4.09,0,0,1,.72.72,4.68,4.68,0,0,1,.44.71,3.52,3.52,0,0,0,.54-.8,6.34,6.34,0,0,0,.32-1.3c.19-1.22.67-2.52.42-3.65a25.45,25.45,0,0,1-.31-2.72,30.77,30.77,0,0,0-1.65-6.89M220.29,38.47c.41,2,.81,4,1.24,6.06a2.84,2.84,0,0,0,.51,1c.07.11.35.07.54.1,0-.14-.06-.29-.08-.43a3.76,3.76,0,0,1,.2-2.67,9.93,9.93,0,0,0,.47-2.88c.08-.51.27-1,.3-1.51a6.57,6.57,0,0,0-.1-1.53c-.26-1.69-1.77-2.44-2.77-3.56-.17-.18-.64-.16-.94-.09-.12,0-.21.46-.18.71.11,1.31.24,2.62.41,3.93,0,.16.26.3.4.86m-39.5-19.75c.33,1,.65,2,1,3.06.06.17.28.29.42.43a1.51,1.51,0,0,0,.2-.52,21.34,21.34,0,0,0-1.24-7.25c-.05-.18-.31-.3-.47-.45-.11.2-.33.41-.32.6.1,1.24.26,2.48.4,4.13M143.14,67.89c.07-.57.12-1.15.21-1.72.05-.38.14-.77.21-1.15-.35.38-.88.72-1,1.16a2,2,0,0,0,.57,1.71m93.6-19.54c.42.14.83.3,1.25.4.11,0,.39-.22.38-.23-.33-.63-.68-1.27-1.63-.17m-42.38-7.41a3.15,3.15,0,0,0-.89-.19,1.86,1.86,0,0,0-.74.35.66.66,0,0,0,.08.32,7.67,7.67,0,0,0,.81-.15,1.88,1.88,0,0,0,.74-.33M147.87,14.19l-.4.84a5.79,5.79,0,0,0,.71-.34,2.89,2.89,0,0,0,.44-.42.88.88,0,0,0-.75-.08m-.41,44a7.44,7.44,0,0,0-.85-.42,2.69,2.69,0,0,0-.7-.09c.18.24.3.56.54.69s.53,0,1-.18m36-42.17c0,.18.09.37.15.56s.18.44.27.66a3.09,3.09,0,0,0,.18-.71c0-.17-.12-.34-.6-.51m3.29,40.73-.4-.4-.18.64c.26,0,.52,0,.58-.24m-7.2-15.84-.79,0,.18.64.61-.61m60.07-.82a1.7,1.7,0,0,0,0-.39,6.44,6.44,0,0,0-.24-.61,1.73,1.73,0,0,0-.15.51.46.46,0,0,0,.39.49m-106.15-3.3-.82.43a.84.84,0,0,0,.82-.43m10.9,39.3.21.41c.07-.14.13-.27-.21-.41m31.89-20.78-.11-.52a1.19,1.19,0,0,0-.25.07c0,.22.1.44.36.45m-29.42-1.85-.52.11a1.44,1.44,0,0,0,.07.25c.22,0,.44-.1.45-.36m92.37-22,.41-.21c-.13-.07-.27-.14-.41.21m-89.9-.62-.52.11a1.44,1.44,0,0,0,.07.25c.22,0,.44-.1.45-.36m.82-4.53.52-.11a1.44,1.44,0,0,0-.07-.25c-.22,0-.44.1-.45.36m27.16-14.81.2.41c.07-.14.14-.27-.2-.41M217,59.46l-.24-.17c0,.12,0,.25.24.17m-28.8-1.24.25.17c0-.13,0-.25-.25-.17M182.43,46.7l-.25-.16c0,.12,0,.24.25.16m-36.82-6.79.16-.25c-.12,0-.25,0-.16.25m71.8-1.44-.25-.16c0,.12,0,.24.25.16m-67.48-4.53.24.17c0-.12,0-.25-.24-.17m32.3-19.54.16-.25C182.27,14.17,182.14,14.18,182.23,14.4Z"/><path class="cls-1" d="M137.58,202.85c.09-1-.26-1.81.55-2.47.27-.21.24-.85.27-1.3a11.44,11.44,0,0,1,1.76-6.08,2.49,2.49,0,0,0,0-1.78c-.36-1.17-1-2.22-.53-3.59.25-.68.45-1.77-1-1.81-.2,0-.46-1.25-.54-1.94-.1-1-.06-2-.08-3,0-.18.06-.48,0-.54-1.19-.83-.31-2-.18-2.8a11.58,11.58,0,0,0,.25-2.12,24.19,24.19,0,0,1,.91-5.8,3.94,3.94,0,0,0,.07-1.8c-.76-2.49-1.74-4.92-2.4-7.43-.39-1.48-.94-3,.08-4.62a4.79,4.79,0,0,0,.51-2.51,13.09,13.09,0,0,1,.72-4c.12-.41-.28-1.3-.19-1.34,1.27-.51.82-1.22.41-2,0-.09.23-.51-.09-.85-.82-.88-1.59-1.8-2.33-2.74a2,2,0,0,1-.51-1.2c.14-1.06-1.35-.73-1.23-1.51s.75-1.3.72-1.93c0-.85-.69-1.69-.71-2.54a9.26,9.26,0,0,1,.5-3.68,1.82,1.82,0,0,0-.56-2.43c-.34-.3-.6-.41.16-.65a2.48,2.48,0,0,0,1.9-2.61c-.05-.6.25-.62.72-.65a3.54,3.54,0,0,1,3.06,1.09,2.63,2.63,0,0,0,.72.4c0-.32,0-.65-.09-1,0-.11-.17-.2-.28-.29-.8-.67-.06-1,.37-1,1-.09,2.17-.21,3,.68a17.8,17.8,0,0,1,3,3.5,3.47,3.47,0,0,1-.17,3.44,21.1,21.1,0,0,0-2.4,4.55,7.06,7.06,0,0,0,0,3.65c.29,1.28,1.11,2.42,1.53,3.68.86,2.62,1.95,5.23.66,8.06a6.54,6.54,0,0,0-.44,2.08c-.18,2.1-1.34,3.83-2,5.74a1.92,1.92,0,0,0,.06,1.25c.84,2.12,1.81,4.19,2.59,6.32,1,2.59,2.27,5.1,2.07,8a4.25,4.25,0,0,1-.26,1.33,21.92,21.92,0,0,1-1.92,4.33c-1.27,1.86-.46,3.28.46,4.81a31.59,31.59,0,0,1,3,5.13,11.69,11.69,0,0,1,.57,6.77c-.37,1.56-.84,2.81-2.35,3.54-.31.15-.45.63-.72.92s-.81,1.12-1.25,1.14c-1.62.1-1,.93-.64,1.64a14.63,14.63,0,0,0,1.07,1.62c1.37,2,1.33,4.23,1.24,6.48,0,.14,0,.34,0,.4-1.14,1.07-.95,2.6-1.15,3.9a6.07,6.07,0,0,1-2.08,3.89c-.59.52-1.16.94-.51,2a11.8,11.8,0,0,1,1.24,3.38c.48,1.78,1.54,3.52.46,5.44a7.16,7.16,0,0,0-1.28,3.39c0,.3-.58.82-.89.82a2.05,2.05,0,0,0-2,1.55,3.11,3.11,0,0,1-2.7,1.77,10.53,10.53,0,0,1-8.05-2.39,51.3,51.3,0,0,1-4.69-3.53c-1.82-1.76-3.55-3.59-4.31-6.22a39.32,39.32,0,0,1-1.63-6.75,11.19,11.19,0,0,0-2.59-6.34,28.32,28.32,0,0,1-3.87-6.59c-1.14-2.4-2-4.94-2.92-7.43a4.57,4.57,0,0,1-.39-1.68,74.59,74.59,0,0,1,.44-8.05c.31-2.28-.76-4-1.88-5.61a19.63,19.63,0,0,1-3.16-8.18,32.88,32.88,0,0,1-.78-6.25c.11-3.21-.36-3.47-1.69-5.75-2.12-3.62-4.52-7.12-5.84-11.15a24.54,24.54,0,0,1-1.53-6.78,3.52,3.52,0,0,0-.41-1.26,13.43,13.43,0,0,0-4-5.71,14.51,14.51,0,0,0-2.87-1.5,1.36,1.36,0,0,0-1.15.11c-.16.11,0,.7,0,1.07.35,2.35,2.18,3.79,3.49,5.54a4.91,4.91,0,0,1,.93,1.68,6.35,6.35,0,0,0,1.64,3,6.72,6.72,0,0,1,1.15,2.37,20,20,0,0,0,.85,2.32c1.23,2.14.61,4.28-.13,6.28A17.57,17.57,0,0,0,94,164.75c-.08.64-.29,1.26-.4,1.89-.33,1.93.68,3.54,1.32,5.21.75,2,1.64,3.85,2.45,5.77a5,5,0,0,1-.22,4.56c-.57,1-.61,2.29-1.69,3-.19.13,0,.81,0,1.21a11.24,11.24,0,0,0,2.35,4.37,9.14,9.14,0,0,1,1.78,6,13.25,13.25,0,0,1-2.82,7.64A12.26,12.26,0,0,0,94.88,208a3.26,3.26,0,0,0,.46,3,21.55,21.55,0,0,0,2,2.45,5.19,5.19,0,0,1,1.51,3.89,21.55,21.55,0,0,1-.86,5,4.51,4.51,0,0,1-1.55,2.24,16.58,16.58,0,0,0-3.5,3.87,3.86,3.86,0,0,0,.08,3.74,9.15,9.15,0,0,0,1,1.83A10.26,10.26,0,0,1,96,240.18c.08,2.87-.71,3.92-3.46,5.5A9.09,9.09,0,0,1,90.18,247a2.29,2.29,0,0,1-2.63-.51c-.43-.43-1.18-.53-1.65-.93a3.51,3.51,0,0,1-1.48-2.69,14.78,14.78,0,0,1,.82-5.32c.49-1.61,0-3.39-.5-5.07-.81-2.95-1.12-5.88.13-8.88a57.56,57.56,0,0,1,2.73-5.44,4.81,4.81,0,0,0,.2-4.72,13.77,13.77,0,0,1-1.64-8.17,10.25,10.25,0,0,1,.49-2.67c.67-1.65,1.62-3.17,2.27-4.82a15.73,15.73,0,0,0,1.25-4.6c.06-1-.68-2.14-1.15-3.18a26.9,26.9,0,0,1-2.23-5.65,9.16,9.16,0,0,1-.22-1.56c0-.89-.35-2,.07-2.62.69-1-.5-1.72-.09-2.59a6.3,6.3,0,0,0,.78-2.33,8.1,8.1,0,0,0-.71-2.57c-.34-1-.74-1.88-1.15-2.81C84.18,167,84.33,164,84.58,161a23.8,23.8,0,0,1,1.59-5.69c.92-2.64.25-5-1.09-7.25a37.06,37.06,0,0,1-3-7.37c-.71-2.15-.15-4.18.23-6.33.3-1.69,1.26-2.94,1.77-4.44s1.76-2.09,3.79-1.52c1.49.41,3.22.79,3.49,2.84a1.62,1.62,0,0,0,.43.84c2.16,2.19,4.29,4.41,6.53,6.51a7.72,7.72,0,0,1,1.87,3.56,10.56,10.56,0,0,0,.6,1.8,9,9,0,0,1,1.49,5.58,2.88,2.88,0,0,0,.43,2c1.11,1.15,1.29,2.64,1.84,4,.86,2.13,2.38,3.82,3.64,5.69,1.8,2.66,4.06,5,5,8.24a13.94,13.94,0,0,1,.33,6.8,5.36,5.36,0,0,0,1.08,5.07,15.6,15.6,0,0,1,4.2,11.2c-.11,2.6.27,5.23.35,7.84.07,1.94,1.41,2.8,2.82,3.67a43.94,43.94,0,0,1,4.21,2.73c1.48,1.17,2.52,4.66,1.89,6.69a9.9,9.9,0,0,0,0,7.07,7.28,7.28,0,0,1,.2,1.77,18.53,18.53,0,0,0,.43,2.7,4,4,0,0,0,2.54,2.8c1.19.43,2.35.94,3.51,1.44.88.38,1.17.25.89-.61-.49-1.45-.27-2.91-.4-4.36a8.44,8.44,0,0,1,1-4.13c.75-1.74,1.59-3.45,2.3-5.21a7.84,7.84,0,0,0-.17-5.54,20.17,20.17,0,0,1-1-3.69,13,13,0,0,1,.36-2.9m8-2.88a1.54,1.54,0,0,1-.42.82l0,.38a.89.89,0,0,1,.45-.38A1.45,1.45,0,0,1,146,200l0-.38a.86.86,0,0,1-.44.38M83.47,135.78l.17-.66-.27-.06a1.09,1.09,0,0,1-.31.72l0,.38a.9.9,0,0,1,.44-.38m2.06,0,.17-.66-.27-.06a1.14,1.14,0,0,1-.31.72l0,.38a.9.9,0,0,1,.44-.38m1.85,85.38a3.77,3.77,0,0,0,0,1,9.18,9.18,0,0,0,.54,1.2c.76-.46-.14-.71-.12-1,0-.49.29-1,.36-1.46,0-.19-.2-.41-.31-.62a4,4,0,0,1-.49.9m52.88-32.71a11.47,11.47,0,0,0-.19,1.29c0,.11.28.36.32.33s.48-.29.46-.4a3.55,3.55,0,0,0-.59-1.22m2.67,38.06-.12-.95-.29.71a1.88,1.88,0,0,0-.25.77c0,.16.34.29.53.42a5,5,0,0,0,.13-1m-36.82-60.69c.76.11.61-.44.6-.86a.94.94,0,0,0-.14-.33,6.37,6.37,0,0,0-.66.6c-.06.08,0,.25.2.59m39.08,31.27.15-1.08c-.09,0-.23-.06-.27,0-.29.31-.83.57.12,1.1M117,195.24l-1.2,0,0,.54a5.14,5.14,0,0,0,1.15-.5M84.3,132.9c-.07,0-.16,0-.2,0a3,3,0,0,0-.34.28,1,1,0,0,0,1.39-.34c0-.06-.08-.24-.12-.36a3.07,3.07,0,0,0-.73.41m4.52,39.91.55-.13-1-.69a.82.82,0,0,0,.41.82m28.6,25.72-.28-.95c-.17.19-.5.42-.47.57s.35.39.75.38M144,211.9a.92.92,0,0,0,.14-.14s0-.1,0-.15c-.33.11-.66.21-1,.34,0,0,0,.19,0,.28a2.37,2.37,0,0,0,.9-.33m-35.59-36,.47.62.35-.35a1,1,0,0,0-.82-.27m34.56-5.76-.39.84c.1,0,.25.11.28.08.28-.32.87-.57.11-.92m-7-35c.27-.2.55-.4.81-.62,0,0-.08-.22-.12-.33a1.87,1.87,0,0,0-.69.95m4.52,37.45-.11-.53-.62.62a1,1,0,0,0,.73-.09M94,215a1.61,1.61,0,0,0,0,.38,6.44,6.44,0,0,0,.24.61,1.67,1.67,0,0,0,.16-.51c0-.23-.13-.46-.4-.48m13.16-47.32-.79,0,.19.64.6-.61m-7-12.34.4-.41-.64-.18c0,.26,0,.53.24.59m47.73,41.14.79,0-.18-.64-.61.61M91.7,166.23l.53-.11-.62-.62a1,1,0,0,0,.09.73M108,164a6.8,6.8,0,0,0,.46.6s.2-.09.31-.14A1,1,0,0,0,108,164m12.75,41.14a5.5,5.5,0,0,0,.47.61s.2-.09.3-.14a1,1,0,0,0-.77-.47m-33.33-43.2.11.52.26-.07c0-.22-.1-.44-.37-.45m0-5.76.11.52c.09,0,.26-.06.26-.07,0-.22-.1-.44-.37-.45m13.17-5.35-.11-.52-.25.07c0,.22.1.44.36.45m35.59-20c0,.22-.11.44-.16.66l.26.07a1,1,0,0,0-.1-.73m7.61-.61.42-.21c-.14-.07-.28-.14-.42.21m-1.23-.83-.41.21c.14.07.27.14.41-.21m0-1.64.11.52.25-.07c0-.22-.1-.44-.36-.45m-21.81,82.7c.22.06.44.12.66.16,0,0,0-.17.07-.25a1,1,0,0,0-.73.09m21-22.63.11.52.25-.07c0-.22-.1-.44-.36-.45m2.05,9-.24-.16c0,.12,0,.25.24.16m-29.21-10.69-.25-.17c0,.12,0,.25.25.17m27.36-1-.16.24c.12,0,.24,0,.16-.24M89.44,202.64l.25.17c0-.12,0-.25-.25-.17m3.29-20.57.25.17c0-.13,0-.25-.25-.17m52.67,27.16.25.16c0-.12,0-.24-.25-.16m-50.61,3.29-.25-.17c0,.13,0,.25.25.17m16.66-36.83.17-.24c-.12,0-.25,0-.17.24m-2-4.93.16-.25c-.12,0-.25,0-.16.25m-20.78-2.27-.25-.16c0,.12,0,.25.25.16m2.47,49.79-.25-.16c0,.12,0,.24.25.16m13.16-53.9.25.16c0-.12,0-.24-.25-.16M92.12,220.54l.16-.24c-.12,0-.25,0-.16.24m48.34-58.63.25.16c0-.12,0-.24-.25-.16M94,159l.24.16c0-.12,0-.24-.24-.16m43,63.57.17-.25c-.12,0-.25,0-.17.25m-34.35-66.45.24.16c0-.12,0-.24-.24-.16m26.13,74.68.16-.25c-.12,0-.25,0-.16.25M97.88,145.66l-.17.24c.12,0,.25,0,.17-.24m45.46,87.43-.24-.16c0,.12,0,.24.24.16m-3.7-98.34.25.17c0-.13,0-.25-.25-.17M89,133.93l-.25-.16C88.8,133.89,88.81,134,89,133.93Z"/><path class="cls-1" d="M525.59,193c.94,2.06-.15,4.2.82,6-.64,2.33-.23,5.05-2.65,6.74-1.12.78-1.89,1.95-3.28,2.51s-1.68,2-1.35,3.6a8.1,8.1,0,0,1,.17,3.55,10.8,10.8,0,0,0-.3,3.23,5.66,5.66,0,0,1-1.71,4.64,8.14,8.14,0,0,1-2.46,2c-2.07.66-2.32,2.24-2.38,3.92a6.44,6.44,0,0,1-1.77,4.84c-.55.53-.26,1,.06,1.56a14.86,14.86,0,0,1,1.24,3.19,1.38,1.38,0,0,1-.36,1.23,18.58,18.58,0,0,1-3.89,1.49c-2,.42-3.51-.88-4.89-2a10.43,10.43,0,0,1-3.23-3.78,5.48,5.48,0,0,0-1.95-2,6.31,6.31,0,0,1-2.61-7.15,7.34,7.34,0,0,0,.09-1.82c0-2.12.08-4.25,0-6.37a21.49,21.49,0,0,0-.63-3.64,8.06,8.06,0,0,0-2.32-3.56,25.32,25.32,0,0,1-2.34-2.54,8.35,8.35,0,0,1-.86-7.33,31.64,31.64,0,0,0,1.68-7.95,4.33,4.33,0,0,1,.43-2.07c.64-1.06.3-2,0-3-.59-1.81-1-3.68-1.67-5.48a52.91,52.91,0,0,0-3.49-8.43,12.7,12.7,0,0,1-.63-2.62,1,1,0,0,0-.52-.6c-.47-.14-.57.12-.73.62-.94,2.94.1,5.61,1,8.33a13.15,13.15,0,0,1,.68,3,26.69,26.69,0,0,1,0,4.73c-.32,2.94-.28,6-2.44,8.44,0,.05,0,.15,0,.19-.67.75-1.74,1.41-1.95,2.27a40.59,40.59,0,0,0-.87,6.43c-.12,1.42.19,2.9-1.93,3.09-.54.05-.75.81-.54,1.36.32.82.78,1.59,1.15,2.4a5.36,5.36,0,0,1,.23,4c-.21.61-.15,1.3-.32,1.92a24.9,24.9,0,0,1-2.75,5.66A12.26,12.26,0,0,0,475,226a1.81,1.81,0,0,0,.24,1.5c.49.52.55.78,0,1.22-.16.11-.14.45-.21.68l.58-.24c0,.23.17.59.07.68-.38.34-.86.57-1.25.91-.16.14-.16.45-.24.69a4.12,4.12,0,0,0,.7.05,7.94,7.94,0,0,0,.85-.15c-.1.28-.12.66-.32.83-.6.5-.58,1-.51,1.76a10.8,10.8,0,0,1-1.16,6.27,3.61,3.61,0,0,1-3.71,2.11c-.26,0-.6,0-.75-.16-1.14-1.16-2.25-2.35-3.36-3.54s-.25-2.21.06-3.13c.72-2.15.29-4.18-.18-6.22a13,13,0,0,1,.06-5.48,21.08,21.08,0,0,1,3.06-7A11.19,11.19,0,0,0,470,213c.47-2.7-.37-5.21-1.41-7.64a13.86,13.86,0,0,1-.47-7.94,11.49,11.49,0,0,1,3.55-6.32,44.07,44.07,0,0,0,3.21-3.6c.2-.23.46-.59.42-.84-.39-2,1.1-3.81.15-5.85-.27-.57.24-1.53-.05-2.37s-.23-1.68-.45-2.5a14.15,14.15,0,0,1-.31-6.39,16.32,16.32,0,0,1,2.78-7.28,29.84,29.84,0,0,0,2.47-4.52.71.71,0,0,0,0-.41,58.18,58.18,0,0,0-1-6.19c-.28-1.08-.47-1.88.42-2.69a1.26,1.26,0,0,0,.42-.83c-.08-2.33,1.67-3.85,2.51-5.76a1.38,1.38,0,0,1,2.34-.3,52.27,52.27,0,0,1,3.44,6,4.14,4.14,0,0,1-.14,3,2.08,2.08,0,0,0,.44,2.5c2.69,2.17,3.05,5.46,4.33,8.32.88,2-.09,3.71-.54,5.44-.26,1-.37,1.64.37,2.46.93,1,2.07,2.07,2.39,3.3s1.14,2.44,1.44,3.74c.2.88,1.27,1.45.85,2.53.15,0,.29-.05.44-.06l.7,0c0,.33.14.77,0,1-.34.37-1,.52-1.22.92a1.65,1.65,0,0,0,0,1.36c.35.69.56-.1.85-.19a.79.79,0,0,1,.57,0c.46.32.26.36-.17.54-.72.28-.89.64-.34,1.5a9.13,9.13,0,0,1,1.57,4c.13,2.45,1.37,4.76.9,7.26a23.84,23.84,0,0,1-.89,4.16,1.33,1.33,0,0,0,.12,1.29,33,33,0,0,1,3.25,4c.45.64,1.33,1.13,1.62,2,.22.67.61,1.54.36,2.06-.55,1.13.12,2.36-.63,3.53a2.72,2.72,0,0,0,.26,2.87,4.56,4.56,0,0,1,.44,1.45,8,8,0,0,0,.36.79c.27-.18.62-.31.78-.56.27-.42.27-1.14.62-1.35,2.66-1.64,2.26-4.43,2.81-6.9a24.26,24.26,0,0,0,.83-5,4,4,0,0,1,.87-2.08c1-1.39,2.11-2.7,3.18-4a7.56,7.56,0,0,0,2.09-5.11,20.82,20.82,0,0,1,1.17-8.15c.42-1.14.22-2.5.49-3.71a5.55,5.55,0,0,1,1.1-2.6,8.5,8.5,0,0,0,1.69-4.05,5.38,5.38,0,0,0-.36-2.28c-.25-1.13-.5-2.26-.83-3.36a11.05,11.05,0,0,1,1.56-9.3c1-1.61,2.21-3.07,3.33-4.6a2.75,2.75,0,0,0,.46-.63c.58-1.67.57-1.74,2.17-1.67a2.49,2.49,0,0,0,2.29-1c1.49-1.83,3.74-2.51,5.68-3.65a16.72,16.72,0,0,0,1.73-1.31c.25-.2.64-.65.7-.61.38.27.88.6,1,1,.57,2.22,1.33,4.41.1,6.75-.31.6-.57,1.36-1.09,1.56-3.09,1.19-4.5,3.87-6,6.49-.68,1.17-1.43,2.29-2.18,3.41a3.25,3.25,0,0,0-.65,2.41c.23,1.33.54,2.66.78,4a6.22,6.22,0,0,1,0,1.22,21,21,0,0,0,.76,5,6.6,6.6,0,0,1-.37,3.1c-.59,2.15-.81,4.54-3.32,5.6A1.56,1.56,0,0,0,526,187c-.2,1.92-.3,3.86-.44,6m-32.92-22a3.24,3.24,0,0,0-.52-.19s-.17.26-.13.34c.55,1.12,1.11,2.24,1.69,3.34.08.17.28.27.42.41.06-.25.26-.56.17-.72a29.76,29.76,0,0,1-1.63-3.18m2.68,5.14-.42-.37c-.55.56.1.78.34,1.12a.87.87,0,0,0,.08-.75m32.92-1.23c-.06.22-.12.44-.16.66l.25.07a1,1,0,0,0-.09-.73m-32.71,2.67.1.53.26-.08C495.88,177.77,495.82,177.56,495.56,177.54Z"/><path class="cls-1" d="M308.65,201.31a15.29,15.29,0,0,1-4.15-6.65,9.35,9.35,0,0,0-4.23-5.39c-.28-.16-.65-.25-.82-.48a4.14,4.14,0,0,0-3.68-1.65,2.74,2.74,0,0,1-2.67-2c-.05-.17-.36-.26-.55-.38-.09.16-.25.32-.25.48,0,1.8-.31,3.55.74,5.32a11.36,11.36,0,0,1,1.24,4.6,4,4,0,0,1-.82,2.88,3.35,3.35,0,0,0-.65,3.59,4.6,4.6,0,0,1-.19,3.77,2.15,2.15,0,0,0,.11,2.15,11.38,11.38,0,0,1,1.23,4.85,2.49,2.49,0,0,1-1.36,2.3,4.52,4.52,0,0,0-2,4.29c.31,1.73.53,3.48.84,5.21a22.67,22.67,0,0,0,.85,4c1.11,3-.13,5.58-1.56,8.1-.13.23-.36.54-.57.56-1.66.18-2.84,1.44-4.39,1.84-.94.24-1.51-.33-2.08-1s-1-1.06-1.57-1.57a3.78,3.78,0,0,1-1.41-2.72,6.89,6.89,0,0,1,1.51-5.16c1-1.13.68-2.71.52-4.06-.21-1.84-.86-3.63-1.13-5.47a12.79,12.79,0,0,1,.93-6.37c.64-1.72,1.19-3.49,1.95-5.15a.79.79,0,0,0,0-.93c-.26-.43-.39-.94-.65-1.37a10.57,10.57,0,0,1-.83-9,35.38,35.38,0,0,0,1-4.3c.22-1.27-.51-2.36-1-3.49-.7-1.77-2.15-3.2-2.34-5.2-.06-.64-.35-1.27-.35-1.9,0-2.71-.09-5.34,1.12-8,1.09-2.4.68-3.52-.66-6.5a17.53,17.53,0,0,1-1.89-5.18c-.28-2.59-1.25-5.15-.25-7.79a8.7,8.7,0,0,0,.41-2.09,3.26,3.26,0,0,0-.83-2.74,21.87,21.87,0,0,1-4.73-8.52,8.14,8.14,0,0,1,1.34-7.3c.42-.57,1.29-.81,1.94-1.22s1.22-.56,1.4-1c.76-2,2.28-3.36,3.67-4.86,2.43-2.62,5.61-3.79,8.9-4.84,2.62-.84,4.18.54,5.68,2.32a1.71,1.71,0,0,0,1.19.55c2.28-.08,4.55-.19,6.82-.43.5,0,1-.61,1.4-1,1.41-1.41,2.81-2.86,4.86-3.16a38.35,38.35,0,0,1,5-.27c.26,0,.54.35.77.58,1.54,1.48,2.89,3.17,4.9,4.08a.94.94,0,0,1,.43.43c1.14,2.45,3.82,3.08,5.6,4.76,1.14,1.08,2.25,2.19,3.3,3.35.22.24.19.76.18,1.14a11,11,0,0,0,.81,4.61,3.59,3.59,0,0,1,0,2.94,5,5,0,0,0-.4,1.47,3.65,3.65,0,0,1-.84,3c-.68.64-.27,1.34.08,1.87a12.62,12.62,0,0,0,1.57,1.62,5.86,5.86,0,0,1,1.76,5.58c-.58,3.47-2.88,4.8-5.57,6-.21.1-.55-.13-.84-.18-2.11-.35-4.05,0-5.27,1.88a6.14,6.14,0,0,0-.75,3c-.08,1.68.11,3.33-1.45,4.58-.42.33-.46,1.16-.64,1.77a6.44,6.44,0,0,1-2.32,3.54,2.83,2.83,0,0,1-1.9.75,12.65,12.65,0,0,0-3.79.07,3.29,3.29,0,0,1-2.12-.86c-1.88-1.34-3.12-1.07-4.5.87a44.09,44.09,0,0,1-3.53,4.68c-.84.89-.49,1.27.17,1.79,1.18.93,2.44,1.78,3.56,2.78a22,22,0,0,1,3.28,3.34c1.26,1.69,2.25,3.58,3.42,5.35a2.4,2.4,0,0,0,1.24.94c2.16.56,4.12,1.68,6.31,2.18.75.17,1.32,1.06,2,1.54,3.41,2.33,5.67,5.27,6.06,9.62a37.63,37.63,0,0,1,.27,5.18,2.57,2.57,0,0,0,1.51,2.45c3.71,2.11,6.44,4.57,7.85,7.55a2.69,2.69,0,0,1,.12,1.77c-1,3.33,0,6.14,2.13,8.67a3.32,3.32,0,0,1,.37.47c.93,1.64.34,2.76-1.56,3a5.27,5.27,0,0,0-1.87.43,2.6,2.6,0,0,1-3.69-.77c-1.21-1.49-2.5-2.91-3.61-4.47a9.15,9.15,0,0,1-1.6-4.67c-.13-2.17-1.34-4-1.8-6.06-.07-.34-.5-.66-.85-.87-2.67-1.57-4.24-4-5.49-6.74a10.15,10.15,0,0,0-1.05-2.23,11.55,11.55,0,0,1-1.22-2.79,10.89,10.89,0,0,1-.79-3.79,21,21,0,0,1-.31-2.33c0-1-.61-.75-1.08-.63-.28.08-.46.51-.74.69a2.57,2.57,0,0,1-3.07-.05c-.69-.48-1.42-.88-2.23-1.42M283.45,144c.19.33.36.68.58,1,1.91,2.59,3.82,5.14,4.4,8.47.32,1.89.63,3.67.14,4.92a22.81,22.81,0,0,1-1.13,2.2c-.16.32-.48.76-.38,1a46.89,46.89,0,0,0,2.16,4.24c1.3,2.2,3.21,4,3.92,6.61.15.53.42,1.09,1.3.58a3.5,3.5,0,0,1,2-.17c1.7.2,2.76-.76,3.69-1.94.35-.44.49-1,.84-1.49,2.29-2.81,5.06-4.76,8.85-4.81,1.19,0,2.32-.47,3.58-.07.88.28,1.8-.8,2-1.85.11-.7.26-1.39.41-2.09.62-3,2.64-5.21,4.62-7.3a17.69,17.69,0,0,1,4.67-3.05c.73-.37,1.08-.7,1-1.45a14.35,14.35,0,0,0-.6-3.86,12.05,12.05,0,0,1-.63-4.47,7.77,7.77,0,0,0-.2-2.17c-1.09-3.38-3.56-5.37-6.76-6.63-.89-.36-2-.38-2.39-1.67a1.93,1.93,0,0,0-1.14-1.13c-.49-.15-1.11-1-1.69-.06-2.12.17-3.39,1.69-4.66,3.1-1.72,1.9-3.66,3-6.32,2.68-1.58-.18-3.32.65-4.66-.85-2.32.3-4.42-1.19-6.91-.51a15.06,15.06,0,0,0-5.21,2.84.89.89,0,0,0-.36.65c.27,1.84-.76,3-2,4.14-.78.74-.74,1.39,0,2.24.22.26.48.48.93.93m-1.65,0-.16.25C281.76,144.24,281.88,144.23,281.8,144Z"/><path class="cls-1" d="M116.08,366.72a19.13,19.13,0,0,1-4.08-5.24c-1.54-3.34-2.16-6.55-.8-10.13,1.16-3.07,2.19-6.2,4.9-8.23a37,37,0,0,0,4.43-3.67c1-1.07,2-2.1,1.86-3.77a5.92,5.92,0,0,0-1.19-3.86,19.72,19.72,0,0,1-2.78-4.79,13.44,13.44,0,0,1-1.42-5.79,31.14,31.14,0,0,0,0-4.32c-.2-2.18.6-4.1,1.26-6.07.17-.48.54-1.1.37-1.45-.77-1.64-.17-3.34-.35-5a1,1,0,0,1,.19-.72,4.21,4.21,0,0,0,1.15-2.82,9.38,9.38,0,0,1,1.83-4.82c.53-.66.46-1.88.5-2.85.07-1.71-.05-3.43,0-5.14.07-1.23.36-2.45.53-3.67a7.63,7.63,0,0,0,.24-2.15c-.35-2.46.72-5.81,1.29-7.58s1.35-3.69,2-5.53c.33-.88.91-1,1.55-.31.43.48.76,1.06,1.18,1.56s.44.26.59-.25a6.76,6.76,0,0,1,1.41-3.12c.48-.48.76-.21.88.12.78,2.14,2.06,4.12,2.22,6.48a16.63,16.63,0,0,1,.35,3.53,25.54,25.54,0,0,1-3,9.62,2.18,2.18,0,0,0,0,2.58,23.39,23.39,0,0,1,2.19,6.68,4.92,4.92,0,0,1-.25,2.53,6.53,6.53,0,0,0,.6,4.4c.7,1.7,1.28,3.45,1.89,5.18a2.74,2.74,0,0,1,.26,1.32c-.38,1.88-.49,3.95-1.39,5.57a6.7,6.7,0,0,0-.25,5.82,3.38,3.38,0,0,1,0,1.23c-.21,2.68.42,5.4-.37,8.07-.12.39.28.95.49,1.41.81,1.79,1.64,3.57,2.47,5.35.08.18.26.33.28.5.16,1.45.24,2.91.43,4.35.37,2.73-1.13,4.86-2.26,7.09a2.57,2.57,0,0,1-1.86,1.4,4.34,4.34,0,0,0-2.19,1.56c-.56.69-.06,1.56.05,2.38.21,1.73.4,3.6-1,5.11-.32.35-.3,1-.62,1.37-.73.79-.32,1.27.25,1.87a19.82,19.82,0,0,1,4.62,6.31c1.73,4.37,2.29,8.77-.81,12.95a14.48,14.48,0,0,0-2,4.71,24.38,24.38,0,0,1-2.08,4.27c-.51,1-1.05,1.9-1.6,2.84a2.78,2.78,0,0,0,.2,3.62c1.38,1.89,2.91,4,3,6.52a4.32,4.32,0,0,1-1.06,3.35c-1.45,1.38-3,2.65-4.52,4-.3.25-.65.45-.93.72-1.66,1.56-1.44,1.52-1,3.83a15.44,15.44,0,0,1,.15,6c-.35,1.6.12,3.13-.29,4.66a19.6,19.6,0,0,0-.41,2.29,1.34,1.34,0,0,0,0,.8c1.55,2.63,1.1,5.53,1.18,8.36,0,.8-.26,1.29-1.15,1.27-.26,0-.63,0-.77.1-1.11,1.18-2.67.39-4,.94-1.56.63-3.95-1.53-4.38-3.3a31,31,0,0,1-.85-6.65,11.35,11.35,0,0,0-.8-3.56,60.25,60.25,0,0,0-2.91-7.43,9.45,9.45,0,0,1,.06-9.07,13,13,0,0,1,2.78-4c2.17-1.88,3-4.32,3.79-6.89,0-.19,0-.42,0-.62a3.71,3.71,0,0,0-.77-3.73,9.53,9.53,0,0,1-1.71-4.85c-.06-.56-.36-1.11-.39-1.68a13.22,13.22,0,0,1,3.41-10.08,11,11,0,0,1,2.1-1.36c.6-.39,1.16-.83,1.76-1.22s1-.71.41-1.67a9.86,9.86,0,0,1-2-4.53c-.13-1.5-1.71-1.94-2.93-2.75m15.33-50.1a2.12,2.12,0,0,0-.39.65,2.3,2.3,0,0,0,.14.75,3.11,3.11,0,0,0,.28-.62c.09-.32.12-.66,0-.78m-7.2.62c0-.28,0-.55,0-.82a1.15,1.15,0,0,0-.37,0,.77.77,0,0,0,.39.82m-10.49,32.3.4-.41-.64-.18c0,.26,0,.53.24.59m17.69-24.69-.11-.52a1.19,1.19,0,0,0-.25.07c0,.22.1.44.36.45m.82,4.94-.41.2c.14.07.28.14.41-.2m-2.88-46.09-.24-.16c0,.12,0,.24.24.16m-.41,14.4.25.17c0-.13,0-.25-.25-.17m0,47.73-.25-.16c0,.12,0,.25.25.16m-8,24.49.16-.25c-.12,0-.24,0-.16.25m-1.65,67.48.17-.25C119.31,437.56,119.19,437.58,119.27,437.8Z"/><path class="cls-1" d="M6.63,144.94A19.48,19.48,0,0,1,9,146.51a13.24,13.24,0,0,1,3.58,6.13c.59,2.06,0,3.92-.16,5.85-.08.9-1,1.74-1.58,2.61-1,1.55-1,1.68.11,3,1.45,1.78,2.82,3.63,4.23,5.44a12.79,12.79,0,0,1,2.19,6.28,7,7,0,0,1-.36,4.54c-.61,1.13-1.31,2.2-2,3.3a12.93,12.93,0,0,1-1.32,2.11c-1.89,2-.94,3.94.35,5.64,1.84,2.43,2.62,5.24,3.33,8.09.15.56-.22,1.25-.37,1.87-.41,1.75-.8,3.51-1.25,5.25a2.55,2.55,0,0,1-.62,1.17,4.06,4.06,0,0,0-.86,4.06c.06.31.29.63.25.91-.46,2.95,1.6,4.16,3.68,5.3a7.14,7.14,0,0,1,2.53,2.07,7.34,7.34,0,0,1,1.16,4.24,18.68,18.68,0,0,1-.25,5,4.7,4.7,0,0,0,1.06,3.18,24.65,24.65,0,0,1,2,3.29,5.8,5.8,0,0,0,1.54,1.59c.64.56,1.37,1,2,1.61,1.08,1,2.25,1.29,3.35.39,2-1.6,4.35-1.84,6.63-2.36a27.31,27.31,0,0,1,5-.44c.91,0,1.36-.32,1.38-1.29a6.32,6.32,0,0,1,.4-1.68c.73-2.16,1.33-4.39,2.26-6.46a28.31,28.31,0,0,1,7.37-9.92c1.27-1.11,1.21-1.19.51-2.82-.28-.66-.47-4.22-.8-5.14-.86-2.39.18-4.87-.62-7.3a4.2,4.2,0,0,1,1.32-4.55,28.55,28.55,0,0,0,3.51-4.29,2,2,0,0,0,.36-1.63c-.65-1.39-1.53-2.66-2.27-4-.37-.67-.65-1.38-.95-2.08a35.33,35.33,0,0,1-1.61-4.06c-.54-1.92-.72-3.94-1.3-5.84-1-3.36.35-6.43.94-9.59a15.19,15.19,0,0,1,1.71-5.46c.08-.12-.06-.38-.07-.57,0-1.05-.31-2.09.32-3.1.76-1.23.36-2.48-.13-3.71a16.33,16.33,0,0,1-1.11-5.71c-.06-2.42-.22-4.83-.41-7.24-.07-.91-.72-1.67-.64-2.71a5.1,5.1,0,0,1,.11-1.84,13.55,13.55,0,0,0,.54-3.27,8.35,8.35,0,0,1,0-1.23,5.19,5.19,0,0,1,.87-2.08,2.16,2.16,0,0,1,1.7-.23c3,.62,6.16,1.11,8.35,3.69a1.77,1.77,0,0,1,.39,1.72c-.31,1.92-.58,3.89.48,5.82a9.18,9.18,0,0,1,.59,7.06,22.77,22.77,0,0,0-.44,4.54,1.76,1.76,0,0,0,.3,1.1,7.5,7.5,0,0,1,.87,7.29A30.46,30.46,0,0,0,66,165.3a7.89,7.89,0,0,1-2,4.36,3.6,3.6,0,0,0-.91,2.26,18.77,18.77,0,0,0,.53,4.91,10.64,10.64,0,0,0,4.39,5.85,3.94,3.94,0,0,1,2,3.8,2.41,2.41,0,0,0,.56,2.05c.33.38.19,1.4-.05,2a23.76,23.76,0,0,1-1.78,3.57A10.68,10.68,0,0,1,67.32,196c-1,1-2,2-3,3.06a1.48,1.48,0,0,0-.35,1.25c.65,1.79,1,3.72,2.1,5.29a5.2,5.2,0,0,1,.86,1.71c.3,1,.8,1.87,1.13,2.82a3.36,3.36,0,0,1,.35,1.88c-1,2.81-1.81,5.63-4.18,7.76a46.56,46.56,0,0,0-4,4.88,24.5,24.5,0,0,1-1.81,1.71,33,33,0,0,0-2.56,2.6c-.18.21.1.82.2,1.23.23.83,1,1.59.13,2.55-.24.27-.12.93,0,1.4.23,1.33.57,2.64.79,4a3.08,3.08,0,0,1-1.16,3.23A11.71,11.71,0,0,1,48.85,244a22.93,22.93,0,0,1-8.27-1.43c-1.19-.38-2-.38-2.83.62a2.94,2.94,0,0,1-2.59,1.25,5.27,5.27,0,0,0-2.71.82,6,6,0,0,1-5.47.3,22.43,22.43,0,0,1-5.74-2.52,18.8,18.8,0,0,0-3.32-2.41,12,12,0,0,1-3.13-2.38A7.67,7.67,0,0,1,12.53,233a35.18,35.18,0,0,0-1.81-8.92c-1.11-2.83-2.72-5.33-3.92-8.05-1-2.34-1.94-4.86-.89-7.52.75-1.89,1.41-3.81,2.26-5.65a5.31,5.31,0,0,0,.17-3.26C8,197.82,8,196,6.81,194.29c-2.26-3.35-2.58-7.32-2-11.22.23-1.68,1.39-3.24,2.13-4.85a7,7,0,0,1,.68-1.37c1.76-2.33,1.15-4.43-.32-6.68a59.24,59.24,0,0,1-3.38-6.41,7.72,7.72,0,0,1-.24-4.89,8.67,8.67,0,0,1,2.29-4.41c1-1.05.42-3.73-1-4.59A10.85,10.85,0,0,1,.1,142.45a7.74,7.74,0,0,1,.9-4.68c1-2.14,3-3.3,4.87-4.37A5.56,5.56,0,0,0,8,131.55a2.75,2.75,0,0,1,1.33-1.08c.72-.21.94.41,1.19,1,.31.79,1.13.54,1.79.59.22,0,.94,0,.33.4-1.3.89-.11,1.93-.28,2.88-.26,1.5,0,2.89-1.76,3.86a24.14,24.14,0,0,0-4.09,3.58c-1,.95-1,1,.12,2.13m55,3.19a.83.83,0,0,1-.41.41.82.82,0,0,1-.42.41l0,.38a.85.85,0,0,1,.45-.38.7.7,0,0,1,.41-.41.73.73,0,0,1,.41-.41l0-.39a.86.86,0,0,1-.44.39m-9.06,73.24A.79.79,0,0,1,53,221l0-.38a.81.81,0,0,1-.45.38.73.73,0,0,1-.41.42l0,.38a.81.81,0,0,1,.44-.38m-37.44-3.3,0-.38a.81.81,0,0,1-.44.38l0,.39a.86.86,0,0,1,.44-.39m46.91-16,0-.38a.9.9,0,0,1-.44.38l0,.38a.78.78,0,0,1,.44-.38M7.77,180.22l.55-.68a2.82,2.82,0,0,0-.3-.14,2.55,2.55,0,0,1-.67.82l0,.38a.85.85,0,0,1,.45-.38m55.34,14.61.38,0a.81.81,0,0,1-.38-.45c-.16-.2-.3-.42-.47-.6,0,0-.2.09-.31.15.15.18.29.37.45.53s.22.09.33.34M13.53,176.52c-.28.13-.56.28-.84.4a3.47,3.47,0,0,1-.55.16c.2.08.39.24.59.24.45,0,1.1.09,1.31-.15a12.46,12.46,0,0,0,1.32-2.27c0-.08-.14-.38-.26-.42a.58.58,0,0,0-.51.17c-.32.54-.58,1.1-1.06,1.87m46.08-29.63c-.52.73-1.67,1.06-1.43,2.25a2.79,2.79,0,0,0,.3.63,2.1,2.1,0,0,0,.5-.43,10.92,10.92,0,0,0,.87-1.47.81.81,0,0,0-.24-1m3.09,22.43a12.38,12.38,0,0,0,1.14-2.53c.06-.22,1-.62.12-.93,0,0-.26.56-.45.83s-.63.57-.71.91c-.13.63-1,1.16-.1,1.72m-.83-28.81a6.87,6.87,0,0,0,1.1-.3c.1,0,.12-.35.11-.53s-.26-.21-.3-.18c-.45.34-1.18.2-1.41,1-.15.51-.55.92-.11,1.4a2.77,2.77,0,0,0,.82.43c-.1-.24-.14-.56-.32-.7-.46-.36-.09-.52.11-1.15M8.38,165.61c0,.07,0,.15,0,.2s.18.23.27.34a1.78,1.78,0,0,0-1.26-2.37,3,3,0,0,0-1,.23c.25.19.56.59.76.54.81-.2.81.45,1.25,1.06M9,183.1a14.7,14.7,0,0,0,.59-1.81c0-.15-.34-.39-.52-.59-.09.19-.29.4-.26.56.16.74-.32,1.13-.75,1.55a2.39,2.39,0,0,0,.94.29M63.52,215l-.15-.15c-.94-1.23-1.95.39-2.92-.05,0,0-.1.17-.16.26l2.2.14a2,2,0,0,0,1-.2m-52-36.42a.47.47,0,0,0,.14-.14s0-.13,0-.13c-.47,0-1-.92-1.37-.08a3.78,3.78,0,0,0-.1,1.48l1-.78a4.61,4.61,0,0,0,.35-.35M62.9,205.32c-.07.58-.16,1.16-.19,1.74a2.54,2.54,0,0,0,.19.73l.62-.76c-.9-.63.18-1.38-.14-2a2.36,2.36,0,0,0-.48.33M10,184.13l.14.55L12,183.8a.88.88,0,0,0-.1-.27,8.72,8.72,0,0,0-1.86.6m-.62,7.61c.44.27.86.58,1.31.8.12.06.35-.11.53-.17-.33-.34-.61-.86-1-1s-1.05-.53-.83.33m3.7-22.63a7.1,7.1,0,0,0-1.5-.24,3.94,3.94,0,0,0-1.12.39,3.08,3.08,0,0,0,.8.25c.73,0,1.47,0,2.21,0,0,0,0-.25-.39-.39M6.33,157.38c.3-.57,1-1,.66-1.8l-1.27,1.59a1.51,1.51,0,0,0-.15.28,1,1,0,0,0,.76-.07m38.26,83.53c.6-.44.51-.87-.05-1.25,0,0-.32.17-.34.3-.09.4-1.19,1,.39.95M58,210.26l-.54.13c0,.09.08.25.15.27a15,15,0,0,0,1.49.27,9.91,9.91,0,0,0,1.09,0,4.42,4.42,0,0,0-.83-.55,5.15,5.15,0,0,0-1.36-.14M3,143c.14-.56.3-1.11.4-1.67a1.3,1.3,0,0,0-.15-.55c-.14.12-.41.23-.41.35A4.42,4.42,0,0,0,3,143m58.23-8-1,.14a2.2,2.2,0,0,0,.79.25,5.33,5.33,0,0,0,1.3-.3c.1,0,.13-.28.19-.42a1,1,0,0,0-.37-.07,2.37,2.37,0,0,0-.94.4m-10.5,93.19-.49-.61c-.11.54-.24,1.09-.31,1.64,0,.1.16.23.25.35a1.24,1.24,0,0,0,.28-.28,3.35,3.35,0,0,0,.27-1.1M10.65,176.1l-.21.53c.12.05.31.17.35.13a4.66,4.66,0,0,0,.85-.87c.07-.1-.17-.4-.27-.61-.17.21-.35.41-.72.82M58,182.28c-.06,0-.15,0-.19,0-.26.22-.51.46-.76.69.25,0,.59.21.73.11.34-.27,1-.15,1-.8H58m-9.67,45.46c-.13.35-.29.68-.39,1,0,.09.18.34.26.33a.74.74,0,0,0,.13-1.36M8.79,135.58c-.19-.19-.5-.57-.54-.54a9.37,9.37,0,0,0-1,.87c.11.09.24.29.32.27a4.81,4.81,0,0,0,1.24-.6m3.71,75.29-1.22,0a4.57,4.57,0,0,0,1,.58,2.77,2.77,0,0,0,1-.1c0-.1-.06-.25-.13-.28a1.51,1.51,0,0,1-.61-.22m35.38,25.51c.13-.28.27-.56.38-.85,0,0-.28-.19-.31-.16-.31.28-.6.59-.89.9a1,1,0,0,0,.82.11M10.44,189.07l-.81.42a3.31,3.31,0,0,0,1.23-.08c.18-.09.15-.61.22-.94-.15.13-.29.26-.64.6m1-3.09-1,.27c.12.19.22.51.36.53.41.05,1,.19.67-.8m1-18.31c-.46-.34-.92-.69-1.4-1a1.52,1.52,0,0,0-.21.24,3.85,3.85,0,0,0,1.61.78m-2.27-33.95.56-.14A1.52,1.52,0,0,0,9,133a.33.33,0,0,0,0,.27,1.36,1.36,0,0,0,.36.09,3.29,3.29,0,0,1,.94.41m-6,3.09.4-.84a5.17,5.17,0,0,0-.71.34,2.92,2.92,0,0,0-.44.42.84.84,0,0,0,.75.08M59.4,155.74l-.7-.53-.12.94a.81.81,0,0,0,.82-.41M9.82,154.3l-.8-.41-.23.47a3.81,3.81,0,0,0,.75.33c.14,0,.32-.12.28-.39m-.61-1.85a4.26,4.26,0,0,0,.43.42c.22.18.47.33.71.49a5.23,5.23,0,0,0-.41-1c-.07-.12-.35-.1-.73.06M12.7,193c-.07.18-.24.44-.18.5s.46.36.56.3a2.86,2.86,0,0,0,.58-.66,4.66,4.66,0,0,0-1-.14M48.91,233.3l-.93.11a1.84,1.84,0,0,0,.67.28,3.59,3.59,0,0,0,.88-.2.6.6,0,0,0-.62-.19m-14,6.58a.62.62,0,0,0,.14-.14s0-.13,0-.13a9.39,9.39,0,0,0-1.06,0s-.06.33-.09.5a2.16,2.16,0,0,0,1-.22m-22-65.22c-.09.19-.26.39-.24.56s.27.41.39.4c.44,0,.36-.79-.15-1m48.55,16.05a.92.92,0,0,0-.14-.14.14.14,0,0,0-.14,0c-.45.62.24.77.46,1.12l.58-.65a2.27,2.27,0,0,1-.76-.35m-48.55,5.76a7.4,7.4,0,0,0-.82,0,2.16,2.16,0,0,0,0,.36.77.77,0,0,0,.82-.39m46.7-32.3c0-.27,0-.55,0-.82h-.37a.77.77,0,0,0,.39.82m-4.53,55.55c.13,0,.31.05.38,0s0-.25,0-.38l-1,.21a.55.55,0,0,0,.61.18M9.41,160.47a8.35,8.35,0,0,0-.63-.81s-.21.07-.32.12a1.87,1.87,0,0,0,.95.69m51,57.19-.92.11.87.66a.9.9,0,0,0,0-.77m-52-32.3L8,185.8l1.11.08a1,1,0,0,0-.72-.52m.83,2.88c-.56-.55-.81,0-1.13.32,0,0,.05.18.08.28a6.06,6.06,0,0,0,1.05-.6m2.46-7.81c.28-.21.56-.41.82-.63,0,0-.08-.22-.12-.33a1.86,1.86,0,0,0-.7,1m44.44,18.92c.13-.14.38-.41.37-.41-.56-.56-.77.09-1.11.33a.82.82,0,0,0,.74.08M58,139.07l-.61.48.35.35a1,1,0,0,0,.26-.83M5.5,140.51a.66.66,0,0,0,.15.14.18.18,0,0,0,.13,0,11.11,11.11,0,0,0,.12-1.16c0-.11-.17-.22-.27-.33a4.88,4.88,0,0,0-.12.55,7.48,7.48,0,0,0,0,.81m53.08,65.84c-.27,0-.55,0-.82,0a2.29,2.29,0,0,0,0,.37.77.77,0,0,0,.82-.39m-51-14,.67.56c0-.1.17-.28.14-.3a.85.85,0,0,0-.81-.26m23.45,49,.82-.42a.83.83,0,0,0-.82.42m25.93-99.16-.12-.52-.61.61a1,1,0,0,0,.73-.09M12.29,204.08l0-.79-.64.19.61.6m8,29a8.63,8.63,0,0,0,.88.2c.1,0,.21-.11.32-.16a1.58,1.58,0,0,0-.42-.23,1.13,1.13,0,0,0-.78.19m30.44-1.23-.11-.53L50,232a1,1,0,0,0,.73-.09M5.5,148.74c.3.07.59.16.89.2.09,0,.21-.11.31-.16a1.53,1.53,0,0,0-.41-.23,1.16,1.16,0,0,0-.79.19m54.32,46.5.4-.4-.64-.19c0,.27,0,.53.24.59M10.44,150.8l-.4.4.64.19c0-.27,0-.53-.24-.59m53.9,2.47a6.62,6.62,0,0,0,.47.61s.2-.1.3-.15a1,1,0,0,0-.77-.46m-51,28.8-.11-.52-.62.62a1,1,0,0,0,.73-.1m44.23,42.59a6.8,6.8,0,0,0-.6.46s.09.2.14.31a1,1,0,0,0,.46-.77m-6.79.2-.79,0,.18.64.61-.61m7.82-64.6a.92.92,0,0,0,.14.14.2.2,0,0,0,.14,0c0-.31.1-.63.12-.94,0,0-.17-.1-.27-.14a6,6,0,0,0-.13.95M59,197.71a1.6,1.6,0,0,0,0,.38,6.37,6.37,0,0,0,.23.61,1.44,1.44,0,0,0,.16-.51c0-.23-.12-.46-.4-.48M8.79,163.14l-.1-.52-.26.07c0,.22.1.44.36.45m11.32,58.64c-.06.22-.12.43-.16.65l.26.07a1,1,0,0,0-.1-.72m-4.12.41.21.41c.07-.14.14-.27-.21-.41M8,166.85l.11.52.25-.07c0-.22-.1-.44-.36-.45m.21-6-.52.11a1.19,1.19,0,0,0,.07.25c.22,0,.43-.1.45-.36M59.61,222.6l-.21-.41c-.06.14-.13.27.21.41m-2.88-4.94.52-.11a1.78,1.78,0,0,0-.07-.25c-.22,0-.44.1-.45.36m-46.29-1.44-.11-.52-.25.07c0,.22.1.44.36.45m9.88,9.47-.11-.52a1.65,1.65,0,0,0-.26.07c0,.22.1.43.37.45M3,145.45l-.65-.16a1.65,1.65,0,0,0-.07.26,1,1,0,0,0,.72-.1m58.43,25.1c.22.06.44.12.66.16,0,0,0-.17.07-.26a1,1,0,0,0-.73.1M64.75,143l.11.52.26-.07c-.05-.22-.1-.44-.37-.45m-58-8.23-.41.21c.13.07.27.14.41-.21m6.17,79.42.11.52.25-.07c0-.23-.1-.44-.36-.45m44.85-80.65.65.16a1.65,1.65,0,0,0,.07-.26,1,1,0,0,0-.72.1M10.23,212.31c-.05.22-.11.44-.15.66a1.19,1.19,0,0,0,.25.07,1,1,0,0,0-.1-.73m3.09-3.49-.11-.52-.25.07c0,.22.1.43.36.45m51.84-15.64-.65-.16a1.65,1.65,0,0,0-.07.26,1,1,0,0,0,.72-.1m-52.87,6.38c.06-.22.12-.44.16-.66l-.26-.07a1,1,0,0,0,.1.73m2.47-2.88c-.06.22-.12.43-.16.65l.26.07a1,1,0,0,0-.1-.72m47.11,1,.41-.21c-.13-.07-.27-.14-.41.21m-5.35-.41.11.52.26-.07c0-.23-.1-.44-.37-.45M10,194.83l.25.16c0-.12,0-.25-.25-.16m52.67-2.06.24.16c0-.12,0-.24-.24-.16m2.88-1.65-.25-.16c0,.12,0,.25.25.16m-4.53-2.05-.25-.17c0,.12,0,.25.25.17m-2.47,11.52.25.16c0-.12,0-.25-.25-.16m-1.23-16.05-.25-.16c0,.12,0,.24.25.16m-44,20.16.25.17c0-.13,0-.25-.25-.17m47.11-20.37.17-.24c-.13,0-.25,0-.17.24M10.85,205.94l-.25-.17c0,.12,0,.25.25.17M6.94,181.87l.17-.25c-.13,0-.25,0-.17.25m2.47,26.74.17-.25c-.13,0-.25,0-.17.25m3.5-29.83-.25-.17c0,.13,0,.25.25.17M60,176.52l-.16.24c.12,0,.24,0,.16-.24m-49.58-3.09.25.16c0-.12,0-.24-.25-.16m45.67-3.7.25.16c0-.12,0-.25-.25-.16m-42,47.32-.24-.17c0,.12,0,.25.24.17m44-49.38-.25-.16c0,.12,0,.24.25.16M16.82,218.9l.16-.25c-.12,0-.24,0-.16.25m43,.61.24.17c0-.12,0-.25-.24-.17m-1.65.83-.25-.17c0,.13,0,.25.25.17m6.58-56.78.25.16c0-.12,0-.25-.25-.16m-53.69,57-.17.25c.13,0,.25,0,.17-.25m50.81.21-.24-.17c0,.13,0,.25.24.17M6.94,162.53l.17-.25c-.13,0-.25,0-.17.25m59.05-6-.25-.16c0,.12,0,.24.25.16M8.79,150l-.24-.17c0,.13,0,.25.24.17m42,76.53-.24-.17c0,.13,0,.25.24.17M9,148.54l-.16.24c.12,0,.24,0,.16-.24m5.76,80.23-.16.25c.12,0,.24,0,.16-.25m48.35-81.26-.25-.17c0,.13,0,.25.25.17M18.05,231.65l-.16.25c.12,0,.24,0,.16-.25m45.26-86.82.17-.24c-.13,0-.25,0-.17.24M52,233.09l.24.17c0-.13,0-.25-.24-.17M4.27,144.22,4,144.05c0,.13,0,.25.25.17m58.84-.42.24.17c0-.12,0-.25-.24-.17m-2.06-.41.25.17c0-.13,0-.25-.25-.17M39.65,238l.25.16c0-.12,0-.24-.25-.16m7.82.82.25.17c0-.13,0-.25-.25-.17M15.58,177.34l-.16.25C15.54,177.57,15.67,177.56,15.58,177.34Z"/><path class="cls-1" d="M398.45,199.56a14.56,14.56,0,0,1,.17,8.83,13.61,13.61,0,0,1-4,6.79,14.68,14.68,0,0,0-1.88,2.51c-.1.15.08.49.13.74.15-.11.3-.21.44-.33a4.47,4.47,0,0,1,.44-.43,3.38,3.38,0,0,1,.58-.25,2,2,0,0,1-.08.55c-.64,1.31-1.05,2.84-2,3.86s-.56,1.94-.15,2.76c1.51,3.06.49,5.83-1.25,8.19-1.46,2-3.58,3.47-5.44,5.13a1.59,1.59,0,0,1-1.09.3,10.7,10.7,0,0,1-2.9-.43c-1-.36-1.86-1.15-2.86-1.53-1.34-.51-1.46-1.51-1.48-2.68a1.31,1.31,0,0,0-.24-.71c-1.23-1.81-.15-3.15.88-4.51.63-.84,1.21-1.7,1.85-2.52a6.78,6.78,0,0,1,.84-.76c1.82-1.74,3.4-3.6,3.27-6.35a11.85,11.85,0,0,1,1.26-6.47,10.33,10.33,0,0,1,1.94-2.47,2.61,2.61,0,0,0,.93-2.32c-.08-.88,0-1.78,0-2.67a3.66,3.66,0,0,1,1.11-2.64A4.75,4.75,0,0,0,390,197.5a12.55,12.55,0,0,1-1.09-4.51,11.55,11.55,0,0,1,.62-3.26c.38-1.18.38-1.14-.74-1.3a8,8,0,0,1-1.83-.55c-1-.4-2-.86-2.95-1.3a11.8,11.8,0,0,1-5.61-5.63c-.35-.66.52-1.84,1.05-1.52,1.77,1.06,3.87.54,5.63,1.32.94.42,1,.31,1.05-.55,0-.17.87-.49,1.1-.35a3,3,0,0,0,2.77,0c.82-.3,1.65-.88,2.57-.06.14.12.95,0,.64-.91a40.78,40.78,0,0,1-1.87-6.82,48.31,48.31,0,0,1-.15-6.6c0-.24.22-.48.22-.72,0-3.42,1.83-6,4-8.43a9.77,9.77,0,0,1,1.17-1.15,2.63,2.63,0,0,0,1-2.46c-.1-1.64.11-3.3,0-4.93-.29-2.86,1.1-5.14,2.35-7.48.51-1,1.26-1.8,1.77-2.76s1.12-1.86.19-3.1c-.71-.94-.22-1.49,1-1.51s2.37-.11,3.38.8c.3.27.8.83,1.34.12.06-.07.62.09.81.28,2,2,4.2,4,6.07,6.14a18.63,18.63,0,0,1,2.08,4,56.17,56.17,0,0,1,3.27,6.87,15.91,15.91,0,0,1,.48,7.54,5.17,5.17,0,0,0,1.36,4.74c2.1,1.91,4.11,3.91,5.17,6.68A1.46,1.46,0,0,0,429,171a4.85,4.85,0,0,1,3.14.42,30.6,30.6,0,0,1,3.69,2c2.31,1.29,3.28,3.1,2.56,5.8a11.79,11.79,0,0,1-.86,2.94c-.68,1.21-.79,1.26-1.89.53a4.52,4.52,0,0,0-1-.57,5.33,5.33,0,0,1-2.72-2.3c-.7-1.08-1.25-1.18-1.73-.13-.31.7-.66.56-1,.54-1.31-.06-1.75.55-2.43,1.73-1.44,2.51-.55,4.4,1.08,5.94,2,1.86,1.72,4.08,1.36,6.16a34,34,0,0,0-.72,4.84,9.22,9.22,0,0,1-.66,2.8c-.53,1.45-1.2,2.86.21,4.19.23,2.33,1.92,4.15,2.21,6.51.17,1.39,1.17,2.65,1.69,4a5,5,0,0,1,.24,1.93c0,.63-.35,1.26-.34,1.89a11.36,11.36,0,0,1-.83,5c-.8,1.79-.53,3.74-.33,5.57.11,1,1.15,2,1.77,2.94a9.53,9.53,0,0,1,.72,1.14,1.63,1.63,0,0,1-1.54,2.51,8,8,0,0,1-2.74-.81,9.66,9.66,0,0,1-5.71-9c0-1.1-.06-2.2,0-3.29a11.12,11.12,0,0,1,.48-3.91,4.93,4.93,0,0,0-.17-4.18,37.49,37.49,0,0,0-3.8-7.7,7,7,0,0,1-1-3.86c0-1.93-.39-3.87.28-5.82.21-.62-.42-1.55-.72-2.32a6.45,6.45,0,0,1-.21-4,25.13,25.13,0,0,0,.56-4.91c.05-1-.51-1.37-1.55-1-2.2.72-4-.19-5.86-1.22-.17-.1-.28-.32-.44-.43-.56-.37-1.09-.12-1.16.6s0,1.35-.95.59c-.11-.09-3.6-.17-3.75-.14-1.7.31-2.36.7-2.24,2.22a3.82,3.82,0,0,1-2.3,4,8,8,0,0,0-1.32,1.28c-.66.59-.87,1.17-.11,1.85.49.44.65.67-.23,1.05s-.87,1.51-.22,3.22m15.43-21.4,0,.38a.9.9,0,0,1,.44-.38l0-.38a.81.81,0,0,1-.44.38m.62-12.55c-1.86-1.81-3.12-3.89-2.87-6.61.05-.56.32-1.11.39-1.68.51-4.29-.8-8.32-1.78-12.4a1.19,1.19,0,0,0-1.94-.68c-1.2.84-2.51,3.68-2,4.9,1.32,3.16.91,6.51,1.12,9.77a6.09,6.09,0,0,1-2.62,5.62,45.46,45.46,0,0,0-4.37,3.68c-.54.47-1.24,1.49-1.07,1.93.47,1.16-.36,2.14-.09,3.19.41,1.54.77,3.1,1.28,4.61a.75.75,0,0,0,1.26.42,5.5,5.5,0,0,1,3.64-.6,3.91,3.91,0,0,0,2.88-1,7.79,7.79,0,0,1,4.55-1.94,8.33,8.33,0,0,0,4.66-1.59c.66-.52.94-1,.32-1.83a45.61,45.61,0,0,1-3.36-5.79m-4.12,11.93-.24-.16C410.15,177.5,410.16,177.63,410.38,177.54Z"/><path class="cls-1" d="M224.92,225.79a33,33,0,0,1-1-7.58,15.94,15.94,0,0,1,1-5.77,3.5,3.5,0,0,0-.19-3.19,23,23,0,0,1-2.75-7.49c-.37-1.78,0-3.74.25-5.61a16.11,16.11,0,0,1,1.27-5.43,8.52,8.52,0,0,0,.88-4.38,4.18,4.18,0,0,0-.91-2.31,18.21,18.21,0,0,1-2.9-5.79,8.07,8.07,0,0,1,.4-5.11c.5-1.37,1-2.73,1.6-4.07A5.18,5.18,0,0,0,221,162.6a8.45,8.45,0,0,1-3.12-5.87c-.13-.8.21-1.74-.08-2.44s.15-1.43.1-2.16a6.53,6.53,0,0,1,.39-2.29,18.05,18.05,0,0,1,.92-2.69c.58-1.17-.06-1.72-.47-2.45a37.26,37.26,0,0,1-2.09-3.45,8.82,8.82,0,0,1,.93-8.16,16.4,16.4,0,0,1,4-4.06c1.91-1.52,2.5-1.55,4.43,0a3.8,3.8,0,0,0,2.86.53c.33,0,.7-.62.95-1,.89-1.36,1.38-3,2.78-4a26,26,0,0,1,2.26-1.5,2,2,0,0,1,2.83.26q2,1.64,4,3.2c1,.73,1.78-.13,2.49-.48a36,36,0,0,0,3.18-2.25c1.13-.73,2.36-1.28,3.49-2,.48-.3.68-.21,1.07.13,1.35,1.16,2.86,2.15,4.13,3.39a45.68,45.68,0,0,1,4.14,4.65c.84,1.08.61,1.62-.65,2.62a3,3,0,0,0-.44.43c-1.22,1.47-1.21,1.47-2.57.13s-1.38-1.3-3.41-.38c-1.83.84-3.37,2.11-5.09,3.09-2.54,1.43-5.14,1.9-7.81.35a5,5,0,0,1-1-.81c-.27-.28-.44-.66-.74-.92-1.14-1-1.47-1-2.38.18a8.48,8.48,0,0,0-1.38,2.91A4.5,4.5,0,0,1,229,141c-1.2-.4-2.55-.35-3.57-1.38-.39-.39-1.24-.21-1.79.41s-.79,1.06-.12,1.72c.21.21.23.73.45.81,2.11.75,2.41,2.79,3.11,4.46a10.09,10.09,0,0,1,1.09,4.1,7.37,7.37,0,0,1-1.43,4.8c-.94,1.2-.94,1.63.08,2.65a9.91,9.91,0,0,1,1.94,3.12,6.48,6.48,0,0,0,2.18,2.48,7.08,7.08,0,0,1,2,9.85,4.57,4.57,0,0,0-.44.85c-.18.43.15.86.53.67,2.85-1.38,5.14.45,7.55,1.36a3.15,3.15,0,0,0,3.26-.15,7.84,7.84,0,0,1,2-.62,18.1,18.1,0,0,0,1.76-.73,10,10,0,0,1,5.62-1.29c1.08.15,2.09.6,3.05-.33.1-.1.65.06.8.24a14.44,14.44,0,0,1,2.14,3,3.3,3.3,0,0,1-.25,2.39,5.35,5.35,0,0,1-1.65,1.63,2.15,2.15,0,0,1-2.41.22,1.6,1.6,0,0,0-2.25.61c-.77,1-1.48,2.14-2.29,3.15a8.39,8.39,0,0,1-1.78,1.69c-.67.45-1.49.86-2.28.1-3.07.34-5.36-1.58-7.92-2.72-.57-.25-1.38-.69-1.78-.48a6.66,6.66,0,0,0-1.83,1.87c-.13.16.05.64.18.92a6.85,6.85,0,0,1,.23,5.35,12.41,12.41,0,0,0-.86,5.2c.34,2.76-.84,5.26-1.34,7.88-.08.41-.29.93-.13,1.24.7,1.36,1.48,2.69,2.3,4,1.53,2.42,2.69,5.38.28,8.85-.6.88-1.79,1.89-.72,3.29.11.15-.06.68-.26.88-1.8,1.83-1.17,3.86-.52,5.89.17.53.64,1,.79,1.52.5,1.85.84,2,2.72,1.19a10,10,0,0,1,4.39-.86,5.93,5.93,0,0,1,3.57.85,1.48,1.48,0,0,0,2.23-.29,14.58,14.58,0,0,1,5.57-3.38,10.86,10.86,0,0,1,8.69.17,2.47,2.47,0,0,0,2.24.2,1.73,1.73,0,0,0,.63-.5c.26-.36.38-1,.69-1.09a12.78,12.78,0,0,1,2.7-.43c.19,0,.46.26.61.47.61.91,1.18,1.84,1.78,2.76a3.57,3.57,0,0,1-.36,4.32,7.61,7.61,0,0,1-4.86,2.67,3.58,3.58,0,0,1-2-.46c-1.52-.8-3.3-1-4.68-2.14a1.37,1.37,0,0,0-2,.25c-1.35,1.31-2.73,2.6-4.2,3.77a7.66,7.66,0,0,1-2.38,1.17c-2,.66-4.1,1.27-6.12.67a22.76,22.76,0,0,1-4.92-2.49c-.52-.3-.8-.42-1.16.06a3.18,3.18,0,0,1-3,1.31,5.26,5.26,0,0,1-3.16-.87c-1.4-1.08-2.85-2.12-4.16-3.32a4.22,4.22,0,0,1-1-2c-.55-2.18-1-4.4-1.56-6.7m11.82-101.32-.38,0a.74.74,0,0,1,.38.44l.39,0a.86.86,0,0,1-.39-.44m-9.66,95.66,0-.38a.85.85,0,0,1-.45.38l0,.38a.89.89,0,0,1,.45-.38m-3.3-24.27.17-.66-.27-.06a1.09,1.09,0,0,1-.31.72l0,.38a.81.81,0,0,1,.44-.38m18.73,36.41-.66-.17-.06.27a1.14,1.14,0,0,1,.72.31l.67.26.55.17c-.15-.21-.26-.51-.46-.61s-.51,0-.76-.23M230,200c.36-.13,1,.36,1-.52a5.93,5.93,0,0,0-.07-.59c-.29.21-.6.39-.86.62s-.2.32-.51.49l0,.38A.85.85,0,0,1,230,200m-.62,2.67c-.6.44-.52.89,0,1.25.1.07.48-.08.54-.22.19-.48.78-1.15-.59-1m-6.17-66.24c.36.28.74.42.8-.22,0-.26-.19-.54-.29-.81a2.32,2.32,0,0,0-.51,1m10.08,52.87-.62.5.39.32c.21-.27.43-.54.23-.82m1.64,44.85-.42-.81a.83.83,0,0,0,.42.81m4.32-.62.11.52a1.65,1.65,0,0,0,.26-.07c-.05-.22-.1-.43-.37-.45m-20.16-91.75.66.16s0-.17.07-.26a1,1,0,0,0-.73.1m2.26-1.44c-.05.22-.11.43-.15.65l.25.07a1,1,0,0,0-.1-.72M240.65,179l.52-.11a1.65,1.65,0,0,0-.07-.26c-.22,0-.43.1-.45.37m-14,11.52c.06-.22.12-.44.16-.66l-.25-.07a1,1,0,0,0,.09.73m5.15,8-.25-.17c0,.13,0,.25.25.17m-.41,33.33.24.16c0-.12,0-.24-.24-.16m-2.88-93-.25-.17c0,.13,0,.25.25.17m-5.35-4.94.24.16c0-.12,0-.24-.24-.16m-2.47,0,.24.16c0-.12,0-.24-.24-.16m11.93-3.7-.25-.17C232.4,130.19,232.41,130.31,232.63,130.23Z"/><path class="cls-1" d="M204.75,235.46c-1.41.81-2,2.14-2.8,3.28a8.1,8.1,0,0,1-4.86,3.66,11.36,11.36,0,0,1-6.86-.55c-1.71-.6-3.16-1.66-4.88-2.15a5.33,5.33,0,0,0-4.85.73,8.74,8.74,0,0,1-6.58,1.44c-.93-.1-1.77-1-2.67-1.44a9.06,9.06,0,0,1-4.9-7.17c-.39-2.54-1.1-5-1.59-7.55a2.51,2.51,0,0,0-1.44-1.84c-2.78-1.49-4.78-3.55-5.17-6.85a9.69,9.69,0,0,0-.46-2.07c-.57-1.52,0-2.92.33-4.36.5-2.28,1.46-4.44,1.4-6.85a2.48,2.48,0,0,0-.84-1.93,22.58,22.58,0,0,1-1.66-2c-1.79-2.28-1.35-4.75-.63-7.26a66,66,0,0,1,2.21-7.73,3.69,3.69,0,0,0-.39-2.66c-.69-1.37-1.71-2.58-2.5-3.91-.94-1.58-1.63-3.23-.88-5.16a4.62,4.62,0,0,0,.13-1.79,8.67,8.67,0,0,1,2.81-6.87c1.19-1.15,2.05-2.45,1.71-4.22a4.38,4.38,0,0,0-.46-1.25c-1-1.86-2.31-3.7-2-5.95.31-2,.38-4.12,1.85-5.82.7-.8,1-2,1.66-2.79a31.4,31.4,0,0,1,3.46-3.46,2,2,0,0,0,.76-2.33c-1.07-2.24,0-4.1.92-5.9a11.49,11.49,0,0,1,2.59-3,5.39,5.39,0,0,1,4.62-1.75,7,7,0,0,0,5.32-1.57,14,14,0,0,1,4.23-1.67c1.33-.38,2.54.3,3.7.92a10.05,10.05,0,0,0,1.7.86c.62.19,1.39.05,1.91.36s.74,1.07,1.21,1.5a1.53,1.53,0,0,0,1.23.38,7.89,7.89,0,0,1,7.83,1.73,25.81,25.81,0,0,1,3.54,2.8c1.48,1.74,2.64,3.84,2.31,6.18-.19,1.39-.35,3.11-2.19,3.79-1.37.51-1.85.59-2.81-.41s-2.29-2-2.82-3.56a3.81,3.81,0,0,0-1.57-1.59c-.57-.39-1.19-.94-2-.27-.53.42-1.37.46-1.86.91-1.07,1-2.1.61-3.12.09a9,9,0,0,1-4.28-3.91c-.44-.91-1.1-1-1.69-.66-.91.51-1.58,1.63-2.51,1.86a4.88,4.88,0,0,0-2.77,1.3,3.08,3.08,0,0,1-4,.86c-.11-.06-.33.05-.4,0a1.82,1.82,0,0,0-2.64.19,2.42,2.42,0,0,0,0,3c1,1.22,1,2.51,1.11,3.9a2.63,2.63,0,0,1-1.25,2.58c-1.16.81-2.41,1.49-3.55,2.32a4.64,4.64,0,0,0-1.54,1.61c-.7,1.49-1.21,3.06-1.78,4.61a1.55,1.55,0,0,0,.6,1.67c2.59,2.46,2.69,5.63,2.5,8.83a3.89,3.89,0,0,1-1.06,2.21c-1.59,1.69-2.33,3.86-3.23,5.87a4.65,4.65,0,0,0,1,5.46,12.55,12.55,0,0,1,1.75,2.15,8.17,8.17,0,0,1,1.19,3.63c.37,2.93-1.15,5.3-1.86,7.91a37.69,37.69,0,0,0-1.05,3.88,2.81,2.81,0,0,0,1.24,2.83c1.61,1.29,3.08,2.84,2.87,5.3-.15,1.83.07,3.65-1,5.36a3.13,3.13,0,0,0-.05,3,25.07,25.07,0,0,1,1.4,5.58,2.69,2.69,0,0,0,1.42,2.06,11.16,11.16,0,0,1,1.82,1,5,5,0,0,1,2.05,2.84c.27,1.52,1.06,2.9,1,4.56-.14,2.28,1.55,3.83,3.89,4a15.82,15.82,0,0,0,7.27-1.34c1.9-.81,3.82-1.38,5.76-2a8,8,0,0,0,2.17-1.22,25.83,25.83,0,0,0,2.3-1.88,4,4,0,0,0,1.66-3.24,19.26,19.26,0,0,1,.52-3.05,4.68,4.68,0,0,0,0-2.07c-.69-2-.74-1.93-.19-4.39a3.17,3.17,0,0,0,0-1,2.44,2.44,0,0,1,.88-2.33,2.52,2.52,0,0,0,.77-2.34c-.49-3,1.34-4.89,3.34-6.63a2.2,2.2,0,0,1,3.18,0,69.22,69.22,0,0,1,5.21,5.21c1.05,1.18.9,1.59-.25,2.66-.24.22-.53.38-.79.58a1.06,1.06,0,0,0-.45,1.45c.57,1.56.52,1.62-.17,3.46a1.31,1.31,0,0,0,.15,1.43c1.09,1.66,2,3.32.59,5.35a4.31,4.31,0,0,0-.48,2.44,1.88,1.88,0,0,1-1.21,1.9c-2.83,1.27-3.78,3.58-3.78,6.48a7.87,7.87,0,0,1-.3,1.87M166.8,216.22a1.71,1.71,0,0,0,0-.6c-.15-.41-.36-.8-.55-1.2-.08.41-.2.81-.25,1.22a4.27,4.27,0,0,0,0,1c.08.61.21,1.22.31,1.84,1-.39.28-1.25.51-2.27m-3.91-24.48-.62.5.39.32c.21-.27.43-.55.23-.82m-3.09-11.31.13.54c.1-.05.26-.08.27-.14a7.5,7.5,0,0,0,.14-1,3.87,3.87,0,0,0,0-.48,2.26,2.26,0,0,0-.51,1m.62,19.13.52-.11-.62-.62a1,1,0,0,0,.1.73M166,134.75a1.68,1.68,0,0,0,0,.39c.06.21.15.4.23.61a1.5,1.5,0,0,0,.16-.51.45.45,0,0,0-.4-.49m37.65,100.19a8.63,8.63,0,0,0,.2-.88c0-.1-.11-.21-.16-.32a1.58,1.58,0,0,0-.23.42,1.15,1.15,0,0,0,.19.78m-33.74-.82s-.1.08-.13.14,0,.08,0,.13l.76-.11a.59.59,0,0,0-.62-.16m-8.43-65.63a1.7,1.7,0,0,0,0,.39c.06.21.16.4.24.61a1.76,1.76,0,0,0,.16-.51.47.47,0,0,0-.4-.49m-.62-22.42c-.06.22-.12.43-.16.65l.26.07a1,1,0,0,0-.1-.72m8.23,89.29-.52.1a1.65,1.65,0,0,0,.07.26c.22,0,.44-.1.45-.36m-6.38-51.23.25.16c0-.12,0-.24-.25-.16m2.68,24.48.16-.25c-.12,0-.25,0-.16.25m-6-40.94-.25-.16c0,.12,0,.24.25.16m1.23-.41-.24-.17c0,.13,0,.25.24.17m3.09-21.19.16-.25c-.12,0-.24,0-.16.25M192.31,136l-.25-.17c0,.13,0,.25.25.17m-1.65,99.57.25.17c0-.13,0-.25-.25-.17m11.32.21-.17.24c.12,0,.25,0,.17-.24M170.91,238l-.25-.16c0,.12,0,.24.25.16m-.41-108.21.25.16C170.73,129.86,170.72,129.73,170.5,129.82Z"/><path class="cls-1" d="M365.12,221a14.65,14.65,0,0,1,2,5.54,14.11,14.11,0,0,1-.5,4.28,19.25,19.25,0,0,0-.62,2.4c-.07,2.62-1.92,3.51-3.94,4.23-1.1.39-2.2.82-3.38,0-.33-.22-.94-.06-1.42,0a3.75,3.75,0,0,1-3.5-2.28,8.49,8.49,0,0,1-.51-4.08c0-1.49.72-3,.6-4.43-.16-1.76.5-3.43.2-5.18-.23-1.3-.26-2.63-.49-3.92,0-.09.09-1.41-.92-.74a2.38,2.38,0,0,1-.24-.82,12.51,12.51,0,0,0,.37-2.3,14.07,14.07,0,0,1,1.82-7.48,11.93,11.93,0,0,0,1.05-2.85c.31-1.66-.73-3-1.56-4.25a17.45,17.45,0,0,1-2.07-5.32c-.86-3.07,1.17-5.39,2.36-7.91.11-.24.35-.4.48-.63,1-1.79,1-2.06-.47-3.64a9.22,9.22,0,0,1-2.46-7.31,21.83,21.83,0,0,1,2.61-9c1.27-2.34.94-4.3.1-6.5a25.46,25.46,0,0,1-1.51-4.54,13,13,0,0,1,.79-6.59,21.35,21.35,0,0,1,4.29-7.3c.49-.57.27-1.78.33-2.7,0-.06-.32-.21-.49-.21-2.71,0-5.14-1.58-7.92-1.3-.74.08-1.62-.84-2.32-.7-2.08.41-2.82-.92-3.66-2.31a1.92,1.92,0,0,0-.75-.63,16.58,16.58,0,0,1-6.88-7.87,1.93,1.93,0,0,1-.15-.75c0-.08.29-.26.39-.22,1.53.6,3.06,1.2,4.58,1.84,1.81.77,3.54,1.9,5.42,2.26,1.72.34,3.54.61,5.42-.49a22.53,22.53,0,0,1,9.47-3.43,28.69,28.69,0,0,0,2.91-.41c1.92-.36,3.67.46,5.35,1a4.83,4.83,0,0,0,3.06.25,22.71,22.71,0,0,1,4-.83,36.23,36.23,0,0,1,6.81-.36c2.17.2,4,1.49,5.86,2.71a6.77,6.77,0,0,1,3.15,4.46,3.48,3.48,0,0,1-.89,2.82.74.74,0,0,1-.7.2c-1.66-.8-3.75-.25-5.21-1.9-.91-1-1.67-.76-2.29.55a5.68,5.68,0,0,1-4.92,3.5,8.93,8.93,0,0,1-7-2.31,2.63,2.63,0,0,0-1.8-.67,9.08,9.08,0,0,1-2.12-.33,1.88,1.88,0,0,0-2.33,1.7,29.44,29.44,0,0,0-.36,3.33,11.6,11.6,0,0,0,.65,2.8c.28,1,.74,1.91.93,2.9.4,2-.51,3.65-1.74,5.24-1.38,1.77-2.91,3.48-3.65,5.67a2.15,2.15,0,0,0-.06,1.39c1.11,2.42,2.21,4.85,3.49,7.19a16.33,16.33,0,0,1,1.58,5.1c.06.32.19.61.28.92a2.14,2.14,0,0,1-.76,2.66c-1.71,1.16-2.57,3-3.75,4.59a3.08,3.08,0,0,0,.29,3.32c.57.54,1.24,1,1.85,1.46a15,15,0,0,1,4,5.74,3.27,3.27,0,0,1-.27,2.06,13.12,13.12,0,0,1-2.28,4c-.55.71-1,1.54-.22,2.45.38.46.73,1,0,1.51a1.54,1.54,0,0,0-.35,1.06,4.53,4.53,0,0,0,.22,1.12,6,6,0,0,1,.7-.72.59.59,0,0,1,.53,0,.54.54,0,0,1,.16.52c-.23.4-.74.73-.76,1.11a3,3,0,0,0,.52,2.46,16,16,0,0,1,2.07,3.65,4.94,4.94,0,0,1-1,6,13.44,13.44,0,0,0-3.08,5.3c-.35,1.05.4,2.47.66,3.92m0-25.3-.25-.17C364.89,195.61,364.9,195.73,365.12,195.65Z"/><path class="cls-1" d="M54.06,64.6a10.7,10.7,0,0,0-.4,1.27,31.72,31.72,0,0,0,0,3.9A23.48,23.48,0,0,1,51.75,80.3c-1,2.49-1.77,5-2.87,7.45-.52,1.14-.53,2.49-1.39,3.55-1.21,1.46-2.24,3.08-3.49,4.5-1,1.07-1.11.91-2.31-.06a3.73,3.73,0,0,0-1.94-.66,3,3,0,0,1-2.33-.84,33.33,33.33,0,0,1-2.89-3.74c-1.71-2.83-2.79-6-4.62-8.79a26.54,26.54,0,0,1-2.22-5.44,14.81,14.81,0,0,1-.39-2.11,2.33,2.33,0,0,0-.21-.49c-.07.18-.12.36-.19.54a3.18,3.18,0,0,0-.39,1.06c0,2.51-.91,4.9-1.13,7.32-.26,2.89-1.23,5.62-1.45,8.52-.15,1.9-1.16,3.74-1.79,5.6a8.37,8.37,0,0,0-.57,1.61c-.21,1.84-1.39,3.15-2.35,4.58-.24.35-.84.82-1.08.73-.44-.17-1.06-.72-1.05-1.09a1.52,1.52,0,0,0-1-1.66.78.78,0,0,1-.29-.68c.27-1.66-.4-3.37.06-5s1.28-2.89,1.84-4.37c1.15-3.1,2.69-6.06,3.06-9.44A38.1,38.1,0,0,1,22,76.56c.56-2.37,1.07-4.76,1.66-7.13a33.3,33.3,0,0,1,1.1-3.65,9.61,9.61,0,0,0,.55-3.48,2.17,2.17,0,0,0-.76-2,1.49,1.49,0,0,1-.19-2.4c.53-.56.79-1,.21-1.73-.26-.33-.31-.83.52-1.14,2.7-1,2.45-1.06,3.23,1.33a55.36,55.36,0,0,1,1.49,7.2c.21,1.16.18,2.37.44,3.52A74,74,0,0,0,32.3,75.5a36.87,36.87,0,0,0,5.11,10c.85,1.12,2.4,1.71,3.66,2.5.09.05.51-.22.63-.43.48-.89.88-1.83,1.37-2.71,1.24-2.23,2.51-4.45,3.79-6.66a4.86,4.86,0,0,0,.63-2.42A31.5,31.5,0,0,1,47.8,70c.28-1.37-.3-2.89-.31-4.34a23,23,0,0,1,2.89-10.93c.81-1.51,2.34-2,4-2.49,2.53-.69,4.25.82,6.12,1.86a3.93,3.93,0,0,1,1.35,2.07c.8,2.2,2.2,4.13,2.61,6.56.19,1.13.08,2.25.3,3.34a3.34,3.34,0,0,0,.31.63c.17-.22.47-.42.49-.65.17-1.93.13-3.89.47-5.79s.34-3.86,1.58-5.51c.44-.59.45-1.48.87-2.1,1.47-2.16,5.79-4.51,9-3.44.87.28,2.36-.08,2.13,1.68,0,0,.21.13.32.17,1.3.45,1.93,1.69,2.88,2.48a7.89,7.89,0,0,1,2.43,4.79c.76,3.52,2.09,6.84,3,10.3C88.92,71.38,90,74,90.77,76.8a21.53,21.53,0,0,0,3.22,6,28.43,28.43,0,0,0,3.56,3.64c2.49,2.48,4.92,2.64,7.6.45a10.14,10.14,0,0,0,3.59-5.29c.15-.59.39-.68.79-.56a.93.93,0,0,1,.47.64c.69,4.37-1.55,7.47-4.72,9.92a6.59,6.59,0,0,1-5.5.78,11.07,11.07,0,0,1-6.12-3.62A18.46,18.46,0,0,0,91.52,87a14.05,14.05,0,0,1-3.73-5,12.41,12.41,0,0,0-1.39-2.5c-.59-.75-1.38-1.33-1.07-2.45-1.69-2.88-1.2-6.39-2.77-9.35-.76-1.43-.73-3.26-1.39-4.76a11.19,11.19,0,0,0-5.32-5.11,1.43,1.43,0,0,0-1.23,0c-1.87,1.16-2.77,3.18-4,4.88-.34.47-.13,1.45,0,2.16a14.07,14.07,0,0,1-1,8.37,8.9,8.9,0,0,0-.48,6.18,18.1,18.1,0,0,1,.66,5,18.89,18.89,0,0,0,1.72,7.28,20.75,20.75,0,0,1,1,1.85,1.64,1.64,0,0,1-1.63,2.32c-.75,0-1.65.23-2.21-.11-.89-.53-1.05-.39-1,.54a.51.51,0,0,1-.33.37.59.59,0,0,1-.47-.24,13,13,0,0,1-2.13-5.93,45.14,45.14,0,0,0-1.1-5.89A9.72,9.72,0,0,1,63.52,83a29.12,29.12,0,0,0-.13-3.86c-.17-1.07.66-2,.17-3.09a23.15,23.15,0,0,1-1.23-4.21c-.49-2.19-1.54-4.23-1.7-6.5-.08-1.17-2.29-3-3.46-2.75s-2.53.44-3.11,2M53,54.31l0,.38a.81.81,0,0,1,.44-.38l0-.38a.86.86,0,0,1-.44.38M26.49,70.56l-.38,0a.89.89,0,0,1,.38.45.75.75,0,0,1,.41.41l.38,0A.86.86,0,0,1,26.9,71a.75.75,0,0,1-.41-.42M20.93,94.64l0,.38a.81.81,0,0,1,.44-.38l0-.39a.78.78,0,0,1-.44.39m6-27a.7.7,0,0,1-.41-.41,6.63,6.63,0,0,0,0-1.18c0-.11-.41-.15-.63-.22a6.61,6.61,0,0,0-.13,1.31c0,.13.51.2.79.5a.82.82,0,0,1,.41.42l.11.52.27-.08a3.41,3.41,0,0,1-.38-.86M70.1,92.37l.38,0A.9.9,0,0,1,70.1,92a5.8,5.8,0,0,0-.87-.34c-.06,0-.2.26-.3.41l1,.14c.06,0,.13,0,.2.2M81.62,54.11,81,53.94l-.06.27a1.09,1.09,0,0,1,.72.31l.58,1.4c.08-.08.23-.15.24-.23a1.46,1.46,0,0,0-.82-1.58M19.7,93.81a8.71,8.71,0,0,0-1,.58c-.87.66-.31,1.62-.45,2.44,0,.06.14.16.22.25a8.13,8.13,0,0,1,.3-1.5c.11-.29.5-.46.68-.74a4.61,4.61,0,0,1,.64-1l.16-.66L20,93.09a1.08,1.08,0,0,1-.3.72M77.92,52.87c-.92.49-.72,1.59-1.22,2.32,0,0,.2.27.34.34a.36.36,0,0,0,.35-.08c.46-1,.91-1.9,1.34-2.86a.57.57,0,0,0-.32-.19c-.1,0-.19.17-.49.47m-51,9.05.28.55a5.65,5.65,0,0,0,.51-1.4,2.44,2.44,0,0,0-.3-1.35c-1,0-.32.77-.48,1.19a4.13,4.13,0,0,0,0,1m43.61-7.4L70.37,54c-.09.05-.25.1-.26.16-.06.9.2,1.85-.4,2.68,0,0,.19.34.31.36s.47-.13.47-.22c0-.67,0-1.35,0-2.43M23.61,80.44l.3,1c.17-.07.5-.19.49-.2-.2-.6-.43-1.19-.66-1.79a5.14,5.14,0,0,0-.13,1m20.78,9.67c-.34,0-.68,0-1,0a1.37,1.37,0,0,0-.35.13c0,.09.09.27.14.27a13.47,13.47,0,0,0,2,0c.12,0,.18-.55.23-.86,0-.05-.21-.13-.32-.2a1.13,1.13,0,0,1-.69.69M22.78,84.55a8.29,8.29,0,0,0,.84-.43A2.1,2.1,0,0,0,24,83.7a1.6,1.6,0,0,0-.53-.16c-.79,0-1.27.32-.67,1m-.2,1.86a2,2,0,0,1,.29-.29c.21-.15.43-.28.65-.42-.26,0-.57-.19-.75-.09a5.71,5.71,0,0,0-1.06.86.62.62,0,0,0,.14.33,2,2,0,0,0,.73-.39m44.23-10.5-.82,0,1,1a2.1,2.1,0,0,0-.18-1M50.76,71l-.52-.62-1.07,1.08c.18,0,.38.18.54.14a3.49,3.49,0,0,0,1-.6m-.41,1.64-.24,1c.22-.14.59-.26.61-.44s1.11-.82-.37-.55m10.91-10.9c.28-.37.42-.74-.22-.8-.26,0-.54.18-.81.29a2.26,2.26,0,0,0,1,.51M32,78.59h-.2c-.36,0-.74-.68-1.06,0a4.88,4.88,0,0,0-.18.54l.92-.16c.25-.06.49-.14.52-.41M67.43,89.7a.93.93,0,0,0,.13-.15.19.19,0,0,0,0-.13,4.49,4.49,0,0,0-1-.12,1,1,0,0,0-.6.31c-.06,0,.11.32.18.49a4.18,4.18,0,0,1,1.24-.4M17,97.72l.27,1c.19-.12.51-.22.53-.36.05-.41.2-1-.8-.67m29.83-10.9c.07,0,.17,0,.19,0,.14-.21.27-.43.4-.64l-1.2,0,.61.62m-10.69,0-1,.67c.11.05.21.14.32.14.43,0,1,.16.66-.81m15-12.14c-.27,0-.54,0-.82,0a2.29,2.29,0,0,0,0,.37.76.76,0,0,0,.82-.39m-13,13.37-.54.14h1.5a4.66,4.66,0,0,0-1-.14M84.09,61.51l.47.62.35-.35a1,1,0,0,0-.82-.27M21.76,90.11c-.15.14-.35.26-.42.44a2.61,2.61,0,0,0-.1.69,2.27,2.27,0,0,0,.57-.38c.11-.13.1-.36,0-.75m81.46-.41-.61.47.35.35a1,1,0,0,0,.26-.82M64.55,83.11l.61-.47-.35-.35a1,1,0,0,0-.26.82m8.84-26.95.82-.42a.85.85,0,0,0-.82.42M68.25,93l-.52.11.61.62a1,1,0,0,0-.09-.73M31.63,80.23l.42.82a.84.84,0,0,0-.42-.82m-9.26,8.85.14.54c.09-.11.28-.3.26-.32-.16-.2.43-.88-.4-.22M63.52,66.45a.66.66,0,0,0-.15-.14.18.18,0,0,0-.13,0c-.05.32-.1.63-.12,1,0,0,.17.09.27.14a6.48,6.48,0,0,0,.13-1m5.76,3.29a1.2,1.2,0,0,0,0-.38,6.37,6.37,0,0,0-.23-.61,1.44,1.44,0,0,0-.16.51c0,.23.12.46.4.48m22.84,13-.43-.81a.83.83,0,0,0,.43.81M66.4,84.55c-.3-.06-.59-.15-.89-.19-.09,0-.21.1-.31.16a1.69,1.69,0,0,0,.41.23,1.13,1.13,0,0,0,.79-.2M65,74.06l.4.4.18-.64c-.26,0-.52,0-.58.24M35.54,85.38a1.27,1.27,0,0,0,0-.39c-.06-.21-.15-.4-.23-.61a1.5,1.5,0,0,0-.16.51c0,.24.12.46.4.49m4.94,6.17c-.22-.06-.44-.12-.66-.16a1.65,1.65,0,0,0-.07.26,1,1,0,0,0,.73-.1M107.55,87l-.42.21c.14.07.28.14.42-.21M68.66,83.94l-.52.11c0,.08.07.25.07.25.22,0,.44-.1.45-.36M33.48,82.5l.11.52.26-.07c-.05-.22-.11-.44-.37-.45M22.37,80.44l.11.52a1.65,1.65,0,0,0,.26-.07c0-.22-.11-.44-.37-.45M49.94,75.5l-.66-.16s0,.17-.07.26a1,1,0,0,0,.73-.1M66.6,71.18l-.52.11c0,.09.07.26.07.26.23,0,.44-.11.45-.37M83.89,59.25c0-.22.11-.44.15-.66l-.25-.07a1,1,0,0,0,.1.73m-23.46-.82.52-.11a1.65,1.65,0,0,0-.07-.26c-.22,0-.44.1-.45.37M26.28,58c-.06.22-.11.44-.16.66l.26.07a1,1,0,0,0-.1-.73m25.31-1.44-.11-.52-.26.07c.05.23.1.44.37.45M19.7,99.16l-.17.25c.13,0,.25,0,.17-.25m24.07-4.32-.25-.16c0,.12,0,.24.25.16m-24.69-3.7L18.83,91c0,.13,0,.25.25.17m85.79-2.27.17-.24c-.13,0-.25,0-.17.24m-58.22-.61-.25-.17c0,.13,0,.25.25.17m-2.26-.21-.17.25c.12,0,.25,0,.17-.25m24.07-.62.24.17c0-.12,0-.25-.24-.17m-35-2.88-.25-.16c0,.12,0,.25.25.16m33.74-1.23L67,83.16c0,.12,0,.24.25.16M24,77.56l.25.16c0-.12,0-.24-.25-.16m.62-3.09-.17.25c.12,0,.25,0,.17-.25m62.74-1.85.25.17c0-.13,0-.25-.25-.17M29.16,70.77l.17-.25c-.13,0-.25,0-.17.25M84.5,65.63l.25.16c0-.12,0-.25-.25-.16M26.08,64.8l.24.17c0-.12,0-.25-.24-.17m26.33-.41.25.17c0-.13,0-.25-.25-.17M69.69,61.1l.25.17c0-.13,0-.25-.25-.17M59.4,57.4l-.24-.17c0,.13,0,.25.24.17M60,56l-.16.24c.12,0,.24,0,.16-.24M26.28,56l-.16.24c.12,0,.24,0,.16-.24m31.48-1.44.25.16c0-.12,0-.24-.25-.16m16.05-1.65.24.17C74,52.91,74,52.79,73.81,52.87Z"/><path class="cls-1" d="M456.47,173.64a22.4,22.4,0,0,1,2.67,3.61,5.48,5.48,0,0,1-1,6.47c-.79.77-1.58,1.53-2.32,2.33-1.16,1.24-1.34,4.82-.33,6.12a29.72,29.72,0,0,0,1.9,2.3c3.3,3.46,2.46,7.6-.42,10.5-1.42,1.43-1.68,2.73-.74,4.39.06.12.27.22.25.3-.43,2,.61,3.42,1.66,4.87a3.46,3.46,0,0,1,.2,3.45,6.54,6.54,0,0,1-2.45,3.22c-1.5.77-1.5,2.44-2.68,3.26a.48.48,0,0,0,0,.39c1.42.6.19,1.22,0,1.75-.78,1.91-.21,3.71.29,5.52a5.14,5.14,0,0,1-1.53,4c-.31.19-.81.47-1,.35-1.92-1.08-4.26-1.68-5.13-4.09a5.07,5.07,0,0,1-.39-.86A24.75,24.75,0,0,1,445,228a18.46,18.46,0,0,1,.38-3.12c.3-1.72.55-3.45,1-5.14a11.67,11.67,0,0,1,2.58-4.68c1.28-1.48,1.24-1.73,0-3.13a18.45,18.45,0,0,1-1.92-2.5,6.41,6.41,0,0,1-.23-6.18c.4-.93,1-1.77,1.42-2.7a17.87,17.87,0,0,0,1-3.53,6.09,6.09,0,0,0-1.17-5,6.75,6.75,0,0,1-1-3.9,6.61,6.61,0,0,0-.44-3.09c-.55-1.08-.17-2.12-.36-3.15-.14-.77.74.25.94-.66a17.68,17.68,0,0,1,2.12-4.65,2.06,2.06,0,0,0-.18-2.2c-.65-1.17-1.42-2.29-2.05-3.47a6.47,6.47,0,0,1-.79-2.13c-.19-1.31-.25-2.66-.32-4a13.08,13.08,0,0,1,1.17-5c.71-1.89,1.72-3.67,2.58-5.51a7.38,7.38,0,0,0,.14-4.88,13.17,13.17,0,0,1,.51-6.92,18.85,18.85,0,0,1,4.09-6.94c.88-1.06,1.65-2.2,2.5-3.28.37-.47.62-.76,1.45-.34a4.36,4.36,0,0,1,2.27,2.14,29.62,29.62,0,0,0,1.87,3.34,4,4,0,0,1,.57,2.64c-.1,1.06-.68,1.59-1.81,1.87a5.24,5.24,0,0,0-3.78,3.47,10.82,10.82,0,0,0,.16,4.82c.39,2.16,1.42,4.15,1.35,6.44a11.62,11.62,0,0,1-2.59,7c-.17.21-.46.35-.57.59-.46,1-1.06,1.84-.62,3.14a11.71,11.71,0,0,1,.9,5c0,.33.25.71.39,1.27m0-18.73c.36.29.73.43.8-.21,0-.26-.19-.54-.29-.81a2.27,2.27,0,0,0-.51,1m2-13.16.25.16C458.76,141.79,458.74,141.67,458.52,141.75Z"/><path class="cls-1" d="M22.06,30.14c1.51.49,3,.66,4.23,1.89A6.56,6.56,0,0,1,28,39.49c-.78,2.12-1,2.32-3.25,1.71-.76-.21-1.82.63-2.27-.62A8.63,8.63,0,0,1,22,38.93c-.17-1.1-.27-2.21-.43-3.31a1.11,1.11,0,0,0-.27-.7c-1.32-1,0-1.36.5-1.53s.57-.3.45-.91S21,31.08,22.06,30.14Z"/><path class="cls-1" d="M30.09,355.09a.18.18,0,0,1,.1.2l-.24,1A4.5,4.5,0,0,1,30.09,355.09Z"/><path class="cls-1" d="M32.76,372.06a1.44,1.44,0,0,1,.63,0l-.62.62A1.3,1.3,0,0,1,32.76,372.06Z"/><path class="cls-1" d="M30.09,294.09a1.29,1.29,0,0,1-.68.1A2,2,0,0,1,29,294c.11-.05.22-.17.32-.16A1.51,1.51,0,0,1,30.09,294.09Z"/><path class="cls-1" d="M133.57,136.3a.82.82,0,0,1,.26.55s-.17,0-.25.07A1.15,1.15,0,0,1,133.57,136.3Z"/><path class="cls-1" d="M171.32,406.11c.14-.13.28-.07.41,0C171.6,406.18,171.46,406.25,171.32,406.11Z"/><path class="cls-1" d="M158.88,429.67a1.26,1.26,0,0,1,0,.62l-.26-.07A.87.87,0,0,1,158.88,429.67Z"/><path class="cls-1" d="M159.49,436.05a1.3,1.3,0,0,1,0-.63l.25.07A.87.87,0,0,1,159.49,436.05Z"/><path class="cls-1" d="M159,444c.14-.14.27-.07.41,0C159.25,444,159.12,444.1,159,444Z"/><path class="cls-1" d="M503.37,203.57a.6.6,0,0,1-.38-.13A.57.57,0,0,1,503.37,203.57Z"/><path class="cls-1" d="M503.37,203.78a.52.52,0,0,1,.38.13A.6.6,0,0,1,503.37,203.78Z"/><path class="cls-1" d="M30.29,355.09a.6.6,0,0,1,.14-.38A.55.55,0,0,1,30.29,355.09Z"/><path class="cls-1" d="M414.39,173.12a3.7,3.7,0,0,1-1,.5c-.15,0-.36-.09-.54-.15.12-.14.22-.39.36-.41A2.82,2.82,0,0,1,414.39,173.12Z"/><path class="cls-1" d="M410.69,164.48a7.47,7.47,0,0,1-.94.5,2.19,2.19,0,0,1,.35-.7C410.3,164.1,410.74,163.19,410.69,164.48Z"/></g></g></g></svg>